<svg id="Слой_1" data-name="Слой 1" xmlns="http://www.w3.org/2000/svg" xmlns:xlink="http://www.w3.org/1999/xlink" viewBox="0 0 97.7 101.96"><defs><clipPath id="clip-path" transform="translate(0)"><rect width="97.7" height="101.96" fill="none" opacity="0"/></clipPath></defs><g clip-path="url(#clip-path)"><path d="M3.08.25.25,0,0,2.82l2.82.26ZM89.58,102,97.7,84.34l-7.25.23-.08-2.44-2.84.1.08,2.43-7.26.23Zm.68-22.67c0-1-.08-1.89-.13-2.84l-2.83.14c0,.94.09,1.88.13,2.82l2.83-.12ZM90,73.6c-.06-.95-.14-1.91-.22-2.86L86.93,71c.08.93.15,1.87.21,2.8Zm-.49-5.71C89.39,67,89.27,66,89.14,65l-2.81.38c.12.91.24,1.85.33,2.77Zm-.77-5.7c-.16-.95-.33-1.89-.52-2.84l-2.78.57c.19.91.35,1.82.5,2.74l2.8-.47ZM84.14,54.7c.24.83.46,1.67.66,2.51l2.76-.68c-.23-.93-.48-1.87-.75-2.8l-2.72.8,0,.17,2.72-.79.7,2.62L84.14,54.7ZM85.94,51c-.31-.91-.64-1.82-1-2.72l-2.64,1c.34.85.65,1.73,1,2.6Zm-2.11-5.39c-.37-.86-.79-1.81-1.23-2.63l-2.53,1.27c.41.82.8,1.66,1.17,2.51l2.59-1.15Zm-2.57-5.19c-.45-.83-1-1.71-1.45-2.51l-2.42,1.48c.47.79,1,1.59,1.39,2.4Zm-3-5c-.54-.8-1.09-1.6-1.66-2.37L74.3,34.75c.55.75,1.08,1.5,1.6,2.27Zm-3.42-4.67C74.22,30,73.6,29.29,73,28.55l-2.14,1.86c.61.7,1.2,1.41,1.78,2.14l2.21-1.78ZM71,26.41c-.67-.7-1.34-1.39-2-2.06l-2,2q1,1,2,2L71,26.41ZM66.9,22.36c-.72-.64-1.44-1.27-2.18-1.89L62.9,22.65c.72.6,1.41,1.2,2.11,1.82Zm-4.43-3.7c-.77-.58-1.54-1.16-2.32-1.72l-1.64,2.31c.74.56,1.49,1.09,2.23,1.66Zm-4.7-3.35c-.81-.53-1.62-1.05-2.44-1.54l-1.47,2.42c.79.48,1.57,1,2.35,1.49Zm-4.94-3c-.84-.47-1.69-.92-2.55-1.36L49,13.49c.82.42,1.64.85,2.45,1.3l1.38-2.47ZM47.68,9.7Q46.38,9.1,45,8.53L44,11.15c.86.36,1.7.73,2.54,1.12ZM42.36,7.47c-.9-.34-1.81-.66-2.72-1l-.9,2.69c.88.3,1.75.61,2.62.93l1-2.65ZM36.89,5.64C36,5.36,35,5.11,34.11,4.86L33.4,7.61c.9.23,1.79.48,2.68.74l.81-2.72ZM31.32,4.18c-.93-.21-1.87-.42-2.81-.61L28,6.35c.91.19,1.82.38,2.73.59l.64-2.76ZM25.7,3q-1.41-.25-2.82-.48l-.45,2.8,2.77.47Zm-5.65-.91-2.83-.38-.36,2.81,2.79.38Zm-5.66-.73-2.83-.31-.3,2.82,2.81.31.32-2.82ZM8.73.79,5.9.52,5.64,3.34l2.81.27L8.73.79Z" transform="translate(0)"/></g></svg>