<svg id="Слой_1" data-name="Слой 1" xmlns="http://www.w3.org/2000/svg" xmlns:xlink="http://www.w3.org/1999/xlink" viewBox="0 0 16.5 16.55"><defs><clipPath id="clip-path" transform="translate(-0.23 -0.18)"><rect width="17" height="17" fill="none"/></clipPath></defs><g clip-path="url(#clip-path)"><path d="M7.92.18a8.33,8.33,0,0,1,7.75,4.19,8.42,8.42,0,0,1,.6,6.87,2.77,2.77,0,0,1-3,1.74,2.8,2.8,0,0,1-2.09-1.51,4,4,0,0,1-3.82.85A4.09,4.09,0,0,1,4.65,9.68,4,4,0,0,1,10,4.78a4.43,4.43,0,0,1,.85.48.81.81,0,0,1,1.59-.2c0,1.81,0,3.61.07,5.42a1.26,1.26,0,0,0,1.16.93,1.29,1.29,0,0,0,1.16-1.07A6.62,6.62,0,1,0,9.61,15a7.2,7.2,0,0,0,2.46-.93.81.81,0,0,1,1.06.78.92.92,0,0,1-.63.85,8.31,8.31,0,0,1-6.44.66A8.21,8.21,0,0,1,.57,10.81,8.33,8.33,0,0,1,2.16,3.1,8.46,8.46,0,0,1,7.92.18Zm.56,5.91a2.43,2.43,0,0,1,2.28,1.73A2.37,2.37,0,0,1,6.64,10a2.45,2.45,0,0,1-.26-2.59A2.48,2.48,0,0,1,8.48,6.09Z" transform="translate(-0.23 -0.18)" fill-rule="evenodd" opacity="0.98" style="isolation:isolate"/></g></svg>