<svg id="Слой_1" data-name="Слой 1" xmlns="http://www.w3.org/2000/svg" xmlns:xlink="http://www.w3.org/1999/xlink" viewBox="0 0 37 33"><defs><clipPath id="clip-path" transform="translate(0 0)"><rect width="37" height="33" fill="none"/></clipPath></defs><g clip-path="url(#clip-path)"><path d="M17,15.78c.86-1.64-.14-.63,1.48-1.49,1.62.86.63-.15,1.48,1.49-.85,1.64.14.63-1.48,1.5C16.88,16.41,17.88,17.42,17,15.78Zm-3-13.1c0-1.85,2.92-1.12,7.77-1.12,1.4,0,1.11.87,1.11,3H14.06Zm-1.48-.75V4.55H1.85A2.12,2.12,0,0,0,0,6.43V16.91a2.11,2.11,0,0,0,1.85,1.87H35.16A2.1,2.1,0,0,0,37,16.91V6.43a2.11,2.11,0,0,0-1.84-1.88H24.43c0-5.4.31-4.49-10-4.49a2.11,2.11,0,0,0-1.85,1.87Z" transform="translate(0 0)" fill-rule="evenodd"/><path d="M0,31.88C.76,32.39,1,33,1.85,33h33.3c.89,0,1.09-.61,1.85-1.12L36.51,19A2.75,2.75,0,0,1,34,20.27c-4,0-31.32.48-32.89-.41C.26,19.37.38,19,0,18.4Z" transform="translate(0 0)" fill-rule="evenodd"/></g></svg>