<?xml version="1.0" encoding="utf-8"?>
<!-- Generator: Adobe Illustrator 28.4.1, SVG Export Plug-In . SVG Version: 6.00 Build 0)  -->
<svg version="1.1" id="Слой_1" xmlns="http://www.w3.org/2000/svg" xmlns:xlink="http://www.w3.org/1999/xlink" x="0px" y="0px"
	 viewBox="0 0 49 49" enable-background="new 0 0 49 49" xml:space="preserve">
<g>
	<defs>
		<rect id="SVGID_1_" width="49" height="49"/>
	</defs>
	<clipPath id="SVGID_00000182508460633842720750000016103608217453038739_">
		<use xlink:href="#SVGID_1_"  overflow="visible"/>
	</clipPath>
	<g clip-path="url(#SVGID_00000182508460633842720750000016103608217453038739_)">
		<path opacity="0.938" fill-rule="evenodd" clip-rule="evenodd" enable-background="new    " d="M23.6,0c0.6,0,1.1,0,1.7,0
			c2.3,0.8,3.2,2.4,2.9,4.8c-0.2,0.9-0.7,1.6-1.5,2.2c-0.1,0.9-0.1,1.7-0.1,2.6c5.4,0,10.7,0,16.1,0c1.2,0.4,1.7,1.1,1.6,2.3
			c-0.2,0.8-0.7,1.3-1.5,1.6c-0.7,0-1.3,0.1-2,0.1c2.3,5,4.5,10,6.8,14.9c0.9,0.2,1.3,0.7,1.1,1.6c-0.5,0.9-1,1.9-1.4,2.8
			c-0.4,0.5-0.9,0.9-1.5,1.1c-4.1,0.2-8.3,0.2-12.4,0.1c-0.8-0.2-1.5-0.6-2-1.3c-0.4-0.9-0.9-1.7-1.3-2.6c-0.2-0.5-0.2-1,0.2-1.4
			c0.3-0.1,0.6-0.2,0.8-0.3c2.3-5,4.5-10,6.8-15c-3.8,0-7.5-0.1-11.3,0c0,0.9,0,1.9,0,2.8c-0.2,0.6-0.6,0.7-1.2,0.5
			c-0.1-0.1-0.2-0.2-0.2-0.3c-0.1-1.3-0.1-2.7,0-4c0.1-0.2,0.3-0.4,0.5-0.4c5.6,0,11.2-0.1,16.8-0.1c0.4-0.3,0.4-0.6-0.1-0.9
			c-5.6,0-11.3-0.1-16.9-0.1c-0.1-0.1-0.2-0.2-0.3-0.3c0-1-0.1-2-0.1-3.1c-0.4,0.1-0.8,0.1-1.1,0c-0.1,1-0.1,2-0.1,3.1
			c-0.1,0.1-0.2,0.2-0.3,0.3c-5.6,0-11.3,0.1-16.9,0.1C6,11.3,6,11.6,6.4,12c5.6,0,11.2,0.1,16.8,0.1c0.2,0,0.3,0.1,0.4,0.2
			c0.1,9.3,0.2,18.7,0.1,28c0.4,0,0.9,0,1.3,0c0-7.1,0-14.1,0-21.2c0.6-0.5,1-0.5,1.4,0.2c0,7,0.1,14,0,21c1.9,0,3.8,0,5.6,0
			c0.8,0.2,1.3,0.7,1.7,1.4c0.1,0.7,0.2,1.4,0.1,2.1c1.2-0.2,2.3,0.1,3.1,1.1c0.1,0.2,0.2,0.4,0.3,0.7c0.1,1,0.1,2,0,3
			c-0.1,0.2-0.2,0.3-0.3,0.4c-8.5,0-17,0-25.5,0c-0.2-0.1-0.3-0.2-0.3-0.4c-0.1-1-0.1-2,0-3c0.3-0.7,0.8-1.3,1.5-1.6
			c0.6-0.1,1.3-0.2,1.9-0.1c-0.3-1.4,0.1-2.5,1.2-3.3c0.2-0.1,0.4-0.1,0.6-0.2c1.9,0,3.8-0.1,5.6,0c0-8.9,0-17.9,0-26.8
			c-3.8,0-7.5,0-11.3,0c2.3,5,4.6,10,6.8,15c0.3,0.1,0.5,0.2,0.8,0.3c0.4,0.4,0.5,0.9,0.2,1.4c-0.5,0.8-0.9,1.7-1.3,2.6
			c-0.5,0.7-1.1,1.1-2,1.3c-4.2,0.1-8.3,0.1-12.4-0.1C2.5,33.9,2,33.5,1.6,33c-0.5-0.9-1-1.9-1.4-2.8c-0.2-0.9,0.2-1.5,1.1-1.6
			c2.3-5,4.5-10,6.8-14.9c-0.7-0.1-1.3-0.1-2-0.1c-1.4-0.5-1.8-1.5-1.3-2.9c0.3-0.5,0.8-0.9,1.4-1c5.4,0,10.7-0.1,16.1,0
			c0-0.9,0-1.7-0.1-2.6c-1.5-1.3-1.9-2.8-1.3-4.7C21.4,1.1,22.4,0.3,23.6,0z M23.9,1.5c1.7-0.1,2.7,0.7,3,2.3
			c-0.2,1.4-1,2.2-2.4,2.3c-1.4-0.2-2.2-1-2.4-2.3C22.2,2.7,22.8,1.9,23.9,1.5z M9.5,14.2c2.2,4.8,4.4,9.6,6.6,14.4
			c-4.4,0-8.7,0.1-13.1,0C5.2,23.8,7.3,19,9.5,14.2z M39.3,14.2c0.2,0.1,0.3,0.3,0.3,0.5c2.1,4.6,4.2,9.3,6.3,14
			c-4.4,0-8.7,0-13.1,0C35,23.8,37.2,19,39.3,14.2z M2,30.3c5-0.1,10.1-0.1,15.1,0c-0.3,0.7-0.6,1.3-1,1.9c-0.2,0.2-0.5,0.3-0.8,0.4
			c-3.8,0.1-7.7,0.1-11.5,0c-0.4-0.1-0.7-0.3-0.9-0.6C2.6,31.4,2.3,30.8,2,30.3z M31.8,30.2c5,0,10.1,0,15.1,0
			c-0.3,0.6-0.6,1.2-0.9,1.8c-0.2,0.3-0.5,0.5-0.9,0.6c-3.8,0.1-7.7,0.1-11.5,0c-0.3-0.1-0.6-0.2-0.8-0.4
			C32.4,31.6,32.1,30.9,31.8,30.2z M16.9,41.9c5,0,10.1,0,15.1,0c0.2,0.1,0.4,0.3,0.5,0.5c0,0.5,0.1,1,0,1.4c-3.7,0-7.5,0-11.2,0
			c-0.7,0.5-0.7,0.9-0.1,1.4c4.7,0,9.4,0.1,14.1,0.1c0.3,0.1,0.5,0.2,0.6,0.5c0,0.5,0.1,1,0,1.4c-7.7,0-15.4,0-23.2,0
			c0-0.5,0-1,0-1.4c0.1-0.2,0.2-0.3,0.3-0.4c1.8-0.1,3.6-0.2,5.4-0.2c0.6-0.4,0.6-0.9,0.1-1.3c-0.8-0.1-1.6-0.2-2.4-0.1
			c0-0.5,0-1,0-1.4C16.5,42.2,16.7,42,16.9,41.9z"/>
	</g>
</g>
</svg>
