<svg id="Слой_1" data-name="Слой 1" xmlns="http://www.w3.org/2000/svg" viewBox="0 0 46.82 35.93"><path d="M23.68,7.28l-.24.23v8.42l.24.23.24.25H40.15l.23-.25c.24-.22.25-.28.25-1.56V13.28h1.56v2.31l-.45.47A4.91,4.91,0,0,0,41,17.18c-.3.62-.31.68-.31,2s0,1.34.31,2a4.7,4.7,0,0,0,.76,1.12l.45.48v4.61l-.45.46a4.92,4.92,0,0,0-1,1.79c0,.1-.46.13-2,.13h-2l-.48-.45a4.64,4.64,0,0,0-1.11-.76l-.65-.31H32.81c-1.67,0-1.72,0-2.29.28a4,4,0,0,0-.75.42c-.15.14-.22.1-.77-.48a5.44,5.44,0,0,0-2.22-1.51c-.61-.24-.8-.26-2.74-.3l-2.08,0L21.57,26a11.05,11.05,0,0,0-6.86-4.63,11.94,11.94,0,0,0-3.91-.1,11,11,0,0,0-8.92,8.15A7.76,7.76,0,0,0,1.62,32a7.86,7.86,0,0,0,.26,2.66A10.93,10.93,0,0,0,21.43,38.3l.56-.8h1.77c2.07,0,2.79-.13,3.76-.63a6.55,6.55,0,0,0,1.86-1.56c.2-.26.22-.27.39-.12a5.31,5.31,0,0,0,.75.43,3.87,3.87,0,0,0,1.94.3c2,.06,2.88-.2,3.84-1.11l.46-.43h4.61l.48.44a5,5,0,0,0,1.11.77,2.75,2.75,0,0,0,1.57.3,2.72,2.72,0,0,0,1.58-.31A3.71,3.71,0,0,0,48,33.71a3.46,3.46,0,0,0,.41-2.1c0-2-.21-2.89-1.12-3.85l-.43-.45V22.7l.43-.46a4.05,4.05,0,0,0,1.13-3.1,4,4,0,0,0-1.12-3.08l-.43-.45,0-2,0-2-.37-.74A3.69,3.69,0,0,0,44.55,9c-.64-.31-.69-.32-2.28-.35l-1.64,0V8.05c0-.44,0-.58-.25-.77L40.15,7H23.92Zm15.38,4.44v3.12H25V8.59H39.06Zm3.13-.78v.78H40.63V10.16h1.56Zm1.94-.44a2.67,2.67,0,0,1,1.07,1.31,10,10,0,0,1,.11,1.73v1.35H43.75V12.62c0-1.24,0-2.27,0-2.27A1.49,1.49,0,0,1,44.13,10.5Zm1.12,6A2.93,2.93,0,0,1,46.76,18a5.19,5.19,0,0,1,0,2.22,2.93,2.93,0,0,1-1.51,1.51,2.13,2.13,0,0,1-2.33-.62,2.29,2.29,0,0,1-.73-2,2.31,2.31,0,0,1,.73-2A2.17,2.17,0,0,1,45.25,16.52ZM14.79,23a8.73,8.73,0,0,1,4.3,2.49,8.85,8.85,0,0,1,2.5,4.35,11.48,11.48,0,0,1,.06,4.33,9.06,9.06,0,0,1-2.56,4.5A8.84,8.84,0,0,1,13,41.37,9.45,9.45,0,0,1,3.83,35.6,8.13,8.13,0,0,1,3.18,32a7.71,7.71,0,0,1,.64-3.5,9.6,9.6,0,0,1,4.92-5.07,8.17,8.17,0,0,1,4.1-.75A7.9,7.9,0,0,1,14.79,23ZM45.31,25v1.61H43.75V23.39h1.56ZM26.58,28.49a4.27,4.27,0,0,1,1.77,1.56c.14.26.14.33,0,.72a5.12,5.12,0,0,0,0,2.52c.14.37.15.47,0,.68a3.83,3.83,0,0,1-1.69,1.55l-.74.37-1.6,0c-1.54,0-1.62,0-1.57-.15s.14-.46.23-.8l.17-.6h1.08a7.1,7.1,0,0,0,1.47-.12,2.93,2.93,0,0,0,1.51-1.51,2.15,2.15,0,0,0-.62-2.33c-.61-.61-1-.73-2.36-.73H23.17L23,29.07c-.09-.33-.2-.68-.23-.79s0-.17,1.56-.14S26,28.18,26.58,28.49Zm18.67-.25a2.93,2.93,0,0,1,1.51,1.51,7.23,7.23,0,0,1,.12,1.5,7.23,7.23,0,0,1-.12,1.5,2.93,2.93,0,0,1-1.51,1.51,2.13,2.13,0,0,1-2.33-.62c-.63-.61-.73-1-.73-2.39s.1-1.78.73-2.39A2.15,2.15,0,0,1,45.25,28.24ZM34.32,29.81A2.57,2.57,0,0,1,35.94,32a2.6,2.6,0,0,1-1.62,2.23,10.12,10.12,0,0,1-3,0,2.93,2.93,0,0,1-1.51-1.51,2.15,2.15,0,0,1,.62-2.33,2.75,2.75,0,0,1,.83-.61A10.89,10.89,0,0,1,34.32,29.81Zm-8.78,1.68a.81.81,0,0,1,.24.54.79.79,0,0,1-.24.54c-.22.22-.32.24-1.17.24h-.93V31.25h.93C25.22,31.25,25.32,31.27,25.54,31.49Zm15.09.39a4.19,4.19,0,0,0,0,.78c0,.13-.12.15-1.58.15H37.45V31.25h3.18Z" transform="translate(-1.62 -7.03)"/><path d="M34.38,11.72v1.56h1.56V10.16H34.38Z" transform="translate(-1.62 -7.03)"/><path d="M43.75,19.14v1.17h1.56V18H43.75Z" transform="translate(-1.62 -7.03)"/><path d="M10.94,25v.78H12.5V24.22H10.94Z" transform="translate(-1.62 -7.03)"/><path d="M7.81,26.56v.78H9.38V25.78H7.81Z" transform="translate(-1.62 -7.03)"/><path d="M17,36a5.55,5.55,0,0,1-4.47,2.33h-.73l-.06.39c0,.22-.09.57-.12.78l-.06.39h1a6.25,6.25,0,0,0,2.82-.58,7.14,7.14,0,0,0,2.95-2.46l.31-.45-.34-.21-.67-.4-.33-.19Z" transform="translate(-1.62 -7.03)"/><path d="M8.59,38.28v.78h1.57V37.5H8.59Z" transform="translate(-1.62 -7.03)"/><path d="M43.75,31.25v1.56h1.56V29.69H43.75Z" transform="translate(-1.62 -7.03)"/><path d="M31.25,32v.78h3.13V31.25H31.25Z" transform="translate(-1.62 -7.03)"/></svg>