<svg id="Слой_1" data-name="Слой 1" xmlns="http://www.w3.org/2000/svg" xmlns:xlink="http://www.w3.org/1999/xlink" viewBox="0 0 24 33"><defs><clipPath id="clip-path" transform="translate(0 -0.01)"><rect width="24" height="33" fill="none"/></clipPath></defs><g clip-path="url(#clip-path)"><path d="M4.36,6.81C4.36,3.32,3,4.3,18.55,4.3c1.62,0,1.62,3.59,0,3.59H5.46c-.84,0-1.1-.25-1.1-1.08ZM0,2.87V30.13A2.72,2.72,0,0,0,2.91,33H24V31.57H3.63a2.39,2.39,0,0,1-2.18-1.08C1.76,29.2,2,28.7,3.63,28.7H24V27.27H3.63a2.39,2.39,0,0,1-2.18-1.08c.31-1.3.57-1.79,2.18-1.79H24V0H2.91A2.71,2.71,0,0,0,0,2.88Z" transform="translate(0 -0.01)" fill-rule="evenodd"/></g></svg>