<svg width="50" height="50" viewBox="0 0 50 50" fill="none" xmlns="http://www.w3.org/2000/svg">
<g clip-path="url(#clip0_531_150)">
<path opacity="0.914" fill-rule="evenodd" clip-rule="evenodd" d="M49.9512 12.6465C49.9512 17.1712 49.9512 21.696 49.9512 26.2207C49.1559 26.7 48.342 27.1558 47.5098 27.5879C47.4284 34.0329 47.3796 40.4783 47.3633 46.9239C47.2213 48.4006 46.4238 49.2957 44.9707 49.6094C31.6243 49.6745 18.278 49.6745 4.93164 49.6094C3.47855 49.2957 2.68103 48.4006 2.53906 46.9239C2.52278 40.4783 2.47396 34.0329 2.39258 27.5879C1.56033 27.1558 0.74653 26.7 -0.0488281 26.2207C-0.0488281 21.696 -0.0488281 17.1712 -0.0488281 12.6465C0.202941 12.0208 0.658671 11.6139 1.31836 11.4258C3.36889 11.377 5.41967 11.3607 7.4707 11.377C7.45445 10.6276 7.47073 9.87884 7.51953 9.13089C7.56836 9.08206 7.61719 9.03323 7.66602 8.9844C8.41472 8.95185 9.16341 8.9193 9.91211 8.88675C10.8147 7.98368 11.775 7.1536 12.793 6.39651C12.8581 6.29886 12.8581 6.2012 12.793 6.10354C12.5552 5.72542 12.3436 5.33479 12.1582 4.93167C12.2317 4.71161 12.3619 4.53258 12.5488 4.39456C20.9108 -1.17039 29.2441 -1.13784 37.5488 4.49222C37.7136 4.67903 37.7624 4.89062 37.6953 5.12698C37.4876 5.52634 37.2435 5.90069 36.9629 6.25003C38.0298 7.05607 39.0389 7.93498 39.9902 8.88675C40.739 8.9193 41.4876 8.95185 42.2363 8.9844C42.2852 9.03323 42.334 9.08206 42.3828 9.13089C42.4316 9.87884 42.4479 10.6276 42.4316 11.377C44.4827 11.3607 46.5335 11.377 48.584 11.4258C49.2437 11.6139 49.6994 12.0208 49.9512 12.6465ZM24.0723 1.31839C28.6095 1.21427 32.711 2.4838 36.377 5.12698C36.0176 5.78181 35.6106 6.40029 35.1562 6.98245C28.3336 2.53071 21.5302 2.56326 14.7461 7.08011C14.3007 6.47154 13.8938 5.83678 13.5254 5.17581C16.7111 2.96934 20.2268 1.68352 24.0723 1.31839ZM23.877 4.73636C27.1228 4.56843 30.1501 5.30085 32.959 6.93362C33.6751 7.38935 34.3913 7.84508 35.1074 8.30081C35.3094 8.36789 35.5047 8.35161 35.6934 8.25198C35.9212 7.92646 36.1491 7.60094 36.377 7.27542C37.0707 7.75723 37.7217 8.29433 38.3301 8.88675C37.972 8.9193 37.614 8.95185 37.2559 8.9844C37.207 9.03323 37.1582 9.08206 37.1094 9.13089C37.0605 9.87884 37.0443 10.6276 37.0605 11.377C28.9876 11.377 20.9147 11.377 12.8418 11.377C12.858 10.6276 12.8418 9.87884 12.793 9.13089C12.7441 9.08206 12.6953 9.03323 12.6465 8.9844C12.2559 8.95185 11.8652 8.9193 11.4746 8.88675C12.1151 8.31448 12.7824 7.77737 13.4766 7.27542C13.7087 7.62581 13.9528 7.96761 14.209 8.30081C14.4043 8.36592 14.5996 8.36592 14.7949 8.30081C17.5472 6.39097 20.5745 5.20281 23.877 4.73636ZM8.54492 10.0098C9.61914 10.0098 10.6934 10.0098 11.7676 10.0098C11.7676 10.4656 11.7676 10.9212 11.7676 11.377C10.6934 11.377 9.61914 11.377 8.54492 11.377C8.54492 10.9212 8.54492 10.4656 8.54492 10.0098ZM38.1348 10.0098C39.209 10.0098 40.2832 10.0098 41.3574 10.0098C41.3574 10.4656 41.3574 10.9212 41.3574 11.377C40.2832 11.377 39.209 11.377 38.1348 11.377C38.1348 10.9212 38.1348 10.4656 38.1348 10.0098ZM1.61133 12.4512C17.1713 12.4349 32.7312 12.4512 48.291 12.5C48.6555 12.6591 48.8671 12.9358 48.9258 13.3301C48.9909 17.3992 48.9909 21.4681 48.9258 25.5371C45.8575 27.2585 42.7813 28.9675 39.6973 30.6641C36.9631 30.7129 34.2287 30.7292 31.4941 30.7129C31.5104 29.7033 31.4941 28.6942 31.4453 27.6856C31.4152 27.6067 31.3664 27.5415 31.2988 27.4903C29.3498 27.4257 27.3967 27.3932 25.4395 27.3926C23.4822 27.3932 21.5291 27.4257 19.5801 27.4903C19.5125 27.5415 19.4637 27.6067 19.4336 27.6856C19.3848 28.6942 19.3686 29.7033 19.3848 30.7129C16.3247 30.7292 13.2648 30.7129 10.2051 30.6641C7.12104 28.9675 4.04486 27.2585 0.976562 25.5371C0.911458 21.4681 0.911458 17.3992 0.976562 13.3301C1.04678 12.9272 1.25837 12.6342 1.61133 12.4512ZM3.56445 28.2715C5.6777 29.4259 7.79358 30.5815 9.91211 31.7383C13.0695 31.7871 16.2271 31.8034 19.3848 31.7871C19.3686 32.439 19.3848 33.0901 19.4336 33.7403C21.1751 35.2214 22.9167 36.7025 24.6582 38.1836C24.9983 38.5442 25.389 38.6092 25.8301 38.3789C27.7019 36.8327 29.5735 35.2865 31.4453 33.7403C31.4941 33.0901 31.5104 32.439 31.4941 31.7871C34.3264 31.8034 37.1584 31.7871 39.9902 31.7383C42.0977 30.5951 44.1973 29.4395 46.2891 28.2715C46.3542 34.4564 46.3542 40.6413 46.2891 46.8262C46.198 47.7635 45.6936 48.3331 44.7754 48.5352C31.5593 48.6003 18.3431 48.6003 5.12695 48.5352C4.25376 48.3455 3.7492 47.8084 3.61328 46.9239C3.56445 40.7065 3.54817 34.4891 3.56445 28.2715ZM20.459 28.4668C23.7793 28.4668 27.0996 28.4668 30.4199 28.4668C30.4362 30.0622 30.4199 31.6573 30.3711 33.252C28.7087 34.6052 27.0323 35.9398 25.3418 37.2559C23.7162 35.9397 22.1049 34.605 20.5078 33.252C20.459 31.6573 20.4427 30.0622 20.459 28.4668Z" fill="#01B055"/>
<path opacity="0.887" fill-rule="evenodd" clip-rule="evenodd" d="M5.22425 16.0647C6.75454 16.0484 8.28449 16.0647 9.81409 16.1135C10.1863 16.4771 10.1536 16.8026 9.71644 17.0901C8.28414 17.1552 6.85186 17.1552 5.41956 17.0901C4.97415 16.8324 4.90905 16.4906 5.22425 16.0647Z" fill="#01B055"/>
<path opacity="0.893" fill-rule="evenodd" clip-rule="evenodd" d="M41.2597 16.0647C42.7899 16.0484 44.3199 16.0647 45.8495 16.1135C46.1515 16.5157 46.0863 16.8412 45.6542 17.0901C44.2545 17.1552 42.8547 17.1552 41.455 17.0901C41.0173 16.8243 40.9521 16.4825 41.2597 16.0647Z" fill="#01B055"/>
<path opacity="0.881" fill-rule="evenodd" clip-rule="evenodd" d="M6.29887 18.6037C7.14585 18.5875 7.9922 18.6037 8.83793 18.6526C9.34267 18.8477 9.44032 19.1732 9.1309 19.6291C8.08923 19.6943 7.04757 19.6943 6.0059 19.6291C5.68522 19.156 5.78287 18.8142 6.29887 18.6037Z" fill="#01B055"/>
<path opacity="0.888" fill-rule="evenodd" clip-rule="evenodd" d="M42.2363 18.6037C43.1158 18.5875 43.9947 18.6037 44.8731 18.6526C45.3851 18.8868 45.4502 19.2123 45.0684 19.6291C44.0593 19.6943 43.0501 19.6943 42.041 19.6291C41.7442 19.2127 41.8092 18.8709 42.2363 18.6037Z" fill="#01B055"/>
<path opacity="0.895" fill-rule="evenodd" clip-rule="evenodd" d="M22.4122 30.7131C24.4633 30.6968 26.514 30.7131 28.5645 30.762C28.9537 31.0922 28.9537 31.4176 28.5645 31.7385C27.7188 31.7874 26.8724 31.8036 26.0255 31.7874C26.0417 32.4717 26.0255 33.1553 25.9766 33.8381C25.6511 34.2288 25.3256 34.2288 25.0001 33.8381C24.9512 33.1553 24.935 32.4717 24.9512 31.7874C24.0717 31.8036 23.1928 31.7874 22.3145 31.7385C22.0422 31.3699 22.0748 31.0281 22.4122 30.7131Z" fill="#01B055"/>
<path opacity="0.886" fill-rule="evenodd" clip-rule="evenodd" d="M7.17766 40.4788C8.54524 40.4625 9.91243 40.4788 11.2792 40.5276C11.5878 40.9378 11.5228 41.2632 11.0839 41.5042C9.81438 41.5693 8.54485 41.5693 7.27532 41.5042C7.04001 41.4301 6.94235 41.2673 6.98235 41.0159C6.97208 40.8032 7.03718 40.6241 7.17766 40.4788Z" fill="#01B055"/>
<path opacity="0.886" fill-rule="evenodd" clip-rule="evenodd" d="M38.6227 40.4788C39.9903 40.4625 41.3575 40.4788 42.7243 40.5276C42.9174 40.7714 42.9663 41.0482 42.8707 41.3577C42.7975 41.4188 42.7161 41.4676 42.6266 41.5042C41.3571 41.5693 40.0875 41.5693 38.818 41.5042C38.3726 41.2464 38.3075 40.9047 38.6227 40.4788Z" fill="#01B055"/>
<path opacity="0.877" fill-rule="evenodd" clip-rule="evenodd" d="M7.8613 43.0178C8.77334 43.0016 9.6848 43.0178 10.5957 43.0666C10.8976 43.4688 10.8325 43.7943 10.4004 44.0432C9.58656 44.1083 8.77276 44.1083 7.95896 44.0432C7.47697 43.7505 7.44443 43.4087 7.8613 43.0178Z" fill="#01B055"/>
<path opacity="0.877" fill-rule="evenodd" clip-rule="evenodd" d="M39.3065 43.0178C40.2186 43.0016 41.1301 43.0178 42.0409 43.0666C42.4475 43.4405 42.4148 43.7661 41.9433 44.0432C41.1295 44.1083 40.3156 44.1083 39.5019 44.0432C39.0642 43.7774 38.999 43.4356 39.3065 43.0178Z" fill="#01B055"/>
</g>
<defs>
<clipPath id="clip0_531_150">
<rect width="50" height="50" fill="white"/>
</clipPath>
</defs>
</svg>
