<svg width="50" height="50" viewBox="0 0 50 50" fill="none" xmlns="http://www.w3.org/2000/svg">
<g clip-path="url(#clip0_530_92)">
<path opacity="0.913" fill-rule="evenodd" clip-rule="evenodd" d="M8.64213 -0.0488281C10.5627 -0.0488281 12.4832 -0.0488281 14.4039 -0.0488281C14.6291 0.0954484 14.8081 0.290761 14.941 0.537109C14.9898 1.96903 15.0061 3.40132 14.9898 4.83398C17.1382 4.83398 19.2867 4.83398 21.4351 4.83398C21.4188 3.43387 21.4351 2.03413 21.4839 0.634766C21.5784 0.330015 21.7574 0.10215 22.021 -0.0488281C23.9742 -0.0488281 25.9273 -0.0488281 27.8804 -0.0488281C28.1441 0.10215 28.3231 0.330015 28.4175 0.634766C28.4664 2.03413 28.4827 3.43387 28.4664 4.83398C30.6148 4.83398 32.7632 4.83398 34.9117 4.83398C34.8954 3.40132 34.9117 1.96903 34.9605 0.537109C35.0933 0.290761 35.2723 0.0954484 35.4976 -0.0488281C37.4182 -0.0488281 39.3387 -0.0488281 41.2593 -0.0488281C41.6012 0.147038 41.8127 0.440007 41.8941 0.830078C41.9429 2.16432 41.9592 3.49896 41.9429 4.83398C43.5435 4.79104 45.1386 4.83987 46.7281 4.98047C47.5917 5.32181 48.0962 5.95657 48.2417 6.88477C48.3384 17.9885 48.3059 29.0887 48.1441 40.1855C47.8817 41.0338 47.312 41.5384 46.4351 41.6992C42.2035 41.748 37.9717 41.7644 33.7398 41.748C33.1175 46.2761 30.5785 49.0104 26.1226 49.9512C25.3414 49.9512 24.5601 49.9512 23.7789 49.9512C19.3225 49.0101 16.7834 46.2757 16.1617 41.748C11.9297 41.7644 7.698 41.748 3.46635 41.6992C2.58947 41.5384 2.01981 41.0338 1.75737 40.1855C1.59559 29.0887 1.56303 17.9885 1.65971 6.88477C1.80518 5.95657 2.30973 5.32181 3.17338 4.98047C4.76288 4.83987 6.35793 4.79104 7.95854 4.83398C7.94227 3.49896 7.95855 2.16432 8.00737 0.830078C8.0887 0.440007 8.30028 0.147038 8.64213 -0.0488281ZM9.03276 1.02539C10.6604 1.02539 12.2879 1.02539 13.9156 1.02539C13.9156 3.95508 13.9156 6.88477 13.9156 9.81445C12.2879 9.81445 10.6604 9.81445 9.03276 9.81445C9.03276 6.88477 9.03276 3.95508 9.03276 1.02539ZM22.5093 1.02539C24.137 1.02539 25.7645 1.02539 27.3921 1.02539C27.3921 3.95508 27.3921 6.88477 27.3921 9.81445C25.7645 9.81445 24.137 9.81445 22.5093 9.81445C22.5093 6.88477 22.5093 3.95508 22.5093 1.02539ZM35.9859 1.02539C37.6135 1.02539 39.2411 1.02539 40.8687 1.02539C40.8913 3.95613 40.8586 6.88582 40.771 9.81445C39.176 9.81445 37.5809 9.81445 35.9859 9.81445C35.9859 6.88477 35.9859 3.95508 35.9859 1.02539ZM3.66167 5.9082C5.09396 5.9082 6.52625 5.9082 7.95854 5.9082C7.94227 7.24323 7.95855 8.57787 8.00737 9.91211C8.03396 10.3943 8.2781 10.7035 8.73979 10.8398C10.5953 10.905 12.4507 10.905 14.3062 10.8398C14.6155 10.7259 14.827 10.5144 14.941 10.2051C14.9898 8.77315 15.0061 7.34087 14.9898 5.9082C17.1382 5.9082 19.2867 5.9082 21.4351 5.9082C21.391 7.41257 21.4398 8.90996 21.5816 10.4004C21.7414 10.626 21.9531 10.7725 22.2164 10.8398C24.0393 10.905 25.8622 10.905 27.6851 10.8398C27.9484 10.7725 28.16 10.626 28.3199 10.4004C28.4617 8.90996 28.5105 7.41257 28.4664 5.9082C30.6148 5.9082 32.7632 5.9082 34.9117 5.9082C34.8954 7.34087 34.9117 8.77315 34.9605 10.2051C35.0745 10.5144 35.286 10.7259 35.5953 10.8398C37.4507 10.905 39.3062 10.905 41.1617 10.8398C41.6234 10.7035 41.8675 10.3943 41.8941 9.91211C41.9429 8.57787 41.9592 7.24323 41.9429 5.9082C43.3755 5.89193 44.8079 5.90821 46.2398 5.95703C46.7664 6.14545 47.0756 6.51979 47.1675 7.08008C47.2164 9.55382 47.2327 12.0277 47.2164 14.502C32.3726 14.502 17.5289 14.502 2.6851 14.502C2.66883 11.9952 2.6851 9.48872 2.73393 6.98242C2.86456 6.45525 3.1738 6.09718 3.66167 5.9082ZM2.6851 15.5762C17.5289 15.5762 32.3726 15.5762 47.2164 15.5762C47.2641 23.7186 47.2153 31.8565 47.0699 39.9902C46.907 40.3481 46.6303 40.5598 46.2398 40.625C42.0733 40.6738 37.9066 40.6901 33.7398 40.6738C33.3248 36.9226 31.3716 34.3347 27.8804 32.9102C23.3869 31.6999 19.8549 33.0183 17.2847 36.8652C16.6528 38.0581 16.2785 39.3276 16.1617 40.6738C11.9949 40.6901 7.82821 40.6738 3.66167 40.625C3.27117 40.5598 2.99448 40.3481 2.83159 39.9902C2.68617 31.8565 2.63734 23.7186 2.6851 15.5762ZM23.7789 33.5449C27.7066 33.2534 30.4898 34.8811 32.1285 38.4277C33.285 42.0541 32.3898 45.0651 29.4429 47.4609C26.7233 49.1974 23.9238 49.3275 21.0445 47.8516C17.4849 45.343 16.4595 42.039 17.9683 37.9395C19.2224 35.5612 21.1592 34.0964 23.7789 33.5449Z" fill="#01B055"/>
<path opacity="0.928" fill-rule="evenodd" clip-rule="evenodd" d="M7.66602 17.8225C9.43298 17.7763 11.1908 17.8251 12.9395 17.969C13.1169 18.1448 13.2309 18.3563 13.2813 18.6038C13.3713 19.8789 13.3388 21.1484 13.1836 22.4123C13.0696 22.5263 12.9558 22.6402 12.8418 22.7541C11.0426 22.8492 9.25223 22.8166 7.47071 22.6565C7.35338 22.5683 7.27199 22.4544 7.22656 22.3147C7.16146 20.98 7.16146 19.6455 7.22656 18.3108C7.32666 18.0972 7.47315 17.9344 7.66602 17.8225ZM8.25196 18.8967C8.25196 19.8733 8.25196 20.8498 8.25196 21.8264C9.58659 21.8264 10.9212 21.8264 12.2559 21.8264C12.2559 20.8498 12.2559 19.8733 12.2559 18.8967C10.9212 18.8967 9.58659 18.8967 8.25196 18.8967Z" fill="#01B055"/>
<path opacity="0.928" fill-rule="evenodd" clip-rule="evenodd" d="M17.5293 17.8225C19.2224 17.8062 20.9151 17.8225 22.6074 17.8714C22.8248 17.9912 22.9713 18.1703 23.0469 18.4085C23.141 19.7848 23.1085 21.152 22.9492 22.51C22.8611 22.6273 22.7472 22.7088 22.6074 22.7542C20.8822 22.8193 19.157 22.8193 17.4317 22.7542C17.2061 22.5943 17.0596 22.3827 16.9922 22.1194C16.9271 20.915 16.9271 19.7105 16.9922 18.5061C17.0838 18.2036 17.2629 17.9757 17.5293 17.8225ZM18.0176 18.8967C18.0176 19.8733 18.0176 20.8499 18.0176 21.8264C19.3523 21.8264 20.6868 21.8264 22.0215 21.8264C22.0215 20.8499 22.0215 19.8733 22.0215 18.8967C20.6868 18.8967 19.3523 18.8967 18.0176 18.8967Z" fill="#01B055"/>
<path opacity="0.928" fill-rule="evenodd" clip-rule="evenodd" d="M27.2949 17.8225C29.0619 17.7763 30.8198 17.8251 32.5684 17.969C32.7624 18.0978 32.8764 18.2768 32.9102 18.5061C33.0024 19.815 32.9698 21.117 32.8125 22.4123C32.6986 22.5263 32.5847 22.6402 32.4707 22.7541C30.6715 22.8492 28.8812 22.8166 27.0996 22.6565C26.9823 22.5683 26.9009 22.4544 26.8555 22.3147C26.7904 21.0126 26.7904 19.7105 26.8555 18.4084C26.9511 18.1674 27.0976 17.9721 27.2949 17.8225ZM27.8809 18.8967C27.8809 19.8733 27.8809 20.8498 27.8809 21.8264C29.2156 21.8264 30.5501 21.8264 31.8848 21.8264C31.8848 20.8498 31.8848 19.8733 31.8848 18.8967C30.5501 18.8967 29.2156 18.8967 27.8809 18.8967Z" fill="#01B055"/>
<path opacity="0.928" fill-rule="evenodd" clip-rule="evenodd" d="M37.1582 17.8225C38.9252 17.7763 40.683 17.8251 42.4317 17.969C42.549 18.0572 42.6304 18.171 42.6758 18.3108C42.77 19.7197 42.7375 21.1194 42.5781 22.51C42.49 22.6273 42.3761 22.7087 42.2364 22.7541C40.5111 22.8193 38.7859 22.8193 37.0606 22.7541C36.7903 22.5821 36.6438 22.3379 36.6211 22.0217C36.556 20.8824 36.556 19.7431 36.6211 18.6038C36.6822 18.2513 36.8612 17.9909 37.1582 17.8225ZM37.6465 18.8967C37.6465 19.8733 37.6465 20.8498 37.6465 21.8264C38.9812 21.8264 40.3157 21.8264 41.6504 21.8264C41.6504 20.8498 41.6504 19.8733 41.6504 18.8967C40.3157 18.8967 38.9812 18.8967 37.6465 18.8967Z" fill="#01B055"/>
<path opacity="0.908" fill-rule="evenodd" clip-rule="evenodd" d="M7.66602 25.635C9.39158 25.6187 11.1168 25.635 12.8418 25.6839C13.1121 25.8559 13.2586 26.1001 13.2813 26.4163C13.3713 27.6914 13.3388 28.9609 13.1836 30.2249C13.065 30.3761 12.9186 30.49 12.7441 30.5667C10.9774 30.6617 9.21966 30.6291 7.47071 30.469C7.35338 30.3808 7.27199 30.267 7.22656 30.1272C7.16146 28.7925 7.16146 27.458 7.22656 26.1233C7.32666 25.9097 7.47315 25.7469 7.66602 25.635ZM8.25196 26.7092C8.25196 27.6533 8.25196 28.5972 8.25196 29.5413C9.58659 29.5413 10.9212 29.5413 12.2559 29.5413C12.2559 28.5972 12.2559 27.6533 12.2559 26.7092C10.9212 26.7092 9.58659 26.7092 8.25196 26.7092Z" fill="#01B055"/>
<path opacity="0.907" fill-rule="evenodd" clip-rule="evenodd" d="M17.4317 25.6351C19.2312 25.5888 21.0215 25.6376 22.8028 25.7815C22.92 25.8697 23.0015 25.9836 23.0469 26.1233C23.1411 27.5322 23.1086 28.9319 22.9492 30.3226C22.8611 30.4398 22.7472 30.5213 22.6074 30.5667C20.8407 30.6617 19.0829 30.6291 17.334 30.469C17.14 30.3402 17.026 30.1612 16.9922 29.9319C16.9271 28.7275 16.9271 27.523 16.9922 26.3187C17.0805 26.0518 17.227 25.8238 17.4317 25.6351ZM18.0176 26.7093C18.0176 27.6533 18.0176 28.5973 18.0176 29.5413C19.3523 29.5413 20.6868 29.5413 22.0215 29.5413C22.0215 28.5973 22.0215 27.6533 22.0215 26.7093C20.6868 26.7093 19.3523 26.7093 18.0176 26.7093Z" fill="#01B055"/>
<path opacity="0.907" fill-rule="evenodd" clip-rule="evenodd" d="M27.2949 25.635C29.0205 25.6187 30.7457 25.635 32.4707 25.6839C32.6963 25.8437 32.8428 26.0553 32.9102 26.3186C33.0024 27.6275 32.9698 28.9296 32.8125 30.2249C32.694 30.3761 32.5475 30.49 32.3731 30.5667C30.6064 30.6617 28.8486 30.6291 27.0996 30.469C26.9823 30.3808 26.9009 30.267 26.8555 30.1272C26.7904 28.7925 26.7904 27.458 26.8555 26.1233C26.9556 25.9097 27.1021 25.7469 27.2949 25.635ZM27.8809 26.7092C27.8809 27.6533 27.8809 28.5972 27.8809 29.5413C29.2156 29.5413 30.5501 29.5413 31.8848 29.5413C31.8848 28.5972 31.8848 27.6533 31.8848 26.7092C30.5501 26.7092 29.2156 26.7092 27.8809 26.7092Z" fill="#01B055"/>
<path opacity="0.908" fill-rule="evenodd" clip-rule="evenodd" d="M37.0606 25.6351C38.8601 25.5888 40.6504 25.6376 42.4317 25.7815C42.549 25.8697 42.6304 25.9836 42.6758 26.1233C42.7701 27.5322 42.7375 28.9319 42.5782 30.3226C42.49 30.4398 42.3761 30.5213 42.2364 30.5667C40.4697 30.6617 38.7119 30.6291 36.9629 30.469C36.7415 30.3169 36.6276 30.1054 36.6211 29.8343C36.5311 28.5592 36.5636 27.2896 36.7188 26.0257C36.8532 25.908 36.967 25.7778 37.0606 25.6351ZM37.6465 26.7093C37.6465 27.6533 37.6465 28.5973 37.6465 29.5413C38.9812 29.5413 40.3158 29.5413 41.6504 29.5413C41.6504 28.5973 41.6504 27.6533 41.6504 26.7093C40.3158 26.7093 38.9812 26.7093 37.6465 26.7093Z" fill="#01B055"/>
<path opacity="0.907" fill-rule="evenodd" clip-rule="evenodd" d="M7.95899 33.3491C9.59212 33.3061 11.2197 33.3549 12.8418 33.4956C13.1121 33.6677 13.2586 33.9118 13.2813 34.228C13.3464 35.3674 13.3464 36.5066 13.2813 37.646C13.232 37.9897 13.053 38.2339 12.7441 38.3784C11.0515 38.4436 9.35872 38.4436 7.66602 38.3784C7.48698 38.2645 7.3405 38.118 7.22656 37.939C7.16146 36.6043 7.16146 35.2697 7.22656 33.9351C7.3933 33.6333 7.63744 33.438 7.95899 33.3491ZM8.25196 34.4233C8.25196 35.3999 8.25196 36.3765 8.25196 37.353C9.58659 37.353 10.9212 37.353 12.2559 37.353C12.2559 36.3765 12.2559 35.3999 12.2559 34.4233C10.9212 34.4233 9.58659 34.4233 8.25196 34.4233Z" fill="#01B055"/>
<path opacity="0.907" fill-rule="evenodd" clip-rule="evenodd" d="M37.4512 33.3499C38.949 33.3336 40.4463 33.3499 41.9434 33.3987C42.2872 33.4479 42.5313 33.6269 42.6758 33.9358C42.741 35.2705 42.741 36.605 42.6758 37.9397C42.5619 38.1187 42.4154 38.2652 42.2364 38.3792C40.4697 38.4742 38.7119 38.4416 36.9629 38.2815C36.7855 38.1057 36.6715 37.8942 36.6211 37.6467C36.5311 36.3716 36.5636 35.1021 36.7188 33.8381C36.9056 33.5667 37.1498 33.4039 37.4512 33.3499ZM37.6465 34.4241C37.6465 35.4006 37.6465 36.3772 37.6465 37.3538C38.9812 37.3538 40.3158 37.3538 41.6504 37.3538C41.6504 36.3772 41.6504 35.4006 41.6504 34.4241C40.3158 34.4241 38.9812 34.4241 37.6465 34.4241Z" fill="#01B055"/>
<path opacity="0.898" fill-rule="evenodd" clip-rule="evenodd" d="M23.7795 34.7165C27.1886 34.3776 29.6137 35.7447 31.0549 38.8181C32.0655 42.0359 31.2354 44.6564 28.5647 46.6794C26.5319 47.8535 24.416 48.0163 22.217 47.1677C19.2951 45.5717 18.0744 43.114 18.5549 39.7946C19.2935 37.0539 21.035 35.3612 23.7795 34.7165ZM23.9749 35.7907C21.4554 36.4389 19.9581 38.0502 19.4827 40.6247C19.9497 40.6363 20.4054 40.7014 20.8499 40.82C21.0144 41.1686 20.9493 41.4615 20.6545 41.6989C20.2639 41.7315 19.8733 41.7641 19.4827 41.7966C20.0074 44.5837 21.6675 46.195 24.4631 46.6306C24.4469 46.2062 24.4632 45.783 24.512 45.3611C24.8049 45.1006 25.0979 45.1006 25.3909 45.3611C25.4396 45.783 25.4559 46.2062 25.4397 46.6306C28.2353 46.195 29.8955 44.5837 30.4202 41.7966C29.9918 41.7745 29.5685 41.7257 29.1506 41.6501C29.0831 41.5988 29.0342 41.5337 29.0042 41.4548C28.8858 41.1292 28.9671 40.8851 29.2483 40.7224C29.6389 40.6899 30.0295 40.6572 30.4202 40.6247C29.8952 37.8373 28.235 36.226 25.4397 35.7907C25.4559 36.1827 25.4396 36.5734 25.3909 36.9626C25.0979 37.2231 24.8049 37.2231 24.512 36.9626C24.4632 36.5734 24.4469 36.1827 24.4631 35.7907C24.3003 35.7907 24.1377 35.7907 23.9749 35.7907Z" fill="#01B055"/>
<path opacity="0.921" fill-rule="evenodd" clip-rule="evenodd" d="M24.7559 38.4277C24.9938 38.4098 25.2054 38.475 25.3907 38.623C25.4395 39.3058 25.4557 39.9894 25.4395 40.6738C26.0913 40.6576 26.7424 40.6738 27.3926 40.7226C27.7832 41.0481 27.7832 41.3737 27.3926 41.6992C26.4388 41.7917 25.4948 41.759 24.5606 41.6015C24.4481 40.6162 24.4318 39.6234 24.5117 38.623C24.6089 38.5677 24.6903 38.5026 24.7559 38.4277Z" fill="#01B055"/>
</g>
<defs>
<clipPath id="clip0_530_92">
<rect width="50" height="50" fill="white"/>
</clipPath>
</defs>
</svg>
