<?xml version="1.0" encoding="utf-8"?>
<!-- Generator: Adobe Illustrator 28.4.1, SVG Export Plug-In . SVG Version: 6.00 Build 0)  -->
<svg version="1.1" id="Слой_1" xmlns="http://www.w3.org/2000/svg" xmlns:xlink="http://www.w3.org/1999/xlink" x="0px" y="0px"
	 viewBox="0 0 17 17" enable-background="new 0 0 17 17" xml:space="preserve">
<g>
	<defs>
		<rect id="SVGID_1_" width="17" height="17"/>
	</defs>
	<clipPath id="SVGID_00000011729896917961590620000008055021369643479954_">
		<use xlink:href="#SVGID_1_"  overflow="visible"/>
	</clipPath>
	<g clip-path="url(#SVGID_00000011729896917961590620000008055021369643479954_)">
		<path d="M1,0C0.5,0.2,0.1,0.6,0,1.2c0,0.3,0,1.5,0.1,2.2c0.4,3,1.6,5.7,3.6,8.1C4,11.9,5.1,13,5.6,13.3c2.4,2,5,3.1,8.1,3.6
			c0.7,0.1,1.9,0.2,2.2,0.1c0.6-0.1,1-0.5,1.1-1.1c0-0.1,0-0.7,0-1.8c0-1.8,0-1.9-0.2-2.2c-0.1-0.2-0.3-0.4-0.5-0.5
			c-0.3-0.1-0.4-0.2-1-0.2c-1-0.1-1.7-0.2-2.5-0.4c-0.4-0.1-0.5-0.1-0.8-0.1c-0.3,0-0.3,0-0.5,0.1c-0.1,0.1-0.7,0.5-1.2,0.9
			c-0.5,0.4-1,0.8-1,0.8c0,0-0.7-0.4-1.1-0.6c-1.4-0.9-2.5-2.1-3.4-3.7C4.6,7.7,4.6,7.7,4.6,7.6c0,0,0.4-0.5,0.8-1
			c0.4-0.5,0.8-1,0.8-1.1c0-0.1,0.1-0.2,0.1-0.3c0.1-0.3,0-0.4-0.1-1C6,3.3,5.9,2.5,5.9,1.7c0-0.5-0.1-0.8-0.2-1
			C5.5,0.4,5.1,0.1,4.7,0C4.5,0,1.3,0,1,0z"/>
	</g>
</g>
</svg>
