<svg id="Слой_1" data-name="Слой 1" xmlns="http://www.w3.org/2000/svg" viewBox="0 0 18.92 25.06"><path d="M3.9,0H22.82V23.37H13.91V25a2.34,2.34,0,0,1-1.11-.14,8.75,8.75,0,0,0-1.67-1,8.75,8.75,0,0,0-1.67,1A2.34,2.34,0,0,1,8.35,25V23.37H3.9ZM7.79,6.68H18.92V7.79H7.79Zm0,3.34H18.92v1.11H7.79Zm2.78,4.73a16.26,16.26,0,0,0,2.51.55,6.32,6.32,0,0,1,.55,2.92q-2.43,3-5,.14a5.88,5.88,0,0,1,.55-3.06A1.21,1.21,0,0,0,10.57,14.75Zm-1.11,6.4H12.8a7,7,0,0,1-.14,1.94,1.82,1.82,0,0,0-3.06,0A6.66,6.66,0,0,1,9.46,21.15Z" transform="translate(-3.9)" fill-rule="evenodd" opacity="0.99" style="isolation:isolate"/></svg>