<svg width="31" height="31" viewBox="0 0 31 31" fill="none" xmlns="http://www.w3.org/2000/svg">
<g clip-path="url(#clip0_433_47)">
<path opacity="0.994" fill-rule="evenodd" clip-rule="evenodd" d="M14.1377 -0.0302734C15.0257 -0.0302734 15.9137 -0.0302734 16.8018 -0.0302734C22.8749 0.725479 27.204 3.87392 29.7891 9.41504C30.4125 10.94 30.8061 12.5143 30.9697 14.1377C30.9697 14.4203 30.9697 14.7028 30.9697 14.9854C29.3675 13.5346 27.773 12.0714 26.1865 10.5957C26.0111 10.4498 25.8295 10.3186 25.6416 10.2021C25.5728 9.94355 25.4417 9.72159 25.248 9.53613C24.7114 8.97928 24.1564 8.44441 23.583 7.93164C22.7389 7.50206 21.9518 7.58277 21.2217 8.17383C18.5467 10.8589 15.8624 13.5331 13.1689 16.1963C11.9084 14.966 10.6571 13.7248 9.41504 12.4727C8.57017 12.0431 7.78306 12.1238 7.05371 12.7148C6.45424 13.2738 5.89924 13.8691 5.38867 14.501C5.08085 15.1668 5.12121 15.8126 5.50977 16.4385C7.71179 18.7313 9.96208 20.9716 12.2607 23.1592C14.6609 25.6199 17.1029 28.0417 19.5869 30.4248C18.673 30.6847 17.7445 30.8664 16.8018 30.9697C15.9137 30.9697 15.0257 30.9697 14.1377 30.9697C8.06454 30.214 3.73542 27.0655 1.15039 21.5244C0.526959 19.9994 0.133404 18.4252 -0.0302734 16.8018C-0.0302734 15.9137 -0.0302734 15.0257 -0.0302734 14.1377C0.725479 8.06454 3.87392 3.73542 9.41504 1.15039C10.94 0.526959 12.5143 0.133404 14.1377 -0.0302734Z" fill="#32BA7C"/>
<path fill-rule="evenodd" clip-rule="evenodd" d="M25.6416 10.2019C25.8441 10.7966 25.7735 11.3617 25.4297 11.8972C21.7061 15.6208 17.9824 19.3445 14.2588 23.0681C13.6045 23.4687 12.9384 23.4989 12.2607 23.1589C9.96209 20.9713 7.7118 18.7311 5.50977 16.4382C5.12121 15.8123 5.08085 15.1665 5.38868 14.5007C5.89925 13.8688 6.45424 13.2735 7.05372 12.7146C7.78306 12.1236 8.57017 12.0428 9.41504 12.4724C10.6571 13.7246 11.9084 14.9658 13.169 16.196C15.8624 13.5328 18.5467 10.8586 21.2217 8.17357C21.9518 7.58251 22.7389 7.5018 23.583 7.93138C24.1564 8.44415 24.7114 8.97902 25.2481 9.53587C25.4417 9.72133 25.5728 9.94329 25.6416 10.2019Z" fill="#FEFEFE"/>
<path fill-rule="evenodd" clip-rule="evenodd" d="M25.6416 10.2021C25.8295 10.3186 26.0111 10.4498 26.1865 10.5957C27.773 12.0714 29.3675 13.5346 30.9697 14.9854C30.9697 15.611 30.9697 16.2367 30.9697 16.8623C30.3761 21.9637 27.934 25.9094 23.6436 28.6992C22.3765 29.474 21.0243 30.0492 19.5869 30.4248C17.1029 28.0417 14.6609 25.6199 12.2607 23.1592C12.9384 23.4992 13.6045 23.4689 14.2588 23.0684C17.9824 19.3447 21.7061 15.6211 25.4297 11.8975C25.7735 11.3619 25.8441 10.7968 25.6416 10.2021Z" fill="#0AA06E"/>
</g>
<defs>
<clipPath id="clip0_433_47">
<rect width="31" height="31" fill="white"/>
</clipPath>
</defs>
</svg>
