<svg id="Слой_1" data-name="Слой 1" xmlns="http://www.w3.org/2000/svg" viewBox="0 0 26 26"><path d="M12.85,0h.3V.3h.28V.58h-.28a.88.88,0,0,0,0,.16.38.38,0,0,1,.05.63.27.27,0,0,1,.07.22.65.65,0,0,0,.28,0,.23.23,0,0,1,.15-.14,2.5,2.5,0,0,0,.61.09,1,1,0,0,1,.6,1.13c-.16.33-.34.66-.52,1a2.1,2.1,0,0,1-.15.61,13.74,13.74,0,0,0,1.24.87,1.14,1.14,0,0,0,.72.18,1,1,0,0,0,0-.3,3.26,3.26,0,0,1-.31-.55,1.34,1.34,0,0,1,0-.4.78.78,0,0,1,.73-.41c.3.18.39.11.25-.22A1.73,1.73,0,0,0,17,3.08h-.17V3a.33.33,0,0,0,.17,0,.24.24,0,0,0,0-.17h.17V3h.18v.13h-.18a.68.68,0,0,0,.14.31c-.13.35,0,.43.26.23q.77,0,.72.78A4.89,4.89,0,0,1,18,5,.24.24,0,0,0,18,5.3a1.41,1.41,0,0,0,.41,0,.92.92,0,0,0,.78-1,5.72,5.72,0,0,0-.41-.67.89.89,0,0,1,0-.68,3.1,3.1,0,0,1,.64-.49,1.29,1.29,0,0,1,.75.1,4,4,0,0,1,.66.58c.3.17.61.34.93.5a.53.53,0,0,1,.15.56l-.27.34a.26.26,0,0,0,0,.27,1.51,1.51,0,0,1,.28.15.42.42,0,0,1,.08.7.28.28,0,0,0-.19-.22l-.55,0a1.22,1.22,0,0,0-.24-.1.72.72,0,0,1,.22.63.37.37,0,0,1-.56.32A.29.29,0,0,0,20.85,6a4.26,4.26,0,0,0-.41-.54.69.69,0,0,1,0-.78l.41-.54a.42.42,0,0,0-.15-.49,2.73,2.73,0,0,0-.93-.29,4.78,4.78,0,0,0,.1,1,.72.72,0,0,1-.15.53,2.8,2.8,0,0,1-1.57.71l0,.06.31.09.07.17a4.93,4.93,0,0,1,.66.07.64.64,0,0,1,.32.22.87.87,0,0,1-.2,1,.72.72,0,0,0-.4-.28,1.65,1.65,0,0,0-1.07.17,2.14,2.14,0,0,0,.35.06l1,.34a1.29,1.29,0,0,0,1-.18.2.2,0,0,1-.07.2,1,1,0,0,1-.75.3,7.25,7.25,0,0,1-.95-.18.53.53,0,0,1,.05.39.31.31,0,0,1-.39.23.69.69,0,0,0,.05-.4.75.75,0,0,0-.59-.27,4.72,4.72,0,0,0-.64.1c-.12,0-.18,0-.17-.17a.33.33,0,0,0-.17,0A2.19,2.19,0,0,0,15.31,9a1.36,1.36,0,0,0,.13,1.08,1.17,1.17,0,0,0,1.26.32.91.91,0,0,1-1,.39.15.15,0,0,0,0,.14,1.35,1.35,0,0,0,1.61.07,1.06,1.06,0,0,1-.17.71,1.3,1.3,0,0,1-.74.23,1.76,1.76,0,0,0,1.41.66,1,1,0,0,0,.85-1.16,4.6,4.6,0,0,0-.52-.78.64.64,0,0,1-.1-.44,1.25,1.25,0,0,1,.39-.49A8.89,8.89,0,0,0,20,8.5a.8.8,0,0,0,.18-.34h.11a.65.65,0,0,0,0,.24,6,6,0,0,0,1.27-1.53c.08-.08.13,0,.15.07A7.87,7.87,0,0,0,24,3.79a1,1,0,0,1,.34.51,2.47,2.47,0,0,1-.28,1.62,11.36,11.36,0,0,1-.93,1.26,4.56,4.56,0,0,0-.75.84A20.79,20.79,0,0,0,25,5.86a.24.24,0,0,1,.14.17,2,2,0,0,1-.45,1.49,8.9,8.9,0,0,1-1.6,1.33l1.69-.74A2.34,2.34,0,0,1,25.59,8a1.14,1.14,0,0,1-.26.57A5.4,5.4,0,0,1,24,9.6q.69,0,1.38-.09a2.88,2.88,0,0,1,.65.07v0a5.78,5.78,0,0,1-.9.66L24,10.78a8.38,8.38,0,0,1,1.86.29,2,2,0,0,1-.76.53q-.45.13-.9.3a3.12,3.12,0,0,1,1.38.41.35.35,0,0,1,.11.13,1,1,0,0,1-.62.41,6.71,6.71,0,0,1-1.18.17l.8.34a1.41,1.41,0,0,1,.44.47,2.54,2.54,0,0,1-1.44.2,7.15,7.15,0,0,1,.57.53.59.59,0,0,1,0,.37,1.2,1.2,0,0,1-1,.05l-.45-.2-1-.73,0,0a9.58,9.58,0,0,0,.76.67,2.32,2.32,0,0,1,.67.83,1.46,1.46,0,0,1,0,.51,1.08,1.08,0,0,1-.77-.08,5.43,5.43,0,0,1-.79-.8,7.91,7.91,0,0,0-.68-.85,1.58,1.58,0,0,0,.21.38c.13.17.26.34.4.5A5,5,0,0,1,22,16a1.72,1.72,0,0,1-.08.81,1.82,1.82,0,0,1-.92-.37c-.31-.61-.61-1.22-.89-1.83a1.09,1.09,0,0,0,0,.51,5,5,0,0,1,.56,1.45,1.32,1.32,0,0,1-.19.64c-.09.13-.2.13-.32,0a2,2,0,0,1-.57-.66,12.28,12.28,0,0,1-.36-1.45.58.58,0,0,0-.11.15.29.29,0,0,1-.13,0,3,3,0,0,1,.19,1.22,1.26,1.26,0,0,1-.37.7.21.21,0,0,1-.2,0,1.35,1.35,0,0,1-.59-1.1,5.11,5.11,0,0,0,0-.78c-.07.08-.15.15-.22.22a.18.18,0,0,1-.17,0,.77.77,0,0,1-.4-.53,2,2,0,0,1-.52.55,3,3,0,0,0,0,.6,4.8,4.8,0,0,0,.3.65l0,0a1.23,1.23,0,0,1-.27,0,.73.73,0,0,0,.41.45,1.13,1.13,0,0,0,.83,0,.39.39,0,0,1-.14.3l.69.16a.82.82,0,0,1,.46.62c0,.38,0,.75.07,1.12a.58.58,0,0,0,.4.39.71.71,0,0,1-1-.15.64.64,0,0,0,.21.71s0,0,0,.07a.43.43,0,0,1-.48-.11l-.16-.23q-.07.69-.36,0a.26.26,0,0,0,0,.39,3.53,3.53,0,0,0,2.44.67A1.15,1.15,0,0,0,20.4,21a2,2,0,0,0-.08-.41l0-.07a1.9,1.9,0,0,0,.54.34.15.15,0,0,0,.13-.1,1.25,1.25,0,0,0,.09-.37.16.16,0,0,1,.1,0,3.33,3.33,0,0,1,.24.32.19.19,0,0,0,.23,0A1.37,1.37,0,0,1,22,20.3s.07,0,.1,0a2.28,2.28,0,0,1,.18.52.66.66,0,0,0,.31-.22c.14-.09.23-.05.27.1a2.13,2.13,0,0,1-1,1.32,3.24,3.24,0,0,1-.62.12.3.3,0,0,1-.28.17l-.31-.08a7.08,7.08,0,0,0-1.17-.58,10.76,10.76,0,0,0-1.27-.17,6.1,6.1,0,0,0-2-.3.24.24,0,0,1-.09-.29l.28-.41c0-.16,0-.2-.16-.12a.61.61,0,0,1-.79-.3c.58,0,.82-.23.74-.8a.69.69,0,0,0-.33-.28,1.16,1.16,0,0,0-.86.06,5.19,5.19,0,0,0-.36.46c0-.18-.08-.2-.17-.07a.8.8,0,0,0-.17.71.48.48,0,0,0,.15.22,4.72,4.72,0,0,1,.81.49.48.48,0,0,1,.1.38A1.51,1.51,0,0,0,14.5,21a12.19,12.19,0,0,0,1.41.68c.33.2.65.42,1,.64a.39.39,0,0,0,.43-.12,1.4,1.4,0,0,0,.06-.5.58.58,0,0,1,.56.81,1.05,1.05,0,0,1-.22.3,3.51,3.51,0,0,1,.47.55,1.19,1.19,0,0,1-.33,1.1l-.1.05a1.55,1.55,0,0,0-.47-.68,2.71,2.71,0,0,1-.24.78.8.8,0,0,1-.91.35l-.49-.22a1.53,1.53,0,0,1-1.89.38,1.33,1.33,0,0,1-.34.69,3,3,0,0,0-.35.22H13a1.64,1.64,0,0,1-.5-.41.76.76,0,0,1-.19-.5,4.42,4.42,0,0,0-.48.15,1.4,1.4,0,0,1-1-.2l-.39-.33a5.18,5.18,0,0,1-.6.26A.81.81,0,0,1,9,24.58a2.71,2.71,0,0,1-.24-.78,1.63,1.63,0,0,0-.47.68A1,1,0,0,1,7.87,24a1.16,1.16,0,0,1,0-.78c.14-.13.27-.27.4-.41l-.22-.3a.58.58,0,0,1,.56-.81,1.4,1.4,0,0,0,.06.5.39.39,0,0,0,.43.12l.89-.61A13.4,13.4,0,0,0,11.5,21a1.35,1.35,0,0,0-.77.26.6.6,0,0,1,.39-.6,5.12,5.12,0,0,0,.52-.27.62.62,0,0,0,.12-.69,1.16,1.16,0,0,0-.24-.34.87.87,0,0,0-.07.17,4.35,4.35,0,0,0-.33-.42.7.7,0,0,0-.27-.14,1.64,1.64,0,0,0-.66,0,.59.59,0,0,0,.45,1.08.71.71,0,0,1-.83.3q-.17-.09-.12.12a1.66,1.66,0,0,0,.25.34c.1.19.05.32-.16.39a4.87,4.87,0,0,0-1.86.24c-.4.05-.8.1-1.2.17a4.66,4.66,0,0,0-1.24.57,3,3,0,0,1-.4.12.32.32,0,0,1-.26-.17,1.58,1.58,0,0,1-1.43-.91,1.57,1.57,0,0,1-.2-.61.11.11,0,0,1,.12-.07.76.76,0,0,1,.34.25.12.12,0,0,0,.1,0,3.17,3.17,0,0,0,.12-.44c.06-.12.12-.13.21,0a1.44,1.44,0,0,0,.33.4.19.19,0,0,0,.1,0,3.79,3.79,0,0,1,.31-.37,1.1,1.1,0,0,1,.17.4.25.25,0,0,0,.12.07,3.77,3.77,0,0,0,.54-.34l0,.07A2,2,0,0,0,5.6,21a1,1,0,0,0,1.05.28,3.35,3.35,0,0,0,1.86-.72.28.28,0,0,0-.09-.34q-.3.69-.36,0a1,1,0,0,1-.31.35.62.62,0,0,1-.33,0s0-.05,0-.07a.68.68,0,0,0,.21-.71.73.73,0,0,1-1,.13A.49.49,0,0,0,7,19.5c0-.37.06-.74.07-1.12a.81.81,0,0,1,.53-.66,6.18,6.18,0,0,1,.62-.12.39.39,0,0,1-.14-.3A1.09,1.09,0,0,0,9.28,17a.24.24,0,0,0,.05-.16H9l.3-.72a3,3,0,0,0,0-.6A2,2,0,0,1,8.8,15a.77.77,0,0,1-.4.53.18.18,0,0,1-.17,0L8,15.23c0,.36,0,.73,0,1.09a1.25,1.25,0,0,1-.61.83A.29.29,0,0,1,7.11,17a1.51,1.51,0,0,1-.17-1.21,4.94,4.94,0,0,1,.15-.55.29.29,0,0,1-.13,0,.44.44,0,0,0-.12-.15,10.55,10.55,0,0,1-.35,1.45,1.5,1.5,0,0,1-.76.75A.5.5,0,0,1,5.49,17a1.23,1.23,0,0,1,.07-1c.13-.3.26-.6.41-.88a1.09,1.09,0,0,0,0-.51c-.28.57-.56,1.14-.83,1.72a1.51,1.51,0,0,1-1,.48A1.72,1.72,0,0,1,4.05,16,9.74,9.74,0,0,1,5,14.52a.36.36,0,0,0,.07-.17c-.33.38-.64.76-.93,1.16l-.44.42a1.12,1.12,0,0,1-.86.17,1,1,0,0,1,.12-.8,7.94,7.94,0,0,1,.57-.59,6.31,6.31,0,0,0,.73-.64.3.3,0,0,0-.18.06A5.31,5.31,0,0,1,2.79,15a1.23,1.23,0,0,1-1,0,.48.48,0,0,1,0-.39A7.15,7.15,0,0,1,2.34,14a2.45,2.45,0,0,1-1.44-.2,1.41,1.41,0,0,1,.44-.47c.26-.12.53-.24.8-.34a3.61,3.61,0,0,1-1.59-.34,1.21,1.21,0,0,1-.21-.24,1.06,1.06,0,0,1,.49-.34,4.67,4.67,0,0,1,1-.2,4.32,4.32,0,0,1-1.59-.71A.18.18,0,0,1,.17,11,9.69,9.69,0,0,1,2,10.78c-.38-.16-.76-.33-1.13-.51A5.78,5.78,0,0,1,0,9.61v0a3.07,3.07,0,0,1,.53-.07c.5.06,1,.08,1.5.09A5.4,5.4,0,0,1,.67,8.53,1.14,1.14,0,0,1,.41,8,1.58,1.58,0,0,1,.72,8a8.12,8.12,0,0,1,2.1.88.08.08,0,0,0,.11,0,8.9,8.9,0,0,1-1.6-1.33A2,2,0,0,1,.88,6,.24.24,0,0,1,1,5.86c.55.51,1.12,1,1.7,1.5,1.17.93,1.23.87.16-.18A11.36,11.36,0,0,1,2,5.92,2.47,2.47,0,0,1,1.67,4.3a1.59,1.59,0,0,1,.21-.41A.15.15,0,0,1,2,3.81,8,8,0,0,0,3.63,6.4a4.45,4.45,0,0,0,.61.54c0-.13.07-.15.15-.07A6,6,0,0,0,5.66,8.4a.94.94,0,0,1,.06-.24A2.13,2.13,0,0,1,6,8.5,8.89,8.89,0,0,0,7.51,9.77l.26.25a.51.51,0,0,1,.13.41,2.65,2.65,0,0,1-.48.78.9.9,0,0,0,.47,1.37A1.56,1.56,0,0,0,9.54,12a1.3,1.3,0,0,1-.74-.23A1.12,1.12,0,0,1,8.63,11a1.41,1.41,0,0,0,1.53,0,.25.25,0,0,0,.12-.22.91.91,0,0,1-1-.39l.39.05a1,1,0,0,0,1-.74,2.08,2.08,0,0,0-.81-1.91,1.12,1.12,0,0,0-.62-.29c0,.13-.07.19-.21.17l-.62-.1a.73.73,0,0,0-.38.08A.42.42,0,0,0,8,8.29a.28.28,0,0,1-.36-.13.53.53,0,0,1,0-.49c-.27,0-.55.1-.83.17a.87.87,0,0,1-1-.44,3.81,3.81,0,0,1,.45.13,1.69,1.69,0,0,0,.55,0c.31-.1.62-.22.93-.34a.47.47,0,0,1,.17,0,.41.41,0,0,0,.24,0,0,0,0,0,0,0,0A2.64,2.64,0,0,0,7.58,7a.84.84,0,0,0-.92.28.93.93,0,0,1-.29-.69A.57.57,0,0,1,6.61,6a2.13,2.13,0,0,1,.83-.13.51.51,0,0,1,.1-.21.87.87,0,0,0,.28,0l0-.06a3.22,3.22,0,0,1-1.24-.43.91.91,0,0,1-.48-.81,4.78,4.78,0,0,0,.1-1,1.23,1.23,0,0,0-.27,0l-.48.17a.49.49,0,0,0-.33.59l.41.54a.69.69,0,0,1,0,.78A2.41,2.41,0,0,0,5.15,6a.29.29,0,0,0,.15.29.49.49,0,0,1-.34,0,.59.59,0,0,1-.22-.62c.07-.12.14-.24.22-.36a1.86,1.86,0,0,0-.31.1l-.48,0A.28.28,0,0,0,4,5.69a.44.44,0,0,1-.14-.48,1.61,1.61,0,0,1,.5-.39.23.23,0,0,0,0-.25l-.27-.34a.53.53,0,0,1,.15-.56c.31-.18.62-.34.93-.5a4.38,4.38,0,0,1,.55-.51,1,1,0,0,1,.93-.14A5,5,0,0,1,7.18,3a.89.89,0,0,1,0,.68,5.72,5.72,0,0,0-.41.67.62.62,0,0,0,0,.27A1,1,0,0,0,8,5.3.24.24,0,0,0,8,5,4.89,4.89,0,0,1,7.7,4.4a.66.66,0,0,1,.36-.73,1.49,1.49,0,0,0,.36,0c.3.2.39.12.26-.23a.68.68,0,0,0,.14-.31H8.64V3h.18V2.74H9a.24.24,0,0,0,0,.17.33.33,0,0,0,.17,0v.13H9a1.73,1.73,0,0,0,.11.32.38.38,0,0,1-.07.21.14.14,0,0,0,.2.1.27.27,0,0,1,.12-.09,3.59,3.59,0,0,0,.47.12.56.56,0,0,1,.26.69A3.26,3.26,0,0,1,9.8,5a1,1,0,0,0,0,.3,1.29,1.29,0,0,0,.72-.18,13.74,13.74,0,0,0,1.24-.87,2.1,2.1,0,0,1-.15-.61c-.18-.32-.36-.65-.52-1a1.41,1.41,0,0,1,0-.54,1,1,0,0,1,1.17-.68.23.23,0,0,1,.15.14.65.65,0,0,0,.28,0,.27.27,0,0,1,.07-.22.77.77,0,0,1-.14-.32.34.34,0,0,1,0-.17.3.3,0,0,0,.16-.3h-.28V.3h.28Z" fill-rule="evenodd"/></svg>