<svg id="Слой_1" data-name="Слой 1" xmlns="http://www.w3.org/2000/svg" xmlns:xlink="http://www.w3.org/1999/xlink" viewBox="0 0 13.6 13.6"><defs><clipPath id="clip-path" transform="translate(-5.9 -6.2)"><rect x="3.73" y="4" width="18" height="18" transform="translate(-5.46 12.81) rotate(-45)" fill="none"/></clipPath></defs><g clip-path="url(#clip-path)"><path d="M6.12,6.86l.44-.45a1.48,1.48,0,0,1,1.66.09c1.5,1.48,3,3,4.48,4.46L17.19,6.5a1.47,1.47,0,0,1,1.65-.09l.45.45a1.48,1.48,0,0,1-.08,1.65c-1.48,1.51-3,3-4.47,4.49,1.5,1.49,3,3,4.47,4.49a1.48,1.48,0,0,1,.08,1.65l-.45.45a1.47,1.47,0,0,1-1.65-.09L12.7,15c-1.48,1.49-3,3-4.48,4.46a1.48,1.48,0,0,1-1.66.09l-.44-.45a1.48,1.48,0,0,1,.08-1.65c1.48-1.51,3-3,4.47-4.49-1.5-1.49-3-3-4.47-4.49A1.48,1.48,0,0,1,6.12,6.86Z" transform="translate(-5.9 -6.2)" fill="#fff" fill-rule="evenodd" opacity="0.99" style="isolation:isolate"/></g></svg>