<?xml version="1.0" encoding="utf-8"?>
<!-- Generator: Adobe Illustrator 28.4.1, SVG Export Plug-In . SVG Version: 6.00 Build 0)  -->
<svg version="1.1" id="Слой_1" xmlns="http://www.w3.org/2000/svg" xmlns:xlink="http://www.w3.org/1999/xlink" x="0px" y="0px"
	 viewBox="0 0 18 18" style="enable-background:new 0 0 18 18;" xml:space="preserve">
<path d="M1,3.8c0,0.1-0.1,0.2-0.1,0.3c0,0.4-0.1,0.2,2.4,2.7l2.3,2.3l-2.3,2.3C1.2,13.6,1,13.7,1,13.9c-0.1,0.2-0.1,0.4,0,0.6
	c0.1,0.2,2.6,2.7,2.8,2.8c0.2,0.1,0.4,0.1,0.6,0c0.2-0.1,0.3-0.2,2.5-2.3l2.3-2.3l2.3,2.3c2.2,2.2,2.3,2.3,2.5,2.3
	c0.1,0,0.2,0.1,0.3,0.1c0.3,0,0.3,0,1.7-1.4c1.2-1.2,1.3-1.3,1.4-1.5c0-0.1,0.1-0.2,0.1-0.3c0-0.4,0.1-0.2-2.4-2.7l-2.3-2.3L15,6.8
	c2.2-2.2,2.3-2.3,2.3-2.5c0-0.1,0.1-0.2,0.1-0.3c0-0.3,0-0.3-1.4-1.7C14.7,1.1,14.6,1,14.5,1c-0.1,0-0.2-0.1-0.3-0.1
	c-0.4,0-0.2-0.1-2.7,2.4L9.1,5.6L6.9,3.3C4.4,0.8,4.5,0.9,4.1,0.9C4,0.9,3.9,0.9,3.8,1C3.6,1,3.5,1.1,2.3,2.3S1,3.6,1,3.8z"/>
</svg>
