<svg id="Слой_1" data-name="Слой 1" xmlns="http://www.w3.org/2000/svg" xmlns:xlink="http://www.w3.org/1999/xlink" viewBox="0 0 37 33"><defs><clipPath id="clip-path" transform="translate(0 0)"><rect width="37" height="33" fill="none"/></clipPath></defs><g clip-path="url(#clip-path)"><path d="M12.79,3.93c0,3.62-.73,7.26,4.39,7.37v3C5.34,14.33,4,13.24,4,21.7-.74,22.09.05,24.64.05,29.5c0,4,4.16,3.47,7.47,3.47,4,0,4-3.84,4-6.5,0-3.06-1.32-4.7-4.39-4.77,0-5.49-1.56-4.33,10.1-4.33V21.7c-5.12.11-4.39,3.75-4.39,7.37,0,4.54,4.42,3.9,7.47,3.9,4.6,0,3.95-4.36,3.95-7.37,0-2.65-1.7-3.84-4.39-3.9V17.37c11.66,0,10.1-1.16,10.1,4.33-4.87.11-4.39,3.73-4.39,6.5,0,5.39,3.8,4.77,7,4.77,5.23,0,4.39-3.16,4.39-7.8,0-2.51-1.6-3.28-4-3.47,0-8.46-1.34-7.37-13.18-7.37v-3c5.12-.11,4.39-3.75,4.39-7.37,0-4.54-4.42-3.9-7.47-3.9A3.69,3.69,0,0,0,12.79,3.93Z" transform="translate(0 0)" fill-rule="evenodd"/></g></svg>