<svg id="Слой_1" data-name="Слой 1" xmlns="http://www.w3.org/2000/svg" viewBox="0 0 38.88 43.76"><path d="M7.28,3.08q13.51,0,27.05,0a2.51,2.51,0,0,1,1.8,1.8q.06,7.38.1,14.75l1.47-3.62A2,2,0,0,1,40,15.23l3.32,1.37A2,2,0,0,1,44,19.09q-.65,1.66-1.41,3.27a.86.86,0,0,1-1.22-.05,1.17,1.17,0,0,1-.15-.58c.37-1.17.8-2.33,1.27-3.47-.05-.23-.16-.28-.34-.14l-6,14.64q0,6.1-.1,12.21a2.54,2.54,0,0,1-1.8,1.81q-13.53.09-27,0a2.58,2.58,0,0,1-1.91-2.4Q5.28,25,5.37,5.52A2.67,2.67,0,0,1,7.28,3.08Zm.78,1.56q12.74,0,25.48.05a1.2,1.2,0,0,1,.84.44q.24,9.41.09,18.84-2.41,6-4.88,12a4.32,4.32,0,0,0-.15,1.07c.07.65.12,1.31.15,1.95-.19-.3-.37-.61-.54-.92a1.42,1.42,0,0,0-1-.1,15.94,15.94,0,0,1-4.59,3.12,1.66,1.66,0,0,1-.88.1.68.68,0,0,1-.25-.44c-.05-.36-.1-.71-.14-1.07.14-1.11.26-2.22.34-3.32A1.07,1.07,0,0,0,21.34,36l-4.4,3.22a1,1,0,0,0,0,1.37,1,1,0,0,0,.78.09,33,33,0,0,0,2.84-2q-.45,5.88,4.88,3.37a29.46,29.46,0,0,0,2.83-2,3.07,3.07,0,0,0,2.93.54,23.5,23.5,0,0,0,2.69-2.3,11.22,11.22,0,0,0,.58-1.27c.07,2.51.07,5,0,7.52a1.06,1.06,0,0,1-.93.64q-12.73.09-25.48,0a1.12,1.12,0,0,1-1-.93Q6.94,25,7,5.62A1.23,1.23,0,0,1,8.06,4.64ZM39.21,16.85a4.41,4.41,0,0,1,1.46.53q-4,9.89-8.05,19.78a7,7,0,0,1-1.32,1.17,4.75,4.75,0,0,1-.15-1.76Q35.2,26.72,39.21,16.85Z" transform="translate(-5.32 -3.07)" fill-rule="evenodd" opacity="0.95" style="isolation:isolate"/><path d="M10.69,8.94q10.11,0,20.22,0a1,1,0,0,1,.24,1.32.68.68,0,0,1-.44.25q-9.91.09-19.82,0a.86.86,0,0,1-.68-.83A1.19,1.19,0,0,1,10.69,8.94Z" transform="translate(-5.32 -3.07)" fill-rule="evenodd" opacity="0.94" style="isolation:isolate"/><path d="M10.79,13.33c1.76,0,3.52,0,5.27.05.74.48.78,1,.1,1.56q-2.69.11-5.37,0C10,14.41,10,13.87,10.79,13.33Z" transform="translate(-5.32 -3.07)" fill-rule="evenodd" opacity="0.92" style="isolation:isolate"/><path d="M18.6,13.33q6.16,0,12.31.05a1,1,0,0,1,.44,1.22,1.22,1.22,0,0,1-.44.34q-6.15.11-12.31,0C17.85,14.41,17.85,13.87,18.6,13.33Z" transform="translate(-5.32 -3.07)" fill-rule="evenodd" opacity="0.94" style="isolation:isolate"/><path d="M10.69,17.82q6.89,0,13.77.05a.89.89,0,0,1,0,1.47q-6.88.09-13.77,0C10.06,18.83,10.06,18.33,10.69,17.82Z" transform="translate(-5.32 -3.07)" fill-rule="evenodd" opacity="0.99" style="isolation:isolate"/><path d="M26.22,17.82c1.56,0,3.13,0,4.69.05a.45.45,0,0,1,.34.34,1.47,1.47,0,0,1,0,.78.47.47,0,0,1-.34.35c-1.56.06-3.13.06-4.69,0A1,1,0,0,1,26.22,17.82Z" transform="translate(-5.32 -3.07)" fill-rule="evenodd" opacity="0.97" style="isolation:isolate"/><path d="M10.69,22.22q10.11,0,20.22.05a1.08,1.08,0,0,1,.34,1.22,1.22,1.22,0,0,1-.44.34q-10,.09-20,0C10.08,23.33,10.05,22.8,10.69,22.22Z" transform="translate(-5.32 -3.07)" fill-rule="evenodd" opacity="0.94" style="isolation:isolate"/><path d="M10.79,26.61q10,0,19.92.05a.72.72,0,0,1,.59.83.74.74,0,0,1-.39.73q-10.11.11-20.22,0A.91.91,0,0,1,10.79,26.61Z" transform="translate(-5.32 -3.07)" fill-rule="evenodd" opacity="0.94" style="isolation:isolate"/><path d="M10.69,31.1c1.05,0,2.09,0,3.13,0a.47.47,0,0,1,.34.34.84.84,0,0,1-.63,1.23,11.72,11.72,0,0,1-2.84-.1C10.06,32.12,10.06,31.61,10.69,31.1Z" transform="translate(-5.32 -3.07)" fill-rule="evenodd" opacity="0.92" style="isolation:isolate"/><path d="M16,31.1q6.34,0,12.69,0a.84.84,0,0,1,.1,1.47l-.39.1q-6.06.09-12.11,0a.82.82,0,0,1-.64-1.13A2.9,2.9,0,0,1,16,31.1Z" transform="translate(-5.32 -3.07)" fill-rule="evenodd" opacity="0.93" style="isolation:isolate"/></svg>