<svg id="Слой_1" data-name="Слой 1" xmlns="http://www.w3.org/2000/svg" viewBox="0 0 48.43 31.25"><path d="M2.6,8.75a2.57,2.57,0,0,0-1,.66C.71,10.3.78,9.13.78,24.22S.71,38.13,1.59,39s.08.84,11.86.84H23.74L24,39.6a.75.75,0,0,0,.25-.55c0-.26-.16-.47-1-1.33l-1-1,2.16-2.18c2-2,2.17-2.21,2.17-2.51s-.19-.53-2.17-2.51l-2.16-2.18,2.16-2.17c2-2,2.17-2.21,2.17-2.51s-.19-.53-2.17-2.51L22.23,18l2.16-2.18c2-2,2.17-2.21,2.17-2.51s-.18-.53-2.17-2.51L22.22,8.59H12.65C4.43,8.6,3,8.63,2.6,8.75Zm20.5,3,1.55,1.56-.38.39-.38.39H2.33l0-1.6c0-1.55,0-1.61.28-1.86a1.43,1.43,0,0,1,.44-.35c.1,0,4.3-.08,9.32-.08h9.13Zm-1.79,4.92C20,18,20,18,21.31,19.3l1,1h-20V15.63h20Zm3,5.63.38.39-2.17,2.17c-2,2-2.17,2.21-2.17,2.51s.2.53,2.17,2.51L24.65,32l-2.17,2.18C19.9,36.8,20,36.66,20.92,37.66l.59.62-9.23,0L3,38.23l-.31-.32-.33-.31,0-7.86,0-7.86H23.89Z" transform="translate(-0.78 -8.59)"/><path d="M25.24,8.84a.75.75,0,0,0-.24.54c0,.29.21.53,1.78,2.11l1.77,1.79-2.16,2.18c-2,2-2.17,2.21-2.17,2.52s.17.51,2.21,2.52l2.2,2.19-2.2,2.14c-2.09,2-2.21,2.16-2.21,2.49s.14.49,2.17,2.53L28.56,32l-2.17,2.18c-2,2-2.17,2.21-2.17,2.51s.15.48,1.4,1.73L27,39.84l10.11,0,10.1,0,.49-.26a2.71,2.71,0,0,0,1.23-1.25l.23-.44,0-13.43c0-15.32.09-14.09-.82-15s0-.81-12.22-.81H25.48Zm22.05,1.69.32.31,0,1.61,0,1.61H30.07l.19-.25c.43-.55.34-.72-1.18-2.26L27.7,10.16l9.63,0,9.64,0ZM47.66,18v2.34H28.47l-1.18-1.17L26.12,18l1.17-1.17,1.18-1.17H47.66Zm0,11.77,0,7.86-.32.31-.32.32-9.65,0-9.63,0-.79-.78-.77-.78,2.17-2.18c2-2,2.17-2.21,2.17-2.52s-.17-.5-2.19-2.5l-2.19-2.17,2.18-2.14a18.75,18.75,0,0,0,2.26-2.4.8.8,0,0,0-.15-.59l-.19-.34H47.66Z" transform="translate(-0.78 -8.59)"/><path d="M31.49,30.71a.73.73,0,0,0,0,1.08l.24.24h7.64l.23-.24a.73.73,0,0,0,0-1.08l-.23-.24H31.73Z" transform="translate(-0.78 -8.59)"/><path d="M40.87,30.71l-.24.24v5.29l.24.23.23.25h4.52l.23-.25.24-.23V31l-.24-.24-.23-.24H41.1Zm3.66,2.88v1.57H42.19V32h2.34Z" transform="translate(-0.78 -8.59)"/><path d="M31.49,33.06a.76.76,0,0,0-.24.53.79.79,0,0,0,.24.54l.24.25h7.64l.23-.25a.75.75,0,0,0,.24-.54.72.72,0,0,0-.24-.53l-.23-.25H31.73Z" transform="translate(-0.78 -8.59)"/><path d="M33.06,35.4a.76.76,0,0,0-.25.54.74.74,0,0,0,.25.53c.2.22.32.25.92.25s.73,0,.93-.25a.74.74,0,0,0,.25-.53.76.76,0,0,0-.25-.54c-.2-.21-.32-.24-.93-.24S33.26,35.19,33.06,35.4Z" transform="translate(-0.78 -8.59)"/><path d="M36.18,35.4a.79.79,0,0,0-.24.54.76.76,0,0,0,.24.53c.23.24.28.25,1.71.25s1.49,0,1.71-.25a.72.72,0,0,0,.24-.53.75.75,0,0,0-.24-.54c-.22-.23-.27-.24-1.71-.24S36.41,35.17,36.18,35.4Z" transform="translate(-0.78 -8.59)"/></svg>