<svg width="50" height="50" viewBox="0 0 50 50" fill="none" xmlns="http://www.w3.org/2000/svg">
<g clip-path="url(#clip0_528_89)">
<path opacity="0.909" fill-rule="evenodd" clip-rule="evenodd" d="M18.0175 -0.0488281C18.4082 -0.0488281 18.7988 -0.0488281 19.1894 -0.0488281C21.0685 0.858019 22.9565 1.76947 24.8535 2.68555C26.7504 1.76947 28.6384 0.858019 30.5175 -0.0488281C30.9082 -0.0488281 31.2988 -0.0488281 31.6894 -0.0488281C32.3907 0.344103 32.8627 0.93004 33.1054 1.70898C33.536 4.46958 33.9266 7.2365 34.2773 10.0098C36.5937 10.3104 38.8561 10.8475 41.0644 11.6211C41.6169 11.8646 42.1377 12.1575 42.6269 12.5C43.7988 13.5091 43.7988 14.5183 42.6269 15.5273C41.6983 16.152 40.6892 16.6077 39.5996 16.8945C38.4372 17.2148 37.2653 17.4916 36.0839 17.7246C36.0832 20.0404 35.6925 22.2865 34.9121 24.4629C35.0735 24.6212 35.2688 24.7352 35.498 24.8047C38.2004 25.7922 40.886 26.8176 43.5546 27.8809C43.6702 28.2494 43.5887 28.5587 43.3105 28.8086C41.3443 30.0582 39.4888 31.4579 37.7441 33.0078C42.8837 37.5063 45.1624 43.1541 44.58 49.9512C31.4941 49.9512 18.4082 49.9512 5.32222 49.9512C4.75466 43.256 6.96819 37.6569 11.9628 33.1543C10.1701 31.508 8.24946 30.0269 6.20113 28.7109C6.02711 28.4919 5.97828 28.2478 6.05465 27.9785C6.361 27.7357 6.7028 27.5567 7.08004 27.4414C9.65927 26.484 12.2309 25.5074 14.7949 24.5117C13.9533 22.333 13.5464 20.0706 13.5742 17.7246C11.4433 17.3994 9.40884 16.7646 7.47066 15.8203C6.03367 14.9599 5.83836 13.8856 6.88472 12.5977C8.40812 11.6228 10.0683 10.9718 11.8652 10.6445C13.0367 10.4222 14.2086 10.2105 15.3808 10.0098C15.7558 7.2054 16.1627 4.40592 16.6015 1.61133C16.8501 0.84563 17.322 0.292244 18.0175 -0.0488281ZM18.3105 1.02539C18.5085 1.00956 18.7038 1.02583 18.8964 1.07422C20.8821 2.00195 22.8678 2.92969 24.8535 3.85742C26.8391 2.92969 28.8249 2.00195 30.8105 1.07422C31.3416 0.983154 31.716 1.19475 31.9336 1.70898C32.0711 2.05634 32.1687 2.4144 32.2265 2.7832C32.6898 6.06614 33.0804 9.3539 33.3984 12.6465C32.4271 13.1079 31.4017 13.3847 30.3222 13.4766C25.97 14.0267 21.6406 13.8965 17.3339 13.0859C16.8888 12.9936 16.4982 12.7982 16.1621 12.5C16.621 9.20333 17.0604 5.89929 17.4804 2.58789C17.5828 1.95922 17.8595 1.43839 18.3105 1.02539ZM14.7949 11.1816C14.9577 11.1816 15.1204 11.1816 15.2832 11.1816C15.1936 11.7342 15.1448 12.2876 15.1367 12.8418C15.3546 13.3526 15.729 13.6944 16.2597 13.8672C17.496 14.2849 18.7655 14.5453 20.0683 14.6484C24.1233 15.0566 28.1597 14.9265 32.1777 14.2578C32.8777 14.1115 33.5287 13.8511 34.1308 13.4766C34.2821 13.358 34.396 13.2115 34.4726 13.0371C34.5238 12.417 34.5076 11.7984 34.4238 11.1816C36.6774 11.4276 38.8584 11.9647 40.9668 12.793C41.4661 13.0182 41.9055 13.3273 42.2851 13.7207C42.3503 13.916 42.3503 14.1113 42.2851 14.3066C41.4575 15.0501 40.4972 15.5547 39.4043 15.8203C34.6132 17.0172 29.7467 17.5543 24.8046 17.4316C20.0003 17.5485 15.2639 17.0439 10.5957 15.918C9.47513 15.6424 8.44974 15.1704 7.51949 14.502C7.19397 14.1765 7.19397 13.8509 7.51949 13.5254C8.53775 12.7967 9.6608 12.2922 10.8886 12.0117C12.1946 11.6889 13.4966 11.4121 14.7949 11.1816ZM14.6972 17.9199C15.4133 17.9851 16.1295 18.0501 16.8457 18.1152C16.6052 19.8197 17.126 21.2357 18.4082 22.3633C20.6716 23.3989 22.283 22.7642 23.2421 20.459C23.4318 19.8215 23.5131 19.1704 23.4863 18.5059C24.3977 18.5059 25.3092 18.5059 26.2207 18.5059C26.0212 20.4673 26.8025 21.8833 28.5644 22.7539C30.7757 23.0842 32.1592 22.1564 32.7148 19.9707C32.8744 19.3536 32.8906 18.7352 32.7636 18.1152C33.4806 18.0593 34.1968 17.9942 34.9121 17.9199C35.0315 22.3164 33.5667 26.0762 30.5175 29.1992C26.9117 32.1425 23.2333 32.2401 19.4824 29.4922C16.1851 26.3587 14.5901 22.5013 14.6972 17.9199ZM17.9199 18.2129C19.4076 18.3789 20.9049 18.4766 22.4121 18.5059C22.5108 19.7919 22.055 20.8173 21.0449 21.582C20.0001 22.0153 19.1375 21.7712 18.457 20.8496C17.9758 20.036 17.7968 19.1571 17.9199 18.2129ZM31.5918 18.2129C31.9545 19.5817 31.5639 20.7048 30.4199 21.582C28.805 22.0227 27.7796 21.4204 27.3437 19.7754C27.2512 19.3395 27.2349 18.9162 27.2949 18.5059C28.7465 18.4762 30.1788 18.3785 31.5918 18.2129ZM15.0878 25.5371C16.0059 27.3199 17.2104 28.8987 18.7011 30.2734C19.2127 30.6839 19.7498 31.0582 20.3125 31.3965C21.6471 33.6751 22.9817 35.9538 24.3164 38.2324C24.3652 41.813 24.3815 45.3937 24.3652 48.9746C24.0652 49.0056 23.7722 48.973 23.4863 48.877C22.1727 45.6314 20.6265 42.5064 18.8476 39.502C15.9342 35.0261 12.2395 31.3313 7.76363 28.418C10.2076 27.4464 12.649 26.486 15.0878 25.5371ZM34.4238 25.5371C36.9097 26.4688 39.3837 27.4291 41.8457 28.418C36.6507 31.8554 32.5329 36.2987 29.4921 41.748C28.291 44.0828 27.1842 46.4592 26.1718 48.877C25.9393 48.9683 25.6952 49.0008 25.4394 48.9746C25.4231 45.4263 25.4394 41.8781 25.4882 38.3301C26.8879 35.9538 28.2878 33.5774 29.6875 31.2012C31.8173 29.7714 33.3962 27.8834 34.4238 25.5371ZM22.0214 32.0801C22.919 32.3898 23.8467 32.5526 24.8046 32.5684C25.8497 32.5087 26.8751 32.3622 27.8808 32.1289C26.8879 33.7728 25.8952 35.4167 24.9023 37.0605C23.9397 35.395 22.9795 33.7349 22.0214 32.0801ZM36.8652 33.8379C40.2657 36.5971 42.4304 40.1453 43.3593 44.4824C43.646 45.9663 43.7598 47.4637 43.7011 48.9746C41.9758 48.9746 40.2506 48.9746 38.5253 48.9746C38.5417 46.1749 38.5253 43.3755 38.4765 40.5762C38.4025 40.3408 38.2397 40.2432 37.9882 40.2832C37.7896 40.2689 37.6268 40.334 37.5 40.4785C37.4511 43.3104 37.4348 46.1424 37.4511 48.9746C34.0983 48.9746 30.7454 48.9746 27.3925 48.9746C29.0337 44.4533 31.3286 40.3191 34.2773 36.5723C35.1296 35.6389 35.9922 34.7274 36.8652 33.8379ZM12.7441 33.9355C13.6172 34.6295 14.4147 35.4107 15.1367 36.2793C16.73 38.2278 18.1297 40.3112 19.3359 42.5293C20.3962 44.6336 21.3891 46.7657 22.3144 48.9258C19.0268 48.9746 15.739 48.9909 12.4511 48.9746C12.4674 46.1424 12.4511 43.3104 12.4023 40.4785C12.1585 40.2854 11.8817 40.2365 11.5722 40.332C11.5111 40.4053 11.4623 40.4867 11.4257 40.5762C11.3769 43.3755 11.3606 46.1749 11.3769 48.9746C9.65165 48.9746 7.92639 48.9746 6.20113 48.9746C6.09387 42.9415 8.27487 37.9285 12.7441 33.9355Z" fill="#01B055"/>
</g>
<defs>
<clipPath id="clip0_528_89">
<rect width="50" height="50" fill="white"/>
</clipPath>
</defs>
</svg>
