<svg width="60" height="60" viewBox="0 0 60 60" fill="none" xmlns="http://www.w3.org/2000/svg">
<path opacity="0.964" fill-rule="evenodd" clip-rule="evenodd" d="M12.4805 3.69092C22.4805 3.67138 32.4805 3.69092 42.4805 3.74951C45.2143 4.39354 46.855 6.09276 47.4023 8.84717C47.3129 9.65929 46.8638 10.089 46.0547 10.1362C45.6461 10.1077 45.2945 9.9514 45 9.66748C44.6132 7.92737 43.578 6.81408 41.8945 6.32764C32.2461 6.24951 22.5976 6.24951 12.9492 6.32764C11.4453 6.73779 10.4883 7.69483 10.0781 9.19873C10 23.0269 10 36.855 10.0781 50.6831C10.4883 52.187 11.4453 53.144 12.9492 53.5542C22.759 53.6701 32.5637 53.6311 42.3633 53.437C43.5762 52.9275 44.3769 52.0486 44.7656 50.8003C44.9156 46.5846 44.9938 42.3658 45 38.144C45.2427 37.6222 45.6529 37.3878 46.2305 37.4409C46.8552 37.459 47.2654 37.7715 47.4609 38.3784C47.5391 42.48 47.5391 46.5815 47.4609 50.6831C46.9311 53.5957 45.2319 55.4121 42.3633 56.1323C32.4023 56.2105 22.4414 56.2105 12.4805 56.1323C9.80052 55.4836 8.14036 53.8235 7.5 51.1519C7.42187 37.0112 7.42187 22.8706 7.5 8.72998C8.1658 6.05253 9.82595 4.37285 12.4805 3.69092Z" fill="#BFE9D3"/>
<path opacity="0.946" fill-rule="evenodd" clip-rule="evenodd" d="M49.2776 12.0117C51.2554 11.9554 52.9156 12.6585 54.2581 14.121C55.0469 15.2902 55.2032 16.5403 54.7268 17.871C49.7346 26.6513 44.6956 35.4014 39.6096 44.121C39.2385 44.6484 38.7893 45.0976 38.262 45.4687C37.0275 46.3399 35.7385 47.121 34.3948 47.8125C32.8499 48.0657 31.8147 47.4603 31.2893 45.996C31.2325 44.1492 31.3497 42.3132 31.6409 40.4882C31.7581 40.1757 31.8753 39.8633 31.9924 39.5507C36.9925 30.8789 41.9924 22.207 46.9924 13.5351C47.5998 12.774 48.3615 12.2662 49.2776 12.0117ZM49.8635 14.5898C50.5529 14.6804 51.1779 14.9343 51.7385 15.3515C52.2754 15.7544 52.4511 16.2817 52.2659 16.9335C51.8444 17.6608 51.3951 18.3639 50.9182 19.0429C49.8832 18.4669 48.8676 17.8614 47.8713 17.2265C48.3257 16.572 48.7358 15.8885 49.1018 15.1757C49.3133 14.9032 49.5673 14.7079 49.8635 14.5898ZM46.4651 19.6289C47.4727 20.0937 48.4493 20.6211 49.3948 21.2109C49.4952 21.2916 49.5733 21.3892 49.6292 21.5039C45.6347 28.3597 41.6699 35.2347 37.7346 42.1289C37.3677 42.6132 36.9576 43.0624 36.5042 43.4765C35.6153 44.0284 34.7364 44.5947 33.8674 45.1757C33.8838 43.8049 34.001 42.4376 34.219 41.0742C38.3038 33.9193 42.3858 26.7709 46.4651 19.6289Z" fill="#BFE9D3"/>
<path opacity="0.963" fill-rule="evenodd" clip-rule="evenodd" d="M19.5118 13.6519C26.465 13.6323 33.4182 13.6519 40.3711 13.7105C40.981 13.8947 41.2544 14.3048 41.1914 14.9409C41.2544 15.577 40.981 15.9872 40.3711 16.1714C33.4181 16.2496 26.4648 16.2496 19.5118 16.1714C18.9019 15.9872 18.6285 15.577 18.6914 14.9409C18.6426 14.2948 18.916 13.8652 19.5118 13.6519Z" fill="#BFE9D3"/>
<path opacity="0.964" fill-rule="evenodd" clip-rule="evenodd" d="M15.7618 21.1519C23.1837 21.1323 30.6057 21.1519 38.0274 21.2105C38.9025 21.6831 39.1173 22.3668 38.6719 23.2612C38.4869 23.4418 38.272 23.5786 38.0274 23.6714C30.6056 23.7496 23.1836 23.7496 15.7618 23.6714C15.1519 23.4872 14.8785 23.077 14.9414 22.4409C14.8926 21.7948 15.166 21.3652 15.7618 21.1519Z" fill="#BFE9D3"/>
<path opacity="0.962" fill-rule="evenodd" clip-rule="evenodd" d="M15.7618 28.6519C21.7384 28.6323 27.715 28.6519 33.6914 28.7105C34.2697 28.9065 34.5821 29.3167 34.6289 29.9409C34.5821 30.5652 34.2697 30.9753 33.6914 31.1714C27.7149 31.2496 21.7383 31.2496 15.7618 31.1714C15.1519 30.9872 14.8785 30.577 14.9414 29.9409C14.8926 29.2948 15.166 28.8652 15.7618 28.6519Z" fill="#BFE9D3"/>
<path opacity="0.959" fill-rule="evenodd" clip-rule="evenodd" d="M15.7618 36.1519C20.3322 36.1323 24.9025 36.1519 29.4727 36.2105C30.5664 37.0308 30.5664 37.8511 29.4727 38.6714C24.9024 38.7496 20.3321 38.7496 15.7618 38.6714C15.1519 38.4872 14.8785 38.077 14.9414 37.4409C14.8926 36.7948 15.166 36.3652 15.7618 36.1519Z" fill="#BFE9D3"/>
<path opacity="0.959" fill-rule="evenodd" clip-rule="evenodd" d="M15.7618 43.6519C19.8244 43.6323 23.887 43.6519 27.9493 43.7105C28.5275 43.9065 28.8399 44.3167 28.8868 44.9409C28.8399 45.5652 28.5275 45.9753 27.9493 46.1714C23.8867 46.2496 19.8243 46.2496 15.7618 46.1714C15.1519 45.9872 14.8785 45.577 14.9414 44.9409C14.8926 44.2948 15.166 43.8652 15.7618 43.6519Z" fill="#BFE9D3"/>
</svg>
