<svg id="Слой_1" data-name="Слой 1" xmlns="http://www.w3.org/2000/svg" xmlns:xlink="http://www.w3.org/1999/xlink" viewBox="0 0 17 12.75"><defs><clipPath id="clip-path" transform="translate(0 -2.12)"><rect width="17" height="17" fill="none"/></clipPath></defs><g clip-path="url(#clip-path)"><path d="M1.08,2.17a1.36,1.36,0,0,0-.6.33C.25,2.71.19,2.86.27,3S1,3.74,1.92,4.49c2.14,1.81,4.71,4,5.54,4.75.59.51.7.59.86.64a.45.45,0,0,0,.36,0c.19-.06.18-.05,1.12-.87.78-.68,3.09-2.66,5.28-4.52C16,3.74,16.71,3.08,16.73,3s0-.32-.2-.53a1.46,1.46,0,0,0-.65-.34C15.61,2.1,1.31,2.11,1.08,2.17Z" transform="translate(0 -2.12)"/><path d="M.16,4.25C0,4.35,0,4.18,0,8.6a30,30,0,0,0,.06,4.22A.33.33,0,0,0,.38,13a7.34,7.34,0,0,0,1.48-1c2.05-1.5,3.67-2.73,3.82-2.9a.32.32,0,0,0,0-.37c0-.08-4.64-4-5.14-4.42A.45.45,0,0,0,.16,4.25Z" transform="translate(0 -2.12)"/><path d="M16.42,4.29c-.49.38-5.09,4.34-5.14,4.42a.32.32,0,0,0,0,.37c.15.17,1.77,1.4,3.82,2.9a7.34,7.34,0,0,0,1.48,1,.33.33,0,0,0,.32-.16A30,30,0,0,0,17,8.6c0-4.44,0-4.26-.16-4.35A.45.45,0,0,0,16.42,4.29Z" transform="translate(0 -2.12)"/><path d="M6.33,9.5l-.75.57c-.94.75-2,1.56-3.73,2.79C1.05,13.44.38,14,.35,14a.38.38,0,0,0,0,.19c0,.11,0,.16.13.28a1.47,1.47,0,0,0,.73.38c.24.05,14.44.05,14.68,0a1.47,1.47,0,0,0,.73-.38c.1-.12.13-.17.13-.28a.38.38,0,0,0-.05-.19,7.23,7.23,0,0,0-.64-.5c-1.86-1.34-3.51-2.57-4.59-3.42l-.76-.57a.4.4,0,0,0-.18,0c-.12,0-.13,0-.83.62a1.6,1.6,0,0,1-1.35.52,1.89,1.89,0,0,1-1-.52c-.71-.62-.7-.62-.84-.62A.44.44,0,0,0,6.33,9.5Z" transform="translate(0 -2.12)"/></g></svg>