<?xml version="1.0" encoding="utf-8"?>
<!-- Generator: Adobe Illustrator 28.4.1, SVG Export Plug-In . SVG Version: 6.00 Build 0)  -->
<svg version="1.1" id="Слой_1" xmlns="http://www.w3.org/2000/svg" xmlns:xlink="http://www.w3.org/1999/xlink" x="0px" y="0px"
	 viewBox="0 0 800 800" enable-background="new 0 0 800 800" xml:space="preserve">
<path d="M766.6,668.6c26,28.1,24.3,72.1-3.8,98.1c-26.6,24.6-67.6,24.6-94.2,0L403.8,502L139.2,766.7c-26,28.1-69.9,29.9-98.1,3.8
	s-29.9-69.9-3.8-98.1c1.2-1.3,2.5-2.6,3.9-3.9l264.7-264.7L41.1,139.4c-28.2-26-29.9-69.9-3.9-98.1s69.9-29.9,98.1-3.9
	c1.3,1.2,2.6,2.5,3.9,3.9l264.7,264.6L668.5,41.2c28.2-26,72.1-24.2,98.1,3.9c24.6,26.6,24.5,67.6,0,94.2L501.9,403.9L766.6,668.6z"
	/>
</svg>
