<svg width="50" height="50" viewBox="0 0 50 50" fill="none" xmlns="http://www.w3.org/2000/svg">
<g clip-path="url(#clip0_531_119)">
<path opacity="0.946" fill-rule="evenodd" clip-rule="evenodd" d="M12.9395 -0.0488281C20.9147 -0.0488281 28.8899 -0.0488281 36.8652 -0.0488281C39.5664 2.66862 42.252 5.403 44.9219 8.1543C44.9544 8.25195 44.987 8.34961 45.0195 8.44727C45.0847 19.4499 45.0847 30.4524 45.0195 41.4551C44.9579 42.3955 44.4859 43.0303 43.6035 43.3594C42.9533 43.4082 42.3022 43.4244 41.6504 43.4082C41.9952 45.9604 40.8885 47.0998 38.3301 46.8262C38.386 47.5608 38.3047 48.277 38.0859 48.9746C37.8131 49.4271 37.4388 49.7526 36.9629 49.9512C26.7415 49.9512 16.5202 49.9512 6.29883 49.9512C5.4846 49.6072 5.01259 48.9888 4.88281 48.0957C4.81771 34.9772 4.81771 21.8587 4.88281 8.74023C4.99145 7.85063 5.46346 7.24843 6.29883 6.93359C6.94906 6.8848 7.6001 6.86853 8.25196 6.88477C7.79401 4.21797 8.90077 3.04609 11.5723 3.36914C11.5122 2.53751 11.5936 1.72371 11.8164 0.927734C12.0893 0.475188 12.4636 0.149667 12.9395 -0.0488281ZM13.623 0.927734C21.0774 0.927734 28.5319 0.927734 35.9863 0.927734C35.97 3.5321 35.9863 6.13627 36.0352 8.74023C36.1165 8.82161 36.198 8.903 36.2793 8.98438C38.8507 9.0332 41.4224 9.04947 43.9941 9.0332C44.0422 19.9749 43.9934 30.9124 43.8477 41.8457C43.6318 42.1929 43.3226 42.3719 42.9199 42.3828C33.0198 42.4796 23.124 42.4471 13.2324 42.2852C12.9511 42.163 12.7721 41.9515 12.6953 41.6504C12.6302 28.3366 12.6302 15.0228 12.6953 1.70898C12.8509 1.25083 13.1602 0.99041 13.623 0.927734ZM37.0606 1.80664C39.127 3.79169 41.1452 5.82619 43.1152 7.91016C41.0973 7.95898 39.079 7.97525 37.0606 7.95898C37.0606 5.9082 37.0606 3.85742 37.0606 1.80664ZM10.0098 4.44336C10.5306 4.44336 11.0515 4.44336 11.5723 4.44336C11.556 16.9108 11.5723 29.3783 11.6211 41.8457C11.781 42.5916 12.2204 43.0962 12.9395 43.3594C22.1517 43.4082 31.3639 43.4245 40.5762 43.4082C40.5924 43.9625 40.5761 44.5159 40.5273 45.0684C40.3724 45.3863 40.1282 45.5979 39.7949 45.7031C29.8991 45.7683 20.0032 45.7683 10.1074 45.7031C9.84414 45.6357 9.63256 45.4893 9.47266 45.2637C9.31024 31.8926 9.27769 18.5137 9.375 5.12695C9.47445 4.78372 9.68603 4.55586 10.0098 4.44336ZM6.98242 7.86133C7.4056 7.86133 7.82878 7.86133 8.25196 7.86133C8.23568 20.3613 8.25196 32.8613 8.30078 45.3613C8.58584 46.115 9.12295 46.587 9.91211 46.7773C19.0267 46.8262 28.1412 46.8425 37.2559 46.8262C37.2721 47.2831 37.2558 47.7388 37.207 48.1934C37.0707 48.6551 36.7615 48.8992 36.2793 48.9258C26.4812 48.9909 16.6829 48.9909 6.88477 48.9258C6.34766 48.8444 6.03841 48.5352 5.95703 47.998C5.89193 34.9446 5.89193 21.8913 5.95703 8.83789C6.06865 8.25574 6.41045 7.93022 6.98242 7.86133Z" fill="#01B055"/>
<path opacity="0.911" fill-rule="evenodd" clip-rule="evenodd" d="M15.9668 9.52173C17.8551 9.50546 19.7432 9.52173 21.6309 9.57055C21.7706 9.61598 21.8845 9.69737 21.9727 9.81469C22.0378 11.6702 22.0378 13.5256 21.9727 15.3811C21.9362 15.4706 21.8873 15.552 21.8262 15.6252C19.8406 15.6904 17.8548 15.6904 15.8692 15.6252C15.8203 15.5764 15.7715 15.5276 15.7227 15.4788C15.6575 13.5582 15.6575 11.6376 15.7227 9.71704C15.8198 9.66177 15.9012 9.59667 15.9668 9.52173ZM16.7481 10.5959C16.7481 11.9306 16.7481 13.2652 16.7481 14.5999C18.1478 14.5999 19.5476 14.5999 20.9473 14.5999C20.9473 13.2652 20.9473 11.9306 20.9473 10.5959C19.5476 10.5959 18.1478 10.5959 16.7481 10.5959Z" fill="#01B055"/>
<path opacity="0.887" fill-rule="evenodd" clip-rule="evenodd" d="M15.7716 18.3108C17.009 18.2945 18.246 18.3108 19.4825 18.3596C19.572 18.3962 19.6534 18.445 19.7266 18.5061C19.8222 18.8156 19.7733 19.0923 19.5802 19.3362C18.2781 19.4013 16.976 19.4013 15.6739 19.3362C15.2831 18.9604 15.3156 18.6186 15.7716 18.3108Z" fill="#01B055"/>
<path opacity="0.904" fill-rule="evenodd" clip-rule="evenodd" d="M22.9981 18.3108C28.9553 18.2945 34.9123 18.3108 40.8692 18.3596C41.1046 18.4337 41.2022 18.5964 41.1622 18.8479C41.1765 19.0465 41.1114 19.2093 40.9669 19.3362C34.9447 19.4013 28.9226 19.4013 22.9005 19.3362C22.5097 18.9604 22.5422 18.6186 22.9981 18.3108Z" fill="#01B055"/>
<path opacity="0.887" fill-rule="evenodd" clip-rule="evenodd" d="M15.7712 23.3889C16.9761 23.3726 18.1805 23.3889 19.3845 23.4378C19.5081 23.4679 19.6221 23.5168 19.7263 23.5842C19.8218 23.8937 19.7729 24.1705 19.5798 24.4143C18.2451 24.4795 16.9105 24.4795 15.5759 24.4143C15.2929 24.0008 15.358 23.659 15.7712 23.3889Z" fill="#01B055"/>
<path opacity="0.904" fill-rule="evenodd" clip-rule="evenodd" d="M22.9977 23.3889C28.9224 23.3726 34.8468 23.3889 40.7712 23.4378C41.0555 23.5009 41.1857 23.68 41.1618 23.9749C41.1726 24.1579 41.1075 24.3044 40.9665 24.4143C34.9118 24.4795 28.8571 24.4795 22.8024 24.4143C22.5194 24.0008 22.5846 23.659 22.9977 23.3889Z" fill="#01B055"/>
<path opacity="0.893" fill-rule="evenodd" clip-rule="evenodd" d="M15.8696 28.4671C17.0419 28.4507 18.2138 28.4671 19.3852 28.5159C19.8173 28.7648 19.8825 29.0903 19.5805 29.4924C18.2458 29.5576 16.9113 29.5576 15.5766 29.4924C15.2744 29.0238 15.372 28.682 15.8696 28.4671Z" fill="#01B055"/>
<path opacity="0.905" fill-rule="evenodd" clip-rule="evenodd" d="M23.0961 28.4671C28.9881 28.4507 34.8801 28.4671 40.7719 28.5159C41.204 28.7648 41.2692 29.0903 40.9672 29.4924C34.9125 29.5576 28.8579 29.5576 22.8032 29.4924C22.5009 29.0238 22.5986 28.682 23.0961 28.4671Z" fill="#01B055"/>
<path opacity="0.893" fill-rule="evenodd" clip-rule="evenodd" d="M15.5759 33.6428C16.9109 33.6265 18.2455 33.6428 19.5798 33.6917C19.8817 34.0938 19.8166 34.4193 19.3845 34.6682C18.2126 34.7334 17.0407 34.7334 15.8688 34.6682C15.3557 34.4562 15.2581 34.1144 15.5759 33.6428Z" fill="#01B055"/>
<path opacity="0.906" fill-rule="evenodd" clip-rule="evenodd" d="M22.8024 33.6428C28.8572 33.6265 34.9119 33.6428 40.9665 33.6917C41.1563 33.9019 41.2052 34.1461 41.113 34.4241C40.9986 34.5601 40.8521 34.6416 40.6735 34.6682C34.8141 34.7334 28.9548 34.7334 23.0954 34.6682C22.5823 34.4562 22.4846 34.1144 22.8024 33.6428Z" fill="#01B055"/>
<path opacity="0.889" fill-rule="evenodd" clip-rule="evenodd" d="M15.5765 38.721C16.9115 38.7047 18.2461 38.721 19.5804 38.7698C19.7981 39.0191 19.8306 39.2958 19.678 39.5999C19.5925 39.6732 19.4948 39.722 19.3851 39.7464C18.1807 39.8115 16.9762 39.8115 15.7718 39.7464C15.3429 39.4787 15.2779 39.1369 15.5765 38.721Z" fill="#01B055"/>
<path opacity="0.905" fill-rule="evenodd" clip-rule="evenodd" d="M22.803 38.721C28.8578 38.7047 34.9125 38.721 40.9671 38.7698C41.2691 39.1719 41.2039 39.4974 40.7718 39.7464C34.8473 39.8115 28.9229 39.8115 22.9984 39.7464C22.5695 39.4787 22.5044 39.1369 22.803 38.721Z" fill="#01B055"/>
</g>
<defs>
<clipPath id="clip0_531_119">
<rect width="50" height="50" fill="white"/>
</clipPath>
</defs>
</svg>
