<?xml version="1.0" encoding="utf-8"?>
<!-- Generator: Adobe Illustrator 28.4.1, SVG Export Plug-In . SVG Version: 6.00 Build 0)  -->
<svg version="1.1" id="Слой_1" xmlns="http://www.w3.org/2000/svg" xmlns:xlink="http://www.w3.org/1999/xlink" x="0px" y="0px"
	 viewBox="0 0 49 49" enable-background="new 0 0 49 49" xml:space="preserve">
<g>
	<defs>
		<rect id="SVGID_1_" width="49" height="49"/>
	</defs>
	<clipPath id="SVGID_00000121967740136730584280000016163124877230953659_">
		<use xlink:href="#SVGID_1_"  overflow="visible"/>
	</clipPath>
	<g clip-path="url(#SVGID_00000121967740136730584280000016163124877230953659_)">
		<path opacity="0.941" fill-rule="evenodd" clip-rule="evenodd" enable-background="new    " d="M24.2,0c0.2,0,0.4,0,0.6,0
			C32,3.6,39.2,7.4,46.5,11.2c1.1-0.2,1.9,0.2,2.5,1c0,1.5,0,3.1,0,4.6c-0.2,0.3-0.4,0.6-0.8,0.8c-0.7,0.1-1.4,0.2-2.1,0.1
			c0,0.7,0,1.5,0,2.2c-0.3,0.9-0.9,1.3-1.9,1.1c0,6,0,12.1,0,18.1c0.7,0,1.2,0.3,1.5,1c0.1,0.8,0.1,1.5,0.1,2.3c0.7,0,1.5,0,2.2,0
			c0.4,0.2,0.8,0.5,1,0.9c0,1.5,0,3,0,4.5c-0.3,0.5-0.7,0.9-1.2,1.1c-3.4,0-6.9,0-10.3,0c-0.5-0.2-0.7-0.6-0.5-1.1
			c0-0.2,0.2-0.3,0.3-0.3c3.4,0,6.8-0.1,10.2,0c0-1.1,0-2.3,0-3.4c-15.3,0-30.6,0-45.9,0c0,1.1,0,2.3,0,3.4c11,0,22,0,33,0
			c0.2,0,0.3,0.2,0.3,0.3c0.2,0.6,0,1-0.5,1.1c-11,0-22.1,0-33.1,0c-0.6-0.2-1-0.5-1.2-1.1c0-1.5,0-3,0-4.5c0.2-0.4,0.5-0.7,1-0.9
			c0.6,0,1.3-0.1,1.9,0c0-0.8,0-1.5,0-2.3c0.3-0.8,1-1.2,1.9-1.1c0-6,0-11.9,0-17.9c-1,0.1-1.6-0.2-1.9-1.1c0-0.7-0.1-1.5,0-2.2
			c-0.7,0-1.3,0-2-0.1c-0.4-0.2-0.7-0.5-0.9-0.9c0-1.5,0-3.1,0-4.6c0.5-0.8,1.2-1.1,2.1-1C9.4,7.4,16.8,3.6,24.2,0z M24.2,1.6
			c0.3,0,0.7,0,1,0.2c6,3.1,12,6.3,18,9.4c-10,0-20,0.1-30,0.1c-0.4,0.2-0.6,0.6-0.4,1.1c0.1,0.1,0.2,0.2,0.3,0.3
			c11.5,0,22.9,0.1,34.4,0c0,1.1,0,2.3,0,3.4c-15.3,0-30.6,0-45.9,0c0-1.1,0-2.3,0-3.4c3,0,5.9,0,8.9,0c0.7-0.5,0.6-1-0.1-1.4
			c-1.6,0-3.2-0.1-4.8-0.1C11.8,8,18,4.8,24.2,1.6z M24.2,5c1.4,0.1,1.9,0.8,1.4,2.1c-0.7,0.8-1.5,0.8-2.2,0
			C22.9,6.1,23.2,5.4,24.2,5z M4.4,17.8c2.6,0,5.1,0,7.7,0c0,0.6,0,1.2,0,1.8c-2.6,0-5.1,0-7.7,0C4.4,19,4.4,18.4,4.4,17.8z
			 M13.5,17.8c7.3,0,14.5,0,21.8,0c0,0.7,0,1.5,0,2.2c0.3,0.9,0.9,1.3,1.9,1.1c0,6,0,12.1,0,18.1c-0.7,0-1.2,0.3-1.5,1
			c-0.1,0.8-0.1,1.5-0.1,2.3c-1.1,0-2.1,0-3.2,0c0-4.9,0-9.8,0-14.7c-0.5-2.9-2.1-5-4.8-6.3c-3.9-1.3-7.2-0.4-9.8,2.8
			c-0.7,1-1.2,2.2-1.3,3.4c0,4.9-0.1,9.8,0,14.7c-1,0-1.9,0-2.9,0c0-0.7,0-1.5,0-2.2c-0.3-0.9-0.9-1.3-1.9-1.2c0-6,0-11.9,0-17.9
			c0.9,0.1,1.6-0.3,1.9-1.1C13.5,19.2,13.6,18.5,13.5,17.8z M36.9,17.8c2.6,0,5.1,0,7.7,0c0,0.6,0,1.2,0,1.8c-2.6,0-5.1,0-7.7,0
			C36.9,19,36.9,18.4,36.9,17.8z M6.3,21.1c1.3,0,2.6,0,3.8,0c0,6,0,11.9,0,17.9c-1.3,0-2.6,0-3.8,0C6.3,33,6.3,27.1,6.3,21.1z
			 M38.8,21.1c1.3,0,2.6,0,3.8,0c0,6,0,12.1,0,18.1c-1.3,0-2.6,0-3.8,0C38.8,33.2,38.8,27.1,38.8,21.1z M23.8,22.3
			c3.9,0,6.3,1.9,7.1,5.6c0,4.8,0.1,9.6,0,14.5c-4.3,0-8.7,0-13,0c0-4.8,0-9.6,0-14.5C18.7,24.8,20.6,22.9,23.8,22.3z M4.5,40.5
			c2.5,0,5,0,7.5,0c0.1,0.6,0.1,1.2,0.1,1.9c-2.6,0-5.1,0-7.7,0C4.3,41.8,4.4,41.2,4.5,40.5z M37.2,40.7c2.4,0,4.7,0,7.1,0
			c0,0.6,0,1.1,0,1.7c-2.4,0-4.7,0-7.1,0C37.2,41.9,37.2,41.3,37.2,40.7z"/>
		<path opacity="0.925" fill-rule="evenodd" clip-rule="evenodd" enable-background="new    " d="M23.8,3.5c1.7-0.2,2.9,0.6,3.5,2.2
			c0.2,1.8-0.5,2.9-2.2,3.5c-1.8,0.2-2.9-0.5-3.5-2.2C21.4,5.3,22.1,4.1,23.8,3.5z M24.2,5c-1,0.4-1.2,1.1-0.8,2.1
			c0.7,0.8,1.5,0.8,2.2,0C26,5.8,25.6,5.1,24.2,5z"/>
	</g>
</g>
</svg>
