<svg id="Слой_1" data-name="Слой 1" xmlns="http://www.w3.org/2000/svg" viewBox="0 0 24.42 23.66"><path d="M7.15.65A22.83,22.83,0,0,1,16,2.34l4.55,4.55A2.25,2.25,0,0,1,20.8,9l.39.39,2.08.26,1.95,2A3.22,3.22,0,0,1,25,13.91l-2.73,2.73a2,2,0,0,1-2.34,0A7.58,7.58,0,0,1,17.81,14a1,1,0,0,0-.26-1.56L16,13l-3.9-3.9a1.78,1.78,0,0,0,.65-1.95,22.38,22.38,0,0,0-6-5.46A.85.85,0,0,1,7.15.65Z" transform="translate(-0.91 -0.65)" fill-rule="evenodd" opacity="0.92" style="isolation:isolate"/><path d="M11.57,9.49a19.33,19.33,0,0,1,4,4.42L5.33,24.18a3.31,3.31,0,0,1-1.82,0L1,21.71a2.45,2.45,0,0,1,0-1.56Q6.38,14.87,11.57,9.49Z" transform="translate(-0.91 -0.65)" fill-rule="evenodd" opacity="0.94" style="isolation:isolate"/></svg>