<svg id="Слой_1" data-name="Слой 1" xmlns="http://www.w3.org/2000/svg" viewBox="0 0 45.59 28.44"><path d="M2.6,10.79a1.41,1.41,0,0,0-.36.27c-.17.2-.17.34-.2,9,0,8.05,0,8.86.12,9.11a.89.89,0,0,0,.36.38,25.78,25.78,0,0,0,3.37.1c3.61,0,3.48,0,3.75-.83l.15-.46L11.36,30a54,54,0,0,0,5.53,4.72c1.92,1.51,4.23,3.22,4.77,3.55a8.34,8.34,0,0,0,3,1,3.59,3.59,0,0,0,2.06-.42c.23-.16.3-.17.67-.08a3.49,3.49,0,0,0,3.53-1.58c.24-.35.25-.36.68-.32a3.66,3.66,0,0,0,3.27-1.63c.2-.34.26-.37.81-.48a3,3,0,0,0,1.74-.87,2.84,2.84,0,0,0,.93-2.07l0-.67.66-.47a4.18,4.18,0,0,1,.74-.46s.17.24.26.55c.31.94.18.9,3.64.94,3.28,0,3.52,0,3.8-.46.17-.27.18-.51.18-9s0-8.78-.17-9c-.29-.46-.55-.51-2.68-.39a31.28,31.28,0,0,0-8.38,1.39c-1.69.54-2.1.84-2,1.48l0,.32L34,15.69l-1-.4c-.29-.1-1.55-.62-2.79-1.14-2.63-1.12-3.58-1.39-4.82-1.39a6.41,6.41,0,0,0-3.89,1.34l-.62.44H13.31l.07-.57a1.5,1.5,0,0,0-.08-.85c-.48-.92-3-1.67-7.24-2.14A15.4,15.4,0,0,0,2.6,10.79Zm3,2.06a28.4,28.4,0,0,1,5.37,1l.47.18-.05.41A102.41,102.41,0,0,1,8.07,27.51l-.1.3H3.89V20.24c0-4.17,0-7.57.07-7.57Zm40.12,9.26v7.57H41.67l-.37-1.19c-.94-2.94-3.08-8.8-4.07-11.15A6.12,6.12,0,0,1,36.74,16a21.52,21.52,0,0,1,2.77-.74A32.67,32.67,0,0,1,45,14.55h.73Zm-19.3-7.34a10.55,10.55,0,0,1,1.44.48l2.72,1.13c1.05.44,2.61,1.06,3.45,1.37l1.54.57.54,1.38c1.07,2.73,3.08,8.44,3,8.5l-.86.58-.83.55L37.23,29a46,46,0,0,0-6-5.46c-2.39-1.94-3.39-2.77-4.14-3.49s-1-.83-1.24-.83a7.19,7.19,0,0,0-1.32.44,8.67,8.67,0,0,1-1.3.45,1.62,1.62,0,0,0-1,.46A6.26,6.26,0,0,1,20.76,22a2.47,2.47,0,0,1-1.92.27,1.61,1.61,0,0,1-.68-.3c-.3-.39.24-1.89,1.12-3.13a16,16,0,0,1,4.16-3.7A4.24,4.24,0,0,1,26.45,14.77Zm-7.91,1.92c-2.31,2.84-2.95,5.13-1.81,6.51a4.09,4.09,0,0,0,3.17,1,4.79,4.79,0,0,0,3-1.59,2.21,2.21,0,0,1,.87-.65,5.85,5.85,0,0,0,1-.36l.72-.3.45.42c.52.48,1.66,1.44,4.46,3.71,5.16,4.21,6.48,5.74,5.81,6.77a1.38,1.38,0,0,1-1,.58c-.4,0-1.13-.65-3.89-3.5C29,26.83,28.84,26.71,28.27,27a.91.91,0,0,0-.43,1.35c.09.14,1.36,1.48,2.82,3S33.32,34,33.3,34.08a1.7,1.7,0,0,1-1.21.77c-.72.14-.82.06-3.4-2.55A33.41,33.41,0,0,0,26,29.77a.92.92,0,0,0-1,1.39c.09.15,1.14,1.26,2.32,2.47l2.16,2.19-.24.32a1.33,1.33,0,0,1-1.62.61,27.07,27.07,0,0,1-2.8-2.64c-2.4-2.41-2.47-2.47-2.82-2.47a.92.92,0,0,0-.88,1.26,24.59,24.59,0,0,0,2.11,2.33,22.89,22.89,0,0,1,1.92,2.08A4.73,4.73,0,0,1,23.45,37c-.68-.26-1.6-.89-4.15-2.85A59.67,59.67,0,0,1,12.07,28c-.85-.89-1.55-1.64-1.57-1.69s.24-1,.56-2.14c.65-2.26,1.43-5.28,1.75-6.79l.19-.95h5.77Z" transform="translate(-2.03 -10.75)"/></svg>