<svg id="Слой_1" data-name="Слой 1" xmlns="http://www.w3.org/2000/svg" xmlns:xlink="http://www.w3.org/1999/xlink" viewBox="0 0 26 24.04"><defs><clipPath id="clip-path" transform="translate(0.13 -0.88)"><rect width="26" height="26" fill="none"/></clipPath></defs><g clip-path="url(#clip-path)"><path d="M17.81,11.05c-.17-.49-.35-1-.52-1.56a5.23,5.23,0,0,1-1.82-3.77,2.22,2.22,0,0,1,2.08-2.34,2.28,2.28,0,0,0-2.86-.78,1,1,0,0,1,.52.91,3.28,3.28,0,0,0-.13,1.56,1,1,0,0,1-.52.26l-1-.52a4.07,4.07,0,0,1-1.17.52.23.23,0,0,0-.26-.26.23.23,0,0,0-.26-.26.23.23,0,0,0-.26-.26,5.56,5.56,0,0,1,1.3-1c.3-2.18,1.51-3,3.64-2.47a3.61,3.61,0,0,1,2.86,3.77,1.15,1.15,0,0,1,.91.26,4.46,4.46,0,0,1,.26,3.64,2.87,2.87,0,0,1-1.43,1,1.27,1.27,0,0,0-.26,1A1.21,1.21,0,0,0,17.81,11.05ZM17,5.33c.11,1.09.63,1.31,1.56.65A2.5,2.5,0,0,0,19,5.33a10,10,0,0,0,.65,2.08,1.18,1.18,0,0,1-.39.52c-.66-.73-1.18-.65-1.56.26A3.51,3.51,0,0,1,17,5.33Z" transform="translate(0.13 -0.88)" fill-rule="evenodd" opacity="0.75" style="isolation:isolate"/><path d="M11.57,4.55a.23.23,0,0,1,.26.26.23.23,0,0,1,.26.26.23.23,0,0,1,.26.26,22.45,22.45,0,0,0,2,2.08,4.31,4.31,0,0,1,0,2.08,5,5,0,0,0-2.08,4.42Q9.6,18.5,4.55,16.64A9,9,0,0,1-.13,11.57V7.67a5.72,5.72,0,0,1,6-3.51A6.78,6.78,0,0,1,8.32,2.21l1.17.39A22.45,22.45,0,0,0,11.57,4.55ZM10,6.11a2.82,2.82,0,0,1,.78.65C9.17,8,8.91,7.83,10,6.11Zm-5.72,1a5.12,5.12,0,0,1,5.46,4.68A2.72,2.72,0,0,1,8.45,14q-5.91.33-5.59-5.59A10.19,10.19,0,0,1,4.29,7.15Z" transform="translate(0.13 -0.88)" fill-rule="evenodd" opacity="0.9" style="isolation:isolate"/><path d="M25.87,17v3.38q-3.64,6.35-10.66,3.77Q10,20.55,13.65,15.34a5.49,5.49,0,0,1-.13-2.73,1.89,1.89,0,0,1,1.17-.91,19.15,19.15,0,0,0,3.12-.65,19.8,19.8,0,0,1,4.42-.13,10.28,10.28,0,0,1,1.17,3.25A7.72,7.72,0,0,1,25.87,17Zm-8.06-3.9c1.19.13,1.36.65.52,1.56A1.48,1.48,0,0,1,17.81,13.13ZM18.59,16a4.2,4.2,0,0,1,4.68,2.73q-2.18,4.76-7,2.6a2.74,2.74,0,0,1-.65-3.51A6.31,6.31,0,0,1,18.59,16Z" transform="translate(0.13 -0.88)" fill-rule="evenodd" opacity="0.9" style="isolation:isolate"/></g></svg>