<svg width="50" height="50" viewBox="0 0 50 50" fill="none" xmlns="http://www.w3.org/2000/svg">
<path fill-rule="evenodd" clip-rule="evenodd" d="M24.9549 36.2994C24.7966 36.9204 23.0438 38.9011 22.5182 39.5215C20.8972 41.4358 19.4157 39.7691 19.6975 38.4269C19.8327 37.7838 21.5739 35.9936 22.1227 35.2415C22.4724 34.7626 22.9925 34.0921 24.0178 34.4603C24.5992 34.6694 25.1706 35.4512 24.9549 36.2988V36.2994ZM22.1095 33.5236C21.9578 33.9739 21.2027 34.8122 20.9132 35.1553C20.4394 35.7169 20.055 36.2318 19.6082 36.7521C18.1234 38.4828 15.6955 36.6053 17.455 34.5698L19.4218 32.1872C21.045 30.3807 22.5309 32.2728 22.1095 33.5236ZM19.0931 30.9458L17.8675 32.5332C17.3855 33.0791 17.0341 33.5812 16.5978 34.0665C16.0855 34.6362 15.4859 35.0347 14.6514 34.5448C14.1131 34.2284 13.6206 33.4117 14.0078 32.5152L16.5129 29.4136C18.1267 27.6578 19.6744 29.6577 19.0936 30.9458H19.0931ZM16.1627 28.1699C16.048 28.4769 14.1037 30.7943 13.6873 31.2918C12.2583 32.9981 10.453 31.29 11.0597 29.808C11.2384 29.3705 13.0999 27.2052 13.5445 26.6785C14.8654 25.1144 16.7876 26.498 16.1627 28.1705V28.1699ZM16.7396 20.8332C16.8808 20.412 17.2994 20.2087 17.5851 19.9361L22.6886 15.3135C22.8695 15.1609 22.9517 15.0379 23.1293 14.8888C24.3934 13.8291 30.6243 15.5296 34.2011 15.3618C35.506 15.3007 35.9925 14.9599 37.0531 14.6814L40.7799 24.9029L38.2528 26.4519L36.0769 24.5021C35.0869 23.6096 35.4046 23.7174 33.2579 23.316C31.4974 22.9869 27.0673 23.8957 25.3537 21.1571C25.0862 20.7301 24.9924 20.0986 24.7211 19.7438C23.442 18.0707 21.7874 21.6464 19.6446 22.0047C18.2701 22.2348 17.2117 21.763 16.7401 20.8332H16.7396ZM23.9869 20.3398C24.5754 21.5206 24.4938 22.3036 26.4 23.3265C29.1263 24.7899 31.6154 23.8974 33.8624 24.4584C35.5673 24.8843 35.6417 25.4354 37.0211 26.6774C37.6394 27.2343 38.5721 27.7836 38.4767 29.0379C38.4116 29.8907 37.8165 30.5735 37.0884 30.7238C36.0212 30.944 35.4862 30.2939 35.0008 29.8063L32.5922 27.592C32.2343 27.2861 32.0533 27.1073 31.5564 27.3427C31.3887 28.1134 31.7202 28.0936 32.5089 28.8719C33.0174 29.3729 33.4295 29.716 33.9192 30.1593C34.3296 30.5304 35.0312 31.1019 35.222 31.5499C35.96 33.2806 34.0593 35.46 32.0892 33.4764L29.9757 31.5435C29.5923 31.1543 29.0446 30.4494 28.497 31.1328C28.3508 31.5644 29.1991 32.1889 29.5504 32.4919L32.0462 34.8093C32.7852 35.8922 32.3462 37.6376 30.8934 37.8525C29.9828 37.9871 29.6331 37.5542 29.1693 37.1558C28.7099 36.7614 28.3988 36.4328 27.9195 35.9965C27.2449 35.3825 26.823 34.8104 26.3967 35.1902C25.4877 36.233 28.9586 36.7719 27.9939 39.1638C27.7325 39.8128 27.0194 40.4321 26.0426 40.2678C25.4607 40.1699 24.5137 39.3334 24.2765 38.9774C24.6427 38.2189 26.0955 37.4109 25.9152 35.6283C25.7729 34.2215 24.6372 33.2876 23.132 33.3971C23.0068 31.3716 22.1718 30.3853 20.1686 30.5007C20.0621 28.6569 19.0864 27.5757 17.2117 27.7883C17.2443 24.9507 14.3795 24.0949 12.833 26.0267L11.5914 27.5815C11.276 27.4621 9.52589 26.0977 9.23577 25.7919L12.7127 15.3688L19.6523 15.3088C20.2116 15.3088 20.4157 15.3735 20.8519 15.6054L16.3127 19.784C16.0154 20.0514 15.7021 20.0922 15.7181 20.6252C15.7292 20.9946 15.9933 21.4862 16.1632 21.7437C16.8742 22.8203 18.8007 23.4151 20.4885 22.8115C21.366 22.4976 22.3709 21.555 23.03 20.9322C23.3047 20.6724 23.5099 20.4091 23.9869 20.3415V20.3398ZM8.03009 26.2894L1.91727 24.0297L6.28058 11.0288L12.3647 13.2914C12.2853 13.8763 9.55788 21.7921 9.13374 23.0079C8.78185 24.018 8.29097 25.2961 8.03009 26.2894ZM37.357 12.8155C37.7018 12.5504 42.9084 10.409 43.4301 10.3187C43.9701 12.1712 47.9981 22.4515 48.072 23.1914L42.1031 25.634L37.3565 12.8161L37.357 12.8155ZM6.3236 10.0524C5.31481 10.2022 5.33577 10.9006 4.79691 12.4788L1.82627 21.2381C0.417614 25.2874 0.198649 24.4514 6.20832 26.7059C8.77578 27.6689 7.81223 27.2727 8.95504 26.7927C9.5314 27.3479 10.3218 27.7737 10.8513 28.3685C10.5137 28.9901 9.54354 29.8593 10.2137 31.4992C10.4023 31.9611 10.8331 32.412 11.196 32.6387C11.8429 33.0435 12.1606 32.9422 12.9455 32.9725C12.9157 34.8081 14.1093 35.8986 15.9073 35.6866C15.9123 37.4774 16.9845 38.558 18.7263 38.4345C18.6755 40.0324 19.3881 41.0338 20.6275 41.3082C22.4895 41.7201 23.041 40.1064 23.7211 39.7505C24.4944 40.7688 25.6217 41.5115 26.9432 41.2168C28.1633 40.9447 28.9928 39.9159 29.081 38.4182C30.2487 38.9034 31.0159 39.1703 32.1956 38.3454C33.1085 37.7075 33.3721 36.8272 33.2971 35.2462C34.3776 35.2864 35.0063 34.9869 35.5579 34.3607C36.1866 33.6465 36.4172 32.9952 36.2688 31.7363C37.6979 31.8248 38.4612 31.2889 38.9852 30.4453C39.6007 29.4538 39.5489 28.1215 38.9405 27.2168C39.454 26.7939 40.4369 26.2352 41.0541 25.8764C41.0712 25.8921 41.0954 25.8962 41.1026 25.9282C41.1032 25.9294 41.5146 26.5754 42.0877 26.5947C42.5482 26.6098 45.478 25.313 46.0241 25.0922C46.542 24.8825 48.2435 24.2633 48.575 24.018C49.4337 23.3825 48.7774 22.2162 48.4614 21.3377C47.9567 19.9361 44.5774 11.1389 44.568 10.4888C44.2393 10.1759 44.3347 9.72214 43.8482 9.45649C43.1444 9.07143 41.1346 10.1526 40.0756 10.5802C36.4696 12.036 36.2054 11.7756 36.6483 13.6957C35.078 14.908 30.8548 14.2224 28.8108 13.9416C27.4727 13.7581 23.9638 13.1481 22.784 13.9299L21.6236 14.9389C21.0599 14.6564 20.8387 14.3715 19.9331 14.3232C17.9536 14.2177 15.2195 14.4915 13.0977 14.3465C13.2687 13.3678 13.5274 12.7019 12.5302 12.2982C11.5556 11.9032 6.72292 10.0594 6.32305 10.053L6.3236 10.0524Z" fill="#01B055"/>
</svg>
