<svg id="Слой_1" data-name="Слой 1" xmlns="http://www.w3.org/2000/svg" viewBox="0 0 23.82 21.99"><path d="M11.5,2a10.8,10.8,0,0,1,2.66.17c1.72,1.56,3.5,3.06,5.32,4.49q-.11-3.25,3-2.16A41.74,41.74,0,0,1,23,9.68a2.33,2.33,0,0,1,1.66,3,1.84,1.84,0,0,1-2.16-.16C19.31,9.72,16.09,7,12.83,4.35,9.56,7,6.34,9.72,3.17,12.51Q.46,14,1,11,6.43,6.67,11.5,2Z" transform="translate(-0.92 -2)" fill-rule="evenodd" opacity="0.85" style="isolation:isolate"/><path d="M12.16,6a2.74,2.74,0,0,1,1.33.16q4.57,3.91,9.16,7.82a61.31,61.31,0,0,1,0,9l-.84.83a32.13,32.13,0,0,1-6.65,0,59.29,59.29,0,0,1-.5-6.15,1.5,1.5,0,0,0-1.83-1,1.49,1.49,0,0,0-1.83,1c-.07,2.08-.23,4.13-.5,6.15a32.23,32.23,0,0,1-6.66,0L3,23a58.65,58.65,0,0,1,0-9C6.12,11.39,9.17,8.72,12.16,6Z" transform="translate(-0.92 -2)" fill-rule="evenodd" opacity="0.96" style="isolation:isolate"/></svg>