<svg id="Слой_1" data-name="Слой 1" xmlns="http://www.w3.org/2000/svg" viewBox="0 0 23.93 16.69"><path d="M2,4.55q11.22-.19,22.36.39a2.67,2.67,0,0,1,.39.65c0,2.43.09,4.85.13,7.28a59.58,59.58,0,0,1-.39,7.8,2.5,2.5,0,0,1-.65.39l-10.92.13q-5.76.06-11.44-.39A2.5,2.5,0,0,1,1,20.15Q.78,12.88,1,5.59A1.81,1.81,0,0,1,2,4.55Zm5.2,3.9q4.15-.16,2.73,3.9c-1.55,2-1.07,3.24,1.43,3.77a1.49,1.49,0,0,1,.78,1.43H4.29a1.49,1.49,0,0,1,.78-1.43c2.5-.53,3-1.78,1.43-3.77a9.61,9.61,0,0,1,0-3.12A2.82,2.82,0,0,0,7.15,8.45ZM15,9.75q3.12-.06,6.24.13.52.39,0,.78a38.24,38.24,0,0,1-6.24,0A.56.56,0,0,1,15,9.75Zm0,2.6q3.12-.06,6.24.13.52.39,0,.78a38.24,38.24,0,0,1-6.24,0A.56.56,0,0,1,15,12.35ZM15,15q3.12-.06,6.24.13.52.39,0,.78a38.24,38.24,0,0,1-6.24,0A.56.56,0,0,1,15,15Z" transform="translate(-0.91 -4.5)" fill-rule="evenodd" opacity="0.98" style="isolation:isolate"/></svg>