<svg width="60" height="60" viewBox="0 0 60 60" fill="none" xmlns="http://www.w3.org/2000/svg">
<path d="M29.2852 3.82031C28.3242 3.99609 27.1289 5.15625 26.8359 6.1875C26.7773 6.42188 26.7188 7.81641 26.7188 9.28125V11.9531L17.8477 11.9766L8.96484 12.0117L8.47266 12.2695C7.86328 12.5977 7.23047 13.2422 6.96094 13.8047C6.84375 14.0508 6.72656 14.6016 6.70312 15.0703C6.64453 16.125 6.94922 16.8984 7.69922 17.5898C8.35547 18.1992 8.88281 18.4102 9.90234 18.5039L10.7344 18.5742L6.32812 25.6641L1.93359 32.7539L1.94531 34.6875C1.95703 36.9727 2.14453 37.8633 2.98828 39.5742C4.01953 41.6602 5.69531 43.3477 7.76953 44.3789C9.1875 45.082 10.2422 45.3633 11.8594 45.4336C15.2227 45.5977 17.8945 44.5195 20.168 42.0938C21.5156 40.6523 22.4062 38.9883 22.8047 37.125C23.0391 36.0234 23.1562 33.4336 23.0039 32.9648C22.9336 32.7656 20.9531 29.5078 18.6094 25.7109C16.2539 21.9141 14.2969 18.7383 14.25 18.6562C14.1797 18.5508 15.457 18.5156 20.4375 18.5156H26.7188V33.9844V49.4531H23.5664C20.7539 49.4531 20.332 49.4766 19.6641 49.6875C18.2578 50.1211 17.2383 51.0117 16.6055 52.3711C16.2773 53.0508 16.2305 53.2969 16.1953 54.375C16.1484 55.4766 16.1719 55.6406 16.3828 55.8984L16.6172 56.1914H30H43.3828L43.6172 55.8984C43.8281 55.6406 43.8516 55.4766 43.8047 54.375C43.7695 53.2852 43.7227 53.0508 43.3945 52.3594C42.7383 50.9766 41.5898 50.0039 40.1484 49.6172C39.7148 49.5 38.6953 49.4531 36.4219 49.4531H33.2812V33.9844V18.5156H39.5625C44.543 18.5156 45.8203 18.5508 45.75 18.6562C45.7031 18.7383 43.7461 21.9141 41.3906 25.7109C39.0469 29.5078 37.0664 32.7773 36.9961 32.9648C36.8438 33.4102 36.9727 36.1172 37.1953 37.1719C38.0977 41.332 41.6367 44.6719 45.8789 45.3633C46.957 45.5273 49.2188 45.4453 50.1562 45.1875C53.2148 44.3438 55.6172 42.375 57.0234 39.5508C57.8438 37.8867 58.043 36.9727 58.0547 34.6875L58.0664 32.7539L53.6719 25.6641L49.2656 18.5742L50.0977 18.5039C51.1055 18.4102 51.6211 18.1992 52.2656 17.6133C53.9531 16.1016 53.5781 13.3711 51.5156 12.2695L51.0352 12.0117L42.1641 11.9766L33.293 11.9531L33.2578 9.04688L33.2227 6.15234L32.8711 5.53125C32.4961 4.83984 32.0859 4.45312 31.3945 4.08984C30.9375 3.86719 29.8594 3.72656 29.2852 3.82031ZM30.7148 5.89453C30.9258 6.03516 31.1719 6.29297 31.2539 6.44531C31.3711 6.67969 31.4062 11.25 31.4062 28.0898V49.4531H30H28.5938V28.0898C28.5938 11.25 28.6289 6.67969 28.7461 6.44531C28.9336 6.05859 29.6016 5.625 30 5.625C30.1758 5.625 30.4922 5.74219 30.7148 5.89453ZM26.7188 15.2344V16.6406H18.2227C9.03516 16.6406 9.16406 16.6523 8.75391 16.0195C8.53125 15.6797 8.48438 14.8711 8.68359 14.5195C8.74219 14.3906 8.97656 14.1797 9.17578 14.0625C9.53906 13.8398 9.84375 13.8281 18.1406 13.8281H26.7188V15.2344ZM50.7422 14.0039C50.9297 14.0977 51.1641 14.2969 51.2578 14.4375C51.4922 14.7773 51.4922 15.4922 51.2578 15.9492C50.8945 16.6523 51.0938 16.6406 41.7773 16.6406H33.2812V15.2344V13.8281H41.8359C49.207 13.8281 50.4492 13.8516 50.7422 14.0039ZM16.4766 25.8398L20.3906 32.168L12.5273 32.2031C8.19141 32.2148 4.62891 32.2031 4.59375 32.1797C4.51172 32.0977 12.3516 19.4648 12.4688 19.4883C12.5156 19.5117 14.332 22.3711 16.4766 25.8398ZM51.5508 25.793C53.6953 29.2734 55.4297 32.1445 55.4062 32.1797C55.3711 32.2031 51.8086 32.2148 47.4727 32.2031L39.6094 32.168L42.4336 27.5977C47.25 19.8047 47.4727 19.4531 47.5547 19.4531C47.6016 19.4648 49.3945 22.3125 51.5508 25.793ZM21.2109 34.5469C21.2109 35.4258 20.9648 36.9023 20.6836 37.7227C19.9453 39.9141 18.4102 41.6484 16.2891 42.7148C14.918 43.4062 14.3086 43.5352 12.4219 43.5352C10.8633 43.5352 10.6406 43.5 9.78516 43.207C8.4375 42.7383 7.33594 42.0469 6.31641 41.0273C4.66406 39.3633 3.76172 37.2305 3.75 34.9453V34.1016H12.4805H21.2109V34.5469ZM56.2148 35.2969C56.0859 37.5938 55.2656 39.4336 53.6719 41.0156C52.5234 42.1641 51.75 42.6562 50.3086 43.1602C49.0078 43.6172 47.0977 43.7227 45.7031 43.4297C44.625 43.1953 43.1953 42.5273 42.2109 41.7773C40.1016 40.1836 38.8008 37.4766 38.7891 34.6523V34.1016H47.543H56.2852L56.2148 35.2969ZM40.2656 51.6445C41.1797 52.1367 41.9531 53.2734 41.9531 54.1289V54.375H29.9883H18.0117L18.082 53.918C18.2109 52.9219 18.8672 52.0664 19.8633 51.5977L20.4492 51.3281L30.1172 51.3516L39.7852 51.3867L40.2656 51.6445Z" fill="#BFE9D3"/>
<path d="M18.3164 35.4141C18.1875 35.5664 18.0117 35.9414 17.9297 36.2461C17.6133 37.4297 16.5469 38.8008 15.4102 39.5156C14.4844 40.1016 14.2969 40.3008 14.2969 40.7461C14.2969 41.2148 14.7305 41.7188 15.1406 41.7188C15.9492 41.7188 18.0938 39.9375 18.9023 38.5898C19.4883 37.6289 19.957 36.2812 19.8633 35.8477C19.7109 35.168 18.7734 34.9102 18.3164 35.4141Z" fill="#BFE9D3"/>
<path d="M53.7652 35.2734C53.6597 35.3438 53.4839 35.6719 53.3785 36.0117C52.8629 37.582 51.8082 38.9414 50.4839 39.7266C49.7339 40.1719 49.4879 40.5586 49.6754 41.0391C49.816 41.4023 50.2261 41.7188 50.5777 41.7188C50.9879 41.7188 52.4996 40.6406 53.3433 39.75C54.773 38.2266 55.5933 36.0234 54.9722 35.4023C54.7144 35.1445 54.1168 35.0742 53.7652 35.2734Z" fill="#BFE9D3"/>
</svg>
