<svg id="Слой_1" data-name="Слой 1" xmlns="http://www.w3.org/2000/svg" xmlns:xlink="http://www.w3.org/1999/xlink" viewBox="0 0 26.11 23.84"><defs><clipPath id="clip-path" transform="translate(0 -0.93)"><rect width="26" height="26" fill="none"/></clipPath></defs><g clip-path="url(#clip-path)"><path d="M11.16,1c2.35-.31,3.09.59,2.21,2.72L8.1,9c-2.28.46-3-.39-2.2-2.55C7.72,4.66,9.48,2.84,11.16,1Z" transform="translate(0 -0.93)" fill-rule="evenodd" opacity="0.82" style="isolation:isolate"/><path d="M14.22,4.05A11.79,11.79,0,0,1,19.31,9l-5.43,5.44a1.73,1.73,0,0,1-1.53-.51L4,22.9Q1.42,24.33.12,21.71a2.86,2.86,0,0,1,.34-2.38l9-8.32A1.74,1.74,0,0,1,9,9.48C10.78,7.71,12.53,5.9,14.22,4.05Z" transform="translate(0 -0.93)" fill-rule="evenodd" opacity="0.9" style="isolation:isolate"/><path d="M20.33,9.48q2.81,0,1.87,2.72A38.72,38.72,0,0,1,15.75,18c-1.43-.37-1.88-1.27-1.36-2.72C16.33,13.25,18.32,11.33,20.33,9.48Z" transform="translate(0 -0.93)" fill-rule="evenodd" opacity="0.82" style="isolation:isolate"/><path d="M15.24,20.69c3.28-.06,6.57,0,9.85.17a2.87,2.87,0,0,1,.85,3.23,3.49,3.49,0,0,1-.85.51,73.58,73.58,0,0,1-9.85,0Q13.22,22.67,15.24,20.69Z" transform="translate(0 -0.93)" fill-rule="evenodd" opacity="0.9" style="isolation:isolate"/></g></svg>