<svg width="180" height="26" viewBox="0 0 180 26" fill="none" xmlns="http://www.w3.org/2000/svg">
<path d="M68.9399 12.1358C68.7128 11.4834 68.3472 10.888 67.8683 10.3902C67.3804 9.89103 66.7937 9.49915 66.1457 9.23965C65.4136 8.95059 64.6316 8.80872 63.8446 8.82216C62.7039 8.82216 61.7698 9.03584 61.0422 9.46319C60.3729 9.83859 59.7952 10.3579 59.3509 10.9836L61.0422 12.4415C61.2996 12.012 61.6508 11.6462 62.0695 11.3715C62.5078 11.0723 63.0853 10.9228 63.8019 10.9228C64.6577 10.9228 65.3354 11.1545 65.8351 11.618C66.3334 12.0791 66.6646 12.6924 66.7769 13.3619H61.9659V15.0352H66.7802C66.7282 15.7789 66.3957 16.4751 65.8499 16.9829C65.314 17.4683 64.6182 17.7111 63.7624 17.7111C63.1626 17.7267 62.5713 17.5667 62.0613 17.2508C61.6246 16.9845 61.2547 16.6219 60.9797 16.1907L59.2473 17.6042C59.7732 18.3285 60.4722 18.9094 61.2805 19.2939C62.061 19.6423 62.9077 19.8178 63.7624 19.8084C64.5212 19.8158 65.274 19.6739 65.9781 19.3909C66.6332 19.1266 67.2298 18.7356 67.7335 18.2403C68.2298 17.7462 68.6211 17.157 68.8841 16.5079C69.1665 15.8146 69.3084 15.0721 69.3016 14.3235C69.3076 13.5789 69.1853 12.8388 68.9399 12.1358Z" fill="black"/>
<path d="M80.3254 16.1267C79.7342 15.2083 78.897 14.4742 77.9093 14.008L81.5023 9.1543H78.6769L75.7018 13.2634C75.2941 13.1756 74.878 13.1326 74.4609 13.1352V9.1543H71.8918V19.5093H74.4576V15.1635C74.9994 15.1822 75.536 15.2762 76.0519 15.4429C76.5112 15.597 76.9337 15.8443 77.2929 16.1694C77.6883 16.54 78.0082 16.9838 78.2347 17.4761C78.5361 18.1248 78.7579 18.8074 78.8955 19.5093H81.7193C81.4376 18.3148 80.967 17.1729 80.3254 16.1267Z" fill="black"/>
<path d="M91.5188 16.6407C91.2658 16.963 90.9388 17.2196 90.5655 17.3885C90.1535 17.5786 89.7042 17.674 89.2505 17.668C88.8092 17.6742 88.3715 17.5862 87.9668 17.4099C87.5914 17.2467 87.2552 17.0052 86.9806 16.7015C86.7042 16.3923 86.4929 16.0307 86.3593 15.638C86.2149 15.2205 86.1427 14.7814 86.1457 14.3396C86.1419 13.8913 86.2182 13.4461 86.3708 13.0246C86.509 12.6345 86.7192 12.2737 86.9905 11.9612C87.2569 11.6586 87.5855 11.417 87.9537 11.2528C88.3547 11.0758 88.7893 10.9878 89.2275 10.9947C89.6648 10.9939 90.0966 11.0928 90.4898 11.284C90.8633 11.4536 91.182 11.724 91.4103 12.0647L93.0375 10.4211C92.5752 9.90179 91.9904 9.50628 91.3363 9.27052C90.6504 9.00345 89.9209 8.8658 89.1848 8.86454C88.4109 8.85727 87.6422 8.99152 86.9165 9.26066C86.2457 9.50589 85.6333 9.88822 85.1184 10.3833C84.6137 10.8765 84.2135 11.4662 83.9415 12.1173C83.6489 12.8223 83.5029 13.5796 83.5125 14.3428C83.5018 15.1126 83.6437 15.8768 83.93 16.5914C84.195 17.2429 84.5962 17.8302 85.1069 18.3139C85.6264 18.8006 86.2377 19.1789 86.905 19.4267C87.6342 19.6976 88.407 19.8319 89.1848 19.8228C89.9504 19.834 90.7106 19.6938 91.4218 19.4102C92.0465 19.1596 92.6115 18.7805 93.0803 18.2975L91.5188 16.6407Z" fill="black"/>
<path d="M94.8389 9.1543V19.5093H97.4063V11.1826H101.795V19.5093H104.362V9.1543H94.8389Z" fill="black"/>
<path d="M117.127 12.0505C116.911 11.4183 116.565 10.8382 116.111 10.3477C115.66 9.87095 115.113 9.49557 114.505 9.24642C113.833 8.97342 113.112 8.8387 112.387 8.8503C111.655 8.84323 110.93 8.97774 110.25 9.24642C109.599 9.50198 109.008 9.88819 108.512 10.3812C108.017 10.8742 107.627 11.4636 107.368 12.113C107.083 12.8233 106.942 13.583 106.951 14.3483C106.938 15.1261 107.083 15.8984 107.378 16.6182C107.647 17.2644 108.048 17.8473 108.555 18.3293C109.066 18.8075 109.666 19.1791 110.322 19.4223C111.882 19.9849 113.598 19.9261 115.115 19.2579C115.903 18.8824 116.582 18.3115 117.087 17.5995L115.276 16.3865C114.995 16.7962 114.621 17.134 114.185 17.3727C113.674 17.6542 113.098 17.7949 112.515 17.7803C112.121 17.7834 111.731 17.7109 111.364 17.5666C111.016 17.4293 110.695 17.2336 110.413 16.988C110.131 16.7435 109.902 16.4451 109.739 16.1103C109.567 15.7711 109.472 15.3987 109.459 15.0189H117.464C117.478 14.8913 117.485 14.7628 117.485 14.6343V14.2645C117.494 13.5114 117.373 12.7624 117.127 12.0505ZM109.476 13.3441C109.506 12.9967 109.596 12.6574 109.744 12.3414C109.889 12.0233 110.096 11.7372 110.353 11.4999C110.617 11.2574 110.921 11.0637 111.252 10.9279C111.612 10.7803 111.998 10.7071 112.387 10.7126C113.243 10.7126 113.897 10.964 114.346 11.467C114.8 11.986 115.048 12.6542 115.041 13.3441H109.476Z" fill="black"/>
<path d="M130.963 12.1997C130.735 11.5618 130.386 10.9741 129.934 10.469C129.485 9.9722 128.937 9.57472 128.325 9.30198C127.655 9.00908 126.931 8.86335 126.2 8.87463C125.478 8.86662 124.764 9.03176 124.119 9.35622C123.517 9.65234 123 10.0969 122.617 10.6481H122.551V9.15405H120.085V22.2326H122.654V18.0955H122.697C123.076 18.6445 123.599 19.078 124.209 19.348C124.831 19.6372 125.508 19.787 126.193 19.7869C126.929 19.798 127.658 19.6482 128.33 19.348C128.948 19.0699 129.5 18.665 129.951 18.1596C130.4 17.6499 130.746 17.0576 130.97 16.4157C131.209 15.7385 131.33 15.0252 131.328 14.3069C131.332 13.5885 131.209 12.875 130.963 12.1997ZM128.557 15.5807C128.43 15.9714 128.23 16.3345 127.968 16.6508C127.705 16.9602 127.376 17.2067 127.005 17.3723C126.581 17.5592 126.121 17.6507 125.657 17.6402C125.215 17.6465 124.776 17.555 124.372 17.3723C123.993 17.2019 123.652 16.9568 123.369 16.6515C123.087 16.3462 122.869 15.987 122.728 15.5955C122.577 15.1806 122.501 14.742 122.503 14.3003C122.502 13.8663 122.578 13.4355 122.728 13.0281C122.871 12.6328 123.09 12.2688 123.371 11.9565C123.648 11.6505 123.983 11.4034 124.357 11.23C124.765 11.0452 125.21 10.9537 125.657 10.9621C126.121 10.9516 126.581 11.0431 127.005 11.23C127.376 11.3974 127.705 11.6456 127.968 11.9565C128.23 12.2736 128.43 12.6372 128.557 13.0281C128.829 13.8551 128.829 14.7472 128.557 15.5742V15.5807Z" fill="black"/>
<path d="M132.633 9.1543V11.1826H135.866V19.5093H138.434V11.1826H141.795V9.1543H132.633Z" fill="black"/>
<path d="M50.6459 7.02539H48.9431V22.1437H50.6459V7.02539Z" fill="black"/>
<path d="M2.61177 19.9757H10.1446V22.2883H0V7.13379H9.82413V9.44641H2.61177V13.3912H9.36884V15.5888H2.61177V19.9757Z" fill="black"/>
<path d="M12.8418 7.13379H18.1705C18.7674 7.13502 19.3627 7.19614 19.9473 7.31623C20.5182 7.42684 21.0651 7.63715 21.563 7.93754C22.0449 8.23286 22.4486 8.63992 22.7399 9.12426C23.0478 9.62393 23.2012 10.2589 23.2001 11.0293C23.219 11.781 22.969 12.5148 22.495 13.0986C22.0133 13.6768 21.3617 14.0886 20.6327 14.2755V14.3199C21.0778 14.387 21.5105 14.5199 21.9164 14.7143C22.3047 14.9 22.6565 15.1539 22.9552 15.4638C23.2519 15.7797 23.4842 16.1504 23.639 16.5552C23.9705 17.3814 24.0091 18.2961 23.7483 19.1472C23.4875 19.9983 22.9431 20.7345 22.2057 21.2331C21.6507 21.6068 21.0325 21.8769 20.3812 22.0302C19.656 22.2065 18.9119 22.2932 18.1656 22.2883H12.8418V7.13379ZM15.4503 13.4487H17.9322C18.2749 13.4503 18.6165 13.4106 18.9496 13.3304C19.2522 13.2594 19.5388 13.1323 19.7945 12.9556C20.0361 12.7848 20.2343 12.5596 20.373 12.2982C20.5237 11.9959 20.5971 11.661 20.5867 11.3235C20.5867 10.6123 20.3128 10.0989 19.7649 9.78336C19.217 9.46778 18.5146 9.31273 17.6577 9.31821H15.4503V13.4487ZM15.4503 20.0825H17.8681C18.2775 20.0835 18.6859 20.0444 19.0877 19.9658C19.4601 19.8971 19.8185 19.7665 20.1478 19.5795C20.4512 19.4038 20.7082 19.1581 20.8974 18.8629C21.099 18.5277 21.199 18.1411 21.185 17.7502C21.185 16.9371 20.8995 16.3558 20.3286 16.0062C19.7578 15.6567 18.9814 15.4819 17.9996 15.4819H15.4503V20.0825Z" fill="black"/>
<path d="M29.515 18.5227L36.9624 7.13543H40.0854V22.2899H37.4128V10.901H37.3701L29.8997 22.2883H26.7915V7.13379H29.4674V18.5227H29.515Z" fill="black"/>
<path d="M180 8.68863L173.003 15.564C173.003 15.564 171.164 13.6788 168.322 10.8155C173.94 7.42137 180 8.68863 180 8.68863Z" fill="#01B055"/>
<path d="M172.091 16.7292C172.091 16.7292 170.252 14.844 167.41 11.9791C165.592 10.153 163.379 7.92746 160.96 5.53759C154.773 -0.588319 146.397 1.16217 146.397 1.16217L154.984 9.74699C155.901 10.6642 156.629 11.7532 157.126 12.9518C157.623 14.1504 157.878 15.4351 157.878 16.7325C157.878 18.0299 157.623 19.3147 157.126 20.5133C156.629 21.7119 155.901 22.8009 154.984 23.7181L153.176 25.5261C153.176 25.5261 161.049 27.1697 167.166 21.6881L167.148 21.6701L170.082 18.7345L172.091 16.7292Z" fill="#01B055"/>
</svg>
