<svg width="180" height="25" viewBox="0 0 180 25" fill="none" xmlns="http://www.w3.org/2000/svg">
<path d="M68.9397 11.2051C68.7125 10.5528 68.347 9.95732 67.868 9.45955C67.3802 8.96036 66.7935 8.56849 66.1455 8.30899C65.4134 8.01993 64.6314 7.87806 63.8444 7.8915C62.7037 7.8915 61.7695 8.10517 61.0419 8.53252C60.3726 8.90793 59.795 9.42721 59.3506 10.0529L61.0419 11.5108C61.2994 11.0813 61.6506 10.7155 62.0692 10.4408C62.5075 10.1417 63.085 9.99209 63.8016 9.99209C64.6574 9.99209 65.3352 10.2238 65.8348 10.6874C66.3331 11.1484 66.6644 11.7618 66.7767 12.4313H61.9657V14.1045H66.7799C66.728 14.8482 66.3954 15.5444 65.8496 16.0522C65.3138 16.5377 64.618 16.7804 63.7622 16.7804C63.1624 16.796 62.5711 16.6361 62.061 16.3202C61.6244 16.0538 61.2545 15.6912 60.9795 15.26L59.2471 16.6736C59.7729 17.3978 60.472 17.9788 61.2803 18.3632C62.0608 18.7117 62.9075 18.8872 63.7622 18.8777C64.521 18.8851 65.2738 18.7433 65.9778 18.4602C66.633 18.1959 67.2295 17.8049 67.7333 17.3096C68.2295 16.8156 68.6209 16.2263 68.8838 15.5772C69.1663 14.8839 69.3082 14.1414 69.3013 13.3928C69.3074 12.6482 69.185 11.9082 68.9397 11.2051Z" fill="white"/>
<path d="M80.3252 15.195C79.7339 14.2766 78.8968 13.5426 77.909 13.0764L81.5021 8.22266H78.6766L75.7016 12.3318C75.2939 12.2439 74.8777 12.2009 74.4606 12.2036V8.22266H71.8916V18.5777H74.4573V14.2319C74.9992 14.2506 75.5358 14.3446 76.0517 14.5113C76.511 14.6654 76.9335 14.9127 77.2927 15.2378C77.6881 15.6084 78.0079 16.0521 78.2345 16.5445C78.5358 17.1931 78.7577 17.8758 78.8952 18.5777H81.719C81.4373 17.3832 80.9668 16.2413 80.3252 15.195Z" fill="white"/>
<path d="M91.5185 15.71C91.2656 16.0324 90.9385 16.2889 90.5652 16.4579C90.1532 16.6479 89.704 16.7434 89.2503 16.7373C88.8089 16.7435 88.3713 16.6555 87.9666 16.4792C87.5912 16.3161 87.2549 16.0745 86.9804 15.7708C86.704 15.4617 86.4927 15.1 86.3591 14.7074C86.2147 14.2898 86.1424 13.8507 86.1454 13.4089C86.1417 12.9607 86.2179 12.5154 86.3706 12.094C86.5088 11.7038 86.719 11.3431 86.9903 11.0305C87.2567 10.7279 87.5852 10.4863 87.9534 10.3221C88.3544 10.1451 88.789 10.0571 89.2273 10.0641C89.6646 10.0632 90.0963 10.1622 90.4896 10.3533C90.863 10.5229 91.1818 10.7933 91.4101 11.1341L93.0373 9.49042C92.575 8.97112 91.9902 8.57562 91.3361 8.33986C90.6501 8.07279 89.9206 7.93513 89.1845 7.93387C88.4106 7.92661 87.6419 8.06085 86.9163 8.32999C86.2454 8.57523 85.633 8.95756 85.1181 9.45261C84.6135 9.94583 84.2133 10.5356 83.9413 11.1867C83.6486 11.8917 83.5027 12.6489 83.5123 13.4122C83.5015 14.1819 83.6434 14.9461 83.9298 15.6607C84.1947 16.3122 84.596 16.8996 85.1066 17.3833C85.6262 17.8699 86.2374 18.2482 86.9048 18.496C87.6339 18.767 88.4067 18.9012 89.1845 18.8921C89.9501 18.9034 90.7104 18.7632 91.4216 18.4796C92.0462 18.229 92.6113 17.8498 93.08 17.3668L91.5185 15.71Z" fill="white"/>
<path d="M94.8389 8.22266V18.5777H97.4063V10.2509H101.795V18.5777H104.362V8.22266H94.8389Z" fill="white"/>
<path d="M117.127 11.1189C116.911 10.4866 116.565 9.9066 116.111 9.41603C115.66 8.93931 115.113 8.56393 114.505 8.31478C113.833 8.04178 113.112 7.90706 112.387 7.91866C111.655 7.91159 110.93 8.0461 110.25 8.31478C109.599 8.57034 109.008 8.95655 108.512 9.44958C108.017 9.94261 107.627 10.532 107.368 11.1813C107.083 11.8917 106.942 12.6513 106.951 13.4167C106.938 14.1945 107.083 14.9668 107.378 15.6866C107.647 16.3328 108.048 16.9156 108.555 17.3976C109.066 17.8758 109.666 18.2474 110.322 18.4907C111.882 19.0533 113.598 18.9944 115.115 18.3263C115.903 17.9508 116.582 17.3799 117.087 16.6678L115.276 15.4548C114.995 15.8645 114.621 16.2023 114.185 16.441C113.674 16.7226 113.098 16.8633 112.515 16.8486C112.121 16.8518 111.731 16.7792 111.364 16.635C111.016 16.4976 110.695 16.302 110.413 16.0564C110.131 15.8119 109.902 15.5134 109.739 15.1787C109.567 14.8395 109.472 14.4671 109.459 14.0873H117.464C117.478 13.9596 117.485 13.8312 117.485 13.7027V13.3329C117.494 12.5797 117.373 11.8308 117.127 11.1189ZM109.476 12.4124C109.506 12.0651 109.596 11.7257 109.744 11.4098C109.889 11.0917 110.096 10.8056 110.353 10.5682C110.617 10.3258 110.921 10.1321 111.252 9.99624C111.612 9.8487 111.998 9.77545 112.387 9.78092C113.243 9.78092 113.897 10.0324 114.346 10.5354C114.8 11.0544 115.048 11.7226 115.041 12.4124H109.476Z" fill="white"/>
<path d="M130.964 11.2691C130.736 10.6312 130.386 10.0434 129.935 9.53831C129.485 9.04154 128.937 8.64406 128.326 8.37132C127.656 8.07842 126.931 7.93269 126.2 7.94397C125.478 7.93596 124.765 8.1011 124.119 8.42556C123.517 8.72168 123 9.16628 122.617 9.71747H122.551V8.22339H120.086V21.302H122.655V17.1649H122.698C123.077 17.7138 123.6 18.1473 124.21 18.4173C124.831 18.7066 125.508 18.8563 126.194 18.8562C126.929 18.8673 127.659 18.7175 128.331 18.4173C128.948 18.1392 129.5 17.7343 129.951 17.229C130.401 16.7192 130.747 16.1269 130.97 15.4851C131.21 14.8078 131.331 14.0945 131.329 13.3762C131.333 12.6578 131.209 11.9443 130.964 11.2691ZM128.557 14.6501C128.431 15.0407 128.231 15.4038 127.969 15.7201C127.706 16.0295 127.377 16.2761 127.006 16.4417C126.582 16.6286 126.121 16.72 125.658 16.7096C125.215 16.7158 124.776 16.6243 124.373 16.4417C123.993 16.2713 123.652 16.0261 123.37 15.7208C123.087 15.4155 122.869 15.0564 122.729 14.6649C122.578 14.2499 122.501 13.8114 122.504 13.3697C122.503 12.9356 122.579 12.5048 122.729 12.0975C122.872 11.7021 123.09 11.3382 123.372 11.0258C123.648 10.7198 123.984 10.4727 124.358 10.2993C124.766 10.1145 125.21 10.023 125.658 10.0314C126.121 10.021 126.582 10.1124 127.006 10.2993C127.377 10.4668 127.706 10.715 127.969 11.0258C128.231 11.3429 128.43 11.7065 128.557 12.0975C128.829 12.9244 128.829 13.8166 128.557 14.6435V14.6501Z" fill="white"/>
<path d="M132.633 8.22266V10.2509H135.866V18.5777H138.433V10.2509H141.795V8.22266H132.633Z" fill="white"/>
<path d="M50.6459 6.09375H48.9431V21.2121H50.6459V6.09375Z" fill="white"/>
<path d="M2.61177 19.045H10.1446V21.3576H0V6.20312H9.82413V8.51575H2.61177V12.4605H9.36884V14.6581H2.61177V19.045Z" fill="white"/>
<path d="M12.8418 6.20312H18.1705C18.7674 6.20435 19.3627 6.26547 19.9473 6.38557C20.5182 6.49618 21.0651 6.70649 21.563 7.00687C22.0449 7.3022 22.4486 7.70925 22.7399 8.19359C23.0478 8.69326 23.2012 9.32826 23.2001 10.0986C23.219 10.8503 22.969 11.5841 22.495 12.168C22.0133 12.7461 21.3617 13.1579 20.6327 13.3448V13.3892C21.0778 13.4563 21.5105 13.5892 21.9164 13.7837C22.3047 13.9694 22.6565 14.2232 22.9552 14.5332C23.2519 14.849 23.4842 15.2198 23.639 15.6246C23.9705 16.4507 24.0091 17.3654 23.7483 18.2166C23.4875 19.0677 22.9431 19.8038 22.2057 20.3024C21.6507 20.6761 21.0325 20.9462 20.3812 21.0996C19.656 21.2758 18.9119 21.3625 18.1656 21.3576H12.8418V6.20312ZM15.4503 12.518H17.9322C18.2749 12.5197 18.6165 12.4799 18.9496 12.3997C19.2522 12.3287 19.5388 12.2016 19.7945 12.025C20.0361 11.8541 20.2343 11.6289 20.373 11.3675C20.5237 11.0652 20.5971 10.7304 20.5867 10.3928C20.5867 9.68165 20.3128 9.16828 19.7649 8.8527C19.217 8.53712 18.5146 8.38206 17.6577 8.38754H15.4503V12.518ZM15.4503 19.1518H17.8681C18.2775 19.1528 18.6859 19.1137 19.0877 19.0351C19.4601 18.9664 19.8185 18.8359 20.1478 18.6489C20.4512 18.4731 20.7082 18.2274 20.8974 17.9323C21.099 17.597 21.199 17.2105 21.185 16.8195C21.185 16.0064 20.8995 15.4251 20.3286 15.0756C19.7578 14.726 18.9814 14.5513 17.9996 14.5513H15.4503V19.1518Z" fill="white"/>
<path d="M29.5155 17.592L36.9629 6.20477H40.0859V21.3593H37.4133V9.97038H37.3706L29.9001 21.3576H26.792V6.20312H29.4679V17.592H29.5155Z" fill="white"/>
<path d="M180 7.75895L173.003 14.6344C173.003 14.6344 171.164 12.7491 168.322 9.88584C173.94 6.49169 180 7.75895 180 7.75895Z" fill="#01B055"/>
<path d="M172.091 15.7986C172.091 15.7986 170.252 13.9133 167.41 11.0484C165.592 9.22231 163.38 6.9968 160.96 4.60692C154.774 -1.51898 146.397 0.23151 146.397 0.23151L154.984 8.81632C155.902 9.73352 156.629 10.8225 157.126 12.0211C157.623 13.2197 157.878 14.5044 157.878 15.8019C157.878 17.0993 157.623 18.384 157.126 19.5826C156.629 20.7812 155.902 21.8702 154.984 22.7874L153.176 24.5954C153.176 24.5954 161.049 26.2391 167.167 20.7575L167.149 20.7394L170.083 17.8038L172.091 15.7986Z" fill="#01B055"/>
</svg>
