<svg width="39" height="39" viewBox="0 0 39 39" fill="none" xmlns="http://www.w3.org/2000/svg">
<g clip-path="url(#clip0_517_182)">
<path opacity="0.989" d="M20.8715 37.3429L20.8637 37.3521L20.8563 37.3616C20.5323 37.7817 20.165 38.148 19.754 38.4619H19.7532H19.7514H19.7496H19.7478H19.7461H19.7443H19.7425H19.7407H19.7389H19.7371H19.7353H19.7336H19.7318H19.73H19.7282H19.7264H19.7246H19.7228H19.7211H19.7193H19.7175H19.7157H19.7139H19.7121H19.7103H19.7086H19.7068H19.705H19.7032H19.7014H19.6996H19.6979H19.6961H19.6943H19.6925H19.6907H19.6889H19.6871H19.6854H19.6836H19.6818H19.68H19.6782H19.6764H19.6746H19.6729H19.6711H19.6693H19.6675H19.6657H19.6639H19.6621H19.6604H19.6586H19.6568H19.655H19.6532H19.6514H19.6496H19.6479H19.6461H19.6443H19.6425H19.6407H19.6389H19.6372H19.6354H19.6336H19.6318H19.63H19.6282H19.6264H19.6247H19.6229H19.6211H19.6193H19.6175H19.6157H19.6139H19.6122H19.6104H19.6086H19.6068H19.605H19.6032H19.6014H19.5997H19.5979H19.5961H19.5943H19.5925H19.5907H19.5889H19.5872H19.5854H19.5836H19.5818H19.58H19.5782H19.5765H19.5747H19.5729H19.5711H19.5693H19.5675H19.5657H19.564H19.5622H19.5604H19.5586H19.5568H19.555H19.5532H19.5515H19.5497H19.5479H19.5461H19.5443H19.5425H19.5407H19.539H19.5372H19.5354H19.5336H19.5318H19.53H19.5282H19.5265H19.5247H19.5229H19.5211H19.5193H19.5175H19.5158H19.514H19.5122H19.5104H19.5086H19.5068H19.505H19.5033H19.5015H19.4997H19.4979H19.4961H19.4943H19.4925H19.4908H19.489H19.4872H19.4854H19.4836H19.4818H19.48H19.4783H19.4765H19.4747H19.4729H19.4711H19.4693H19.4676H19.4658H19.464H19.4622H19.4604H19.4586H19.4568H19.4551H19.4533H19.4515H19.4497H19.4479H19.4461H19.4443H19.4426H19.4408H19.439H19.4372H19.4354H19.4336H19.4318H19.4301H19.4283H19.4265H19.4247H19.4229H19.4211H19.4193H19.4176H19.4158H19.414H19.4122H19.4104H19.4086H19.4069H19.4051H19.4033H19.4015H19.3997H19.3979H19.3961H19.3944H19.3926H19.3908H19.389H19.3872H19.3854H19.3836H19.3819H19.3801H19.3783H19.3765H19.3747H19.3729H19.3711H19.3694H19.3676H19.3658H19.364H19.3622H19.3604H19.3586H19.3569H19.3551H19.3533H19.3515H19.3497H19.3479H19.3462H19.3444H19.3426H19.3408H19.339H19.3372H19.3354H19.3337H19.3319H19.3301H19.3283H19.3265H19.3247H19.3229H19.3212H19.3194H19.3176H19.3158H19.314H19.3122H19.3104H19.3087H19.3069H19.3051H19.3033H19.3015H19.2997H19.2979H19.2962H19.2944H19.2926H19.2908H19.289H19.2872H19.2855H19.2837H19.2819H19.2801H19.2783H19.2765H19.2747H19.273H19.2712H19.2694H19.2676H19.2658H19.264H19.2622H19.2605H19.2587H19.2569H19.2551H19.2533H19.2515H19.2497H19.248H19.2462H19.2444H19.2426H19.2408H19.239H19.2372H19.2355H19.2337H19.2319H19.2301H19.2283H19.2265H19.2248H19.223H19.2212H19.2194H19.2176H19.2158H19.214H19.2123H19.2105H19.2087H19.2069H19.2051H19.2033H19.2015H19.1998H19.198H19.1962H19.1944H19.1926H19.1908H19.189H19.1873H19.1855H19.1837H19.1819H19.1801H19.1783H19.1765H19.1748H19.173H19.1712H19.1704C18.7594 38.148 18.3921 37.7817 18.0681 37.3616L18.0607 37.3521L18.0529 37.3429C14.8733 33.6076 12.0467 29.6202 9.573 25.3802C8.02891 22.7197 6.88015 19.8998 6.12619 16.9194C5.17788 11.5491 6.72785 7.0993 10.7954 3.50616C12.9262 1.8081 15.3396 0.794659 18.0453 0.461914H18.0489H18.0545H18.0602H18.0658H18.0715H18.0771H18.0828H18.0884H18.0941H18.0997H18.1054H18.111H18.1167H18.1223H18.128H18.1337H18.1393H18.145H18.1506H18.1563H18.1619H18.1676H18.1732H18.1789H18.1845H18.1902H18.1958H18.2015H18.2071H18.2128H18.2185H18.2241H18.2298H18.2354H18.2411H18.2467H18.2524H18.258H18.2637H18.2693H18.275H18.2806H18.2863H18.2919H18.2976H18.3033H18.3089H18.3146H18.3202H18.3259H18.3315H18.3372H18.3428H18.3485H18.3541H18.3598H18.3654H18.3711H18.3768H18.3824H18.3881H18.3937H18.3994H18.405H18.4107H18.4163H18.422H18.4276H18.4333H18.4389H18.4446H18.4502H18.4559H18.4616H18.4672H18.4729H18.4785H18.4842H18.4898H18.4955H18.5011H18.5068H18.5124H18.5181H18.5237H18.5294H18.535H18.5407H18.5464H18.552H18.5577H18.5633H18.569H18.5746H18.5803H18.5859H18.5916H18.5972H18.6029H18.6085H18.6142H18.6198H18.6255H18.6312H18.6368H18.6425H18.6481H18.6538H18.6594H18.6651H18.6707H18.6764H18.682H18.6877H18.6933H18.699H18.7046H18.7103H18.716H18.7216H18.7273H18.7329H18.7386H18.7442H18.7499H18.7555H18.7612H18.7668H18.7725H18.7781H18.7838H18.7894H18.7951H18.8008H18.8064H18.8121H18.8177H18.8234H18.829H18.8347H18.8403H18.846H18.8516H18.8573H18.8629H18.8686H18.8742H18.8799H18.8856H18.8912H18.8969H18.9025H18.9082H18.9138H18.9195H18.9251H18.9308H18.9364H18.9421H18.9477H18.9534H18.959H18.9647H18.9704H18.976H18.9817H18.9873H18.993H18.9986H19.0043H19.0099H19.0156H19.0212H19.0269H19.0325H19.0382H19.0438H19.0495H19.0552H19.0608H19.0665H19.0721H19.0778H19.0834H19.0891H19.0947H19.1004H19.106H19.1117H19.1173H19.123H19.1286H19.1343H19.14H19.1456H19.1513H19.1569H19.1626H19.1682H19.1739H19.1795H19.1852H19.1908H19.1965H19.2021H19.2078H19.2134H19.2191H19.2248H19.2304H19.2361H19.2417H19.2474H19.253H19.2587H19.2643H19.27H19.2756H19.2813H19.2869H19.2926H19.2982H19.3039H19.3096H19.3152H19.3209H19.3265H19.3322H19.3378H19.3435H19.3491H19.3548H19.3604H19.3661H19.3717H19.3774H19.383H19.3887H19.3944H19.4H19.4057H19.4113H19.417H19.4226H19.4283H19.4339H19.4396H19.4452H19.4509H19.4565H19.4622H19.4678H19.4735H19.4792H19.4848H19.4905H19.4961H19.5018H19.5074H19.5131H19.5187H19.5244H19.53H19.5357H19.5413H19.547H19.5526H19.5583H19.564H19.5696H19.5753H19.5809H19.5866H19.5922H19.5979H19.6035H19.6092H19.6148H19.6205H19.6261H19.6318H19.6374H19.6431H19.6488H19.6544H19.6601H19.6657H19.6714H19.677H19.6827H19.6883H19.694H19.6996H19.7053H19.7109H19.7166H19.7222H19.7279H19.7336H19.7392H19.7449H19.7505H19.7562H19.7618H19.7675H19.7731H19.7788H19.7844H19.7901H19.7957H19.8014H19.807H19.8127H19.8184H19.824H19.8297H19.8353H19.841H19.8466H19.8523H19.8579H19.8636H19.8692H19.8749H19.8805H19.8862H19.8918H19.8975H19.9032H19.9088H19.9145H19.9201H19.9258H19.9314H19.9371H19.9427H19.9484H19.954H19.9597H19.9653H19.971H19.9766H19.9823H19.988H19.9936H19.9993H20.0049H20.0106H20.0162H20.0219H20.0275H20.0332H20.0388H20.0445H20.0501H20.0558H20.0614H20.0671H20.0728H20.0784H20.0841H20.0897H20.0954H20.101H20.1067H20.1123H20.118H20.1236H20.1293H20.1349H20.1406H20.1462H20.1519H20.1576H20.1632H20.1689H20.1745H20.1802H20.1858H20.1915H20.1971H20.2028H20.2084H20.2141H20.2197H20.2254H20.231H20.2367H20.2424H20.248H20.2537H20.2593H20.265H20.2706H20.2763H20.2819H20.2876H20.2932H20.2989H20.3045H20.3102H20.3158H20.3215H20.3272H20.3328H20.3385H20.3441H20.3498H20.3554H20.3611H20.3667H20.3724H20.378H20.3837H20.3893H20.395H20.4006H20.4063H20.412H20.4176H20.4233H20.4289H20.4346H20.4402H20.4459H20.4515H20.4572H20.4628H20.4685H20.4741H20.4798H20.4854H20.4911H20.4968H20.5024H20.5081H20.5137H20.5194H20.525H20.5307H20.5363H20.542H20.5476H20.5533H20.5589H20.5646H20.5703H20.5759H20.5816H20.5872H20.5929H20.5985H20.6042H20.6098H20.6155H20.6211H20.6268H20.6324H20.6381H20.6437H20.6494H20.6551H20.6607H20.6664H20.672H20.6777H20.6833H20.689H20.6946H20.7003H20.7059H20.7116H20.7172H20.7229H20.7285H20.7342H20.7399H20.7455H20.7512H20.7568H20.7625H20.7681H20.7738H20.7794H20.7851H20.7907H20.7964H20.802H20.8077H20.8134H20.819H20.8247H20.8303H20.836H20.8416H20.8473H20.8529H20.8586H20.8642H20.8699H20.8732C26.1015 1.2287 29.8167 3.98587 32.067 8.76887C33.1254 11.4126 33.3694 14.1232 32.7998 16.913C32.0459 19.8957 30.8966 22.7177 29.3515 25.38C26.8778 29.62 24.0511 33.6076 20.8715 37.3429ZM18.5164 6.54691L18.4854 6.54888L18.4549 6.55467C16.8203 6.86489 15.4527 7.50522 14.3764 8.4924C13.3001 9.47951 12.5421 10.7887 12.0876 12.394L12.0794 12.4228L12.0747 12.4524C11.7988 14.203 11.9583 15.7855 12.5829 17.1789C13.2077 18.5726 14.2804 19.7383 15.7661 20.6836L15.7898 20.6987L15.8151 20.711C17.3429 21.4571 18.8466 21.7633 20.3158 21.5986C21.7852 21.4338 23.1808 20.8023 24.4992 19.7365L24.522 19.718L24.5426 19.697C25.8369 18.3717 26.6391 16.9286 26.9072 15.3682C27.1753 13.8079 26.9011 12.178 26.1243 10.4928L26.1116 10.4652L26.0956 10.4394C25.2413 9.05648 24.177 8.02345 22.8967 7.36615C21.6166 6.70899 20.1506 6.44283 18.5164 6.54691Z" stroke="#01B055"/>
</g>
<defs>
<clipPath id="clip0_517_182">
<rect width="39" height="39" fill="white"/>
</clipPath>
</defs>
</svg>
