<svg id="Слой_1" data-name="Слой 1" xmlns="http://www.w3.org/2000/svg" xmlns:xlink="http://www.w3.org/1999/xlink" viewBox="0 0 12.31 17"><defs><clipPath id="clip-path" transform="translate(-2.33 0.02)"><rect width="17" height="17" fill="none"/></clipPath></defs><g clip-path="url(#clip-path)"><path d="M7.85,0H9.11a6.31,6.31,0,0,1,5.07,3.76,6.26,6.26,0,0,1,.33,3.68A14.23,14.23,0,0,1,13,11.17a35.61,35.61,0,0,1-3.72,5.25,2.56,2.56,0,0,1-.58.56h-.4a2.56,2.56,0,0,1-.58-.56A37.17,37.17,0,0,1,4,11.17,14.55,14.55,0,0,1,2.46,7.42a6.17,6.17,0,0,1,2.1-6.06A6.47,6.47,0,0,1,7.85,0Zm.23,3.09a3.17,3.17,0,0,1,3.11,1.6,3.08,3.08,0,1,1-5.71.79A3.14,3.14,0,0,1,8.08,3.07Z" transform="translate(-2.33 0.02)" fill-rule="evenodd" opacity="0.99" style="isolation:isolate"/></g></svg>