<?xml version="1.0" encoding="utf-8"?>
<!-- Generator: Adobe Illustrator 28.4.1, SVG Export Plug-In . SVG Version: 6.00 Build 0)  -->
<svg version="1.1" id="Слой_1" xmlns="http://www.w3.org/2000/svg" xmlns:xlink="http://www.w3.org/1999/xlink" x="0px" y="0px"
	 viewBox="0 0 13 17" enable-background="new 0 0 13 17" xml:space="preserve">
<path opacity="0.989" fill-rule="evenodd" clip-rule="evenodd" enable-background="new    " d="M5.9,0c0.4,0,0.8,0,1.3,0
	c2.4,0.3,4,1.6,5.1,3.8c0.5,1.2,0.6,2.4,0.3,3.7c-0.3,1.3-0.8,2.6-1.5,3.8c-1.1,1.9-2.3,3.6-3.7,5.2c-0.2,0.2-0.4,0.4-0.6,0.6
	c-0.1,0-0.3,0-0.4,0c-0.2-0.2-0.4-0.3-0.6-0.6C4.3,14.8,3.1,13,2,11.2C1.3,10,0.8,8.7,0.5,7.4C0,5,0.7,3,2.6,1.4
	C3.5,0.6,4.6,0.1,5.9,0z M6.1,3.1C7.4,3,8.5,3.5,9.2,4.7c0.6,1.4,0.4,2.7-0.6,3.8C7.4,9.3,6.3,9.5,5,8.8C3.8,8,3.2,6.9,3.5,5.5
	C3.9,4.1,4.7,3.3,6.1,3.1z"/>
</svg>
