<svg id="Слой_1" data-name="Слой 1" xmlns="http://www.w3.org/2000/svg" viewBox="0 0 18.08 26"><path d="M12.47,0a3.61,3.61,0,0,1,1.42.14,4.87,4.87,0,0,0,1.55,1.27,4,4,0,0,1,2.4-.14c.31.69.59,1.39.85,2.12.81.35,1.61.72,2.4,1.13a6.64,6.64,0,0,1-.43,2.25A16.9,16.9,0,0,1,22.08,9.2a8.3,8.3,0,0,1-1.42,2.25,4,4,0,0,1,.14,2.41c-.69.3-1.39.59-2.11.84-.35.82-.73,1.62-1.13,2.4a6.89,6.89,0,0,1-2.26-.42,18.35,18.35,0,0,1-2.4,1.41,8.32,8.32,0,0,1-2.26-1.41,4.1,4.1,0,0,1-2.4.14c-.31-.69-.59-1.4-.85-2.12C6.57,14.35,5.77,14,5,13.57a6.94,6.94,0,0,1,.42-2.26A17.12,17.12,0,0,1,4,8.91,8.73,8.73,0,0,1,5.41,6.65a4.09,4.09,0,0,1-.14-2.4c.69-.31,1.4-.59,2.12-.84.35-.82.73-1.62,1.13-2.4a6.68,6.68,0,0,1,2.26.42A3.1,3.1,0,0,0,12.47,0Zm-1.13,3.1q8.27-.57,7.49,7.63-2.67,6.06-8.9,3.53Q5.58,11,7.81,6A7.52,7.52,0,0,1,11.34,3.12Z" transform="translate(-4 0)" fill-rule="evenodd" opacity="0.86" style="isolation:isolate"/><path d="M11.5,4q7.55-.72,6.64,6.78Q16.28,15.19,11.5,14q-4.86-2.29-3-7.49A5.67,5.67,0,0,1,11.5,4Z" transform="translate(-4 0)" fill-rule="evenodd" opacity="0.94" style="isolation:isolate"/><path d="M10,17.53a14.25,14.25,0,0,1,3.1,1.41l.85-.14q1.26-2.11,3.25-.71a1.24,1.24,0,0,1,1-.28V26a14.51,14.51,0,0,1-5.09-2A14.39,14.39,0,0,1,8,26V17.81A3.64,3.64,0,0,0,10,17.53Z" transform="translate(-4 0)" fill-rule="evenodd" opacity="0.94" style="isolation:isolate"/></svg>