<svg id="Слой_1" data-name="Слой 1" xmlns="http://www.w3.org/2000/svg" xmlns:xlink="http://www.w3.org/1999/xlink" viewBox="0 0 26 26"><defs><clipPath id="clip-path" transform="translate(0.13 0.13)"><rect width="26" height="26" fill="none"/></clipPath></defs><g clip-path="url(#clip-path)"><path d="M16.77-.13h3.64a12.68,12.68,0,0,1,5.46,1.82V3a17.13,17.13,0,0,1-13.52.65C11,3,10.86,2.25,11.83,1.3A17.64,17.64,0,0,1,16.77-.13Z" transform="translate(0.13 0.13)" fill-rule="evenodd" opacity="0.92" style="isolation:isolate"/><path d="M25.87,3.77V6.89a16.36,16.36,0,0,1-14,.39,3.55,3.55,0,0,1-.52-3.51A15.56,15.56,0,0,0,25.87,3.77Z" transform="translate(0.13 0.13)" fill-rule="evenodd" opacity="0.89" style="isolation:isolate"/><path d="M25.87,7.67v3.12a14.17,14.17,0,0,1-7.15,1.82,24.18,24.18,0,0,0-3.51-.26,1.85,1.85,0,0,0-.78-1.95,7.1,7.1,0,0,0-3.38-1.17,2.55,2.55,0,0,1,.26-1.56,15.44,15.44,0,0,0,7.28,1.82A15.49,15.49,0,0,0,25.87,7.67Z" transform="translate(0.13 0.13)" fill-rule="evenodd" opacity="0.87" style="isolation:isolate"/><path d="M-.13,12.61v-1.3A12.9,12.9,0,0,1,7.15,9.49a15.28,15.28,0,0,1,6.76,1.43,1.35,1.35,0,0,1,.26,1.82A9.88,9.88,0,0,1,10.53,14a28.81,28.81,0,0,1-8.84-.52Z" transform="translate(0.13 0.13)" fill-rule="evenodd" opacity="0.92" style="isolation:isolate"/><path d="M25.87,11.57v3.12A15.48,15.48,0,0,1,15.21,16a8.86,8.86,0,0,0,.26-2.86A17.54,17.54,0,0,0,22,13,9.57,9.57,0,0,0,25.87,11.57Z" transform="translate(0.13 0.13)" fill-rule="evenodd" opacity="0.91" style="isolation:isolate"/><path d="M-.13,13.39A13.14,13.14,0,0,0,7.15,15a13.16,13.16,0,0,0,7.28-1.56,3.93,3.93,0,0,1-.26,3.25,9.59,9.59,0,0,1-3.9,1.3,27.18,27.18,0,0,1-8.58-.52l-1.82-.91Z" transform="translate(0.13 0.13)" fill-rule="evenodd" opacity="0.88" style="isolation:isolate"/><path d="M25.87,15.47v3.12a15.63,15.63,0,0,1-9.75,1.56l-.91-.26A8.86,8.86,0,0,0,15.47,17,17.76,17.76,0,0,0,22,16.9,9.57,9.57,0,0,0,25.87,15.47Z" transform="translate(0.13 0.13)" fill-rule="evenodd" opacity="0.9" style="isolation:isolate"/><path d="M-.13,17.29a13.14,13.14,0,0,0,7.28,1.56,13.16,13.16,0,0,0,7.28-1.56,4.13,4.13,0,0,1-.26,3.25,9.59,9.59,0,0,1-3.9,1.3,38.24,38.24,0,0,1-6.24,0A13.08,13.08,0,0,1-.13,20.41Z" transform="translate(0.13 0.13)" fill-rule="evenodd" opacity="0.89" style="isolation:isolate"/><path d="M-.13,21.19a13.14,13.14,0,0,0,7.28,1.56,13.16,13.16,0,0,0,7.28-1.56,4.47,4.47,0,0,1-.13,3.12,11.72,11.72,0,0,1-4,1.56H4A10.61,10.61,0,0,1-.13,24.05Z" transform="translate(0.13 0.13)" fill-rule="evenodd" opacity="0.89" style="isolation:isolate"/></g></svg>