<svg id="Слой_1" data-name="Слой 1" xmlns="http://www.w3.org/2000/svg" xmlns:xlink="http://www.w3.org/1999/xlink" viewBox="0 0 17 17"><defs><clipPath id="clip-path" transform="translate(0.02 0.02)"><rect width="17" height="17" fill="none"/></clipPath></defs><g clip-path="url(#clip-path)"><path d="M7.75,0H9.21A8.63,8.63,0,0,1,16,4.4a8.8,8.8,0,0,1,1,3.35V9.21A8.59,8.59,0,0,1,12.57,16a8.85,8.85,0,0,1-3.36,1H7.75A8.58,8.58,0,0,1,1,12.57,9.1,9.1,0,0,1,0,9.21V7.75A8.61,8.61,0,0,1,4.4,1,9.05,9.05,0,0,1,7.75,0Zm.17,1.1C8,2.19,8,3.31,8,4.43a14.12,14.12,0,0,1-2.52-.2A6.52,6.52,0,0,1,7.09,1.56,3.65,3.65,0,0,1,7.92,1.08ZM9,1.08A2.94,2.94,0,0,1,10.33,2a7.58,7.58,0,0,1,1.21,2.26A18.24,18.24,0,0,1,9,4.43Zm-3.35.46.07,0a8,8,0,0,0-.92,1.51c-.14.36-.29.71-.43,1.06a15.62,15.62,0,0,1-1.64-.39A7.44,7.44,0,0,1,5.63,1.54Zm5.64,0a6.56,6.56,0,0,1,3,2.21c-.55.15-1.11.28-1.67.38a9.48,9.48,0,0,0-1.1-2.29A2.48,2.48,0,0,0,11.27,1.58ZM2,4.63c.69.2,1.37.38,2.06.53A14.15,14.15,0,0,0,3.74,8H1A8.08,8.08,0,0,1,2,4.63Zm12.82.07a.1.1,0,0,1,.1,0A7.77,7.77,0,0,1,16,8H13.23a14.3,14.3,0,0,0-.36-2.77C13.54,5.05,14.21,4.89,14.86,4.7Zm-9.73.56A20.57,20.57,0,0,0,8,5.46V8H4.77A14.38,14.38,0,0,1,5.13,5.26Zm6.58,0a.17.17,0,0,1,.14,0A13.64,13.64,0,0,1,12.2,8H9V5.46A20.13,20.13,0,0,0,11.71,5.3ZM1,9H3.74a14.3,14.3,0,0,0,.36,2.76,20.8,20.8,0,0,0-2.07.5A7.25,7.25,0,0,1,1,9ZM4.77,9H8v2.43c-1,0-1.91.07-2.86.15A12.43,12.43,0,0,1,4.77,9ZM9,9H12.2a14,14,0,0,1-.36,2.59l-.09,0c-.9-.11-1.82-.18-2.73-.2Zm4.21,0H16a7.82,7.82,0,0,1-1,3.23l-.05,0a13.1,13.1,0,0,0-2-.47A16.26,16.26,0,0,0,13.23,9ZM7.59,12.47H8c0,1.12,0,2.23,0,3.35a3.14,3.14,0,0,1-1.44-1.13,8.43,8.43,0,0,1-1.05-2,.12.12,0,0,1,.07-.05C6.2,12.55,6.89,12.5,7.59,12.47Zm1.43,0a23.76,23.76,0,0,1,2.52.2,8.43,8.43,0,0,1-1,2,3.14,3.14,0,0,1-1.44,1.13C9,14.7,9,13.59,9,12.47ZM5.73,15.42a7.05,7.05,0,0,1-3.09-2.27,9.36,9.36,0,0,1,1.73-.37A9.44,9.44,0,0,0,5.73,15.42Zm5.51,0a8.76,8.76,0,0,0,1.33-2.62,9.1,9.1,0,0,1,1.72.38A6.87,6.87,0,0,1,11.24,15.42Z" transform="translate(0.02 0.02)" fill-rule="evenodd" opacity="0.97" style="isolation:isolate"/></g></svg>