<?xml version="1.0" encoding="utf-8"?>
<!-- Generator: Adobe Illustrator 28.4.1, SVG Export Plug-In . SVG Version: 6.00 Build 0)  -->
<svg version="1.1" id="Слой_1" xmlns="http://www.w3.org/2000/svg" xmlns:xlink="http://www.w3.org/1999/xlink" x="0px" y="0px"
	 viewBox="0 0 20 16" enable-background="new 0 0 20 16" xml:space="preserve">
<path d="M17.5,0.3c-0.5,0.1-0.2-0.2-5.6,5.2l-5,5L5.1,8.5C3,6.5,3,6.5,2.5,6.4c-0.2,0-0.3,0-0.5,0C1.6,6.5,1.4,6.6,0.8,7.2
	C0.4,7.6,0.3,7.8,0.1,8C0,8.2,0,8.3,0,8.6C0,8.9,0,9,0.1,9.2c0.1,0.2,0.3,0.4,3.1,3.3c2.2,2.2,3.1,3,3.2,3.1c0.3,0.2,0.7,0.2,0.9,0
	c0.1-0.1,1.7-1.6,6.3-6.2c5.8-5.8,6.1-6.1,6.2-6.3C20,2.9,20,2.8,20,2.5c0-0.5-0.1-0.7-0.7-1.3c-0.5-0.5-0.7-0.7-1-0.8
	C18.1,0.3,17.7,0.2,17.5,0.3z"/>
</svg>
