<?xml version="1.0" encoding="utf-8"?>
<!-- Generator: Adobe Illustrator 28.4.1, SVG Export Plug-In . SVG Version: 6.00 Build 0)  -->
<svg version="1.1" id="Слой_1" xmlns="http://www.w3.org/2000/svg" xmlns:xlink="http://www.w3.org/1999/xlink" x="0px" y="0px"
	 viewBox="0 0 19 19" enable-background="new 0 0 19 19" xml:space="preserve">
<g>
	<defs>
		<rect id="SVGID_1_" x="0.7" y="0.7" width="18" height="18"/>
	</defs>
	<clipPath id="SVGID_00000126294085664005514550000016262588614674398878_">
		<use xlink:href="#SVGID_1_"  overflow="visible"/>
	</clipPath>
	<g clip-path="url(#SVGID_00000126294085664005514550000016262588614674398878_)">
		<path opacity="0.985" fill-rule="evenodd" clip-rule="evenodd" enable-background="new    " d="M9.4,0.7c0.2,0,0.4,0,0.6,0
			c0.6,0.2,1,0.6,1.1,1.2c0,2.1,0,4.2,0,6.3c2.1,0,4.2,0,6.3,0c0.6,0.1,1.1,0.5,1.2,1.1c0,0.2,0,0.4,0,0.6c-0.2,0.6-0.6,1-1.2,1.1
			c-2.1,0-4.2,0-6.3,0c0,2.1,0,4.2,0,6.3c-0.1,0.6-0.5,1.1-1.1,1.2c-0.2,0-0.4,0-0.6,0c-0.6-0.2-1-0.6-1.1-1.2c0-2.1,0-4.2,0-6.3
			c-2.1,0-4.2,0-6.3,0C1.3,11,0.9,10.6,0.7,10c0-0.2,0-0.4,0-0.6c0.2-0.6,0.6-1,1.2-1.1c2.1,0,4.2,0,6.3,0c0-2.1,0-4.2,0-6.3
			C8.4,1.3,8.8,0.9,9.4,0.7z"/>
	</g>
</g>
</svg>
