<svg width="19" height="19" viewBox="0 0 19 19" fill="none" xmlns="http://www.w3.org/2000/svg">
<g clip-path="url(#clip0_466_721)">
<path opacity="0.985" fill-rule="evenodd" clip-rule="evenodd" d="M9.39453 0.710937C9.60547 0.710937 9.81641 0.710937 10.0273 0.710937C10.6468 0.891154 11.0159 1.30131 11.1348 1.94141C11.1523 4.05075 11.1582 6.16012 11.1523 8.26953C13.2618 8.26366 15.3711 8.26953 17.4805 8.28711C18.1206 8.40594 18.5307 8.77508 18.7109 9.39453C18.7109 9.60547 18.7109 9.81641 18.7109 10.0273C18.5307 10.6468 18.1206 11.0159 17.4805 11.1348C15.3711 11.1523 13.2618 11.1582 11.1523 11.1523C11.1582 13.2618 11.1523 15.3711 11.1348 17.4805C11.0159 18.1206 10.6468 18.5307 10.0273 18.7109C9.81641 18.7109 9.60547 18.7109 9.39453 18.7109C8.77508 18.5307 8.40594 18.1206 8.28711 17.4805C8.26953 15.3711 8.26366 13.2618 8.26953 11.1523C6.16012 11.1582 4.05075 11.1523 1.94141 11.1348C1.30131 11.0159 0.891154 10.6468 0.710938 10.0273C0.710938 9.81641 0.710938 9.60547 0.710938 9.39453C0.891154 8.77508 1.30131 8.40594 1.94141 8.28711C4.05075 8.26953 6.16012 8.26366 8.26953 8.26953C8.26366 6.16012 8.26953 4.05075 8.28711 1.94141C8.40594 1.30131 8.77508 0.891154 9.39453 0.710937Z" fill="#01B055"/>
</g>
<defs>
<clipPath id="clip0_466_721">
<rect width="18" height="18" fill="white" transform="translate(0.728516 0.728516)"/>
</clipPath>
</defs>
</svg>
