<svg width="50" height="50" viewBox="0 0 50 50" fill="none" xmlns="http://www.w3.org/2000/svg">
<g clip-path="url(#clip0_531_173)">
<path opacity="0.899" fill-rule="evenodd" clip-rule="evenodd" d="M-0.0488281 35.5956C-0.0488281 35.0748 -0.0488281 34.5539 -0.0488281 34.0331C0.244099 33.3038 0.73238 32.7342 1.41602 32.3242C8.64258 28.1575 15.8691 23.9909 23.0957 19.8242C22.4077 18.7251 21.7566 17.6021 21.1426 16.455C19.4808 16.5381 18.6995 15.7569 18.7988 14.1113C17.6485 13.6764 17.2742 12.8626 17.6758 11.6699C17.8509 11.3969 18.0625 11.1528 18.3105 10.9374C21.3704 9.17962 24.4304 7.42181 27.4902 5.664C29.1472 5.36706 29.9772 6.06693 29.9805 7.7636C31.3055 8.49694 31.5496 9.50606 30.7129 10.7909C32.7228 14.3226 34.7572 17.8382 36.8164 21.3378C38.3314 21.2079 39.0964 21.9241 39.1113 23.4863C40.3639 24.2016 40.608 25.1782 39.8437 26.4159C36.6533 28.3689 33.4145 30.2407 30.127 32.0312C28.5519 32.1656 27.7706 31.4331 27.7832 29.8339C26.7874 29.4045 26.4131 28.6559 26.6602 27.5878C26.7819 27.3116 26.9284 27.0512 27.0996 26.8066C26.6731 26.103 26.2663 25.3868 25.8789 24.6581C18.5139 28.9185 11.1408 33.1665 3.75977 37.4023C1.96079 37.9025 0.691259 37.3002 -0.0488281 35.5956ZM27.9785 6.59173C28.6271 6.6054 28.9039 6.93093 28.8086 7.56829C28.7632 7.70802 28.6817 7.82195 28.5645 7.91009C25.5061 9.69131 22.4299 11.4328 19.3359 13.1347C18.5266 12.8756 18.4126 12.4362 18.9941 11.8163C22.011 10.0968 25.0059 8.35531 27.9785 6.59173ZM29.3457 8.74017C30.3044 9.12342 30.3694 9.62798 29.541 10.2538C26.6438 11.914 23.7468 13.5742 20.8496 15.2343C20.1497 15.3157 19.8405 15.0065 19.9219 14.3066C23.0161 12.3611 26.1574 10.5056 29.3457 8.74017ZM29.6387 11.3769C29.7322 11.4211 29.8137 11.4862 29.8828 11.5722C31.8398 14.9819 33.8093 18.3835 35.791 21.7773C33.2194 23.2584 30.6478 24.7395 28.0762 26.2206C26.0456 22.7618 24.0273 19.2951 22.0215 15.8202C24.6023 14.3914 27.1414 12.9103 29.6387 11.3769ZM23.584 20.7519C24.1725 21.6837 24.7258 22.644 25.2441 23.6327C25.23 23.7081 25.1975 23.7733 25.1465 23.8281C17.9598 27.9232 10.7983 32.0573 3.66211 36.2304C2.23939 36.8211 1.32793 36.3654 0.927734 34.8632C0.98835 34.323 1.21621 33.8672 1.61133 33.496C8.97366 29.2947 16.2978 25.0466 23.584 20.7519ZM37.0605 22.3144C37.8624 22.4046 38.0902 22.8115 37.7441 23.5351C34.6545 25.3715 31.5295 27.1456 28.3691 28.8574C27.7037 28.6497 27.541 28.2429 27.8809 27.6367C30.9572 25.8759 34.0171 24.1018 37.0605 22.3144ZM38.3301 24.4628C39.3224 24.7049 39.4525 25.1769 38.7207 25.8788C35.7743 27.5962 32.8121 29.289 29.834 30.957C29.184 30.9904 28.9073 30.6811 29.0039 30.0292C29.0947 29.8288 29.2412 29.6824 29.4434 29.5898C32.4117 27.8782 35.3739 26.1692 38.3301 24.4628Z" fill="#01B055"/>
<path opacity="0.916" fill-rule="evenodd" clip-rule="evenodd" d="M49.9509 43.5059C49.9509 43.7337 49.9509 43.9616 49.9509 44.1895C49.8558 44.237 49.7582 44.2859 49.6579 44.336C38.0693 44.4011 26.4808 44.4011 14.8923 44.336C14.4784 44.1239 14.397 43.8147 14.6481 43.4082C15.5646 42.264 16.4435 41.0921 17.2848 39.8926C17.4355 39.7092 17.6145 39.5627 17.8219 39.4531C18.2765 39.4044 18.7322 39.3881 19.1891 39.4043C19.1728 38.3621 19.1891 37.3204 19.238 36.2793C19.3261 36.162 19.44 36.0806 19.5798 36.0352C28.0107 35.97 36.4418 35.97 44.8727 36.0352C45.102 36.0459 45.2485 36.1599 45.3122 36.377C45.361 37.3856 45.3772 38.3947 45.361 39.4043C45.8941 39.3656 46.4149 39.4144 46.9235 39.5508C47.9193 40.8872 48.9284 42.2056 49.9509 43.5059ZM20.2634 37.0606C28.2712 37.0606 36.279 37.0606 44.2868 37.0606C44.2868 37.8418 44.2868 38.6231 44.2868 39.4043C36.279 39.4043 28.2712 39.4043 20.2634 39.4043C20.2634 38.6231 20.2634 37.8418 20.2634 37.0606ZM18.2126 40.4785C27.5551 40.4622 36.8975 40.4785 46.2399 40.5274C46.956 41.4388 47.6722 42.3503 48.3884 43.2617C37.6462 43.3269 26.904 43.3269 16.1618 43.2617C16.882 42.3572 17.5656 41.4294 18.2126 40.4785Z" fill="#01B055"/>
</g>
<defs>
<clipPath id="clip0_531_173">
<rect width="50" height="50" fill="white"/>
</clipPath>
</defs>
</svg>
