<svg id="Слой_1" data-name="Слой 1" xmlns="http://www.w3.org/2000/svg" xmlns:xlink="http://www.w3.org/1999/xlink" viewBox="0 0 21.88 26"><defs><clipPath id="clip-path" transform="translate(-1.92 0.13)"><rect width="26" height="26" fill="none"/></clipPath></defs><g clip-path="url(#clip-path)"><path d="M5.07-.13H23.79q.06,11.45-.13,22.88-.93,3-4,1.95a3.79,3.79,0,0,1-.91-3.77l1.56-1a1.84,1.84,0,0,0-.39-1.95,146.36,146.36,0,0,0-14.82-.39Z" transform="translate(-1.92 0.13)" fill-rule="evenodd" opacity="0.99" style="isolation:isolate"/><path d="M20.15,25.87H3.51A3.9,3.9,0,0,1,2,22.23a3.57,3.57,0,0,1,1.56-3.51q8.06-.2,16.12-.13a1.27,1.27,0,0,1-.26,1,2.26,2.26,0,0,0-1.56,2.6A3.66,3.66,0,0,0,20.15,25.87Z" transform="translate(-1.92 0.13)" fill-rule="evenodd" opacity="0.98" style="isolation:isolate"/></g></svg>