<svg width="33" height="33" viewBox="0 0 33 33" fill="none" xmlns="http://www.w3.org/2000/svg">
<g clip-path="url(#clip0_426_1121)">
<path opacity="0.998" fill-rule="evenodd" clip-rule="evenodd" d="M4.35071 -0.0322266C10.2374 -0.0322266 16.1242 -0.0322266 22.0109 -0.0322266C22.0109 0.0107422 22.0323 0.0322266 22.0753 0.0322266C22.0753 2.37402 22.0753 4.71582 22.0753 7.05762C24.4171 7.05762 26.7589 7.05762 29.1007 7.05762C29.1648 12.3401 29.1863 17.6253 29.1652 22.9131C20.7003 22.9131 12.2355 22.9131 3.77063 22.9131C3.75989 15.5224 3.77063 8.13179 3.80286 0.741211C3.87689 0.397473 4.0595 0.13966 4.35071 -0.0322266Z" fill="#E8E8DF"/>
<path fill-rule="evenodd" clip-rule="evenodd" d="M22.0752 0.0322266C24.4385 2.35254 26.7803 4.69433 29.1006 7.05762C26.7588 7.05762 24.417 7.05762 22.0752 7.05762C22.0752 4.71582 22.0752 2.37402 22.0752 0.0322266Z" fill="#D9D7CA"/>
<path fill-rule="evenodd" clip-rule="evenodd" d="M16.21 4.02802C16.4102 4.01843 16.6036 4.05065 16.79 4.1247C17.4756 4.73794 17.7011 5.50063 17.4668 6.41278C17.351 7.19318 17.2221 7.96662 17.0801 8.7331C17.8557 10.3241 18.8333 11.7743 20.0127 13.0837C20.6279 12.9853 21.251 12.9316 21.8818 12.9225C22.429 12.8663 22.9447 12.963 23.4287 13.2126C23.8202 13.5592 23.9169 13.9782 23.7188 14.4694C23.1807 15.4734 22.375 15.7634 21.3018 15.3395C20.7007 15.0021 20.1314 14.6261 19.5938 14.2116C17.8339 14.587 16.1365 15.1457 14.502 15.8874C14.0462 16.864 13.5091 17.7879 12.8906 18.6589C12.5923 19.0221 12.2378 19.3121 11.8271 19.529C10.8967 19.6096 10.3596 19.1799 10.2158 18.2399C10.2624 17.814 10.4235 17.438 10.6992 17.112C10.9485 16.8412 11.217 16.5941 11.5049 16.3708C12.2433 15.8887 13.006 15.4483 13.793 15.0495C14.6811 13.0188 15.4223 10.9349 16.0166 8.79755C15.643 7.96681 15.353 7.10746 15.1465 6.21942C14.9776 5.45927 15.1603 4.804 15.6943 4.2536C15.8657 4.15834 16.0375 4.08315 16.21 4.02802Z" fill="#CC4D4D"/>
<path fill-rule="evenodd" clip-rule="evenodd" d="M16.2741 5.12402C16.5122 5.33243 16.6197 5.60098 16.5963 5.92969C16.5789 6.29645 16.5036 6.65092 16.3707 6.99316C15.8456 6.39911 15.8134 5.77606 16.2741 5.12402Z" fill="#E8E2D9"/>
<path fill-rule="evenodd" clip-rule="evenodd" d="M16.5967 10.1512C16.6609 10.1457 16.7146 10.1672 16.7578 10.2157C17.3742 11.3306 18.0939 12.3726 18.917 13.3417C17.6404 13.6419 16.3943 14.0393 15.1787 14.5341C15.1572 14.5126 15.1357 14.4911 15.1143 14.4696C15.7242 13.0694 16.2183 11.6299 16.5967 10.1512Z" fill="#E8E6DD"/>
<path fill-rule="evenodd" clip-rule="evenodd" d="M21.3018 13.8898C21.7105 13.8791 22.1187 13.8898 22.5264 13.922C22.8403 14.0115 22.8618 14.1619 22.5908 14.3732C22.3295 14.524 22.0501 14.567 21.7529 14.5021C21.5381 14.3302 21.3232 14.1583 21.1084 13.9864C21.1881 13.9715 21.2526 13.9393 21.3018 13.8898Z" fill="#E7DED6"/>
<path fill-rule="evenodd" clip-rule="evenodd" d="M12.8584 16.661C12.906 16.6525 12.949 16.6633 12.9873 16.6932C12.6425 17.3185 12.2343 17.8986 11.7627 18.4334C11.4778 18.657 11.3059 18.5818 11.2471 18.2079C11.252 18.0919 11.2843 17.9845 11.3438 17.8856C11.8048 17.4128 12.3097 17.0047 12.8584 16.661Z" fill="#E8E2DA"/>
<path opacity="0.812" fill-rule="evenodd" clip-rule="evenodd" d="M3.77051 22.9131C12.2353 22.9131 20.7002 22.9131 29.165 22.9131C29.165 26.0283 29.165 29.1436 29.165 32.2588C29.1436 32.2588 29.122 32.2588 29.1006 32.2588C29.1006 29.165 29.1006 26.0713 29.1006 22.9775C20.6787 22.9775 12.2569 22.9775 3.83496 22.9775C3.83496 26.0713 3.83496 29.165 3.83496 32.2588C3.81348 32.2588 3.79199 32.2588 3.77051 32.2588C3.77051 29.1436 3.77051 26.0283 3.77051 22.9131Z" fill="#D78986"/>
<path fill-rule="evenodd" clip-rule="evenodd" d="M29.1006 32.2588C29.0828 32.4663 28.9969 32.6381 28.8428 32.7744C28.7908 32.8536 28.7264 32.918 28.6494 32.9678C20.5283 32.9678 12.4072 32.9678 4.28613 32.9678C4.20921 32.918 4.14475 32.8536 4.09277 32.7744C3.93869 32.6381 3.85274 32.4663 3.83496 32.2588C3.83496 29.165 3.83496 26.0713 3.83496 22.9775C12.2569 22.9775 20.6787 22.9775 29.1006 22.9775C29.1006 26.0713 29.1006 29.165 29.1006 32.2588Z" fill="#CC4B4C"/>
<path fill-rule="evenodd" clip-rule="evenodd" d="M9.24902 25.2335C9.87241 25.2228 10.4955 25.2335 11.1182 25.2657C12.5079 25.4515 13.1202 26.2357 12.9551 27.6183C12.7379 28.394 12.2331 28.8559 11.4404 29.004C11.0328 29.0362 10.6246 29.0469 10.2158 29.0362C10.2158 29.7667 10.2158 30.4972 10.2158 31.2276C9.89355 31.2276 9.57129 31.2276 9.24902 31.2276C9.24902 29.2296 9.24902 27.2315 9.24902 25.2335Z" fill="#FEFCFB"/>
<path fill-rule="evenodd" clip-rule="evenodd" d="M16.0166 25.2979C15.4151 25.2979 14.8135 25.2979 14.2119 25.2979C14.2119 27.2529 14.2119 29.208 14.2119 31.1631C15.0498 31.1631 15.8877 31.1631 16.7256 31.1631C15.8776 31.2273 15.0182 31.2488 14.1475 31.2276C14.1475 29.2295 14.1475 27.2315 14.1475 25.2334C14.7822 25.2123 15.4052 25.2338 16.0166 25.2979Z" fill="#F1CCCC"/>
<path fill-rule="evenodd" clip-rule="evenodd" d="M16.0166 25.2981C17.5161 25.2838 18.4721 25.9928 18.8848 27.425C19.0407 28.382 18.8902 29.2844 18.4336 30.132C18.0204 30.7309 17.4511 31.0746 16.7256 31.1633C15.8877 31.1633 15.0498 31.1633 14.2119 31.1633C14.2119 29.2082 14.2119 27.2531 14.2119 25.2981C14.8135 25.2981 15.4151 25.2981 16.0166 25.2981Z" fill="#FEFDFD"/>
<path fill-rule="evenodd" clip-rule="evenodd" d="M24.0732 25.298C22.8486 25.298 21.624 25.298 20.3994 25.298C20.3994 27.253 20.3994 29.2082 20.3994 31.1632C20.7002 31.1632 21.001 31.1632 21.3018 31.1632C21.2806 30.2709 21.302 29.3901 21.3662 28.5206C21.3662 29.423 21.3662 30.3253 21.3662 31.2277C21.0225 31.2277 20.6787 31.2277 20.335 31.2277C20.335 29.2296 20.335 27.2316 20.335 25.2335C21.5922 25.2123 22.8384 25.2337 24.0732 25.298Z" fill="#ECBDBD"/>
<path fill-rule="evenodd" clip-rule="evenodd" d="M24.0732 25.2979C24.0732 25.5342 24.0732 25.7705 24.0732 26.0068C23.1709 26.0068 22.2686 26.0068 21.3662 26.0068C21.3021 26.6182 21.2807 27.2412 21.3018 27.876C22.1396 27.876 22.9775 27.876 23.8154 27.876C23.8154 28.0908 23.8154 28.3057 23.8154 28.5205C22.999 28.5205 22.1826 28.5205 21.3662 28.5205C21.302 29.39 21.2806 30.2708 21.3018 31.1631C21.001 31.1631 20.7002 31.1631 20.3994 31.1631C20.3994 29.208 20.3994 27.2529 20.3994 25.2979C21.624 25.2979 22.8486 25.2979 24.0732 25.2979Z" fill="#FEFEFE"/>
<path fill-rule="evenodd" clip-rule="evenodd" d="M10.2158 26.0069C10.5817 25.9962 10.9469 26.007 11.3115 26.0392C12.0766 26.3789 12.3022 26.9482 11.9883 27.7472C11.8916 28.0157 11.709 28.1983 11.4404 28.295C11.0328 28.3272 10.6246 28.3379 10.2158 28.3272C10.2158 27.5538 10.2158 26.7804 10.2158 26.0069Z" fill="#CC4C4D"/>
<path fill-rule="evenodd" clip-rule="evenodd" d="M15.1143 26.0067C17.4252 25.8594 18.3167 26.9121 17.7891 29.1649C17.6449 29.8324 17.2475 30.2514 16.5967 30.4218C16.1056 30.4994 15.6114 30.5317 15.1143 30.5185C15.1143 29.0146 15.1143 27.5106 15.1143 26.0067Z" fill="#CC4D4E"/>
<path fill-rule="evenodd" clip-rule="evenodd" d="M21.3662 26.0068C21.3662 26.6084 21.3662 27.21 21.3662 27.8115C22.1941 27.7903 23.0105 27.8118 23.8154 27.876C22.9776 27.876 22.1397 27.876 21.3018 27.876C21.2807 27.2412 21.3022 26.6182 21.3662 26.0068Z" fill="#DC8281"/>
<path opacity="0.171" fill-rule="evenodd" clip-rule="evenodd" d="M29.1006 32.2588C29.122 32.2588 29.1436 32.2588 29.165 32.2588C29.1859 32.519 29.0785 32.6908 28.8428 32.7744C28.9969 32.6381 29.0828 32.4663 29.1006 32.2588Z" fill="#E7DDD5"/>
<path opacity="0.275" fill-rule="evenodd" clip-rule="evenodd" d="M3.77013 32.2588C3.79161 32.2588 3.8131 32.2588 3.83458 32.2588C3.85237 32.4663 3.93831 32.6381 4.0924 32.7744C3.85665 32.6908 3.74923 32.519 3.77013 32.2588Z" fill="#E7DCD4"/>
</g>
<defs>
<clipPath id="clip0_426_1121">
<rect width="33" height="33" fill="white"/>
</clipPath>
</defs>
</svg>
