<svg id="Слой_1" data-name="Слой 1" xmlns="http://www.w3.org/2000/svg" xmlns:xlink="http://www.w3.org/1999/xlink" viewBox="0 0 16.99 16.99"><defs><clipPath id="clip-path" transform="translate(-0.01 0)"><rect width="17" height="17" fill="none"/></clipPath></defs><g clip-path="url(#clip-path)"><path d="M1.05.05A1.35,1.35,0,0,0,0,1.16a12.4,12.4,0,0,0,.1,2.22,15.59,15.59,0,0,0,3.56,8.06,20.63,20.63,0,0,0,1.87,1.87,15.59,15.59,0,0,0,8.06,3.56,12.43,12.43,0,0,0,2.22.1A1.34,1.34,0,0,0,17,15.91a18.22,18.22,0,0,0,0-1.84c0-1.78,0-1.87-.17-2.19a1.47,1.47,0,0,0-.48-.51,1.74,1.74,0,0,0-1-.21,10.37,10.37,0,0,1-2.52-.41,1.89,1.89,0,0,0-.77-.12.91.91,0,0,0-.52.13,14.05,14.05,0,0,0-1.22.87c-.55.42-1,.76-1,.76s-.68-.38-1.07-.63A10.16,10.16,0,0,1,4.85,8.09c-.21-.35-.24-.44-.21-.49l.78-1c.4-.54.77-1,.81-1.11a1.86,1.86,0,0,0,.13-.34,1.75,1.75,0,0,0-.12-1,10,10,0,0,1-.38-2.42,2,2,0,0,0-.2-1A1.46,1.46,0,0,0,4.75,0C4.49,0,1.26,0,1.05.05Z" transform="translate(-0.01 0)"/></g></svg>