<svg id="Слой_1" data-name="Слой 1" xmlns="http://www.w3.org/2000/svg" viewBox="0 0 43.7 32.55"><path d="M22.63,8.84a33.18,33.18,0,0,0-7.09,2.21A63.52,63.52,0,0,0,5.21,16.82c-2.39,2-2.69,4.56-.86,7.29a12,12,0,0,0,2.52,2.6l.54.39v3.58l-.48.55a3.27,3.27,0,0,0-1,2.36,3.09,3.09,0,0,0,1.23,2.48c.87.81,1.81,1.27,4.16,2.1A70.77,70.77,0,0,0,21.39,41a16,16,0,0,0,3.85.28,21.38,21.38,0,0,0,6.5-.84,70.12,70.12,0,0,0,10-3.23,5.19,5.19,0,0,0,2.63-2.47,3.17,3.17,0,0,0-.93-3.44l-.53-.57V27.07l.54-.41a12.82,12.82,0,0,0,1.2-1.12c3-3.19,3-6.41-.08-8.86a61.22,61.22,0,0,0-8.2-4.75,39.09,39.09,0,0,0-8-2.91A19.61,19.61,0,0,0,22.63,8.84Zm4.52,1.56C31,11,36.29,13.32,42.32,17A7.32,7.32,0,0,1,45,19.59,2.61,2.61,0,0,1,45.26,21a2.64,2.64,0,0,1-.42,1.63,10.22,10.22,0,0,1-2.49,2.92l-.47.37H8.37l-.55-.41a8.59,8.59,0,0,1-2.94-3.68,2.78,2.78,0,0,1,0-1.84c.35-1.15,1.33-2.07,3.76-3.51,5.73-3.4,10.25-5.33,14.12-6A17.35,17.35,0,0,1,27.15,10.4ZM41.29,28.93l0,1.44H9V27.44l16.15,0,16.13,0Zm1,3.41A2.24,2.24,0,0,1,43,33.75c0,.66-.76,1.45-2,2.07a74.71,74.71,0,0,1-10.23,3.23c-5,1.13-7.94.94-14.5-.92C14.72,37.7,11,36.43,10.07,36a6.88,6.88,0,0,1-2.32-1.53,1.72,1.72,0,0,1,.38-2.26l.31-.32H41.86Z" transform="translate(-3.17 -8.71)"/><path d="M22,13.9a4.65,4.65,0,0,0-1.44,1.53,1,1,0,0,0,.19,1.27,1.46,1.46,0,0,1,.34.57,3.92,3.92,0,0,1-.38.89A5.09,5.09,0,0,0,20,20.7c0,1.63,1.07,2.81,3,3.28a3.79,3.79,0,0,1,1.49.64.81.81,0,0,0,1,0A3.43,3.43,0,0,1,26.93,24a4.56,4.56,0,0,0,2.19-1.13A2.74,2.74,0,0,0,30,20.7a5,5,0,0,0-.72-2.54,3.92,3.92,0,0,1-.38-.89,1.46,1.46,0,0,1,.34-.57c.55-.66.45-1.1-.54-2.24-.57-.64-.89-.74-1.63-.49a1.66,1.66,0,0,1-1.54,0,1.26,1.26,0,0,0-.54-.19,1.3,1.3,0,0,0-.54.19,1.68,1.68,0,0,1-1.56,0l-.58-.18Zm1.81,1.75H26.2a7.39,7.39,0,0,0,1.05-.05c.28-.07.36,0,.46.1s.06.28-.13.66c-.36.72-.32,1.21.2,2.27,1.18,2.43.89,3.3-1.3,3.87a8.82,8.82,0,0,0-1,.35L25,23l-.62-.24c-.34-.12-.92-.32-1.29-.43-1.22-.35-1.75-1.1-1.53-2.15a9.08,9.08,0,0,1,.6-1.48c.47-.95.5-1,.46-1.58a2.45,2.45,0,0,0-.26-.9c-.16-.29-.18-.38-.08-.55s.18-.18.46-.11A7.46,7.46,0,0,0,23.81,15.65Z" transform="translate(-3.17 -8.71)"/></svg>