<svg id="Слой_1" data-name="Слой 1" xmlns="http://www.w3.org/2000/svg" viewBox="0 0 23.94 23.94"><path d="M10.27.91Q15,.85,19.63,1L24.7,6.11q.19,7.28.13,14.56H16.51V16.51h5.2v-1h-5.2V13.39h3.12v-1H16.51V10.27h5.2v-1a36.53,36.53,0,0,0-6.11.26l-5.2-5.2A22.43,22.43,0,0,1,10.27.91Zm8.84,1.56q2.13,1.93,4.16,4a34,34,0,0,1-4.16.13Z" transform="translate(-0.91 -0.89)" fill-rule="evenodd" opacity="0.98" style="isolation:isolate"/><path d="M.91,5.07Q5.59,5,10.27,5.2l5.07,5.07q.2,7.27.13,14.56H.91ZM9.75,6.63q2.13,1.93,4.16,4a34,34,0,0,1-4.16.13ZM4,13.39h8.32v1H4Zm0,3.12h6.24v1H4Zm0,3.12h8.32v1H4Z" transform="translate(-0.91 -0.89)" fill-rule="evenodd" opacity="0.99" style="isolation:isolate"/></svg>