<svg id="Слой_1" data-name="Слой 1" xmlns="http://www.w3.org/2000/svg" xmlns:xlink="http://www.w3.org/1999/xlink" viewBox="0 0 24.99 25.38"><defs><clipPath id="clip-path" transform="translate(0 -0.58)"><rect width="28" height="26" fill="none"/></clipPath></defs><g clip-path="url(#clip-path)"><path d="M11.12,3.65c.06-.06,0-.09,0-.25v-2h2V3.57c0,.1,0,.05,0,.08a4.37,4.37,0,0,1,1.15.45,4.56,4.56,0,0,1,.92.71c.06.07.13.13.19.21a4.13,4.13,0,0,1,.76,1.27c.06.15.14.52.19.62.3,0,2,0,2.47,0A6.34,6.34,0,0,1,20.07,7a3.64,3.64,0,0,1,.93.29,4.1,4.1,0,0,1,1.45,1,4.55,4.55,0,0,1,.48.65,4.25,4.25,0,0,1-.67,5.25,4.64,4.64,0,0,1-1.06.73,4,4,0,0,1-1.39.42.17.17,0,0,0,0-.16l-.09-.11a1.47,1.47,0,0,0-.75-.51,3.87,3.87,0,0,0-1.43.16V13.69a17.9,17.9,0,0,0,2.35-.07,2.52,2.52,0,0,0,1.23-4.27l0,0,0-.06s0,0,0,0l-.05,0a.55.55,0,0,0-.08-.06,2.59,2.59,0,0,0-1.63-.51c-.36,0-2.24,0-2.43,0v6.24l-1.81.37V11.18s-.49.34-.78.49a5.21,5.21,0,0,1-.94.34v3.6L11.14,16V12a4.73,4.73,0,0,1-.87-.32c-.28-.14-.68-.43-.74-.45v5.13l-1.78.36c-.06,0,0-.08,0-.23V8.66H7v8.22l-1.81.37V8.64a2.39,2.39,0,0,0-1,.18,2.52,2.52,0,0,0-1.55,1.92A2.55,2.55,0,0,0,4.16,13.5l.11,0c.08,0,.05,0,.08.07v1.72a4.23,4.23,0,0,1-2.83-1.9,4.25,4.25,0,0,1,.57-5.24,4.15,4.15,0,0,1,1.43-.95,5.07,5.07,0,0,1,2.06-.32H8a4.33,4.33,0,0,1,2-2.79A5.05,5.05,0,0,1,11.12,3.65ZM9.79,6.91h.84V8.65H9.76a2.56,2.56,0,0,0,1.38,1.5V5.49A2.55,2.55,0,0,0,9.79,6.91Zm3.42,3.26a2.41,2.41,0,0,0,1.09-.86,2.49,2.49,0,0,0,.48-1.48,2.52,2.52,0,0,0-.95-2,2.4,2.4,0,0,0-.61-.36ZM16.9,23.42c-.07,0,0,0-.08-.06S16.87,23.37,16.9,23.42Zm-.08-.06c-.05,0,0,0,0,0ZM7.37,24.54a4.28,4.28,0,0,0,.59-.1l8.39-1.69a1.71,1.71,0,0,1,.3-.05v2.8a2.69,2.69,0,0,1,.28.22.72.72,0,0,0,.35.17l0,0a1,1,0,0,0,.56,0,3.63,3.63,0,0,0,.57-.13c.12,0,2.27-.47,2.5-.52l1.65-.35.83-.17a1.25,1.25,0,0,1,.43,0l1.14.37v-7.4a2.32,2.32,0,0,0-1.9-.22l-1.29.27-.66.14-.65.13-.66.14v-.1h.28V16a4.88,4.88,0,0,0,.55-.12,5.09,5.09,0,0,0,2.15-1.21,4,4,0,0,0,.63-.72,4.71,4.71,0,0,0,.83-1.85,4.94,4.94,0,0,0-1-4.16,4.64,4.64,0,0,0-.57-.59,5,5,0,0,0-2.36-1.16A8.8,8.8,0,0,0,18.39,6H17c-.06-.12-.12-.31-.22-.53a5.45,5.45,0,0,0-.59-.91A5.2,5.2,0,0,0,15,3.51,4.58,4.58,0,0,0,14,3V.58H10.32V3a4.89,4.89,0,0,0-1.21.66,5.89,5.89,0,0,0-.7.61A5.26,5.26,0,0,0,7.83,5a4.83,4.83,0,0,0-.5,1c-.43,0-2.42,0-2.68,0a5.66,5.66,0,0,0-1.12.22,5.34,5.34,0,0,0-.94.41c-.15.09-.27.16-.41.26a6.16,6.16,0,0,0-.56.44,5,5,0,0,0-.5.53A5,5,0,0,0,.19,9.66,5.37,5.37,0,0,0,0,10.85v.41a4.88,4.88,0,0,0,.24,1.31,4.94,4.94,0,0,0,.83,1.53l.15.18a5.23,5.23,0,0,0,.68.65c.14.11.26.18.41.28a5,5,0,0,0,2,.74v1.47A6.38,6.38,0,0,1,3,17.61a8.47,8.47,0,0,1-1.26-.31v7.76c.09,0,.26.12.42.17a1.48,1.48,0,0,0,.45.12,1.51,1.51,0,0,0,.67,0c.74-.11,2.14-.43,3-.59Zm9.57-1.1,0,0h0Zm7.76,1s0,0,.08,0a.44.44,0,0,1-.08.25ZM2,17.92c-.11,0-.09,0-.07-.11A.27.27,0,0,1,2,17.67Zm.12-.25h.11v0Z" transform="translate(0 -0.58)" fill-rule="evenodd"/></g></svg>