<svg id="Слой_1" data-name="Слой 1" xmlns="http://www.w3.org/2000/svg" xmlns:xlink="http://www.w3.org/1999/xlink" viewBox="0 0 32.01 33.01"><defs><clipPath id="clip-path" transform="translate(0 0.01)"><rect width="32" height="33" fill="none"/></clipPath></defs><g clip-path="url(#clip-path)"><path d="M22.26,16.93c0,18.37-1.68,16,7.79,16A1.87,1.87,0,0,0,32,31V16c0-2.71-3.8-1.94-7.8-1.94C22.71,14,22.26,15.45,22.26,16.93Z" transform="translate(0 0.01)" fill-rule="evenodd"/><path d="M21.77,2.9C21.47,3,.81,13,.13,14.84a1.83,1.83,0,0,0,1.66,2.57C5,17.41,20.88,7.05,24.2,6.77l.55,1.92c2.05-.55,1.93-1.56,2.86-3.37S29.37,3.23,29.56,1a41.21,41.21,0,0,0-8.77-1,5.38,5.38,0,0,0,1,2.91Z" transform="translate(0 0.01)" fill-rule="evenodd"/><path d="M11.53,19.35c0,15.6-1.78,13.55,7.8,13.55,3.17,0,2-6.78,2-13.55,0-2.7-3.79-1.93-7.79-1.93A1.87,1.87,0,0,0,11.53,19.35Z" transform="translate(0 0.01)" fill-rule="evenodd"/><path d="M.81,23.23c0,11.13-1.42,9.67,7.8,9.67,3.18,0,1.94-9.09,1.46-11.12C8.13,21.33.82,20,.82,23.23Z" transform="translate(0 0.01)" fill-rule="evenodd"/></g></svg>