<svg width="50" height="50" viewBox="0 0 50 50" fill="none" xmlns="http://www.w3.org/2000/svg">
<g clip-path="url(#clip0_528_77)">
<path opacity="0.912" fill-rule="evenodd" clip-rule="evenodd" d="M49.9512 25.0485C49.9512 25.5368 49.9512 26.0251 49.9512 26.5134C48.7877 30.7914 45.9882 32.7282 41.5527 32.3239C38.7104 31.6951 36.8712 29.9861 36.0352 27.197C35.8413 26.4915 35.7762 25.7753 35.8398 25.0485C35.8887 24.9997 35.9375 24.9509 35.9863 24.902C36.5965 24.8837 37.1987 24.8348 37.793 24.7555C39.0788 21.3376 40.3646 17.9196 41.6504 14.5016C41.2291 14.1779 40.9687 13.7547 40.8691 13.2321C36.4188 13.1999 31.9754 13.2324 27.5391 13.3298C27.3952 13.7476 27.1999 14.1383 26.9531 14.5016C26.9043 22.607 26.888 30.7125 26.9043 38.8181C30.6199 38.7717 34.3309 38.8205 38.0371 38.9645C38.992 39.4092 39.3826 40.1579 39.209 41.2106C39.2054 41.5576 39.1729 41.8994 39.1113 42.236C39.0601 42.3036 38.9949 42.3524 38.916 42.3825C29.6062 42.4476 20.2962 42.4476 10.9863 42.3825C10.9074 42.3524 10.8423 42.3036 10.791 42.236C10.6549 41.4532 10.6711 40.672 10.8398 39.8923C11.0891 39.4803 11.4309 39.171 11.8652 38.9645C15.5715 38.8205 19.2824 38.7717 22.998 38.8181C23.0144 30.7125 22.998 22.607 22.9492 14.5016C22.6682 14.1551 22.4729 13.7644 22.3633 13.3298C17.927 13.2324 13.4836 13.1999 9.0332 13.2321C8.9337 13.7547 8.67328 14.1779 8.25195 14.5016C9.53776 17.9196 10.8235 21.3376 12.1094 24.7555C12.7036 24.8348 13.3059 24.8837 13.916 24.902C14.1748 27.4146 13.2959 29.4654 11.2793 31.0544C8.63765 32.8156 5.93582 32.9133 3.17383 31.3473C1.45061 30.1626 0.376386 28.5513 -0.0488281 26.5134C-0.0488281 26.0251 -0.0488281 25.5368 -0.0488281 25.0485C0.0282353 25.0209 0.0933395 24.9721 0.146484 24.902C0.73152 24.8533 1.31746 24.837 1.9043 24.8532C3.16319 21.4186 4.43272 17.9845 5.71289 14.5505C4.65433 13.4606 4.58922 12.3213 5.51758 11.1325C6.64874 10.3506 7.70668 10.4319 8.69141 11.3766C8.88601 11.603 8.99994 11.8634 9.0332 12.1579C13.4929 12.1579 17.9524 12.1579 22.4121 12.1579C22.4581 11.7077 22.6371 11.3171 22.9492 10.986C22.9817 10.3024 23.0144 9.61883 23.0469 8.93524C23.5315 7.67569 24.4267 7.23624 25.7324 7.61688C26.3176 7.87651 26.6919 8.31597 26.8555 8.93524C26.888 9.61883 26.9206 10.3024 26.9531 10.986C27.2652 11.3171 27.4442 11.7077 27.4902 12.1579C31.9499 12.1579 36.4095 12.1579 40.8691 12.1579C41.356 10.8077 42.3 10.3357 43.7012 10.7419C44.8222 11.3032 45.2291 12.1984 44.9219 13.4274C44.753 13.8555 44.5089 14.2299 44.1895 14.5505C45.4745 17.9825 46.744 21.4167 47.998 24.8532C48.5849 24.837 49.1708 24.8533 49.7559 24.902C49.809 24.9721 49.8741 25.0209 49.9512 25.0485ZM24.6582 8.54461C25.7195 8.61294 26.0776 9.16633 25.7324 10.2048C25.2116 10.0746 24.6907 10.0746 24.1699 10.2048C23.9222 9.50975 24.085 8.95636 24.6582 8.54461ZM24.4629 11.1813C25.8599 11.0972 26.5271 11.7482 26.4648 13.1345C25.7875 14.4236 24.8761 14.6189 23.7305 13.7204C23.1351 12.6261 23.3792 11.7798 24.4629 11.1813ZM6.68945 11.6696C7.94894 11.7223 8.307 12.3083 7.76367 13.4274C6.87872 14.0001 6.26022 13.7722 5.9082 12.7438C6.00349 12.2583 6.26391 11.9002 6.68945 11.6696ZM42.627 11.6696C43.378 11.6543 43.8337 12.0123 43.9941 12.7438C43.695 13.708 43.1091 13.9684 42.2363 13.5251C41.6442 12.7471 41.7744 12.1286 42.627 11.6696ZM6.78711 14.8923C7.00839 14.8572 7.18743 14.9223 7.32422 15.0876C8.52621 18.3357 9.74691 21.5747 10.9863 24.8044C8.34981 24.8532 5.7131 24.8695 3.07617 24.8532C4.25847 21.5122 5.49544 18.1919 6.78711 14.8923ZM42.627 14.8923C42.819 14.8689 42.9981 14.9014 43.1641 14.9899C44.4338 18.2623 45.6545 21.5501 46.8262 24.8532C44.1893 24.8695 41.5525 24.8532 38.916 24.8044C40.182 21.511 41.4189 18.207 42.627 14.8923ZM24.0723 15.2829C24.6582 15.4131 25.2441 15.4131 25.8301 15.2829C25.8301 23.1279 25.8301 30.973 25.8301 38.8181C25.2441 38.8181 24.6582 38.8181 24.0723 38.8181C24.0723 30.973 24.0723 23.1279 24.0723 15.2829ZM1.02539 25.8298C5.02982 25.7972 9.03373 25.8298 13.0371 25.9274C12.3989 29.2745 10.3807 31.0973 6.98242 31.3962C4.32382 31.2151 2.45207 29.9131 1.36719 27.4899C1.1755 26.9513 1.06156 26.3978 1.02539 25.8298ZM36.8652 25.8298C40.8691 25.8298 44.873 25.8298 48.877 25.8298C48.5929 28.2691 47.3233 29.9781 45.0684 30.9567C41.5489 31.9545 38.961 30.8314 37.3047 27.5876C37.0965 27.0151 36.95 26.4292 36.8652 25.8298ZM12.3535 39.8923C20.7521 39.876 29.1505 39.8923 37.5488 39.9411C38.0808 40.2603 38.2761 40.7323 38.1348 41.3571C29.3457 41.3571 20.5566 41.3571 11.7676 41.3571C11.629 40.7186 11.8243 40.2304 12.3535 39.8923Z" fill="#01B055"/>
<path opacity="0.887" fill-rule="evenodd" clip-rule="evenodd" d="M2.39258 26.7092C2.59056 26.6934 2.78587 26.7097 2.97852 26.7581C4.58204 29.5677 6.79558 30.1863 9.61914 28.6135C10.1907 28.0754 10.6465 27.4568 10.9863 26.7581C11.4934 26.5753 11.7863 26.7381 11.8652 27.2464C11.2685 28.8195 10.1616 29.8611 8.54492 30.3714C5.54996 31.006 3.40152 29.948 2.09961 27.1975C2.17382 27.0159 2.27147 26.8531 2.39258 26.7092Z" fill="#01B055"/>
<path opacity="0.887" fill-rule="evenodd" clip-rule="evenodd" d="M38.2322 26.7088C38.4623 26.6929 38.6902 26.7091 38.9158 26.7576C40.056 29.0285 41.8626 29.8586 44.3357 29.2479C45.4846 28.7175 46.3472 27.8874 46.9236 26.7576C47.4037 26.5926 47.6966 26.7554 47.8025 27.2459C46.3904 30.0837 44.1443 31.0929 41.0642 30.2733C39.6951 29.7505 38.7022 28.8228 38.0857 27.49C38.0156 27.2062 38.0644 26.9457 38.2322 26.7088Z" fill="#01B055"/>
</g>
<defs>
<clipPath id="clip0_528_77">
<rect width="50" height="50" fill="white"/>
</clipPath>
</defs>
</svg>
