<svg width="50" height="50" viewBox="0 0 50 50" fill="none" xmlns="http://www.w3.org/2000/svg">
<g clip-path="url(#clip0_528_84)">
<path opacity="0.888" fill-rule="evenodd" clip-rule="evenodd" d="M13.7207 -0.0488281C14.8926 -0.0488281 16.0645 -0.0488281 17.2363 -0.0488281C23.4879 0.91204 27.801 4.33001 30.1758 10.2051C31.8 15.1758 31.2141 19.8633 28.418 24.2676C27.9502 24.8983 27.4456 25.5006 26.9043 26.0742C28.73 27.8674 30.5204 29.6902 32.2754 31.543C33.8357 30.6457 35.3656 30.7107 36.8652 31.7383C41.2144 36.1036 45.5763 40.4493 49.9512 44.7754C49.9512 45.0032 49.9512 45.2312 49.9512 45.459C48.4212 46.9238 46.9238 48.4212 45.459 49.9512C45.2312 49.9512 45.0032 49.9512 44.7754 49.9512C40.4493 45.5763 36.1036 41.2144 31.7383 36.8652C30.7033 35.4114 30.6545 33.9303 31.5918 32.4219C29.7526 30.5827 27.9134 28.7435 26.0742 26.9043C22.3073 30.3078 17.8965 31.6262 12.8418 30.8594C6.60015 29.5331 2.4823 25.8385 0.488281 19.7754C0.27548 18.9222 0.0964443 18.0759 -0.0488281 17.2363C-0.0488281 16.0645 -0.0488281 14.8926 -0.0488281 13.7207C0.721578 8.51683 3.3583 4.56175 7.86133 1.85547C9.71466 0.874096 11.6678 0.23933 13.7207 -0.0488281ZM13.8184 1.02539C20.0648 0.640902 24.8338 3.0823 28.125 8.34961C30.9309 13.8766 30.5729 19.1825 27.0508 24.2676C23.0088 29.1415 17.8818 30.883 11.6699 29.4922C5.6127 27.5368 2.0808 23.4189 1.07422 17.1387C0.641701 10.7927 3.13193 5.99125 8.54492 2.73438C10.2155 1.85729 11.9733 1.28764 13.8184 1.02539ZM34.0332 31.9824C34.8317 31.9216 35.548 32.1332 36.1816 32.6172C40.3483 36.7839 44.5149 40.9505 48.6816 45.1172C47.4935 46.3054 46.3054 47.4935 45.1172 48.6816C40.8502 44.4472 36.6184 40.1828 32.4219 35.8887C31.5972 34.0157 32.1343 32.7137 34.0332 31.9824Z" fill="#01B055"/>
<path opacity="0.887" fill-rule="evenodd" clip-rule="evenodd" d="M7.66603 7.47047C8.36846 7.40667 8.6126 7.69964 8.39845 8.34938C5.80918 11.0081 4.89771 14.1656 5.66407 17.822C5.98118 19.1395 6.53456 20.344 7.32423 21.4353C7.78705 21.9142 8.19395 22.435 8.54493 22.9978C8.39951 23.5425 8.07399 23.689 7.56837 23.4373C4.23143 19.7398 3.46645 15.5569 5.27345 10.8884C5.86436 9.59879 6.66187 8.45946 7.66603 7.47047Z" fill="#01B055"/>
</g>
<defs>
<clipPath id="clip0_528_84">
<rect width="50" height="50" fill="white"/>
</clipPath>
</defs>
</svg>
