<svg width="60" height="60" viewBox="0 0 60 60" fill="none" xmlns="http://www.w3.org/2000/svg">
<path d="M29.1211 2.23831C27.9609 2.94144 24.6211 4.53519 22.793 5.26175C20.2617 6.26956 17.8594 7.043 15.1172 7.72269C13.0195 8.25003 8.94141 9.02347 8.23828 9.02347C8.07422 9.02347 7.80469 9.17581 7.60547 9.36331L7.26562 9.70316V19.7696C7.26562 25.4766 7.3125 30.4102 7.38281 31.1719C8.09766 39.4102 11.8242 46.7227 17.9883 52.0078C21.1172 54.6914 25.1719 56.8477 29.0391 57.8907C30 58.1485 30.0234 58.1485 30.7969 57.9492C32.2852 57.5508 34.5234 56.6953 36.1523 55.8867C43.8047 52.0664 49.5469 44.8946 51.7383 36.375C51.9609 35.5196 52.2539 34.1016 52.3945 33.211C52.6523 31.6289 52.6641 31.2657 52.6992 20.6485L52.7461 9.72659L52.418 9.39847C52.1367 9.11722 51.9375 9.04691 50.918 8.918C44.6133 8.10941 36.3867 5.39066 31.1602 2.39066C30.668 2.10941 30.1406 1.87503 29.9883 1.88675C29.8359 1.88675 29.4492 2.05081 29.1211 2.23831ZM31.5586 4.75784C36.9609 7.57034 43.8281 9.78518 49.8984 10.6641L50.8711 10.8047L50.8242 21.1407C50.7773 32.3321 50.7891 32.1211 50.0977 35.2266C47.9531 44.7539 40.8516 52.6758 31.7578 55.6758L30.0234 56.25L28.6992 55.8282C24.457 54.4805 20.8711 52.3125 17.6484 49.125C13.2422 44.7774 10.4883 39.3516 9.45703 32.9883C9.22266 31.5352 9.21094 30.961 9.17578 21.1524L9.12891 10.8399L10.7461 10.5703C16.8398 9.55081 22.6172 7.68753 27.5977 5.15628C28.8281 4.52347 29.8828 4.00784 29.9531 3.99612C30.0352 3.99612 30.75 4.32425 31.5586 4.75784Z" fill="#BFE9D3"/>
<path d="M27.9492 6.98443C23.707 9.07037 18.5156 10.8165 13.3594 11.8829C11.6602 12.2344 11.4023 12.3165 11.1563 12.5977L10.8867 12.9258L10.9336 22.0782C10.9805 31.6758 10.9922 31.8165 11.543 34.4532C12.9492 41.2149 17.2148 47.4376 23.0273 51.2461C24.4453 52.1719 26.8125 53.3204 28.5352 53.9063C30.1523 54.4571 30.0352 54.4688 32.2852 53.6133C40.3945 50.5079 46.6523 43.1016 48.457 34.4532C49.0078 31.8165 49.0195 31.6758 49.0664 22.0547L49.1133 12.8907L48.7852 12.5626C48.5039 12.2813 48.2461 12.1876 47.0508 11.9649C42.2109 11.0391 36.7266 9.22271 32.1445 7.0313C31.0781 6.51568 30.0938 6.0938 29.9531 6.10552C29.8125 6.10552 28.9219 6.50396 27.9492 6.98443ZM31.3359 8.73052C35.8594 10.8633 40.7461 12.5391 45.3516 13.5235L47.168 13.9102V22.3946C47.168 29.9532 47.1445 31.0313 46.957 32.2735C45.8672 39.4922 41.9766 45.668 36.0352 49.6055C34.7578 50.4493 32.3906 51.6211 31.0313 52.0899L30.0234 52.4297L29.0508 52.1016C27.7031 51.6563 25.2305 50.4376 23.9648 49.6055C18.082 45.7149 14.1914 39.5743 13.0547 32.3907C12.8789 31.2891 12.8438 29.918 12.8086 22.5235C12.7617 15.4922 12.7852 13.9336 12.9141 13.8985C12.9961 13.8751 13.8516 13.6876 14.8008 13.4883C19.2891 12.5274 24.6563 10.6876 28.6523 8.73052C29.3672 8.39068 29.9414 8.09771 29.9531 8.09771C29.9648 8.08599 30.5859 8.37896 31.3359 8.73052Z" fill="#BFE9D3"/>
</svg>
