<svg id="Слой_1" data-name="Слой 1" xmlns="http://www.w3.org/2000/svg" xmlns:xlink="http://www.w3.org/1999/xlink" viewBox="0 0 35 33"><defs><clipPath id="clip-path" transform="translate(0)"><rect width="35" height="33" fill="none"/></clipPath></defs><g clip-path="url(#clip-path)"><path d="M11.53,9.94C7.91,9.94.44,9.85,0,13.11c-.21,1.55,3.38,4.19,5.42,6a19.19,19.19,0,0,0,2.41,1.69C7.06,24.09,4,33,8.3,33c1.67,0,7.62-3.93,9.22-5,2.77,1.44,7.23,5,9.21,5,4.33,0,1.29-8.72.46-12.21,3.36-2.2,2.26-1.84,4.35-3.42,9.24-7-2.3-7.43-8-7.43a42,42,0,0,0-2.29-5.43C20.44,2.76,20,0,17.52,0S14.73,2.39,14,4.19A45.22,45.22,0,0,0,11.53,9.94Z" transform="translate(0)" fill-rule="evenodd"/></g></svg>