<svg id="Слой_1" data-name="Слой 1" xmlns="http://www.w3.org/2000/svg" viewBox="0 0 43.75 37.51"><path d="M21.92,6.2c1.73,0,3.45,0,5.18,0a4.06,4.06,0,0,1,2.78,1.81,43.2,43.2,0,0,1,1.91,4.49q6.15,0,12.3,0a3.61,3.61,0,0,1,2.69,2.59q.09,12.93,0,25.87A3.54,3.54,0,0,1,44,43.65q-19,.1-38.08,0a3.52,3.52,0,0,1-2.78-2.59q-.1-12.93,0-25.87A3.58,3.58,0,0,1,5.81,12.6l11.33-.1q1-2.36,2.1-4.64A4.7,4.7,0,0,1,21.92,6.2Zm.2,1.66c1.56,0,3.12,0,4.69,0A2.64,2.64,0,0,1,28.52,9c.51,1.15,1,2.31,1.51,3.47-3.68.08-7.36.07-11-.05.51-1.27,1.08-2.5,1.71-3.71A4.68,4.68,0,0,1,22.12,7.86ZM6,14.21q18.95,0,37.89,0a1.88,1.88,0,0,1,1.31,1.8q.07,3.57,0,7.13A117.71,117.71,0,0,1,32.18,25,10.44,10.44,0,0,1,32,23.58a.91.91,0,0,0-1.32-.34,3.75,3.75,0,0,0-.24.44,9,9,0,0,0,0,1.37c-3.65.13-7.29.13-10.94,0a9,9,0,0,0-.05-1.37.89.89,0,0,0-1.22-.54l-.34.35c0,.48-.06,1-.1,1.46A118.92,118.92,0,0,1,4.64,23.19q0-3.56.05-7.13A2,2,0,0,1,6,14.21ZM4.64,24.85a101.27,101.27,0,0,0,13,1.71,6.72,6.72,0,0,1,.24,1.91.83.83,0,0,0,1.22.34,1.12,1.12,0,0,0,.34-.44,13.15,13.15,0,0,0,.05-1.66c3.65.13,7.29.13,10.94,0a6.35,6.35,0,0,0,.15,1.85A.84.84,0,0,0,32,28.47a6.38,6.38,0,0,1,.25-1.91,126,126,0,0,0,13-1.61q0,7.62,0,15.24A1.8,1.8,0,0,1,43.8,42q-18.85.1-37.7,0a1.8,1.8,0,0,1-1.41-1.8Q4.61,32.53,4.64,24.85Z" transform="translate(-3.08 -6.2)" fill-rule="evenodd" opacity="0.95" style="isolation:isolate"/></svg>