<?xml version="1.0" encoding="utf-8"?>
<!-- Generator: Adobe Illustrator 28.4.1, SVG Export Plug-In . SVG Version: 6.00 Build 0)  -->
<svg version="1.1" id="Слой_1" xmlns="http://www.w3.org/2000/svg" xmlns:xlink="http://www.w3.org/1999/xlink" x="0px" y="0px"
	 viewBox="0 0 18 15" enable-background="new 0 0 18 15" xml:space="preserve">
<path d="M16.5,0.1c-0.1,0-1.8,0.7-3.8,1.5c-2,0.8-5.4,2.1-7.6,3C2.9,5.4,1,6.1,0.9,6.2C0.7,6.3,0.5,6.5,0.5,6.6
	C0.4,6.8,0.6,7.1,0.9,7.3c0.2,0.1,3.9,1.4,4,1.4c0,0,2.2-1.4,4.9-3.1c2.6-1.7,4.9-3.1,4.9-3.1c0.1,0,0.3,0,0.3,0
	c0.1,0.2,0.3,0-5.8,5.4c-1.9,1.7-2,1.8-2,1.9c0,0,1.4,1.1,3.1,2.4c2.3,1.7,3.1,2.3,3.2,2.4c0.2,0.1,0.5,0.1,0.7,0
	c0.2-0.1,0.4-0.3,0.5-0.4c0-0.1,2.7-13.6,2.7-13.7c0-0.1-0.1-0.3-0.2-0.4C17.1,0,16.8,0,16.5,0.1z"/>
</svg>
