<?xml version="1.0" encoding="utf-8"?>
<!-- Generator: Adobe Illustrator 28.4.1, SVG Export Plug-In . SVG Version: 6.00 Build 0)  -->
<svg version="1.1" id="Слой_1" xmlns="http://www.w3.org/2000/svg" xmlns:xlink="http://www.w3.org/1999/xlink" x="0px" y="0px"
	 viewBox="0 0 800 800" enable-background="new 0 0 800 800" xml:space="preserve">
<path d="M690.3,121.8c0,0,64.8-25.2,59.4,36.1c-1.8,25.3-18,113.6-30.6,209.2l-43.2,283.2c0,0-3.6,41.5-36,48.7
	c-32.4,7.2-80.9-25.2-89.9-32.5c-7.2-5.4-134.9-86.6-179.9-126.2c-12.6-10.8-27-32.5,1.8-57.7l188.9-180.4
	c21.6-21.6,43.2-72.1-46.8-10.8L262.2,462.7c0,0-28.8,18-82.7,1.8L62.6,428.4c0,0-43.2-27.1,30.6-54.1
	C273,289.5,494.3,203,690.3,121.8z"/>
</svg>
