<svg id="Слой_1" data-name="Слой 1" xmlns="http://www.w3.org/2000/svg" xmlns:xlink="http://www.w3.org/1999/xlink" viewBox="0 0 26 18.29"><defs><clipPath id="clip-path" transform="translate(0.13 -4)"><rect width="26" height="26" fill="none"/></clipPath></defs><g clip-path="url(#clip-path)"><path d="M-.13,15.47V10.79Q3.13,2.3,12.09,4.42a9,9,0,0,1,6,8.58,11.37,11.37,0,0,1-.78,4.55,3.87,3.87,0,0,1-3.77-1.3q2.42-5.49-3-8.19A5.48,5.48,0,0,0,3.9,11.57q-.87,5.52,4.55,7a11.15,11.15,0,0,0,3.38,3.25Q3.06,23.78-.13,15.47Z" transform="translate(0.13 -4)" fill-rule="evenodd" opacity="0.91" style="isolation:isolate"/><path d="M25.87,10.79v4.68Q22,24.85,12.35,21.32,5.53,16.74,8.45,9a3.15,3.15,0,0,1,3.9,1.3q-2.49,5.36,2.86,7.93,7.93.39,6.37-7.41a6.53,6.53,0,0,0-4.29-3.12,11.15,11.15,0,0,0-3.38-3.25Q22.69,2.49,25.87,10.79Z" transform="translate(0.13 -4)" fill-rule="evenodd" opacity="0.91" style="isolation:isolate"/></g></svg>