<?xml version="1.0" encoding="utf-8"?>
<!-- Generator: Adobe Illustrator 28.4.1, SVG Export Plug-In . SVG Version: 6.00 Build 0)  -->
<svg version="1.1" id="Слой_1" xmlns="http://www.w3.org/2000/svg" xmlns:xlink="http://www.w3.org/1999/xlink" x="0px" y="0px"
	 viewBox="0 0 18 18" enable-background="new 0 0 18 18" xml:space="preserve">
<path d="M8.4,0.9C7.2,1,6.2,1.3,5.2,1.8C3.7,2.6,2.5,3.8,1.7,5.4C1.4,6,1.3,6.3,1.1,6.9c-0.2,0.7-0.2,1.2-0.3,2c0,0.4,0,0.8,0,1
	c0.2,1.3,0.6,2.4,1.3,3.5l0.2,0.4l-0.5,1.5c-0.3,0.8-0.5,1.5-0.5,1.5c0,0,0.7-0.2,1.5-0.5c0.8-0.3,1.5-0.5,1.6-0.5
	c0,0,0.1,0.1,0.3,0.2c0.1,0.1,0.5,0.3,0.7,0.4c2.1,1,4.4,1.1,6.5,0.2c2.4-0.9,4.2-3,4.9-5.5c0.2-0.8,0.2-1.2,0.2-2.1s0-1.3-0.2-2.1
	c-0.8-2.9-3.1-5.2-6.1-5.9c-0.5-0.1-1-0.2-1.6-0.2C8.8,0.9,8.5,0.9,8.4,0.9z M6.4,4.6c0.1,0,0.1,0.1,0.2,0.2C6.7,5,7.5,6.9,7.5,7
	c0,0.1-0.1,0.4-0.4,0.7C6.7,8.1,6.7,8.2,6.7,8.3C6.8,8.6,7.5,9.6,7.9,10c0.7,0.7,1.8,1.3,2.2,1.3c0.2,0,0.3-0.1,0.7-0.5
	c0.2-0.2,0.3-0.5,0.4-0.5c0.1-0.1,0.3-0.1,0.5-0.1c0.3,0.1,1.9,0.9,2,1l0.1,0.1l0,0.3c0,0.9-0.4,1.3-1.2,1.7c-0.8,0.4-1.4,0.4-2.5,0
	c-1.6-0.5-2.4-1.1-3.5-2.2c-0.6-0.6-1-1-1.4-1.7c-0.8-1.1-1-1.9-1-2.8c0.1-0.7,0.3-1.2,0.8-1.7c0.2-0.2,0.5-0.3,1-0.3
	C6.2,4.6,6.4,4.6,6.4,4.6z"/>
</svg>
