<?xml version="1.0" encoding="utf-8"?><svg viewBox="0 0 180 49" xmlns="http://www.w3.org/2000/svg" xmlns:xlink="http://www.w3.org/1999/xlink"><style>:root>svg{display:none}:root>svg:target{display:block}</style><svg data-name="Слой 1" viewBox="0 0 16.5 16.55" id="arroba" xmlns="http://www.w3.org/2000/svg"><defs><clipPath id="aaa" transform="translate(-.23 -.18)"><path fill="none" d="M0 0h17v17H0z"/></clipPath></defs><g clip-path="url(#aaa)"><path d="M7.92.18a8.33 8.33 0 0 1 7.75 4.19 8.42 8.42 0 0 1 .6 6.87 2.77 2.77 0 0 1-3 1.74 2.8 2.8 0 0 1-2.09-1.51 4 4 0 0 1-3.82.85 4.09 4.09 0 0 1-2.71-2.64A4 4 0 0 1 10 4.78a4.43 4.43 0 0 1 .85.48.81.81 0 0 1 1.59-.2c0 1.81 0 3.61.07 5.42a1.26 1.26 0 0 0 1.16.93 1.29 1.29 0 0 0 1.16-1.07A6.62 6.62 0 1 0 9.61 15a7.2 7.2 0 0 0 2.46-.93.81.81 0 0 1 1.06.78.92.92 0 0 1-.63.85 8.31 8.31 0 0 1-6.44.66 8.21 8.21 0 0 1-5.49-5.55A8.33 8.33 0 0 1 2.16 3.1 8.46 8.46 0 0 1 7.92.18Zm.56 5.91a2.43 2.43 0 0 1 2.28 1.73A2.37 2.37 0 0 1 6.64 10a2.45 2.45 0 0 1-.26-2.59 2.48 2.48 0 0 1 2.1-1.32Z" transform="translate(-.23 -.18)" fill-rule="evenodd" opacity=".98" style="isolation:isolate"/></g></svg><svg viewBox="0 0 49 49" xml:space="preserve" id="balance" xmlns="http://www.w3.org/2000/svg"><defs><path id="aba" d="M0 0h49v49H0z"/></defs><clipPath id="abb"><use xlink:href="#aba" overflow="visible"/></clipPath><g clip-path="url(#abb)"><path opacity=".938" fill-rule="evenodd" clip-rule="evenodd" d="M23.6 0h1.7c2.3.8 3.2 2.4 2.9 4.8-.2.9-.7 1.6-1.5 2.2-.1.9-.1 1.7-.1 2.6h16.1c1.2.4 1.7 1.1 1.6 2.3-.2.8-.7 1.3-1.5 1.6-.7 0-1.3.1-2 .1 2.3 5 4.5 10 6.8 14.9.9.2 1.3.7 1.1 1.6-.5.9-1 1.9-1.4 2.8-.4.5-.9.9-1.5 1.1-4.1.2-8.3.2-12.4.1-.8-.2-1.5-.6-2-1.3-.4-.9-.9-1.7-1.3-2.6-.2-.5-.2-1 .2-1.4.3-.1.6-.2.8-.3 2.3-5 4.5-10 6.8-15-3.8 0-7.5-.1-11.3 0v2.8c-.2.6-.6.7-1.2.5-.1-.1-.2-.2-.2-.3-.1-1.3-.1-2.7 0-4 .1-.2.3-.4.5-.4 5.6 0 11.2-.1 16.8-.1.4-.3.4-.6-.1-.9-5.6 0-11.3-.1-16.9-.1l-.3-.3c0-1-.1-2-.1-3.1-.4.1-.8.1-1.1 0-.1 1-.1 2-.1 3.1l-.3.3c-5.6 0-11.3.1-16.9.1-.7.2-.7.5-.3.9 5.6 0 11.2.1 16.8.1.2 0 .3.1.4.2.1 9.3.2 18.7.1 28H25V19.1c.6-.5 1-.5 1.4.2 0 7 .1 14 0 21H32c.8.2 1.3.7 1.7 1.4.1.7.2 1.4.1 2.1 1.2-.2 2.3.1 3.1 1.1.1.2.2.4.3.7.1 1 .1 2 0 3-.1.2-.2.3-.3.4H11.4c-.2-.1-.3-.2-.3-.4-.1-1-.1-2 0-3 .3-.7.8-1.3 1.5-1.6.6-.1 1.3-.2 1.9-.1-.3-1.4.1-2.5 1.2-3.3.2-.1.4-.1.6-.2 1.9 0 3.8-.1 5.6 0V13.6H10.6c2.3 5 4.6 10 6.8 15 .3.1.5.2.8.3.4.4.5.9.2 1.4-.5.8-.9 1.7-1.3 2.6-.5.7-1.1 1.1-2 1.3-4.2.1-8.3.1-12.4-.1-.2-.2-.7-.6-1.1-1.1-.5-.9-1-1.9-1.4-2.8-.2-.9.2-1.5 1.1-1.6 2.3-5 4.5-10 6.8-14.9-.7-.1-1.3-.1-2-.1-1.4-.5-1.8-1.5-1.3-2.9.3-.5.8-.9 1.4-1 5.4 0 10.7-.1 16.1 0 0-.9 0-1.7-.1-2.6-1.5-1.3-1.9-2.8-1.3-4.7.5-1.3 1.5-2.1 2.7-2.4zm.3 1.5c1.7-.1 2.7.7 3 2.3-.2 1.4-1 2.2-2.4 2.3-1.4-.2-2.2-1-2.4-2.3.1-1.1.7-1.9 1.8-2.3zM9.5 14.2l6.6 14.4c-4.4 0-8.7.1-13.1 0 2.2-4.8 4.3-9.6 6.5-14.4zm29.8 0c.2.1.3.3.3.5 2.1 4.6 4.2 9.3 6.3 14H32.8c2.2-4.9 4.4-9.7 6.5-14.5zM2 30.3c5-.1 10.1-.1 15.1 0-.3.7-.6 1.3-1 1.9-.2.2-.5.3-.8.4-3.8.1-7.7.1-11.5 0-.4-.1-.7-.3-.9-.6-.3-.6-.6-1.2-.9-1.7zm29.8-.1h15.1L46 32c-.2.3-.5.5-.9.6-3.8.1-7.7.1-11.5 0-.3-.1-.6-.2-.8-.4-.4-.6-.7-1.3-1-2zM16.9 41.9H32c.2.1.4.3.5.5 0 .5.1 1 0 1.4H21.3c-.7.5-.7.9-.1 1.4 4.7 0 9.4.1 14.1.1.3.1.5.2.6.5 0 .5.1 1 0 1.4H12.7v-1.4c.1-.2.2-.3.3-.4 1.8-.1 3.6-.2 5.4-.2.6-.4.6-.9.1-1.3-.8-.1-1.6-.2-2.4-.1v-1.4c.4-.2.6-.4.8-.5z"/></g></svg><svg data-name="Слой 1" viewBox="0 0 18.92 25.06" id="certificate" xmlns="http://www.w3.org/2000/svg"><path d="M3.9 0h18.92v23.37h-8.91V25a2.34 2.34 0 0 1-1.11-.14 8.75 8.75 0 0 0-1.67-1 8.75 8.75 0 0 0-1.67 1 2.34 2.34 0 0 1-1.11.14v-1.63H3.9Zm3.89 6.68h11.13v1.11H7.79Zm0 3.34h11.13v1.11H7.79Zm2.78 4.73a16.26 16.26 0 0 0 2.51.55 6.32 6.32 0 0 1 .55 2.92q-2.43 3-5 .14a5.88 5.88 0 0 1 .55-3.06 1.21 1.21 0 0 0 1.39-.55Zm-1.11 6.4h3.34a7 7 0 0 1-.14 1.94 1.82 1.82 0 0 0-3.06 0 6.66 6.66 0 0 1-.14-1.94Z" transform="translate(-3.9)" fill-rule="evenodd" opacity=".99" style="isolation:isolate"/></svg><svg fill="none" viewBox="0 0 31 31" id="checked" xmlns="http://www.w3.org/2000/svg"><g clip-path="url(#ada)" fill-rule="evenodd" clip-rule="evenodd"><path opacity=".994" d="M14.138-.03h2.664c6.073.755 10.402 3.904 12.987 9.445a16.897 16.897 0 0 1 1.18 4.723v.847a485.123 485.123 0 0 1-4.783-4.39 4.84 4.84 0 0 0-.544-.393c-.07-.258-.2-.48-.394-.666a31.127 31.127 0 0 0-1.665-1.604c-.844-.43-1.631-.35-2.361.242a1508.54 1508.54 0 0 1-8.053 8.022 327.405 327.405 0 0 1-3.754-3.723c-.845-.43-1.632-.35-2.361.242-.6.559-1.155 1.154-1.665 1.786-.308.666-.268 1.312.12 1.938a211.982 211.982 0 0 0 6.752 6.72 311.02 311.02 0 0 0 7.326 7.266c-.914.26-1.843.441-2.785.545h-2.664c-6.073-.756-10.403-3.904-12.988-9.446a16.898 16.898 0 0 1-1.18-4.722v-2.664C.725 8.065 3.874 3.735 9.415 1.15a16.898 16.898 0 0 1 4.723-1.18Z" fill="#32BA7C"/><path d="M25.642 10.202c.202.595.131 1.16-.212 1.695L14.259 23.068c-.655.4-1.32.43-1.998.09a211.898 211.898 0 0 1-6.751-6.72c-.389-.626-.43-1.271-.121-1.937a17.332 17.332 0 0 1 1.665-1.786c.73-.591 1.516-.672 2.361-.243a324.988 324.988 0 0 0 3.754 3.724 1513.76 1513.76 0 0 0 8.053-8.022c.73-.591 1.517-.672 2.361-.243a31.166 31.166 0 0 1 1.665 1.605c.194.185.325.407.394.666Z" fill="#FEFEFE"/><path d="M25.642 10.202c.188.117.37.248.544.394a485.123 485.123 0 0 0 4.784 4.39v1.876c-.594 5.102-3.036 9.047-7.326 11.837a15.008 15.008 0 0 1-4.057 1.726 311.02 311.02 0 0 1-7.326-7.266c.677.34 1.344.31 1.998-.09l11.17-11.171c.345-.536.415-1.101.213-1.696Z" fill="#0AA06E"/></g><defs><clipPath id="ada"><path fill="#fff" d="M0 0h31v31H0z"/></clipPath></defs></svg><svg data-name="Слой 1" viewBox="0 0 26 26" id="chicken" xmlns="http://www.w3.org/2000/svg"><path d="M12.85 0h.3v.3h.28v.28h-.28a.88.88 0 0 0 0 .16.38.38 0 0 1 .05.63.27.27 0 0 1 .07.22.65.65 0 0 0 .28 0 .23.23 0 0 1 .15-.14 2.5 2.5 0 0 0 .61.09 1 1 0 0 1 .6 1.13c-.16.33-.34.66-.52 1a2.1 2.1 0 0 1-.15.61 13.74 13.74 0 0 0 1.24.87 1.14 1.14 0 0 0 .72.18 1 1 0 0 0 0-.3 3.26 3.26 0 0 1-.31-.55 1.34 1.34 0 0 1 0-.4.78.78 0 0 1 .73-.41c.3.18.39.11.25-.22a1.73 1.73 0 0 0 .13-.37h-.17V3A.33.33 0 0 0 17 3a.24.24 0 0 0 0-.17h.17V3h.18v.13h-.18a.68.68 0 0 0 .14.31c-.13.35 0 .43.26.23q.77 0 .72.78A4.89 4.89 0 0 1 18 5a.24.24 0 0 0 0 .3 1.41 1.41 0 0 0 .41 0 .92.92 0 0 0 .78-1 5.72 5.72 0 0 0-.41-.67.89.89 0 0 1 0-.68 3.1 3.1 0 0 1 .64-.49 1.29 1.29 0 0 1 .75.1 4 4 0 0 1 .66.58c.3.17.61.34.93.5a.53.53 0 0 1 .15.56l-.27.34a.26.26 0 0 0 0 .27 1.51 1.51 0 0 1 .28.15.42.42 0 0 1 .08.7.28.28 0 0 0-.19-.22h-.55a1.22 1.22 0 0 0-.24-.1.72.72 0 0 1 .22.63.37.37 0 0 1-.56.32.29.29 0 0 0 .17-.29 4.26 4.26 0 0 0-.41-.54.69.69 0 0 1 0-.78l.41-.54a.42.42 0 0 0-.15-.49 2.73 2.73 0 0 0-.93-.29 4.78 4.78 0 0 0 .1 1 .72.72 0 0 1-.15.53 2.8 2.8 0 0 1-1.57.71v.06l.31.09.07.17a4.93 4.93 0 0 1 .66.07.64.64 0 0 1 .32.22.87.87 0 0 1-.2 1 .72.72 0 0 0-.4-.28 1.65 1.65 0 0 0-1.07.17 2.14 2.14 0 0 0 .35.06l1 .34a1.29 1.29 0 0 0 1-.18.2.2 0 0 1-.07.2 1 1 0 0 1-.75.3 7.25 7.25 0 0 1-.95-.18.53.53 0 0 1 .05.39.31.31 0 0 1-.39.23.69.69 0 0 0 .05-.4.75.75 0 0 0-.59-.27 4.72 4.72 0 0 0-.64.1c-.12 0-.18 0-.17-.17a.33.33 0 0 0-.17 0A2.19 2.19 0 0 0 15.31 9a1.36 1.36 0 0 0 .13 1.08 1.17 1.17 0 0 0 1.26.32.91.91 0 0 1-1 .39.15.15 0 0 0 0 .14 1.35 1.35 0 0 0 1.61.07 1.06 1.06 0 0 1-.17.71 1.3 1.3 0 0 1-.74.23 1.76 1.76 0 0 0 1.41.66 1 1 0 0 0 .85-1.16 4.6 4.6 0 0 0-.52-.78.64.64 0 0 1-.1-.44 1.25 1.25 0 0 1 .39-.49A8.89 8.89 0 0 0 20 8.5a.8.8 0 0 0 .18-.34h.11a.65.65 0 0 0 0 .24 6 6 0 0 0 1.27-1.53c.08-.08.13 0 .15.07A7.87 7.87 0 0 0 24 3.79a1 1 0 0 1 .34.51 2.47 2.47 0 0 1-.28 1.62 11.36 11.36 0 0 1-.93 1.26 4.56 4.56 0 0 0-.75.84A20.79 20.79 0 0 0 25 5.86a.24.24 0 0 1 .14.17 2 2 0 0 1-.45 1.49 8.9 8.9 0 0 1-1.6 1.33l1.69-.74a2.34 2.34 0 0 1 .81-.11 1.14 1.14 0 0 1-.26.57A5.4 5.4 0 0 1 24 9.6q.69 0 1.38-.09a2.88 2.88 0 0 1 .65.07 5.78 5.78 0 0 1-.9.66l-1.13.54a8.38 8.38 0 0 1 1.86.29 2 2 0 0 1-.76.53q-.45.13-.9.3a3.12 3.12 0 0 1 1.38.41.35.35 0 0 1 .11.13 1 1 0 0 1-.62.41 6.71 6.71 0 0 1-1.18.17l.8.34a1.41 1.41 0 0 1 .44.47 2.54 2.54 0 0 1-1.44.2 7.15 7.15 0 0 1 .57.53.59.59 0 0 1 0 .37 1.2 1.2 0 0 1-1 .05l-.45-.2-1-.73a9.58 9.58 0 0 0 .76.67 2.32 2.32 0 0 1 .67.83 1.46 1.46 0 0 1 0 .51 1.08 1.08 0 0 1-.77-.08 5.43 5.43 0 0 1-.79-.8 7.91 7.91 0 0 0-.68-.85 1.58 1.58 0 0 0 .21.38c.13.17.26.34.4.5A5 5 0 0 1 22 16a1.72 1.72 0 0 1-.08.81 1.82 1.82 0 0 1-.92-.37c-.31-.61-.61-1.22-.89-1.83a1.09 1.09 0 0 0 0 .51 5 5 0 0 1 .56 1.45 1.32 1.32 0 0 1-.19.64c-.09.13-.2.13-.32 0a2 2 0 0 1-.57-.66 12.28 12.28 0 0 1-.36-1.45.58.58 0 0 0-.11.15.29.29 0 0 1-.13 0 3 3 0 0 1 .19 1.22 1.26 1.26 0 0 1-.37.7.21.21 0 0 1-.2 0 1.35 1.35 0 0 1-.59-1.1 5.11 5.11 0 0 0 0-.78c-.07.08-.15.15-.22.22a.18.18 0 0 1-.17 0 .77.77 0 0 1-.4-.53 2 2 0 0 1-.52.55 3 3 0 0 0 0 .6 4.8 4.8 0 0 0 .3.65 1.23 1.23 0 0 1-.27 0 .73.73 0 0 0 .41.45 1.13 1.13 0 0 0 .83 0 .39.39 0 0 1-.14.3l.69.16a.82.82 0 0 1 .46.62c0 .38 0 .75.07 1.12a.58.58 0 0 0 .4.39.71.71 0 0 1-1-.15.64.64 0 0 0 .21.71s0 0 0 .07a.43.43 0 0 1-.48-.11l-.16-.23q-.07.69-.36 0a.26.26 0 0 0 0 .39 3.53 3.53 0 0 0 2.44.67 1.15 1.15 0 0 0 .29-.17 2 2 0 0 0-.08-.41v-.07a1.9 1.9 0 0 0 .54.34.15.15 0 0 0 .13-.1 1.25 1.25 0 0 0 .09-.37.16.16 0 0 1 .1 0 3.33 3.33 0 0 1 .24.32.19.19 0 0 0 .23 0 1.37 1.37 0 0 1 .35-.41s.07 0 .1 0a2.28 2.28 0 0 1 .18.52.66.66 0 0 0 .31-.22c.14-.09.23-.05.27.1a2.13 2.13 0 0 1-1 1.32 3.24 3.24 0 0 1-.62.12.3.3 0 0 1-.28.17l-.31-.08a7.08 7.08 0 0 0-1.17-.58 10.76 10.76 0 0 0-1.27-.17 6.1 6.1 0 0 0-2-.3.24.24 0 0 1-.09-.29l.28-.41c0-.16 0-.2-.16-.12a.61.61 0 0 1-.79-.3c.58 0 .82-.23.74-.8a.69.69 0 0 0-.33-.28 1.16 1.16 0 0 0-.86.06 5.19 5.19 0 0 0-.36.46c0-.18-.08-.2-.17-.07a.8.8 0 0 0-.17.71.48.48 0 0 0 .15.22 4.72 4.72 0 0 1 .81.49.48.48 0 0 1 .1.38 1.51 1.51 0 0 0-.86-.23 12.19 12.19 0 0 0 1.41.68c.33.2.65.42 1 .64a.39.39 0 0 0 .43-.12 1.4 1.4 0 0 0 .06-.5.58.58 0 0 1 .56.81 1.05 1.05 0 0 1-.22.3 3.51 3.51 0 0 1 .47.55 1.19 1.19 0 0 1-.33 1.1l-.1.05a1.55 1.55 0 0 0-.47-.68 2.71 2.71 0 0 1-.24.78.8.8 0 0 1-.91.35l-.49-.22a1.53 1.53 0 0 1-1.89.38 1.33 1.33 0 0 1-.34.69 3 3 0 0 0-.35.22H13a1.64 1.64 0 0 1-.5-.41.76.76 0 0 1-.19-.5 4.42 4.42 0 0 0-.48.15 1.4 1.4 0 0 1-1-.2l-.39-.33a5.18 5.18 0 0 1-.6.26.81.81 0 0 1-.84-.42 2.71 2.71 0 0 1-.24-.78 1.63 1.63 0 0 0-.47.68 1 1 0 0 1-.42-.48 1.16 1.16 0 0 1 0-.78c.14-.13.27-.27.4-.41l-.22-.3a.58.58 0 0 1 .56-.81 1.4 1.4 0 0 0 .06.5.39.39 0 0 0 .43.12l.89-.61A13.4 13.4 0 0 0 11.5 21a1.35 1.35 0 0 0-.77.26.6.6 0 0 1 .39-.6 5.12 5.12 0 0 0 .52-.27.62.62 0 0 0 .12-.69 1.16 1.16 0 0 0-.24-.34.87.87 0 0 0-.07.17 4.35 4.35 0 0 0-.33-.42.7.7 0 0 0-.27-.14 1.64 1.64 0 0 0-.66 0 .59.59 0 0 0 .45 1.08.71.71 0 0 1-.83.3q-.17-.09-.12.12a1.66 1.66 0 0 0 .25.34c.1.19.05.32-.16.39a4.87 4.87 0 0 0-1.86.24c-.4.05-.8.1-1.2.17a4.66 4.66 0 0 0-1.24.57 3 3 0 0 1-.4.12.32.32 0 0 1-.26-.17 1.58 1.58 0 0 1-1.43-.91 1.57 1.57 0 0 1-.2-.61.11.11 0 0 1 .12-.07.76.76 0 0 1 .34.25.12.12 0 0 0 .1 0 3.17 3.17 0 0 0 .12-.44c.06-.12.12-.13.21 0a1.44 1.44 0 0 0 .33.4.19.19 0 0 0 .1 0 3.79 3.79 0 0 1 .31-.37 1.1 1.1 0 0 1 .17.4.25.25 0 0 0 .12.07 3.77 3.77 0 0 0 .54-.34v.07a2 2 0 0 0-.05.42 1 1 0 0 0 1.05.28 3.35 3.35 0 0 0 1.86-.72.28.28 0 0 0-.09-.34q-.3.69-.36 0a1 1 0 0 1-.31.35.62.62 0 0 1-.33 0s0-.05 0-.07a.68.68 0 0 0 .21-.71.73.73 0 0 1-1 .13.49.49 0 0 0 .37-.42c0-.37.06-.74.07-1.12a.81.81 0 0 1 .53-.66 6.18 6.18 0 0 1 .62-.12.39.39 0 0 1-.14-.3 1.09 1.09 0 0 0 1.2-.3.24.24 0 0 0 .05-.16H9l.3-.72a3 3 0 0 0 0-.6 2 2 0 0 1-.5-.52.77.77 0 0 1-.4.53.18.18 0 0 1-.17 0l-.23-.3v1.09a1.25 1.25 0 0 1-.61.83.29.29 0 0 1-.28-.15 1.51 1.51 0 0 1-.17-1.21 4.94 4.94 0 0 1 .15-.55.29.29 0 0 1-.13 0 .44.44 0 0 0-.12-.15 10.55 10.55 0 0 1-.35 1.45 1.5 1.5 0 0 1-.76.75.5.5 0 0 1-.24-.29 1.23 1.23 0 0 1 .07-1c.13-.3.26-.6.41-.88a1.09 1.09 0 0 0 0-.51c-.28.57-.56 1.14-.83 1.72a1.51 1.51 0 0 1-1 .48 1.72 1.72 0 0 1-.09-.81A9.74 9.74 0 0 1 5 14.52a.36.36 0 0 0 .07-.17c-.33.38-.64.76-.93 1.16l-.44.42a1.12 1.12 0 0 1-.86.17 1 1 0 0 1 .12-.8 7.94 7.94 0 0 1 .57-.59 6.31 6.31 0 0 0 .73-.64.3.3 0 0 0-.18.06 5.31 5.31 0 0 1-1.29.87 1.23 1.23 0 0 1-1 0 .48.48 0 0 1 0-.39 7.15 7.15 0 0 1 .55-.61 2.45 2.45 0 0 1-1.44-.2 1.41 1.41 0 0 1 .44-.47c.26-.12.53-.24.8-.34a3.61 3.61 0 0 1-1.59-.34 1.21 1.21 0 0 1-.21-.24 1.06 1.06 0 0 1 .49-.34 4.67 4.67 0 0 1 1-.2 4.32 4.32 0 0 1-1.59-.71.18.18 0 0 1-.07-.16A9.69 9.69 0 0 1 2 10.78c-.38-.16-.76-.33-1.13-.51A5.78 5.78 0 0 1 0 9.61a3.07 3.07 0 0 1 .53-.07c.5.06 1 .08 1.5.09a5.4 5.4 0 0 1-1.36-1.1A1.14 1.14 0 0 1 .41 8a1.58 1.58 0 0 1 .31 0 8.12 8.12 0 0 1 2.1.88.08.08 0 0 0 .11 0 8.9 8.9 0 0 1-1.6-1.33A2 2 0 0 1 .88 6 .24.24 0 0 1 1 5.86c.55.51 1.12 1 1.7 1.5 1.17.93 1.23.87.16-.18A11.36 11.36 0 0 1 2 5.92a2.47 2.47 0 0 1-.33-1.62 1.59 1.59 0 0 1 .21-.41.15.15 0 0 1 .12-.08A8 8 0 0 0 3.63 6.4a4.45 4.45 0 0 0 .61.54c0-.13.07-.15.15-.07A6 6 0 0 0 5.66 8.4a.94.94 0 0 1 .06-.24A2.13 2.13 0 0 1 6 8.5a8.89 8.89 0 0 0 1.51 1.27l.26.25a.51.51 0 0 1 .13.41 2.65 2.65 0 0 1-.48.78.9.9 0 0 0 .47 1.37A1.56 1.56 0 0 0 9.54 12a1.3 1.3 0 0 1-.74-.23 1.12 1.12 0 0 1-.17-.77 1.41 1.41 0 0 0 1.53 0 .25.25 0 0 0 .12-.22.91.91 0 0 1-1-.39l.39.05a1 1 0 0 0 1-.74 2.08 2.08 0 0 0-.81-1.91 1.12 1.12 0 0 0-.62-.29c0 .13-.07.19-.21.17l-.62-.1a.73.73 0 0 0-.38.08.42.42 0 0 0-.03.64.28.28 0 0 1-.36-.13.53.53 0 0 1 0-.49c-.27 0-.55.1-.83.17a.87.87 0 0 1-1-.44 3.81 3.81 0 0 1 .45.13 1.69 1.69 0 0 0 .55 0c.31-.1.62-.22.93-.34a.47.47 0 0 1 .17 0 .41.41 0 0 0 .24 0A2.64 2.64 0 0 0 7.58 7a.84.84 0 0 0-.92.28.93.93 0 0 1-.29-.69.57.57 0 0 1 .24-.59 2.13 2.13 0 0 1 .83-.13.51.51 0 0 1 .1-.21.87.87 0 0 0 .28 0V5.6a3.22 3.22 0 0 1-1.24-.43.91.91 0 0 1-.48-.81 4.78 4.78 0 0 0 .1-1 1.23 1.23 0 0 0-.27 0l-.48.17a.49.49 0 0 0-.33.59l.41.54a.69.69 0 0 1 0 .78 2.41 2.41 0 0 0-.38.56.29.29 0 0 0 .15.29.49.49 0 0 1-.34 0 .59.59 0 0 1-.22-.62c.07-.12.14-.24.22-.36a1.86 1.86 0 0 0-.31.1h-.48a.28.28 0 0 0-.17.28.44.44 0 0 1-.14-.48 1.61 1.61 0 0 1 .5-.39.23.23 0 0 0 0-.25l-.27-.34a.53.53 0 0 1 .15-.56c.31-.18.62-.34.93-.5a4.38 4.38 0 0 1 .55-.51 1 1 0 0 1 .93-.14 5 5 0 0 1 .53.48.89.89 0 0 1 0 .68 5.72 5.72 0 0 0-.41.67.62.62 0 0 0 0 .27A1 1 0 0 0 8 5.3.24.24 0 0 0 8 5a4.89 4.89 0 0 1-.3-.6.66.66 0 0 1 .36-.73 1.49 1.49 0 0 0 .36 0c.3.2.39.12.26-.23a.68.68 0 0 0 .14-.31h-.18V3h.18v-.26H9a.24.24 0 0 0 0 .17.33.33 0 0 0 .17 0v.13H9a1.73 1.73 0 0 0 .11.32.38.38 0 0 1-.07.21.14.14 0 0 0 .2.1.27.27 0 0 1 .12-.09 3.59 3.59 0 0 0 .47.12.56.56 0 0 1 .26.69A3.26 3.26 0 0 1 9.8 5a1 1 0 0 0 0 .3 1.29 1.29 0 0 0 .72-.18 13.74 13.74 0 0 0 1.24-.87 2.1 2.1 0 0 1-.15-.61c-.18-.32-.36-.65-.52-1a1.41 1.41 0 0 1 0-.54 1 1 0 0 1 1.17-.68.23.23 0 0 1 .15.14.65.65 0 0 0 .28 0 .27.27 0 0 1 .07-.22.77.77 0 0 1-.14-.32.34.34 0 0 1 0-.17.3.3 0 0 0 .16-.3h-.28V.3h.28Z" fill-rule="evenodd"/></svg><svg viewBox="0 0 18 18" style="enable-background:new 0 0 18 18" xml:space="preserve" id="close" xmlns="http://www.w3.org/2000/svg"><path d="M1 3.8c0 .1-.1.2-.1.3 0 .4-.1.2 2.4 2.7l2.3 2.3-2.3 2.3C1.2 13.6 1 13.7 1 13.9c-.1.2-.1.4 0 .6.1.2 2.6 2.7 2.8 2.8.2.1.4.1.6 0 .2-.1.3-.2 2.5-2.3l2.3-2.3 2.3 2.3c2.2 2.2 2.3 2.3 2.5 2.3.1 0 .2.1.3.1.3 0 .3 0 1.7-1.4 1.2-1.2 1.3-1.3 1.4-1.5 0-.1.1-.2.1-.3 0-.4.1-.2-2.4-2.7l-2.3-2.3L15 6.8c2.2-2.2 2.3-2.3 2.3-2.5 0-.1.1-.2.1-.3 0-.3 0-.3-1.4-1.7C14.7 1.1 14.6 1 14.5 1c-.1 0-.2-.1-.3-.1-.4 0-.2-.1-2.7 2.4L9.1 5.6 6.9 3.3C4.4.8 4.5.9 4.1.9c-.1 0-.2 0-.3.1-.2 0-.3.1-1.5 1.3S1 3.6 1 3.8z"/></svg><svg data-name="Слой 1" viewBox="0 0 13.6 13.6" id="close-icon" xmlns="http://www.w3.org/2000/svg"><defs><clipPath id="afa" transform="translate(-5.9 -6.2)"><path transform="rotate(-45 12.733 12.996)" fill="none" d="M3.73 4h18v18h-18z"/></clipPath></defs><g clip-path="url(#afa)"><path d="m6.12 6.86.44-.45a1.48 1.48 0 0 1 1.66.09c1.5 1.48 3 3 4.48 4.46l4.49-4.46a1.47 1.47 0 0 1 1.65-.09l.45.45a1.48 1.48 0 0 1-.08 1.65c-1.48 1.51-3 3-4.47 4.49 1.5 1.49 3 3 4.47 4.49a1.48 1.48 0 0 1 .08 1.65l-.45.45a1.47 1.47 0 0 1-1.65-.09L12.7 15c-1.48 1.49-3 3-4.48 4.46a1.48 1.48 0 0 1-1.66.09l-.44-.45a1.48 1.48 0 0 1 .08-1.65c1.48-1.51 3-3 4.47-4.49-1.5-1.49-3-3-4.47-4.49a1.48 1.48 0 0 1-.08-1.61Z" transform="translate(-5.9 -6.2)" fill="#fff" fill-rule="evenodd" opacity=".99" style="isolation:isolate"/></g></svg><svg data-name="Слой 1" viewBox="0 0 18.74 23.94" id="doc" xmlns="http://www.w3.org/2000/svg"><path d="M3.51.91Q9.75.85 16 1q3.2 3.06 6.11 6.37.2 8.72.13 17.42H3.51Zm12 1.56q2.65 2.46 5.2 5.07c-1.73.13-3.46.17-5.2.13ZM7.67 6.11h6.76v1H7.67Zm0 5.2h1.56v1H7.67Zm3.64 0h6.76v1h-6.76Zm-3.64 3.12h1.56v1H7.67Zm3.64 0h6.76v1h-6.76Zm-3.64 3.12h1.56v1H7.67Zm3.64 0h6.76v1h-6.76Z" transform="translate(-3.51 -.89)" fill-rule="evenodd" opacity=".99" style="isolation:isolate"/></svg><svg viewBox="0 0 49 49" xml:space="preserve" id="employee" xmlns="http://www.w3.org/2000/svg"><defs><path id="aia" d="M0 0h49v49H0z"/></defs><clipPath id="aib"><use xlink:href="#aia" overflow="visible"/></clipPath><g clip-path="url(#aib)"><path opacity=".939" fill-rule="evenodd" clip-rule="evenodd" d="M23.1 0h2.5c4.2.8 6.7 3.4 7.6 7.6.1 1.4.2 2.7.2 4.1.6.8.8 1.6.6 2.6-.4 1.4-1.3 2.2-2.8 2.4-.2 1.8-1 3.2-2.4 4.3-.1.7-.1 1.4-.1 2.1 3.2 1.1 6.3 2.4 9.4 3.7 1.5 1 2.4 2.3 2.8 4.1.2 2.2.2 4.3.1 6.5-.2.5-.6.6-1.1.4-.1-.1-.3-.3-.3-.4 0-1.9-.1-3.9-.1-5.8-.3-1.7-1.3-3-2.9-3.8-1.6-.6-3.3-1.3-4.9-1.9-.1 0-.1.1-.2.1-.8 1.5-1.5 3.1-2.3 4.6-.7.6-1.3.6-2 0-.2.3-.3.5-.5.8.7 4.3 1.3 8.6 2.1 12.9 0 .3-.1.6-.2.9-.7.8-1.5 1.6-2.2 2.4 2.6 0 5.1.1 7.7 0V33.1c.4-.6.8-.6 1.3-.1 0 .1.1.3.1.4 0 4.7.1 9.4 0 14.2h3.7c.1 0 .2-.1.3-.1.1-2.4.1-4.8.1-7.2.4-.7.9-.7 1.4-.1.1 2.5.1 5 0 7.6-.2.6-.6 1.1-1.2 1.3H19.6c-.5-.5-.5-.9 0-1.4 1.1 0 2.1-.1 3.2-.1-.7-.8-1.5-1.6-2.2-2.4-.2-.3-.3-.6-.2-.9l2.1-12.6c-.1-.4-.3-.7-.5-1-.7.6-1.3.6-2 0-.8-1.5-1.6-3-2.3-4.6-.1 0-.1-.1-.2-.1-1.6.6-3.3 1.2-4.9 1.9-1.6.8-2.6 2-2.9 3.8-.1 5.3-.1 10.5 0 15.8.1.1.2.2.3.2 1.2 0 2.5.1 3.7 0V33.5c.2-.7.6-.9 1.2-.6.1.1.2.2.2.3 0 4.8.1 9.6 0 14.5H17c.5.5.5.9 0 1.4H9.2c-.6-.2-1-.7-1.2-1.3-.1-5.4-.1-10.8 0-16.3.3-2 1.2-3.5 2.9-4.6.8-.4 1.6-.7 2.4-1.1 2.3-.9 4.7-1.8 7-2.6v-1.9c-1.4-1.1-2.3-2.6-2.6-4.4-2.3-.6-3.2-2.1-2.6-4.4.1-.3.3-.5.5-.8 0-1.5.1-2.9.2-4.4.8-4.2 3.3-6.5 7.3-7.3zm.2 1.5c3.2-.3 5.7.9 7.4 3.5.9 1.7 1.3 3.5 1.1 5.5-.2 0-.4 0-.5-.1 0-.3-.1-.5-.3-.8-.7-.7-1.4-1.5-2.1-2.2-.4-.3-.9-.4-1.4-.3-2.8 1.8-5.9 2.6-9.2 2.5-.4.2-.6.4-.8.8-.2.1-.4.1-.5.2-.5-3.4.7-6 3.4-8 .9-.6 1.9-.9 2.9-1.1zm4.5 7.2c.7.5 1.3 1.1 1.9 1.8.1 1.9.1 3.8 0 5.7-.5 2.9-2.3 4.5-5.2 4.7-2.8-.2-4.6-1.6-5.3-4.3-.2-1.9-.2-3.8-.2-5.6 3.2.1 6.1-.6 8.8-2.3zM17.4 12c.1.5.2 1 .2 1.5V15c-1.2-.5-1.5-1.3-1-2.5.2-.1.5-.3.8-.5zm13.8 0c.8.2 1.2.7 1.2 1.5s-.4 1.3-1.2 1.5v-3zm-9.4 10c1.8.6 3.6.6 5.4 0v1.2c-.9 1.1-1.7 2.1-2.6 3.2-.9-1-1.8-2.1-2.6-3.2-.2-.4-.2-.8-.2-1.2zm-1.3 2.5c.3 0 .5.2.6.4.7.9 1.4 1.8 2.2 2.7-.8.6-1.6 1.2-2.4 1.7-.7-1.3-1.4-2.7-2.1-4.1.6-.2 1.2-.5 1.7-.7zm7.5 0c.7.1 1.4.4 2 .8-.7 1.4-1.3 2.7-2.1 4-.8-.6-1.6-1.1-2.3-1.7.8-1.1 1.6-2.1 2.4-3.1zm-3.6 4.2c.5.3 1 .6 1.4 1-.2.2-.3.4-.5.7-.6.1-1.1.1-1.7 0-.2-.2-.3-.5-.5-.7.5-.4.9-.7 1.3-1zm-.6 3.2h1.3c.6 4 1.3 8 2 12.1-.2.3-.3.5-.5.8-.7.8-1.4 1.5-2.2 2.3-.8-.8-1.5-1.6-2.2-2.4-.2-.2-.3-.5-.4-.7.7-4.1 1.3-8.1 2-12.1z"/></g></svg><svg data-name="Слой 1" viewBox="0 0 17 12.75" id="envelope" xmlns="http://www.w3.org/2000/svg"><defs><clipPath id="aja" transform="translate(0 -2.12)"><path fill="none" d="M0 0h17v17H0z"/></clipPath></defs><g clip-path="url(#aja)"><path d="M1.08.05a1.36 1.36 0 0 0-.6.33C.25.59.19.74.27.88s.73.74 1.65 1.49c2.14 1.81 4.71 4 5.54 4.75.59.51.7.59.86.64a.45.45 0 0 0 .36 0c.19-.06.18-.05 1.12-.87.78-.68 3.09-2.66 5.28-4.52C16 1.62 16.71.96 16.73.88s0-.32-.2-.53a1.46 1.46 0 0 0-.65-.34c-.27-.03-14.57-.02-14.8.04ZM.16 2.13C0 2.23 0 2.06 0 6.48a30 30 0 0 0 .06 4.22.33.33 0 0 0 .32.18 7.34 7.34 0 0 0 1.48-1c2.05-1.5 3.67-2.73 3.82-2.9a.32.32 0 0 0 0-.37c0-.08-4.64-4-5.14-4.42a.45.45 0 0 0-.38-.06ZM16.42 2.17c-.49.38-5.09 4.34-5.14 4.42a.32.32 0 0 0 0 .37c.15.17 1.77 1.4 3.82 2.9a7.34 7.34 0 0 0 1.48 1 .33.33 0 0 0 .32-.16 30 30 0 0 0 .1-4.22c0-4.44 0-4.26-.16-4.35a.45.45 0 0 0-.42.04Z"/><path d="m6.33 7.38-.75.57c-.94.75-2 1.56-3.73 2.79-.8.58-1.47 1.14-1.5 1.14a.38.38 0 0 0 0 .19c0 .11 0 .16.13.28a1.47 1.47 0 0 0 .73.38c.24.05 14.44.05 14.68 0a1.47 1.47 0 0 0 .73-.38c.1-.12.13-.17.13-.28a.38.38 0 0 0-.05-.19 7.23 7.23 0 0 0-.64-.5c-1.86-1.34-3.51-2.57-4.59-3.42l-.76-.57a.4.4 0 0 0-.18 0c-.12 0-.13 0-.83.62a1.6 1.6 0 0 1-1.35.52 1.89 1.89 0 0 1-1-.52c-.71-.62-.7-.62-.84-.62a.44.44 0 0 0-.18-.01Z"/></g></svg><svg viewBox="0 0 49 49" xml:space="preserve" id="hall" xmlns="http://www.w3.org/2000/svg"><defs><path id="aka" d="M0 0h49v49H0z"/></defs><clipPath id="akb"><use xlink:href="#aka" overflow="visible"/></clipPath><g clip-path="url(#akb)" fill-rule="evenodd" clip-rule="evenodd"><path opacity=".941" d="M24.2 0h.6C32 3.6 39.2 7.4 46.5 11.2c1.1-.2 1.9.2 2.5 1v4.6c-.2.3-.4.6-.8.8-.7.1-1.4.2-2.1.1v2.2c-.3.9-.9 1.3-1.9 1.1v18.1c.7 0 1.2.3 1.5 1 .1.8.1 1.5.1 2.3H48c.4.2.8.5 1 .9v4.5c-.3.5-.7.9-1.2 1.1H37.5c-.5-.2-.7-.6-.5-1.1 0-.2.2-.3.3-.3 3.4 0 6.8-.1 10.2 0v-3.4H1.6v3.4h33c.2 0 .3.2.3.3.2.6 0 1-.5 1.1H1.3c-.6-.2-1-.5-1.2-1.1v-4.5c.2-.4.5-.7 1-.9.6 0 1.3-.1 1.9 0v-2.3c.3-.8 1-1.2 1.9-1.1V21.1c-1 .1-1.6-.2-1.9-1.1 0-.7-.1-1.5 0-2.2-.7 0-1.3 0-2-.1-.4-.2-.7-.5-.9-.9v-4.6c.5-.8 1.2-1.1 2.1-1C9.4 7.4 16.8 3.6 24.2 0zm0 1.6c.3 0 .7 0 1 .2 6 3.1 12 6.3 18 9.4-10 0-20 .1-30 .1-.4.2-.6.6-.4 1.1l.3.3c11.5 0 22.9.1 34.4 0v3.4H1.6v-3.4h8.9c.7-.5.6-1-.1-1.4-1.6 0-3.2-.1-4.8-.1l18.6-9.6zm0 3.4c1.4.1 1.9.8 1.4 2.1-.7.8-1.5.8-2.2 0-.5-1-.2-1.7.8-2.1zM4.4 17.8h7.7v1.8H4.4v-1.8zm9.1 0h21.8V20c.3.9.9 1.3 1.9 1.1v18.1c-.7 0-1.2.3-1.5 1-.1.8-.1 1.5-.1 2.3h-3.2V27.8c-.5-2.9-2.1-5-4.8-6.3-3.9-1.3-7.2-.4-9.8 2.8-.7 1-1.2 2.2-1.3 3.4 0 4.9-.1 9.8 0 14.7h-2.9v-2.2c-.3-.9-.9-1.3-1.9-1.2V21.1c.9.1 1.6-.3 1.9-1.1-.1-.8 0-1.5-.1-2.2zm23.4 0h7.7v1.8h-7.7v-1.8zM6.3 21.1h3.8V39H6.3V21.1zm32.5 0h3.8v18.1h-3.8V21.1zm-15 1.2c3.9 0 6.3 1.9 7.1 5.6 0 4.8.1 9.6 0 14.5h-13V27.9c.8-3.1 2.7-5 5.9-5.6zM4.5 40.5H12c.1.6.1 1.2.1 1.9H4.4c-.1-.6 0-1.2.1-1.9zm32.7.2h7.1v1.7h-7.1v-1.7z"/><path opacity=".925" d="M23.8 3.5c1.7-.2 2.9.6 3.5 2.2.2 1.8-.5 2.9-2.2 3.5-1.8.2-2.9-.5-3.5-2.2-.2-1.7.5-2.9 2.2-3.5zm.4 1.5c-1 .4-1.2 1.1-.8 2.1.7.8 1.5.8 2.2 0 .4-1.3 0-2-1.4-2.1z"/></g></svg><svg data-name="Слой 1" viewBox="0 0 24.42 23.66" id="hammer" xmlns="http://www.w3.org/2000/svg"><path d="M7.15.65A22.83 22.83 0 0 1 16 2.34l4.55 4.55A2.25 2.25 0 0 1 20.8 9l.39.39 2.08.26 1.95 2a3.22 3.22 0 0 1-.22 2.26l-2.73 2.73a2 2 0 0 1-2.34 0A7.58 7.58 0 0 1 17.81 14a1 1 0 0 0-.26-1.56L16 13l-3.9-3.9a1.78 1.78 0 0 0 .65-1.95 22.38 22.38 0 0 0-6-5.46.85.85 0 0 1 .4-1.04Z" transform="translate(-.91 -.65)" fill-rule="evenodd" opacity=".92" style="isolation:isolate"/><path d="M11.57 9.49a19.33 19.33 0 0 1 4 4.42L5.33 24.18a3.31 3.31 0 0 1-1.82 0L1 21.71a2.45 2.45 0 0 1 0-1.56q5.38-5.28 10.57-10.66Z" transform="translate(-.91 -.65)" fill-rule="evenodd" opacity=".94" style="isolation:isolate"/></svg><svg data-name="Слой 1" viewBox="0 0 26 24.04" id="handcuffs" xmlns="http://www.w3.org/2000/svg"><defs><clipPath id="ama" transform="translate(.13 -.88)"><path fill="none" d="M0 0h26v26H0z"/></clipPath></defs><g clip-path="url(#ama)" fill-rule="evenodd"><path d="M17.81 11.05c-.17-.49-.35-1-.52-1.56a5.23 5.23 0 0 1-1.82-3.77 2.22 2.22 0 0 1 2.08-2.34 2.28 2.28 0 0 0-2.86-.78 1 1 0 0 1 .52.91 3.28 3.28 0 0 0-.13 1.56 1 1 0 0 1-.52.26l-1-.52a4.07 4.07 0 0 1-1.17.52.23.23 0 0 0-.26-.26.23.23 0 0 0-.26-.26.23.23 0 0 0-.26-.26 5.56 5.56 0 0 1 1.3-1c.3-2.18 1.51-3 3.64-2.47a3.61 3.61 0 0 1 2.86 3.77 1.15 1.15 0 0 1 .91.26 4.46 4.46 0 0 1 .26 3.64 2.87 2.87 0 0 1-1.43 1 1.27 1.27 0 0 0-.26 1 1.21 1.21 0 0 0-1.08.3ZM17 5.33c.11 1.09.63 1.31 1.56.65a2.5 2.5 0 0 0 .44-.65 10 10 0 0 0 .65 2.08 1.18 1.18 0 0 1-.39.52c-.66-.73-1.18-.65-1.56.26a3.51 3.51 0 0 1-.7-2.86Z" transform="translate(.13 -.88)" opacity=".75" style="isolation:isolate"/><path d="M11.57 4.55a.23.23 0 0 1 .26.26.23.23 0 0 1 .26.26.23.23 0 0 1 .26.26 22.45 22.45 0 0 0 2 2.08 4.31 4.31 0 0 1 0 2.08 5 5 0 0 0-2.08 4.42Q9.6 18.5 4.55 16.64a9 9 0 0 1-4.68-5.07v-3.9a5.72 5.72 0 0 1 6-3.51 6.78 6.78 0 0 1 2.45-1.95l1.17.39a22.45 22.45 0 0 0 2.08 1.95ZM10 6.11a2.82 2.82 0 0 1 .78.65C9.17 8 8.91 7.83 10 6.11Zm-5.72 1a5.12 5.12 0 0 1 5.46 4.68A2.72 2.72 0 0 1 8.45 14q-5.91.33-5.59-5.59a10.19 10.19 0 0 1 1.43-1.26ZM25.87 17v3.38q-3.64 6.35-10.66 3.77-5.21-3.6-1.56-8.81a5.49 5.49 0 0 1-.13-2.73 1.89 1.89 0 0 1 1.17-.91 19.15 19.15 0 0 0 3.12-.65 19.8 19.8 0 0 1 4.42-.13 10.28 10.28 0 0 1 1.17 3.25A7.72 7.72 0 0 1 25.87 17Zm-8.06-3.9c1.19.13 1.36.65.52 1.56a1.48 1.48 0 0 1-.52-1.53Zm.78 2.9a4.2 4.2 0 0 1 4.68 2.73q-2.18 4.76-7 2.6a2.74 2.74 0 0 1-.65-3.51A6.31 6.31 0 0 1 18.59 16Z" transform="translate(.13 -.88)" opacity=".9" style="isolation:isolate"/></g></svg><svg data-name="Слой 1" viewBox="0 0 23.82 21.99" id="house" xmlns="http://www.w3.org/2000/svg"><path d="M11.5 2a10.8 10.8 0 0 1 2.66.17c1.72 1.56 3.5 3.06 5.32 4.49q-.11-3.25 3-2.16A41.74 41.74 0 0 1 23 9.68a2.33 2.33 0 0 1 1.66 3 1.84 1.84 0 0 1-2.16-.16c-3.19-2.8-6.41-5.52-9.67-8.17C9.56 7 6.34 9.72 3.17 12.51Q.46 14 1 11q5.43-4.33 10.5-9Z" transform="translate(-.92 -2)" fill-rule="evenodd" opacity=".85" style="isolation:isolate"/><path d="M12.16 6a2.74 2.74 0 0 1 1.33.16q4.57 3.91 9.16 7.82a61.31 61.31 0 0 1 0 9l-.84.83a32.13 32.13 0 0 1-6.65 0 59.29 59.29 0 0 1-.5-6.15 1.5 1.5 0 0 0-1.83-1 1.49 1.49 0 0 0-1.83 1c-.07 2.08-.23 4.13-.5 6.15a32.23 32.23 0 0 1-6.66 0L3 23a58.65 58.65 0 0 1 0-9c3.12-2.61 6.17-5.28 9.16-8Z" transform="translate(-.92 -2)" fill-rule="evenodd" opacity=".96" style="isolation:isolate"/></svg><svg data-name="Слой 1" viewBox="0 0 23.93 16.69" id="id-card" xmlns="http://www.w3.org/2000/svg"><path d="M2 4.55q11.22-.19 22.36.39a2.67 2.67 0 0 1 .39.65c0 2.43.09 4.85.13 7.28a59.58 59.58 0 0 1-.39 7.8 2.5 2.5 0 0 1-.65.39l-10.92.13q-5.76.06-11.44-.39a2.5 2.5 0 0 1-.48-.65Q.78 12.88 1 5.59a1.81 1.81 0 0 1 1-1.04Zm5.2 3.9q4.15-.16 2.73 3.9c-1.55 2-1.07 3.24 1.43 3.77a1.49 1.49 0 0 1 .78 1.43H4.29a1.49 1.49 0 0 1 .78-1.43c2.5-.53 3-1.78 1.43-3.77a9.61 9.61 0 0 1 0-3.12 2.82 2.82 0 0 0 .65-.78Zm7.8 1.3q3.12-.06 6.24.13.52.39 0 .78a38.24 38.24 0 0 1-6.24 0 .56.56 0 0 1 0-.91Zm0 2.6q3.12-.06 6.24.13.52.39 0 .78a38.24 38.24 0 0 1-6.24 0 .56.56 0 0 1 0-.91ZM15 15q3.12-.06 6.24.13.52.39 0 .78a38.24 38.24 0 0 1-6.24 0 .56.56 0 0 1 0-.91Z" transform="translate(-.91 -4.5)" fill-rule="evenodd" opacity=".98" style="isolation:isolate"/></svg><svg data-name="Слой 1" viewBox="0 0 26.11 23.84" id="law" xmlns="http://www.w3.org/2000/svg"><defs><clipPath id="apa" transform="translate(0 -.93)"><path fill="none" d="M0 0h26v26H0z"/></clipPath></defs><g clip-path="url(#apa)" fill-rule="evenodd"><path d="M11.16 1c2.35-.31 3.09.59 2.21 2.72L8.1 9c-2.28.46-3-.39-2.2-2.55C7.72 4.66 9.48 2.84 11.16 1Z" transform="translate(0 -.93)" opacity=".82" style="isolation:isolate"/><path d="M14.22 4.05A11.79 11.79 0 0 1 19.31 9l-5.43 5.44a1.73 1.73 0 0 1-1.53-.51L4 22.9Q1.42 24.33.12 21.71a2.86 2.86 0 0 1 .34-2.38l9-8.32A1.74 1.74 0 0 1 9 9.48c1.78-1.77 3.53-3.58 5.22-5.43Z" transform="translate(0 -.93)" opacity=".9" style="isolation:isolate"/><path d="M20.33 9.48q2.81 0 1.87 2.72a38.72 38.72 0 0 1-6.45 5.8c-1.43-.37-1.88-1.27-1.36-2.72 1.94-2.03 3.93-3.95 5.94-5.8Z" transform="translate(0 -.93)" opacity=".82" style="isolation:isolate"/><path d="M15.24 20.69c3.28-.06 6.57 0 9.85.17a2.87 2.87 0 0 1 .85 3.23 3.49 3.49 0 0 1-.85.51 73.58 73.58 0 0 1-9.85 0q-2.02-1.93 0-3.91Z" transform="translate(0 -.93)" opacity=".9" style="isolation:isolate"/></g></svg><svg fill="none" viewBox="0 0 180 26" id="logo" xmlns="http://www.w3.org/2000/svg"><path d="M68.94 12.136a4.788 4.788 0 0 0-1.072-1.746 5.017 5.017 0 0 0-1.722-1.15 5.988 5.988 0 0 0-2.301-.418c-1.141 0-2.075.214-2.803.641a5.186 5.186 0 0 0-1.691 1.52l1.691 1.458c.258-.429.609-.795 1.027-1.07.439-.299 1.016-.448 1.733-.448.856 0 1.533.232 2.033.695.498.461.83 1.074.942 1.744h-4.811v1.673h4.814a2.94 2.94 0 0 1-.93 1.948c-.536.485-1.232.728-2.088.728a3.079 3.079 0 0 1-1.7-.46 3.354 3.354 0 0 1-1.082-1.06l-1.733 1.413a5.356 5.356 0 0 0 2.034 1.69c.78.348 1.627.524 2.481.514a5.79 5.79 0 0 0 2.216-.417 5.368 5.368 0 0 0 1.756-1.15 5.2 5.2 0 0 0 1.15-1.733 5.654 5.654 0 0 0 .418-2.184 6.48 6.48 0 0 0-.362-2.188ZM80.325 16.127a5.836 5.836 0 0 0-2.416-2.119l3.593-4.854h-2.825l-2.975 4.11a5.725 5.725 0 0 0-1.241-.129v-3.98h-2.57v10.354h2.567v-4.345a5.84 5.84 0 0 1 1.594.279c.46.154.882.401 1.24.726.396.371.716.815.943 1.307.301.649.523 1.331.66 2.033h2.824a11.535 11.535 0 0 0-1.394-3.382ZM91.519 16.64c-.253.323-.58.58-.954.748-.412.19-.86.286-1.314.28a3.105 3.105 0 0 1-1.284-.258 2.875 2.875 0 0 1-.986-.709 3.088 3.088 0 0 1-.622-1.063 3.891 3.891 0 0 1-.213-1.298 3.769 3.769 0 0 1 .225-1.315c.138-.39.348-.751.62-1.064.266-.302.594-.544.963-.708a3.036 3.036 0 0 1 1.274-.258c.437-.001.869.098 1.262.289.373.17.692.44.92.78l1.627-1.643a4.171 4.171 0 0 0-1.7-1.15 5.958 5.958 0 0 0-2.152-.406 6.352 6.352 0 0 0-2.269.396 5.141 5.141 0 0 0-1.798 1.122 5.259 5.259 0 0 0-1.176 1.734 5.622 5.622 0 0 0-.43 2.226c-.01.77.132 1.534.418 2.248a4.932 4.932 0 0 0 1.177 1.723c.52.487 1.13.865 1.798 1.113.73.27 1.502.405 2.28.396a5.81 5.81 0 0 0 2.237-.413c.624-.25 1.19-.63 1.658-1.113l-1.561-1.656ZM94.839 9.154V19.51h2.567v-8.326h4.389v8.326h2.567V9.154h-9.523ZM117.127 12.05a4.784 4.784 0 0 0-1.016-1.702 4.623 4.623 0 0 0-1.606-1.102 5.4 5.4 0 0 0-2.118-.396 5.664 5.664 0 0 0-2.137.396 5.118 5.118 0 0 0-2.882 2.867 5.818 5.818 0 0 0-.417 2.235c-.013.778.132 1.55.427 2.27.269.646.67 1.23 1.177 1.711.511.479 1.111.85 1.767 1.093a6.456 6.456 0 0 0 4.793-.164 5.116 5.116 0 0 0 1.972-1.659l-1.811-1.212c-.281.41-.655.747-1.091.986a3.29 3.29 0 0 1-1.67.407 3.077 3.077 0 0 1-1.151-.213 3.28 3.28 0 0 1-.951-.579 2.76 2.76 0 0 1-.674-.878 2.61 2.61 0 0 1-.28-1.091h8.005c.014-.128.021-.256.021-.385v-.37a6.54 6.54 0 0 0-.358-2.213Zm-7.651 1.294c.03-.347.12-.687.268-1.003a2.63 2.63 0 0 1 .609-.841c.264-.243.568-.436.899-.572.36-.148.746-.22 1.135-.215.856 0 1.51.251 1.959.754.454.519.702 1.187.695 1.877h-5.565ZM130.963 12.2a5.238 5.238 0 0 0-1.029-1.731 4.805 4.805 0 0 0-1.609-1.167 5.106 5.106 0 0 0-2.125-.427 4.52 4.52 0 0 0-2.081.481 3.955 3.955 0 0 0-1.502 1.292h-.066V9.154h-2.466v13.079h2.569v-4.137h.043c.379.549.902.982 1.512 1.252.622.29 1.299.439 1.984.439a5.051 5.051 0 0 0 2.137-.439 4.827 4.827 0 0 0 1.621-1.188 5.26 5.26 0 0 0 1.019-1.744c.239-.678.36-1.39.358-2.11a6.057 6.057 0 0 0-.365-2.106Zm-2.406 3.38c-.127.391-.327.754-.589 1.07-.263.31-.592.557-.963.722a3.164 3.164 0 0 1-1.348.268 3.015 3.015 0 0 1-1.285-.268 3.102 3.102 0 0 1-1.644-1.777 3.738 3.738 0 0 1-.225-1.295 3.657 3.657 0 0 1 .225-1.272c.143-.395.362-.76.643-1.072.277-.306.612-.553.986-.726a3.017 3.017 0 0 1 1.3-.268c.464-.01.924.081 1.348.268.371.167.7.416.963.726.262.318.462.681.589 1.072.272.827.272 1.72 0 2.546v.007ZM132.633 9.154v2.029h3.233v8.326h2.568v-8.326h3.361V9.154h-9.162ZM50.646 7.025h-1.703v15.119h1.703V7.025ZM2.612 19.976h7.533v2.312H0V7.134h9.824v2.312H2.612v3.945h6.757v2.198H2.612v4.387ZM12.842 7.134h5.329a8.922 8.922 0 0 1 1.776.182c.571.11 1.118.321 1.616.622a3.52 3.52 0 0 1 1.177 1.186c.308.5.461 1.135.46 1.905a3.157 3.157 0 0 1-.705 2.07 3.582 3.582 0 0 1-1.862 1.176v.045c.445.067.878.2 1.283.394a3.6 3.6 0 0 1 1.04.75c.296.316.528.686.683 1.091a3.896 3.896 0 0 1-1.433 4.678 5.539 5.539 0 0 1-1.825.797 9.126 9.126 0 0 1-2.215.258h-5.324V7.134Zm2.608 6.315h2.482c.343.001.684-.038 1.018-.119.302-.07.589-.198.845-.374.241-.171.44-.396.578-.658.15-.302.224-.637.214-.975 0-.71-.274-1.224-.822-1.54-.548-.315-1.25-.47-2.107-.465H15.45v4.13Zm0 6.633h2.418c.41.002.818-.038 1.22-.116.372-.069.73-.2 1.06-.387a2.2 2.2 0 0 0 .75-.716c.201-.335.301-.722.287-1.113 0-.813-.285-1.394-.856-1.744-.571-.35-1.348-.524-2.33-.524H15.45v4.6ZM29.515 18.523l7.447-11.388h3.123V22.29h-2.672V10.9h-.043L29.9 22.288h-3.108V7.134h2.675v11.389h.048Z" fill="#000"/><path d="m180 8.689-6.997 6.875s-1.839-1.885-4.681-4.748C173.94 7.42 180 8.689 180 8.689ZM172.091 16.73s-1.839-1.886-4.681-4.75c-1.818-1.827-4.031-4.053-6.45-6.442-6.187-6.126-14.563-4.376-14.563-4.376l8.587 8.585a9.892 9.892 0 0 1 2.894 6.986 9.87 9.87 0 0 1-2.894 6.985l-1.808 1.808s7.873 1.644 13.99-3.838l-.018-.018 2.934-2.936 2.009-2.005Z" fill="#01B055"/></svg><svg fill="none" viewBox="0 0 180 25" id="logo-white" xmlns="http://www.w3.org/2000/svg"><path d="M68.94 11.205a4.79 4.79 0 0 0-1.072-1.745 5.015 5.015 0 0 0-1.722-1.151 5.988 5.988 0 0 0-2.302-.417c-1.14 0-2.075.213-2.802.64a5.187 5.187 0 0 0-1.691 1.52l1.69 1.459c.258-.43.61-.795 1.028-1.07.438-.3 1.016-.449 1.733-.449.855 0 1.533.232 2.033.695.498.461.83 1.075.942 1.744h-4.811v1.674h4.814a2.94 2.94 0 0 1-.93 1.947c-.536.486-1.232.728-2.088.728a3.079 3.079 0 0 1-1.701-.46 3.356 3.356 0 0 1-1.081-1.06l-1.733 1.414a5.355 5.355 0 0 0 2.033 1.69c.78.348 1.627.523 2.482.514a5.787 5.787 0 0 0 2.216-.418 5.369 5.369 0 0 0 1.755-1.15 5.198 5.198 0 0 0 1.15-1.733 5.65 5.65 0 0 0 .418-2.184 6.48 6.48 0 0 0-.361-2.188ZM80.325 15.195a5.836 5.836 0 0 0-2.416-2.119l3.593-4.853h-2.825l-2.975 4.109a5.713 5.713 0 0 0-1.241-.128V8.223h-2.57v10.355h2.566v-4.346a5.84 5.84 0 0 1 1.595.28c.459.153.881.4 1.24.726.396.37.716.814.942 1.306.302.65.524 1.332.661 2.034h2.824a11.536 11.536 0 0 0-1.394-3.383ZM91.519 15.71c-.253.322-.58.579-.954.748-.412.19-.861.285-1.315.28a3.105 3.105 0 0 1-1.283-.259 2.872 2.872 0 0 1-.987-.708 3.088 3.088 0 0 1-.62-1.064 3.893 3.893 0 0 1-.215-1.298 3.768 3.768 0 0 1 .226-1.315c.138-.39.348-.75.62-1.063.266-.303.594-.545.962-.709a3.035 3.035 0 0 1 1.274-.258c.438 0 .87.098 1.263.29.373.169.692.44.92.78l1.627-1.644a4.171 4.171 0 0 0-1.7-1.15 5.959 5.959 0 0 0-2.153-.406 6.35 6.35 0 0 0-2.268.396 5.141 5.141 0 0 0-1.798 1.123 5.26 5.26 0 0 0-1.177 1.734 5.62 5.62 0 0 0-.429 2.225c-.01.77.131 1.534.418 2.249a4.932 4.932 0 0 0 1.177 1.722 5.36 5.36 0 0 0 1.798 1.113 6.33 6.33 0 0 0 2.28.396 5.808 5.808 0 0 0 2.237-.412c.624-.251 1.19-.63 1.658-1.113l-1.561-1.657ZM94.839 8.223v10.355h2.567V10.25h4.389v8.327h2.567V8.223h-9.523ZM117.127 11.119a4.784 4.784 0 0 0-1.016-1.703 4.624 4.624 0 0 0-1.606-1.101 5.4 5.4 0 0 0-2.118-.396 5.664 5.664 0 0 0-2.137.396 5.118 5.118 0 0 0-2.882 2.866 5.819 5.819 0 0 0-.417 2.236c-.013.777.132 1.55.427 2.27.269.646.67 1.229 1.177 1.71.511.479 1.111.85 1.767 1.094a6.457 6.457 0 0 0 4.793-.165 5.115 5.115 0 0 0 1.972-1.658l-1.811-1.213c-.281.41-.655.747-1.091.986a3.288 3.288 0 0 1-1.67.408 3.076 3.076 0 0 1-1.151-.214 3.283 3.283 0 0 1-.951-.579 2.762 2.762 0 0 1-.674-.877 2.61 2.61 0 0 1-.28-1.092h8.005a3.53 3.53 0 0 0 .021-.384v-.37a6.539 6.539 0 0 0-.358-2.214Zm-7.651 1.293c.03-.347.12-.686.268-1.002.145-.318.352-.604.609-.842a3.03 3.03 0 0 1 .899-.572c.36-.147.746-.22 1.135-.215.856 0 1.51.251 1.959.754.454.52.702 1.188.695 1.877h-5.565ZM130.964 11.27a5.256 5.256 0 0 0-1.029-1.732 4.825 4.825 0 0 0-1.609-1.167 5.11 5.11 0 0 0-2.126-.427 4.523 4.523 0 0 0-2.081.482 3.955 3.955 0 0 0-1.502 1.291h-.066V8.223h-2.465v13.079h2.569v-4.137h.043c.379.549.902.982 1.512 1.252.621.29 1.298.44 1.984.44a5.055 5.055 0 0 0 2.137-.44 4.834 4.834 0 0 0 1.62-1.188c.45-.51.796-1.102 1.019-1.744.24-.677.361-1.39.359-2.109a6.08 6.08 0 0 0-.365-2.107Zm-2.407 3.38c-.126.39-.326.754-.588 1.07-.263.31-.592.556-.963.722a3.168 3.168 0 0 1-1.348.268 3.081 3.081 0 0 1-2.929-2.045 3.715 3.715 0 0 1-.225-1.295 3.657 3.657 0 0 1 .225-1.272c.143-.396.361-.76.643-1.072.276-.306.612-.553.986-.727a3.014 3.014 0 0 1 1.3-.268c.463-.01.924.081 1.348.268.371.168.7.416.963.727.262.317.461.68.588 1.072.272.826.272 1.719 0 2.545v.007ZM132.633 8.223v2.028h3.233v8.327h2.567V10.25h3.362V8.223h-9.162ZM50.646 6.094h-1.703v15.118h1.703V6.094ZM2.612 19.045h7.533v2.313H0V6.203h9.824v2.313H2.612v3.944h6.757v2.198H2.612v4.387ZM12.842 6.203h5.329a8.921 8.921 0 0 1 1.776.183c.571.11 1.118.32 1.616.62a3.52 3.52 0 0 1 1.177 1.188c.308.5.461 1.134.46 1.905a3.157 3.157 0 0 1-.705 2.069 3.582 3.582 0 0 1-1.862 1.177v.044c.445.067.878.2 1.283.395.389.185.74.44 1.04.75.296.315.528.686.683 1.09a3.895 3.895 0 0 1-1.433 4.678 5.541 5.541 0 0 1-1.825.798 9.13 9.13 0 0 1-2.215.258h-5.324V6.203Zm2.608 6.315h2.482c.343.002.684-.038 1.018-.118.302-.071.589-.198.845-.375.241-.17.44-.396.578-.658.15-.302.224-.637.214-.974 0-.711-.274-1.225-.822-1.54-.548-.316-1.25-.47-2.107-.465H15.45v4.13Zm0 6.634h2.418c.41 0 .818-.038 1.22-.117.372-.069.73-.2 1.06-.386.303-.176.56-.422.75-.717a2.02 2.02 0 0 0 .287-1.112c0-.814-.285-1.395-.856-1.744-.571-.35-1.348-.525-2.33-.525H15.45v4.6ZM29.515 17.592l7.448-11.387h3.123v15.154h-2.673V9.97h-.042L29.9 21.358h-3.109V6.203h2.676v11.389h.047Z" fill="#fff"/><path d="m180 7.759-6.997 6.875s-1.839-1.885-4.681-4.748C173.94 6.492 180 7.759 180 7.759ZM172.091 15.799s-1.839-1.886-4.681-4.75c-1.818-1.827-4.03-4.052-6.45-6.442C154.774-1.52 146.397.232 146.397.232l8.587 8.584a9.876 9.876 0 0 1 0 13.971l-1.808 1.808s7.873 1.644 13.991-3.837l-.018-.019 2.934-2.935 2.008-2.005Z" fill="#01B055"/></svg><svg data-name="Слой 1" viewBox="0 0 12.31 17" id="marker" xmlns="http://www.w3.org/2000/svg"><defs><clipPath id="asa" transform="translate(-2.33 .02)"><path fill="none" d="M0 0h17v17H0z"/></clipPath></defs><g clip-path="url(#asa)"><path d="M7.85 0h1.26a6.31 6.31 0 0 1 5.07 3.76 6.26 6.26 0 0 1 .33 3.68A14.23 14.23 0 0 1 13 11.17a35.61 35.61 0 0 1-3.72 5.25 2.56 2.56 0 0 1-.58.56h-.4a2.56 2.56 0 0 1-.58-.56A37.17 37.17 0 0 1 4 11.17a14.55 14.55 0 0 1-1.54-3.75 6.17 6.17 0 0 1 2.1-6.06A6.47 6.47 0 0 1 7.85 0Zm.23 3.09a3.17 3.17 0 0 1 3.11 1.6 3.08 3.08 0 1 1-5.71.79 3.14 3.14 0 0 1 2.6-2.41Z" transform="translate(-2.33 .02)" fill-rule="evenodd" opacity=".99" style="isolation:isolate"/></g></svg><svg data-name="Слой 1" viewBox="0 0 18.08 26" id="medal" xmlns="http://www.w3.org/2000/svg"><path d="M12.47 0a3.61 3.61 0 0 1 1.42.14 4.87 4.87 0 0 0 1.55 1.27 4 4 0 0 1 2.4-.14c.31.69.59 1.39.85 2.12.81.35 1.61.72 2.4 1.13a6.64 6.64 0 0 1-.43 2.25 16.9 16.9 0 0 1 1.42 2.43 8.3 8.3 0 0 1-1.42 2.25 4 4 0 0 1 .14 2.41c-.69.3-1.39.59-2.11.84-.35.82-.73 1.62-1.13 2.4a6.89 6.89 0 0 1-2.26-.42 18.35 18.35 0 0 1-2.4 1.41 8.32 8.32 0 0 1-2.26-1.41 4.1 4.1 0 0 1-2.4.14c-.31-.69-.59-1.4-.85-2.12-.82-.35-1.62-.7-2.39-1.13a6.94 6.94 0 0 1 .42-2.26A17.12 17.12 0 0 1 4 8.91a8.73 8.73 0 0 1 1.41-2.26 4.09 4.09 0 0 1-.14-2.4c.69-.31 1.4-.59 2.12-.84.35-.82.73-1.62 1.13-2.4a6.68 6.68 0 0 1 2.26.42A3.1 3.1 0 0 0 12.47 0Zm-1.13 3.1q8.27-.57 7.49 7.63-2.67 6.06-8.9 3.53Q5.58 11 7.81 6a7.52 7.52 0 0 1 3.53-2.88Z" transform="translate(-4)" fill-rule="evenodd" opacity=".86" style="isolation:isolate"/><path d="M11.5 4q7.55-.72 6.64 6.78-1.86 4.41-6.64 3.22-4.86-2.29-3-7.49a5.67 5.67 0 0 1 3-2.51ZM10 17.53a14.25 14.25 0 0 1 3.1 1.41l.85-.14q1.26-2.11 3.25-.71a1.24 1.24 0 0 1 1-.28V26a14.51 14.51 0 0 1-5.09-2A14.39 14.39 0 0 1 8 26v-8.19a3.64 3.64 0 0 0 2-.28Z" transform="translate(-4)" fill-rule="evenodd" opacity=".94" style="isolation:isolate"/></svg><svg data-name="Слой 1" viewBox="0 0 26 26" id="money" xmlns="http://www.w3.org/2000/svg"><defs><clipPath id="aua" transform="translate(.13 .13)"><path fill="none" d="M0 0h26v26H0z"/></clipPath></defs><g clip-path="url(#aua)" fill-rule="evenodd"><path d="M16.77-.13h3.64a12.68 12.68 0 0 1 5.46 1.82V3a17.13 17.13 0 0 1-13.52.65C11 3 10.86 2.25 11.83 1.3a17.64 17.64 0 0 1 4.94-1.43Z" transform="translate(.13 .13)" opacity=".92" style="isolation:isolate"/><path d="M25.87 3.77v3.12a16.36 16.36 0 0 1-14 .39 3.55 3.55 0 0 1-.52-3.51 15.56 15.56 0 0 0 14.52 0Z" transform="translate(.13 .13)" opacity=".89" style="isolation:isolate"/><path d="M25.87 7.67v3.12a14.17 14.17 0 0 1-7.15 1.82 24.18 24.18 0 0 0-3.51-.26 1.85 1.85 0 0 0-.78-1.95 7.1 7.1 0 0 0-3.38-1.17 2.55 2.55 0 0 1 .26-1.56 15.44 15.44 0 0 0 7.28 1.82 15.49 15.49 0 0 0 7.28-1.82Z" transform="translate(.13 .13)" opacity=".87" style="isolation:isolate"/><path d="M-.13 12.61v-1.3a12.9 12.9 0 0 1 7.28-1.82 15.28 15.28 0 0 1 6.76 1.43 1.35 1.35 0 0 1 .26 1.82A9.88 9.88 0 0 1 10.53 14a28.81 28.81 0 0 1-8.84-.52Z" transform="translate(.13 .13)" opacity=".92" style="isolation:isolate"/><path d="M25.87 11.57v3.12A15.48 15.48 0 0 1 15.21 16a8.86 8.86 0 0 0 .26-2.86A17.54 17.54 0 0 0 22 13a9.57 9.57 0 0 0 3.87-1.43Z" transform="translate(.13 .13)" opacity=".91" style="isolation:isolate"/><path d="M-.13 13.39A13.14 13.14 0 0 0 7.15 15a13.16 13.16 0 0 0 7.28-1.56 3.93 3.93 0 0 1-.26 3.25 9.59 9.59 0 0 1-3.9 1.3 27.18 27.18 0 0 1-8.58-.52l-1.82-.91Z" transform="translate(.13 .13)" opacity=".88" style="isolation:isolate"/><path d="M25.87 15.47v3.12a15.63 15.63 0 0 1-9.75 1.56l-.91-.26a8.86 8.86 0 0 0 .26-2.89 17.76 17.76 0 0 0 6.53-.1 9.57 9.57 0 0 0 3.87-1.43Z" transform="translate(.13 .13)" opacity=".9" style="isolation:isolate"/><path d="M-.13 17.29a13.14 13.14 0 0 0 7.28 1.56 13.16 13.16 0 0 0 7.28-1.56 4.13 4.13 0 0 1-.26 3.25 9.59 9.59 0 0 1-3.9 1.3 38.24 38.24 0 0 1-6.24 0 13.08 13.08 0 0 1-4.16-1.43Z" transform="translate(.13 .13)" opacity=".89" style="isolation:isolate"/><path d="M-.13 21.19a13.14 13.14 0 0 0 7.28 1.56 13.16 13.16 0 0 0 7.28-1.56 4.47 4.47 0 0 1-.13 3.12 11.72 11.72 0 0 1-4 1.56H4a10.61 10.61 0 0 1-4.13-1.82Z" transform="translate(.13 .13)" opacity=".89" style="isolation:isolate"/></g></svg><svg data-name="Слой 1" viewBox="0 0 17 17" id="net" xmlns="http://www.w3.org/2000/svg"><defs><clipPath id="ava" transform="translate(.02 .02)"><path fill="none" d="M0 0h17v17H0z"/></clipPath></defs><g clip-path="url(#ava)"><path d="M7.75 0h1.46A8.63 8.63 0 0 1 16 4.4a8.8 8.8 0 0 1 1 3.35v1.46A8.59 8.59 0 0 1 12.57 16a8.85 8.85 0 0 1-3.36 1H7.75A8.58 8.58 0 0 1 1 12.57a9.1 9.1 0 0 1-1-3.36V7.75A8.61 8.61 0 0 1 4.4 1a9.05 9.05 0 0 1 3.35-1Zm.17 1.1C8 2.19 8 3.31 8 4.43a14.12 14.12 0 0 1-2.52-.2 6.52 6.52 0 0 1 1.61-2.67 3.65 3.65 0 0 1 .83-.48ZM9 1.08a2.94 2.94 0 0 1 1.33.92 7.58 7.58 0 0 1 1.21 2.26A18.24 18.24 0 0 1 9 4.43Zm-3.35.46h.07a8 8 0 0 0-.92 1.51c-.14.36-.29.71-.43 1.06a15.62 15.62 0 0 1-1.64-.39 7.44 7.44 0 0 1 2.9-2.18Zm5.64 0a6.56 6.56 0 0 1 3 2.21c-.55.15-1.11.28-1.67.38a9.48 9.48 0 0 0-1.1-2.29 2.48 2.48 0 0 0-.25-.26ZM2 4.63c.69.2 1.37.38 2.06.53A14.15 14.15 0 0 0 3.74 8H1a8.08 8.08 0 0 1 1-3.37Zm12.82.07a.1.1 0 0 1 .1 0A7.77 7.77 0 0 1 16 8h-2.77a14.3 14.3 0 0 0-.36-2.77c.67-.18 1.34-.34 1.99-.53Zm-9.73.56a20.57 20.57 0 0 0 2.91.2V8H4.77a14.38 14.38 0 0 1 .36-2.74Zm6.58 0a.17.17 0 0 1 .14 0A13.64 13.64 0 0 1 12.2 8H9V5.46a20.13 20.13 0 0 0 2.71-.16ZM1 9h2.74a14.3 14.3 0 0 0 .36 2.76 20.8 20.8 0 0 0-2.07.5A7.25 7.25 0 0 1 1 9Zm3.77 0H8v2.43c-1 0-1.91.07-2.86.15A12.43 12.43 0 0 1 4.77 9ZM9 9h3.2a14 14 0 0 1-.36 2.59h-.09c-.9-.11-1.82-.18-2.73-.2Zm4.21 0H16a7.82 7.82 0 0 1-1 3.23h-.05a13.1 13.1 0 0 0-2-.47A16.26 16.26 0 0 0 13.23 9Zm-5.62 3.47H8v3.35a3.14 3.14 0 0 1-1.44-1.13 8.43 8.43 0 0 1-1.05-2 .12.12 0 0 1 .07-.05c.62-.09 1.31-.14 2.01-.17Zm1.43 0a23.76 23.76 0 0 1 2.52.2 8.43 8.43 0 0 1-1 2A3.14 3.14 0 0 1 9.1 15.8C9 14.7 9 13.59 9 12.47Zm-3.29 2.95a7.05 7.05 0 0 1-3.09-2.27 9.36 9.36 0 0 1 1.73-.37 9.44 9.44 0 0 0 1.36 2.64Zm5.51 0a8.76 8.76 0 0 0 1.33-2.62 9.1 9.1 0 0 1 1.72.38 6.87 6.87 0 0 1-3.05 2.24Z" transform="translate(.02 .02)" fill-rule="evenodd" opacity=".97" style="isolation:isolate"/></g></svg><svg viewBox="0 0 20 16" xml:space="preserve" id="okey" xmlns="http://www.w3.org/2000/svg"><path d="M17.5.3c-.5.1-.2-.2-5.6 5.2l-5 5-1.8-2C3 6.5 3 6.5 2.5 6.4H2c-.4.1-.6.2-1.2.8-.4.4-.5.6-.7.8-.1.2-.1.3-.1.6s0 .4.1.6c.1.2.3.4 3.1 3.3 2.2 2.2 3.1 3 3.2 3.1.3.2.7.2.9 0 .1-.1 1.7-1.6 6.3-6.2 5.8-5.8 6.1-6.1 6.2-6.3.2-.2.2-.3.2-.6 0-.5-.1-.7-.7-1.3-.5-.5-.7-.7-1-.8-.2-.1-.6-.2-.8-.1z"/></svg><svg viewBox="0 0 19 19" xml:space="preserve" id="open-icon" xmlns="http://www.w3.org/2000/svg"><defs><path id="axa" d="M.7.7h18v18H.7z"/></defs><clipPath id="axb"><use xlink:href="#axa" overflow="visible"/></clipPath><g clip-path="url(#axb)"><path opacity=".985" fill-rule="evenodd" clip-rule="evenodd" d="M9.4.7h.6c.6.2 1 .6 1.1 1.2v6.3h6.3c.6.1 1.1.5 1.2 1.1v.6c-.2.6-.6 1-1.2 1.1h-6.3v6.3c-.1.6-.5 1.1-1.1 1.2h-.6c-.6-.2-1-.6-1.1-1.2V11H2c-.7 0-1.1-.4-1.3-1v-.6c.2-.6.6-1 1.2-1.1h6.3V2c.2-.7.6-1.1 1.2-1.3z"/></g></svg><svg data-name="Слой 1" viewBox="0 0 21.88 26" id="paper" xmlns="http://www.w3.org/2000/svg"><defs><clipPath id="aya" transform="translate(-1.92 .13)"><path fill="none" d="M0 0h26v26H0z"/></clipPath></defs><g clip-path="url(#aya)" fill-rule="evenodd"><path d="M5.07-.13h18.72q.06 11.45-.13 22.88-.93 3-4 1.95a3.79 3.79 0 0 1-.91-3.77l1.56-1a1.84 1.84 0 0 0-.39-1.95 146.36 146.36 0 0 0-14.82-.39Z" transform="translate(-1.92 .13)" opacity=".99" style="isolation:isolate"/><path d="M20.15 25.87H3.51A3.9 3.9 0 0 1 2 22.23a3.57 3.57 0 0 1 1.56-3.51q8.06-.2 16.12-.13a1.27 1.27 0 0 1-.26 1 2.26 2.26 0 0 0-1.56 2.6 3.66 3.66 0 0 0 2.29 3.68Z" transform="translate(-1.92 .13)" opacity=".98" style="isolation:isolate"/></g></svg><svg fill="none" viewBox="0 0 33 33" id="pdf" xmlns="http://www.w3.org/2000/svg"><g clip-path="url(#aza)" fill-rule="evenodd" clip-rule="evenodd"><path opacity=".998" d="M4.35-.032h17.66c0 .043.022.064.065.064v7.026h7.026c.064 5.282.085 10.567.064 15.855H3.771c-.011-7.39 0-14.781.032-22.172.074-.344.256-.601.548-.773Z" fill="#E8E8DF"/><path d="M22.075.032a541.246 541.246 0 0 1 7.026 7.026h-7.026V.032Z" fill="#D9D7CA"/><path d="M16.21 4.028c.2-.01.394.023.58.097.686.613.911 1.376.677 2.288a65.57 65.57 0 0 1-.387 2.32 18.734 18.734 0 0 0 2.933 4.35 13.007 13.007 0 0 1 1.869-.16 2.703 2.703 0 0 1 1.547.29c.391.346.488.765.29 1.256-.538 1.004-1.344 1.294-2.417.87a14.077 14.077 0 0 1-1.708-1.127c-1.76.375-3.457.934-5.092 1.675a17.72 17.72 0 0 1-1.611 2.772 3.447 3.447 0 0 1-1.064.87c-.93.08-1.467-.35-1.611-1.29.046-.425.208-.801.483-1.127.25-.27.518-.518.806-.741a24.148 24.148 0 0 1 2.288-1.321 47.018 47.018 0 0 0 2.224-6.252c-.374-.831-.664-1.69-.87-2.579-.17-.76.013-1.415.547-1.965.172-.096.344-.17.516-.226Z" fill="#CC4D4D"/><path d="M16.274 5.124a.927.927 0 0 1 .322.806 3.359 3.359 0 0 1-.225 1.063c-.525-.594-.558-1.217-.097-1.869Z" fill="#E8E2D9"/><path d="M16.597 10.151a.184.184 0 0 1 .16.065 19.07 19.07 0 0 0 2.16 3.126c-1.277.3-2.523.697-3.738 1.192a39.132 39.132 0 0 1-.065-.064c.61-1.4 1.104-2.84 1.483-4.319Z" fill="#E8E6DD"/><path d="M21.302 13.89c.409-.01.817 0 1.224.032.314.09.336.24.065.451-.262.151-.54.194-.838.13l-.645-.517a.357.357 0 0 0 .194-.096Z" fill="#E7DED6"/><path d="M12.858 16.661a.156.156 0 0 1 .13.032 9.718 9.718 0 0 1-1.225 1.74c-.285.224-.457.149-.516-.225a.67.67 0 0 1 .097-.322 8.16 8.16 0 0 1 1.514-1.225Z" fill="#E8E2DA"/><path opacity=".812" d="M3.77 22.913h25.395v9.346h-.064v-9.282H3.835v9.282h-.064v-9.346Z" fill="#D78986"/><path d="M29.1 32.259a.75.75 0 0 1-.257.515.655.655 0 0 1-.194.194H4.286a.656.656 0 0 1-.193-.194.75.75 0 0 1-.258-.515v-9.282h25.266v9.282Z" fill="#CC4B4C"/><path d="M9.249 25.233c.623-.01 1.246 0 1.87.033 1.389.186 2.001.97 1.836 2.352-.217.776-.722 1.238-1.515 1.386-.407.032-.815.043-1.224.032v2.192h-.967v-5.995Z" fill="#FEFCFB"/><path d="M16.017 25.298h-1.805v5.865h2.514c-.848.064-1.708.086-2.578.065v-5.995c.634-.02 1.257 0 1.869.065Z" fill="#F1CCCC"/><path d="M16.017 25.298c1.5-.014 2.455.695 2.868 2.127.156.957.005 1.86-.451 2.707a2.33 2.33 0 0 1-1.708 1.031h-2.514v-5.865h1.805Z" fill="#FEFDFD"/><path d="M24.073 25.298H20.4v5.865h.903c-.021-.892 0-1.773.064-2.642v2.707h-1.031v-5.995c1.257-.02 2.503 0 3.738.065Z" fill="#ECBDBD"/><path d="M24.073 25.298v.709h-2.707a13.58 13.58 0 0 0-.064 1.869h2.513v.644h-2.449a27.12 27.12 0 0 0-.064 2.643h-.903v-5.865h3.674Z" fill="#FEFEFE"/><path d="M10.216 26.007c.366-.01.73 0 1.096.032.765.34.99.91.676 1.708a.869.869 0 0 1-.548.548c-.407.032-.815.043-1.224.032v-2.32Z" fill="#CC4C4D"/><path d="M15.114 26.007c2.311-.148 3.203.905 2.675 3.158-.144.667-.542 1.086-1.192 1.257-.491.077-.986.11-1.483.096v-4.511Z" fill="#CC4D4E"/><path d="M21.366 26.007v1.804c.828-.02 1.645 0 2.45.065h-2.514c-.021-.635 0-1.258.064-1.87Z" fill="#DC8281"/><path opacity=".171" d="M29.1 32.259h.065c.02.26-.087.432-.322.515a.75.75 0 0 0 .258-.515Z" fill="#E7DDD5"/><path opacity=".275" d="M3.77 32.259h.065a.75.75 0 0 0 .257.515c-.235-.083-.343-.255-.322-.515Z" fill="#E7DCD4"/></g><defs><clipPath id="aza"><path fill="#fff" d="M0 0h33v33H0z"/></clipPath></defs></svg><svg data-name="Слой 1" viewBox="0 0 16.99 16.99" id="phone" xmlns="http://www.w3.org/2000/svg"><defs><clipPath id="baa" transform="translate(-.01)"><path fill="none" d="M0 0h17v17H0z"/></clipPath></defs><g clip-path="url(#baa)"><path d="M1.04.05A1.35 1.35 0 0 0-.01 1.16a12.4 12.4 0 0 0 .1 2.22 15.59 15.59 0 0 0 3.56 8.06 20.63 20.63 0 0 0 1.87 1.87 15.59 15.59 0 0 0 8.06 3.56 12.43 12.43 0 0 0 2.22.1 1.34 1.34 0 0 0 1.19-1.06 18.22 18.22 0 0 0 0-1.84c0-1.78 0-1.87-.17-2.19a1.47 1.47 0 0 0-.48-.51 1.74 1.74 0 0 0-1-.21 10.37 10.37 0 0 1-2.52-.41 1.89 1.89 0 0 0-.77-.12.91.91 0 0 0-.52.13 14.05 14.05 0 0 0-1.22.87c-.55.42-1 .76-1 .76s-.68-.38-1.07-.63a10.16 10.16 0 0 1-3.4-3.67c-.21-.35-.24-.44-.21-.49l.78-1c.4-.54.77-1 .81-1.11a1.86 1.86 0 0 0 .13-.34 1.75 1.75 0 0 0-.12-1 10 10 0 0 1-.38-2.42 2 2 0 0 0-.2-1A1.46 1.46 0 0 0 4.74 0c-.26 0-3.49 0-3.7.05Z"/></g></svg><svg data-name="Слой 1" viewBox="0 0 24.99 25.38" id="report" xmlns="http://www.w3.org/2000/svg"><defs><clipPath id="bba" transform="translate(0 -.58)"><path fill="none" d="M0 0h28v26H0z"/></clipPath></defs><g clip-path="url(#bba)"><path d="M11.12 3.07c.06-.06 0-.09 0-.25v-2h2v2.25a4.37 4.37 0 0 1 1.15.45 4.56 4.56 0 0 1 .92.71c.06.07.13.13.19.21a4.13 4.13 0 0 1 .76 1.27c.06.15.14.52.19.62h2.47a6.34 6.34 0 0 1 1.27.09 3.64 3.64 0 0 1 .93.29 4.1 4.1 0 0 1 1.45 1 4.55 4.55 0 0 1 .48.65 4.25 4.25 0 0 1-.67 5.25 4.64 4.64 0 0 1-1.06.73 4 4 0 0 1-1.39.42.17.17 0 0 0 0-.16l-.09-.11a1.47 1.47 0 0 0-.75-.51 3.87 3.87 0 0 0-1.43.16v-1.03a17.9 17.9 0 0 0 2.35-.07 2.52 2.52 0 0 0 1.23-4.27v-.06h-.05a.55.55 0 0 0-.08-.06 2.59 2.59 0 0 0-1.63-.51h-2.43v6.24l-1.81.37V10.6s-.49.34-.78.49a5.21 5.21 0 0 1-.94.34v3.6l-2.26.39v-4a4.73 4.73 0 0 1-.87-.32c-.28-.14-.68-.43-.74-.45v5.13l-1.78.36c-.06 0 0-.08 0-.23V8.08H7v8.22l-1.81.37V8.06a2.39 2.39 0 0 0-1 .18 2.52 2.52 0 0 0-1.55 1.92 2.55 2.55 0 0 0 1.52 2.76h.11c.08 0 .05 0 .08.07v1.72a4.23 4.23 0 0 1-2.83-1.9 4.25 4.25 0 0 1 .57-5.24 4.15 4.15 0 0 1 1.43-.95 5.07 5.07 0 0 1 2.06-.32H8a4.33 4.33 0 0 1 2-2.79 5.05 5.05 0 0 1 1.12-.44ZM9.79 6.33h.84v1.74h-.87a2.56 2.56 0 0 0 1.38 1.5V4.91a2.55 2.55 0 0 0-1.35 1.42Zm3.42 3.26a2.41 2.41 0 0 0 1.09-.86 2.49 2.49 0 0 0 .48-1.48 2.52 2.52 0 0 0-.95-2 2.4 2.4 0 0 0-.61-.36Zm3.69 13.25c-.07 0 0 0-.08-.06s.05.01.08.06Zm-.08-.06c-.05 0 0 0 0 0Zm-9.45 1.18a4.28 4.28 0 0 0 .59-.1l8.39-1.69a1.71 1.71 0 0 1 .3-.05v2.8a2.69 2.69 0 0 1 .28.22.72.72 0 0 0 .35.17 1 1 0 0 0 .56 0 3.63 3.63 0 0 0 .57-.13c.12 0 2.27-.47 2.5-.52l1.65-.35.83-.17a1.25 1.25 0 0 1 .43 0l1.14.37v-7.4a2.32 2.32 0 0 0-1.9-.22l-1.29.27-.66.14-.65.13-.66.14v-.1h.28v-2.05a4.88 4.88 0 0 0 .55-.12 5.09 5.09 0 0 0 2.15-1.21 4 4 0 0 0 .63-.72 4.71 4.71 0 0 0 .83-1.85 4.94 4.94 0 0 0-1-4.16 4.64 4.64 0 0 0-.57-.59 5 5 0 0 0-2.36-1.16 8.8 8.8 0 0 0-1.92-.19H17c-.06-.12-.12-.31-.22-.53a5.45 5.45 0 0 0-.59-.91A5.2 5.2 0 0 0 15 2.93a4.58 4.58 0 0 0-1-.51V0h-3.68v2.42a4.89 4.89 0 0 0-1.21.66 5.89 5.89 0 0 0-.7.61 5.26 5.26 0 0 0-.58.73 4.83 4.83 0 0 0-.5 1H4.65a5.66 5.66 0 0 0-1.12.22 5.34 5.34 0 0 0-.94.41c-.15.09-.27.16-.41.26a6.16 6.16 0 0 0-.56.44 5 5 0 0 0-.5.53 5 5 0 0 0-.93 1.8A5.37 5.37 0 0 0 0 10.27v.41a4.88 4.88 0 0 0 .24 1.31 4.94 4.94 0 0 0 .83 1.53l.15.18a5.23 5.23 0 0 0 .68.65c.14.11.26.18.41.28a5 5 0 0 0 2 .74v1.47a6.38 6.38 0 0 1-1.31.19 8.47 8.47 0 0 1-1.26-.31v7.76c.09 0 .26.12.42.17a1.48 1.48 0 0 0 .45.12 1.51 1.51 0 0 0 .67 0c.74-.11 2.14-.43 3-.59Zm9.57-1.1Zm7.76 1h.08a.44.44 0 0 1-.08.25ZM2 17.34c-.11 0-.09 0-.07-.11a.27.27 0 0 1 .07-.14Zm.12-.25h.11Z" fill-rule="evenodd"/></g></svg><svg data-name="Слой 1" viewBox="0 0 23.94 23.94" id="reports" xmlns="http://www.w3.org/2000/svg"><path d="M10.27.91Q15 .85 19.63 1l5.07 5.11q.19 7.28.13 14.56h-8.32v-4.16h5.2v-1h-5.2v-2.12h3.12v-1h-3.12v-2.12h5.2v-1a36.53 36.53 0 0 0-6.11.26l-5.2-5.2a22.43 22.43 0 0 1-.13-3.42Zm8.84 1.56q2.13 1.93 4.16 4a34 34 0 0 1-4.16.13Z" transform="translate(-.91 -.89)" fill-rule="evenodd" opacity=".98" style="isolation:isolate"/><path d="M.91 5.07q4.68-.07 9.36.13l5.07 5.07q.2 7.27.13 14.56H.91Zm8.84 1.56q2.13 1.93 4.16 4a34 34 0 0 1-4.16.13ZM4 13.39h8.32v1H4Zm0 3.12h6.24v1H4Zm0 3.12h8.32v1H4Z" transform="translate(-.91 -.89)" fill-rule="evenodd" opacity=".99" style="isolation:isolate"/></svg><svg viewBox="0 0 18 15" xml:space="preserve" id="telegram" xmlns="http://www.w3.org/2000/svg"><path d="M16.5.1c-.1 0-1.8.7-3.8 1.5-2 .8-5.4 2.1-7.6 3C2.9 5.4 1 6.1.9 6.2c-.2.1-.4.3-.4.4-.1.2.1.5.4.7.2.1 3.9 1.4 4 1.4 0 0 2.2-1.4 4.9-3.1 2.6-1.7 4.9-3.1 4.9-3.1h.3c.1.2.3 0-5.8 5.4-1.9 1.7-2 1.8-2 1.9 0 0 1.4 1.1 3.1 2.4 2.3 1.7 3.1 2.3 3.2 2.4.2.1.5.1.7 0 .2-.1.4-.3.5-.4 0-.1 2.7-13.6 2.7-13.7 0-.1-.1-.3-.2-.4-.1-.1-.4-.1-.7 0z"/></svg><svg data-name="Слой 1" viewBox="0 0 26 18.29" id="wedding-rings" xmlns="http://www.w3.org/2000/svg"><defs><clipPath id="bea" transform="translate(.13 -4)"><path fill="none" d="M0 0h26v26H0z"/></clipPath></defs><g clip-path="url(#bea)" fill-rule="evenodd"><path d="M-.13 15.47v-4.68Q3.13 2.3 12.09 4.42a9 9 0 0 1 6 8.58 11.37 11.37 0 0 1-.78 4.55 3.87 3.87 0 0 1-3.77-1.3q2.42-5.49-3-8.19a5.48 5.48 0 0 0-6.64 3.51q-.87 5.52 4.55 7a11.15 11.15 0 0 0 3.38 3.25Q3.06 23.78-.13 15.47Z" transform="translate(.13 -4)" opacity=".91" style="isolation:isolate"/><path d="M25.87 10.79v4.68Q22 24.85 12.35 21.32 5.53 16.74 8.45 9a3.15 3.15 0 0 1 3.9 1.3q-2.49 5.36 2.86 7.93 7.93.39 6.37-7.41a6.53 6.53 0 0 0-4.29-3.12 11.15 11.15 0 0 0-3.38-3.25q8.78-1.96 11.96 6.34Z" transform="translate(.13 -4)" opacity=".91" style="isolation:isolate"/></g></svg><svg viewBox="0 0 18 18" xml:space="preserve" id="whatsapp" xmlns="http://www.w3.org/2000/svg"><path d="M8.4.9c-1.2.1-2.2.4-3.2.9-1.5.8-2.7 2-3.5 3.6-.3.6-.4.9-.6 1.5-.2.7-.2 1.2-.3 2v1c.2 1.3.6 2.4 1.3 3.5l.2.4-.5 1.5c-.3.8-.5 1.5-.5 1.5s.7-.2 1.5-.5 1.5-.5 1.6-.5c0 0 .1.1.3.2.1.1.5.3.7.4 2.1 1 4.4 1.1 6.5.2 2.4-.9 4.2-3 4.9-5.5.2-.8.2-1.2.2-2.1s0-1.3-.2-2.1C16 4 13.7 1.7 10.7 1c-.5-.1-1-.2-1.6-.2-.3.1-.6.1-.7.1zm-2 3.7c.1 0 .1.1.2.2.1.2.9 2.1.9 2.2 0 .1-.1.4-.4.7-.4.4-.4.5-.4.6.1.3.8 1.3 1.2 1.7.7.7 1.8 1.3 2.2 1.3.2 0 .3-.1.7-.5.2-.2.3-.5.4-.5.1-.1.3-.1.5-.1.3.1 1.9.9 2 1l.1.1v.3c0 .9-.4 1.3-1.2 1.7-.8.4-1.4.4-2.5 0-1.6-.5-2.4-1.1-3.5-2.2-.6-.6-1-1-1.4-1.7-.8-1.1-1-1.9-1-2.8.1-.7.3-1.2.8-1.7.2-.2.5-.3 1-.3h.4z"/></svg></svg>