<?xml version="1.0" encoding="utf-8"?><svg viewBox="0 0 20 19" xmlns="http://www.w3.org/2000/svg" xmlns:xlink="http://www.w3.org/1999/xlink"><style>:root>svg{display:none}:root>svg:target{display:block}</style><svg viewBox="0 0 18 18" style="enable-background:new 0 0 18 18" xml:space="preserve" id="close" xmlns="http://www.w3.org/2000/svg"><path d="M1 3.8c0 .1-.1.2-.1.3 0 .4-.1.2 2.4 2.7l2.3 2.3-2.3 2.3C1.2 13.6 1 13.7 1 13.9c-.1.2-.1.4 0 .6.1.2 2.6 2.7 2.8 2.8.2.1.4.1.6 0 .2-.1.3-.2 2.5-2.3l2.3-2.3 2.3 2.3c2.2 2.2 2.3 2.3 2.5 2.3.1 0 .2.1.3.1.3 0 .3 0 1.7-1.4 1.2-1.2 1.3-1.3 1.4-1.5 0-.1.1-.2.1-.3 0-.4.1-.2-2.4-2.7l-2.3-2.3L15 6.8c2.2-2.2 2.3-2.3 2.3-2.5 0-.1.1-.2.1-.3 0-.3 0-.3-1.4-1.7C14.7 1.1 14.6 1 14.5 1c-.1 0-.2-.1-.3-.1-.4 0-.2-.1-2.7 2.4L9.1 5.6 6.9 3.3C4.4.8 4.5.9 4.1.9c-.1 0-.2 0-.3.1-.2 0-.3.1-1.5 1.3S1 3.6 1 3.8z"/></svg><svg data-name="Слой 1" viewBox="0 0 13.6 13.6" id="close-icon" xmlns="http://www.w3.org/2000/svg"><defs><clipPath id="aa" transform="translate(-5.9 -6.2)"><path transform="rotate(-45 12.733 12.996)" fill="none" d="M3.73 4h18v18h-18z"/></clipPath></defs><g clip-path="url(#aa)"><path d="m6.12 6.86.44-.45a1.48 1.48 0 0 1 1.66.09c1.5 1.48 3 3 4.48 4.46l4.49-4.46a1.47 1.47 0 0 1 1.65-.09l.45.45a1.48 1.48 0 0 1-.08 1.65c-1.48 1.51-3 3-4.47 4.49 1.5 1.49 3 3 4.47 4.49a1.48 1.48 0 0 1 .08 1.65l-.45.45a1.47 1.47 0 0 1-1.65-.09L12.7 15c-1.48 1.49-3 3-4.48 4.46a1.48 1.48 0 0 1-1.66.09l-.44-.45a1.48 1.48 0 0 1 .08-1.65c1.48-1.51 3-3 4.47-4.49-1.5-1.49-3-3-4.47-4.49a1.48 1.48 0 0 1-.08-1.61Z" transform="translate(-5.9 -6.2)" fill="#fff" fill-rule="evenodd" opacity=".99" style="isolation:isolate"/></g></svg><svg viewBox="0 0 20 16" xml:space="preserve" id="okey" xmlns="http://www.w3.org/2000/svg"><path d="M17.5.3c-.5.1-.2-.2-5.6 5.2l-5 5-1.8-2C3 6.5 3 6.5 2.5 6.4H2c-.4.1-.6.2-1.2.8-.4.4-.5.6-.7.8-.1.2-.1.3-.1.6s0 .4.1.6c.1.2.3.4 3.1 3.3 2.2 2.2 3.1 3 3.2 3.1.3.2.7.2.9 0 .1-.1 1.7-1.6 6.3-6.2 5.8-5.8 6.1-6.1 6.2-6.3.2-.2.2-.3.2-.6 0-.5-.1-.7-.7-1.3-.5-.5-.7-.7-1-.8-.2-.1-.6-.2-.8-.1z"/></svg><svg viewBox="0 0 19 19" xml:space="preserve" id="open-icon" xmlns="http://www.w3.org/2000/svg"><defs><path id="da" d="M.7.7h18v18H.7z"/></defs><clipPath id="db"><use xlink:href="#da" overflow="visible"/></clipPath><g clip-path="url(#db)"><path opacity=".985" fill-rule="evenodd" clip-rule="evenodd" d="M9.4.7h.6c.6.2 1 .6 1.1 1.2v6.3h6.3c.6.1 1.1.5 1.2 1.1v.6c-.2.6-.6 1-1.2 1.1h-6.3v6.3c-.1.6-.5 1.1-1.1 1.2h-.6c-.6-.2-1-.6-1.1-1.2V11H2c-.7 0-1.1-.4-1.3-1v-.6c.2-.6.6-1 1.2-1.1h6.3V2c.2-.7.6-1.1 1.2-1.3z"/></g></svg><svg viewBox="0 0 18 15" xml:space="preserve" id="telegram" xmlns="http://www.w3.org/2000/svg"><path d="M16.5.1c-.1 0-1.8.7-3.8 1.5-2 .8-5.4 2.1-7.6 3C2.9 5.4 1 6.1.9 6.2c-.2.1-.4.3-.4.4-.1.2.1.5.4.7.2.1 3.9 1.4 4 1.4 0 0 2.2-1.4 4.9-3.1 2.6-1.7 4.9-3.1 4.9-3.1h.3c.1.2.3 0-5.8 5.4-1.9 1.7-2 1.8-2 1.9 0 0 1.4 1.1 3.1 2.4 2.3 1.7 3.1 2.3 3.2 2.4.2.1.5.1.7 0 .2-.1.4-.3.5-.4 0-.1 2.7-13.6 2.7-13.7 0-.1-.1-.3-.2-.4-.1-.1-.4-.1-.7 0z"/></svg><svg viewBox="0 0 18 18" xml:space="preserve" id="whatsapp" xmlns="http://www.w3.org/2000/svg"><path d="M8.4.9c-1.2.1-2.2.4-3.2.9-1.5.8-2.7 2-3.5 3.6-.3.6-.4.9-.6 1.5-.2.7-.2 1.2-.3 2v1c.2 1.3.6 2.4 1.3 3.5l.2.4-.5 1.5c-.3.8-.5 1.5-.5 1.5s.7-.2 1.5-.5 1.5-.5 1.6-.5c0 0 .1.1.3.2.1.1.5.3.7.4 2.1 1 4.4 1.1 6.5.2 2.4-.9 4.2-3 4.9-5.5.2-.8.2-1.2.2-2.1s0-1.3-.2-2.1C16 4 13.7 1.7 10.7 1c-.5-.1-1-.2-1.6-.2-.3.1-.6.1-.7.1zm-2 3.7c.1 0 .1.1.2.2.1.2.9 2.1.9 2.2 0 .1-.1.4-.4.7-.4.4-.4.5-.4.6.1.3.8 1.3 1.2 1.7.7.7 1.8 1.3 2.2 1.3.2 0 .3-.1.7-.5.2-.2.3-.5.4-.5.1-.1.3-.1.5-.1.3.1 1.9.9 2 1l.1.1v.3c0 .9-.4 1.3-1.2 1.7-.8.4-1.4.4-2.5 0-1.6-.5-2.4-1.1-3.5-2.2-.6-.6-1-1-1.4-1.7-.8-1.1-1-1.9-1-2.8.1-.7.3-1.2.8-1.7.2-.2.5-.3 1-.3h.4z"/></svg></svg>