<?xml version="1.0" encoding="utf-8"?><svg viewBox="0 0 800 800" xmlns="http://www.w3.org/2000/svg" xmlns:xlink="http://www.w3.org/1999/xlink"><style>:root>svg{display:none}:root>svg:target{display:block}</style><svg viewBox="0 0 800 800" xml:space="preserve" id="telegram" xmlns="http://www.w3.org/2000/svg"><path d="M690.3 121.8s64.8-25.2 59.4 36.1c-1.8 25.3-18 113.6-30.6 209.2l-43.2 283.2s-3.6 41.5-36 48.7c-32.4 7.2-80.9-25.2-89.9-32.5-7.2-5.4-134.9-86.6-179.9-126.2-12.6-10.8-27-32.5 1.8-57.7l188.9-180.4c21.6-21.6 43.2-72.1-46.8-10.8L262.2 462.7s-28.8 18-82.7 1.8L62.6 428.4s-43.2-27.1 30.6-54.1C273 289.5 494.3 203 690.3 121.8z"/></svg><svg viewBox="0 0 800 800" xml:space="preserve" id="whatsapp" xmlns="http://www.w3.org/2000/svg"><path fill-rule="evenodd" clip-rule="evenodd" d="M632.8 564.8c-9.6 27.3-48 49.9-78.5 56.5-20.9 4.4-48.2 8-140.1-30.1C311 548.4 167.6 396 167.6 294.6c0-51.6 29.8-111.7 81.8-111.7 25 0 30.6.5 38.8 20.3 9.6 23.3 33.2 80.7 36 86.5 11.6 24.1-11.8 38.2-28.7 59.3-5.4 6.3-11.5 13.2-4.7 24.9 6.8 11.5 30.3 49.9 64.9 80.6 44.6 39.8 80.8 52.5 93.8 57.9 9.6 4 21.2 3.1 28.2-4.5 8.9-9.6 20-25.6 31.3-41.4 8-11.3 18.1-12.7 28.7-8.7 7.2 2.5 98.2 44.7 102 51.5 2.8 5 2.8 28.3-6.9 55.5M400.1 0h-.2C179.4 0 0 179.4 0 400c0 87.5 28.2 168.6 76.2 234.4L26.4 783l153.7-49.1c63.2 41.9 138.7 66.1 220 66.1C620.6 800 800 620.6 800 400S620.6 0 400.1 0"/></svg></svg>