<?xml version="1.0" encoding="utf-8"?><svg viewBox="0 0 180 49" xmlns="http://www.w3.org/2000/svg" xmlns:xlink="http://www.w3.org/1999/xlink"><style>:root>svg{display:none}:root>svg:target{display:block}</style><svg viewBox="0 0 49 49" xml:space="preserve" id="balance" xmlns="http://www.w3.org/2000/svg"><defs><path id="aa" d="M0 0h49v49H0z"/></defs><clipPath id="ab"><use xlink:href="#aa" overflow="visible"/></clipPath><g clip-path="url(#ab)"><path opacity=".938" fill-rule="evenodd" clip-rule="evenodd" d="M23.6 0h1.7c2.3.8 3.2 2.4 2.9 4.8-.2.9-.7 1.6-1.5 2.2-.1.9-.1 1.7-.1 2.6h16.1c1.2.4 1.7 1.1 1.6 2.3-.2.8-.7 1.3-1.5 1.6-.7 0-1.3.1-2 .1 2.3 5 4.5 10 6.8 14.9.9.2 1.3.7 1.1 1.6-.5.9-1 1.9-1.4 2.8-.4.5-.9.9-1.5 1.1-4.1.2-8.3.2-12.4.1-.8-.2-1.5-.6-2-1.3-.4-.9-.9-1.7-1.3-2.6-.2-.5-.2-1 .2-1.4.3-.1.6-.2.8-.3 2.3-5 4.5-10 6.8-15-3.8 0-7.5-.1-11.3 0v2.8c-.2.6-.6.7-1.2.5-.1-.1-.2-.2-.2-.3-.1-1.3-.1-2.7 0-4 .1-.2.3-.4.5-.4 5.6 0 11.2-.1 16.8-.1.4-.3.4-.6-.1-.9-5.6 0-11.3-.1-16.9-.1l-.3-.3c0-1-.1-2-.1-3.1-.4.1-.8.1-1.1 0-.1 1-.1 2-.1 3.1l-.3.3c-5.6 0-11.3.1-16.9.1-.7.2-.7.5-.3.9 5.6 0 11.2.1 16.8.1.2 0 .3.1.4.2.1 9.3.2 18.7.1 28H25V19.1c.6-.5 1-.5 1.4.2 0 7 .1 14 0 21H32c.8.2 1.3.7 1.7 1.4.1.7.2 1.4.1 2.1 1.2-.2 2.3.1 3.1 1.1.1.2.2.4.3.7.1 1 .1 2 0 3-.1.2-.2.3-.3.4H11.4c-.2-.1-.3-.2-.3-.4-.1-1-.1-2 0-3 .3-.7.8-1.3 1.5-1.6.6-.1 1.3-.2 1.9-.1-.3-1.4.1-2.5 1.2-3.3.2-.1.4-.1.6-.2 1.9 0 3.8-.1 5.6 0V13.6H10.6c2.3 5 4.6 10 6.8 15 .3.1.5.2.8.3.4.4.5.9.2 1.4-.5.8-.9 1.7-1.3 2.6-.5.7-1.1 1.1-2 1.3-4.2.1-8.3.1-12.4-.1-.2-.2-.7-.6-1.1-1.1-.5-.9-1-1.9-1.4-2.8-.2-.9.2-1.5 1.1-1.6 2.3-5 4.5-10 6.8-14.9-.7-.1-1.3-.1-2-.1-1.4-.5-1.8-1.5-1.3-2.9.3-.5.8-.9 1.4-1 5.4 0 10.7-.1 16.1 0 0-.9 0-1.7-.1-2.6-1.5-1.3-1.9-2.8-1.3-4.7.5-1.3 1.5-2.1 2.7-2.4zm.3 1.5c1.7-.1 2.7.7 3 2.3-.2 1.4-1 2.2-2.4 2.3-1.4-.2-2.2-1-2.4-2.3.1-1.1.7-1.9 1.8-2.3zM9.5 14.2l6.6 14.4c-4.4 0-8.7.1-13.1 0 2.2-4.8 4.3-9.6 6.5-14.4zm29.8 0c.2.1.3.3.3.5 2.1 4.6 4.2 9.3 6.3 14H32.8c2.2-4.9 4.4-9.7 6.5-14.5zM2 30.3c5-.1 10.1-.1 15.1 0-.3.7-.6 1.3-1 1.9-.2.2-.5.3-.8.4-3.8.1-7.7.1-11.5 0-.4-.1-.7-.3-.9-.6-.3-.6-.6-1.2-.9-1.7zm29.8-.1h15.1L46 32c-.2.3-.5.5-.9.6-3.8.1-7.7.1-11.5 0-.3-.1-.6-.2-.8-.4-.4-.6-.7-1.3-1-2zM16.9 41.9H32c.2.1.4.3.5.5 0 .5.1 1 0 1.4H21.3c-.7.5-.7.9-.1 1.4 4.7 0 9.4.1 14.1.1.3.1.5.2.6.5 0 .5.1 1 0 1.4H12.7v-1.4c.1-.2.2-.3.3-.4 1.8-.1 3.6-.2 5.4-.2.6-.4.6-.9.1-1.3-.8-.1-1.6-.2-2.4-.1v-1.4c.4-.2.6-.4.8-.5z"/></g></svg><svg viewBox="0 0 18 18" style="enable-background:new 0 0 18 18" xml:space="preserve" id="close" xmlns="http://www.w3.org/2000/svg"><path d="M1 3.8c0 .1-.1.2-.1.3 0 .4-.1.2 2.4 2.7l2.3 2.3-2.3 2.3C1.2 13.6 1 13.7 1 13.9c-.1.2-.1.4 0 .6.1.2 2.6 2.7 2.8 2.8.2.1.4.1.6 0 .2-.1.3-.2 2.5-2.3l2.3-2.3 2.3 2.3c2.2 2.2 2.3 2.3 2.5 2.3.1 0 .2.1.3.1.3 0 .3 0 1.7-1.4 1.2-1.2 1.3-1.3 1.4-1.5 0-.1.1-.2.1-.3 0-.4.1-.2-2.4-2.7l-2.3-2.3L15 6.8c2.2-2.2 2.3-2.3 2.3-2.5 0-.1.1-.2.1-.3 0-.3 0-.3-1.4-1.7C14.7 1.1 14.6 1 14.5 1c-.1 0-.2-.1-.3-.1-.4 0-.2-.1-2.7 2.4L9.1 5.6 6.9 3.3C4.4.8 4.5.9 4.1.9c-.1 0-.2 0-.3.1-.2 0-.3.1-1.5 1.3S1 3.6 1 3.8z"/></svg><svg data-name="Слой 1" viewBox="0 0 13.6 13.6" id="close-icon" xmlns="http://www.w3.org/2000/svg"><defs><clipPath id="ba" transform="translate(-5.9 -6.2)"><path transform="rotate(-45 12.733 12.996)" fill="none" d="M3.73 4h18v18h-18z"/></clipPath></defs><g clip-path="url(#ba)"><path d="m6.12 6.86.44-.45a1.48 1.48 0 0 1 1.66.09c1.5 1.48 3 3 4.48 4.46l4.49-4.46a1.47 1.47 0 0 1 1.65-.09l.45.45a1.48 1.48 0 0 1-.08 1.65c-1.48 1.51-3 3-4.47 4.49 1.5 1.49 3 3 4.47 4.49a1.48 1.48 0 0 1 .08 1.65l-.45.45a1.47 1.47 0 0 1-1.65-.09L12.7 15c-1.48 1.49-3 3-4.48 4.46a1.48 1.48 0 0 1-1.66.09l-.44-.45a1.48 1.48 0 0 1 .08-1.65c1.48-1.51 3-3 4.47-4.49-1.5-1.49-3-3-4.47-4.49a1.48 1.48 0 0 1-.08-1.61Z" transform="translate(-5.9 -6.2)" fill="#fff" fill-rule="evenodd" opacity=".99" style="isolation:isolate"/></g></svg><svg viewBox="0 0 49 49" xml:space="preserve" id="employee" xmlns="http://www.w3.org/2000/svg"><defs><path id="da" d="M0 0h49v49H0z"/></defs><clipPath id="db"><use xlink:href="#da" overflow="visible"/></clipPath><g clip-path="url(#db)"><path opacity=".939" fill-rule="evenodd" clip-rule="evenodd" d="M23.1 0h2.5c4.2.8 6.7 3.4 7.6 7.6.1 1.4.2 2.7.2 4.1.6.8.8 1.6.6 2.6-.4 1.4-1.3 2.2-2.8 2.4-.2 1.8-1 3.2-2.4 4.3-.1.7-.1 1.4-.1 2.1 3.2 1.1 6.3 2.4 9.4 3.7 1.5 1 2.4 2.3 2.8 4.1.2 2.2.2 4.3.1 6.5-.2.5-.6.6-1.1.4-.1-.1-.3-.3-.3-.4 0-1.9-.1-3.9-.1-5.8-.3-1.7-1.3-3-2.9-3.8-1.6-.6-3.3-1.3-4.9-1.9-.1 0-.1.1-.2.1-.8 1.5-1.5 3.1-2.3 4.6-.7.6-1.3.6-2 0-.2.3-.3.5-.5.8.7 4.3 1.3 8.6 2.1 12.9 0 .3-.1.6-.2.9-.7.8-1.5 1.6-2.2 2.4 2.6 0 5.1.1 7.7 0V33.1c.4-.6.8-.6 1.3-.1 0 .1.1.3.1.4 0 4.7.1 9.4 0 14.2h3.7c.1 0 .2-.1.3-.1.1-2.4.1-4.8.1-7.2.4-.7.9-.7 1.4-.1.1 2.5.1 5 0 7.6-.2.6-.6 1.1-1.2 1.3H19.6c-.5-.5-.5-.9 0-1.4 1.1 0 2.1-.1 3.2-.1-.7-.8-1.5-1.6-2.2-2.4-.2-.3-.3-.6-.2-.9l2.1-12.6c-.1-.4-.3-.7-.5-1-.7.6-1.3.6-2 0-.8-1.5-1.6-3-2.3-4.6-.1 0-.1-.1-.2-.1-1.6.6-3.3 1.2-4.9 1.9-1.6.8-2.6 2-2.9 3.8-.1 5.3-.1 10.5 0 15.8.1.1.2.2.3.2 1.2 0 2.5.1 3.7 0V33.5c.2-.7.6-.9 1.2-.6.1.1.2.2.2.3 0 4.8.1 9.6 0 14.5H17c.5.5.5.9 0 1.4H9.2c-.6-.2-1-.7-1.2-1.3-.1-5.4-.1-10.8 0-16.3.3-2 1.2-3.5 2.9-4.6.8-.4 1.6-.7 2.4-1.1 2.3-.9 4.7-1.8 7-2.6v-1.9c-1.4-1.1-2.3-2.6-2.6-4.4-2.3-.6-3.2-2.1-2.6-4.4.1-.3.3-.5.5-.8 0-1.5.1-2.9.2-4.4.8-4.2 3.3-6.5 7.3-7.3zm.2 1.5c3.2-.3 5.7.9 7.4 3.5.9 1.7 1.3 3.5 1.1 5.5-.2 0-.4 0-.5-.1 0-.3-.1-.5-.3-.8-.7-.7-1.4-1.5-2.1-2.2-.4-.3-.9-.4-1.4-.3-2.8 1.8-5.9 2.6-9.2 2.5-.4.2-.6.4-.8.8-.2.1-.4.1-.5.2-.5-3.4.7-6 3.4-8 .9-.6 1.9-.9 2.9-1.1zm4.5 7.2c.7.5 1.3 1.1 1.9 1.8.1 1.9.1 3.8 0 5.7-.5 2.9-2.3 4.5-5.2 4.7-2.8-.2-4.6-1.6-5.3-4.3-.2-1.9-.2-3.8-.2-5.6 3.2.1 6.1-.6 8.8-2.3zM17.4 12c.1.5.2 1 .2 1.5V15c-1.2-.5-1.5-1.3-1-2.5.2-.1.5-.3.8-.5zm13.8 0c.8.2 1.2.7 1.2 1.5s-.4 1.3-1.2 1.5v-3zm-9.4 10c1.8.6 3.6.6 5.4 0v1.2c-.9 1.1-1.7 2.1-2.6 3.2-.9-1-1.8-2.1-2.6-3.2-.2-.4-.2-.8-.2-1.2zm-1.3 2.5c.3 0 .5.2.6.4.7.9 1.4 1.8 2.2 2.7-.8.6-1.6 1.2-2.4 1.7-.7-1.3-1.4-2.7-2.1-4.1.6-.2 1.2-.5 1.7-.7zm7.5 0c.7.1 1.4.4 2 .8-.7 1.4-1.3 2.7-2.1 4-.8-.6-1.6-1.1-2.3-1.7.8-1.1 1.6-2.1 2.4-3.1zm-3.6 4.2c.5.3 1 .6 1.4 1-.2.2-.3.4-.5.7-.6.1-1.1.1-1.7 0-.2-.2-.3-.5-.5-.7.5-.4.9-.7 1.3-1zm-.6 3.2h1.3c.6 4 1.3 8 2 12.1-.2.3-.3.5-.5.8-.7.8-1.4 1.5-2.2 2.3-.8-.8-1.5-1.6-2.2-2.4-.2-.2-.3-.5-.4-.7.7-4.1 1.3-8.1 2-12.1z"/></g></svg><svg viewBox="0 0 49 49" xml:space="preserve" id="hall" xmlns="http://www.w3.org/2000/svg"><defs><path id="ea" d="M0 0h49v49H0z"/></defs><clipPath id="eb"><use xlink:href="#ea" overflow="visible"/></clipPath><g clip-path="url(#eb)" fill-rule="evenodd" clip-rule="evenodd"><path opacity=".941" d="M24.2 0h.6C32 3.6 39.2 7.4 46.5 11.2c1.1-.2 1.9.2 2.5 1v4.6c-.2.3-.4.6-.8.8-.7.1-1.4.2-2.1.1v2.2c-.3.9-.9 1.3-1.9 1.1v18.1c.7 0 1.2.3 1.5 1 .1.8.1 1.5.1 2.3H48c.4.2.8.5 1 .9v4.5c-.3.5-.7.9-1.2 1.1H37.5c-.5-.2-.7-.6-.5-1.1 0-.2.2-.3.3-.3 3.4 0 6.8-.1 10.2 0v-3.4H1.6v3.4h33c.2 0 .3.2.3.3.2.6 0 1-.5 1.1H1.3c-.6-.2-1-.5-1.2-1.1v-4.5c.2-.4.5-.7 1-.9.6 0 1.3-.1 1.9 0v-2.3c.3-.8 1-1.2 1.9-1.1V21.1c-1 .1-1.6-.2-1.9-1.1 0-.7-.1-1.5 0-2.2-.7 0-1.3 0-2-.1-.4-.2-.7-.5-.9-.9v-4.6c.5-.8 1.2-1.1 2.1-1C9.4 7.4 16.8 3.6 24.2 0zm0 1.6c.3 0 .7 0 1 .2 6 3.1 12 6.3 18 9.4-10 0-20 .1-30 .1-.4.2-.6.6-.4 1.1l.3.3c11.5 0 22.9.1 34.4 0v3.4H1.6v-3.4h8.9c.7-.5.6-1-.1-1.4-1.6 0-3.2-.1-4.8-.1l18.6-9.6zm0 3.4c1.4.1 1.9.8 1.4 2.1-.7.8-1.5.8-2.2 0-.5-1-.2-1.7.8-2.1zM4.4 17.8h7.7v1.8H4.4v-1.8zm9.1 0h21.8V20c.3.9.9 1.3 1.9 1.1v18.1c-.7 0-1.2.3-1.5 1-.1.8-.1 1.5-.1 2.3h-3.2V27.8c-.5-2.9-2.1-5-4.8-6.3-3.9-1.3-7.2-.4-9.8 2.8-.7 1-1.2 2.2-1.3 3.4 0 4.9-.1 9.8 0 14.7h-2.9v-2.2c-.3-.9-.9-1.3-1.9-1.2V21.1c.9.1 1.6-.3 1.9-1.1-.1-.8 0-1.5-.1-2.2zm23.4 0h7.7v1.8h-7.7v-1.8zM6.3 21.1h3.8V39H6.3V21.1zm32.5 0h3.8v18.1h-3.8V21.1zm-15 1.2c3.9 0 6.3 1.9 7.1 5.6 0 4.8.1 9.6 0 14.5h-13V27.9c.8-3.1 2.7-5 5.9-5.6zM4.5 40.5H12c.1.6.1 1.2.1 1.9H4.4c-.1-.6 0-1.2.1-1.9zm32.7.2h7.1v1.7h-7.1v-1.7z"/><path opacity=".925" d="M23.8 3.5c1.7-.2 2.9.6 3.5 2.2.2 1.8-.5 2.9-2.2 3.5-1.8.2-2.9-.5-3.5-2.2-.2-1.7.5-2.9 2.2-3.5zm.4 1.5c-1 .4-1.2 1.1-.8 2.1.7.8 1.5.8 2.2 0 .4-1.3 0-2-1.4-2.1z"/></g></svg><svg fill="none" viewBox="0 0 180 26" id="logo" xmlns="http://www.w3.org/2000/svg"><path d="M68.94 12.136a4.788 4.788 0 0 0-1.072-1.746 5.017 5.017 0 0 0-1.722-1.15 5.988 5.988 0 0 0-2.301-.418c-1.141 0-2.075.214-2.803.641a5.186 5.186 0 0 0-1.691 1.52l1.691 1.458c.258-.429.609-.795 1.027-1.07.439-.299 1.016-.448 1.733-.448.856 0 1.533.232 2.033.695.498.461.83 1.074.942 1.744h-4.811v1.673h4.814a2.94 2.94 0 0 1-.93 1.948c-.536.485-1.232.728-2.088.728a3.079 3.079 0 0 1-1.7-.46 3.354 3.354 0 0 1-1.082-1.06l-1.733 1.413a5.356 5.356 0 0 0 2.034 1.69c.78.348 1.627.524 2.481.514a5.79 5.79 0 0 0 2.216-.417 5.368 5.368 0 0 0 1.756-1.15 5.2 5.2 0 0 0 1.15-1.733 5.654 5.654 0 0 0 .418-2.184 6.48 6.48 0 0 0-.362-2.188ZM80.325 16.127a5.836 5.836 0 0 0-2.416-2.119l3.593-4.854h-2.825l-2.975 4.11a5.725 5.725 0 0 0-1.241-.129v-3.98h-2.57v10.354h2.567v-4.345a5.84 5.84 0 0 1 1.594.279c.46.154.882.401 1.24.726.396.371.716.815.943 1.307.301.649.523 1.331.66 2.033h2.824a11.535 11.535 0 0 0-1.394-3.382ZM91.519 16.64c-.253.323-.58.58-.954.748-.412.19-.86.286-1.314.28a3.105 3.105 0 0 1-1.284-.258 2.875 2.875 0 0 1-.986-.709 3.088 3.088 0 0 1-.622-1.063 3.891 3.891 0 0 1-.213-1.298 3.769 3.769 0 0 1 .225-1.315c.138-.39.348-.751.62-1.064.266-.302.594-.544.963-.708a3.036 3.036 0 0 1 1.274-.258c.437-.001.869.098 1.262.289.373.17.692.44.92.78l1.627-1.643a4.171 4.171 0 0 0-1.7-1.15 5.958 5.958 0 0 0-2.152-.406 6.352 6.352 0 0 0-2.269.396 5.141 5.141 0 0 0-1.798 1.122 5.259 5.259 0 0 0-1.176 1.734 5.622 5.622 0 0 0-.43 2.226c-.01.77.132 1.534.418 2.248a4.932 4.932 0 0 0 1.177 1.723c.52.487 1.13.865 1.798 1.113.73.27 1.502.405 2.28.396a5.81 5.81 0 0 0 2.237-.413c.624-.25 1.19-.63 1.658-1.113l-1.561-1.656ZM94.839 9.154V19.51h2.567v-8.326h4.389v8.326h2.567V9.154h-9.523ZM117.127 12.05a4.784 4.784 0 0 0-1.016-1.702 4.623 4.623 0 0 0-1.606-1.102 5.4 5.4 0 0 0-2.118-.396 5.664 5.664 0 0 0-2.137.396 5.118 5.118 0 0 0-2.882 2.867 5.818 5.818 0 0 0-.417 2.235c-.013.778.132 1.55.427 2.27.269.646.67 1.23 1.177 1.711.511.479 1.111.85 1.767 1.093a6.456 6.456 0 0 0 4.793-.164 5.116 5.116 0 0 0 1.972-1.659l-1.811-1.212c-.281.41-.655.747-1.091.986a3.29 3.29 0 0 1-1.67.407 3.077 3.077 0 0 1-1.151-.213 3.28 3.28 0 0 1-.951-.579 2.76 2.76 0 0 1-.674-.878 2.61 2.61 0 0 1-.28-1.091h8.005c.014-.128.021-.256.021-.385v-.37a6.54 6.54 0 0 0-.358-2.213Zm-7.651 1.294c.03-.347.12-.687.268-1.003a2.63 2.63 0 0 1 .609-.841c.264-.243.568-.436.899-.572.36-.148.746-.22 1.135-.215.856 0 1.51.251 1.959.754.454.519.702 1.187.695 1.877h-5.565ZM130.963 12.2a5.238 5.238 0 0 0-1.029-1.731 4.805 4.805 0 0 0-1.609-1.167 5.106 5.106 0 0 0-2.125-.427 4.52 4.52 0 0 0-2.081.481 3.955 3.955 0 0 0-1.502 1.292h-.066V9.154h-2.466v13.079h2.569v-4.137h.043c.379.549.902.982 1.512 1.252.622.29 1.299.439 1.984.439a5.051 5.051 0 0 0 2.137-.439 4.827 4.827 0 0 0 1.621-1.188 5.26 5.26 0 0 0 1.019-1.744c.239-.678.36-1.39.358-2.11a6.057 6.057 0 0 0-.365-2.106Zm-2.406 3.38c-.127.391-.327.754-.589 1.07-.263.31-.592.557-.963.722a3.164 3.164 0 0 1-1.348.268 3.015 3.015 0 0 1-1.285-.268 3.102 3.102 0 0 1-1.644-1.777 3.738 3.738 0 0 1-.225-1.295 3.657 3.657 0 0 1 .225-1.272c.143-.395.362-.76.643-1.072.277-.306.612-.553.986-.726a3.017 3.017 0 0 1 1.3-.268c.464-.01.924.081 1.348.268.371.167.7.416.963.726.262.318.462.681.589 1.072.272.827.272 1.72 0 2.546v.007ZM132.633 9.154v2.029h3.233v8.326h2.568v-8.326h3.361V9.154h-9.162ZM50.646 7.025h-1.703v15.119h1.703V7.025ZM2.612 19.976h7.533v2.312H0V7.134h9.824v2.312H2.612v3.945h6.757v2.198H2.612v4.387ZM12.842 7.134h5.329a8.922 8.922 0 0 1 1.776.182c.571.11 1.118.321 1.616.622a3.52 3.52 0 0 1 1.177 1.186c.308.5.461 1.135.46 1.905a3.157 3.157 0 0 1-.705 2.07 3.582 3.582 0 0 1-1.862 1.176v.045c.445.067.878.2 1.283.394a3.6 3.6 0 0 1 1.04.75c.296.316.528.686.683 1.091a3.896 3.896 0 0 1-1.433 4.678 5.539 5.539 0 0 1-1.825.797 9.126 9.126 0 0 1-2.215.258h-5.324V7.134Zm2.608 6.315h2.482c.343.001.684-.038 1.018-.119.302-.07.589-.198.845-.374.241-.171.44-.396.578-.658.15-.302.224-.637.214-.975 0-.71-.274-1.224-.822-1.54-.548-.315-1.25-.47-2.107-.465H15.45v4.13Zm0 6.633h2.418c.41.002.818-.038 1.22-.116.372-.069.73-.2 1.06-.387a2.2 2.2 0 0 0 .75-.716c.201-.335.301-.722.287-1.113 0-.813-.285-1.394-.856-1.744-.571-.35-1.348-.524-2.33-.524H15.45v4.6ZM29.515 18.523l7.447-11.388h3.123V22.29h-2.672V10.9h-.043L29.9 22.288h-3.108V7.134h2.675v11.389h.048Z" fill="#000"/><path d="m180 8.689-6.997 6.875s-1.839-1.885-4.681-4.748C173.94 7.42 180 8.689 180 8.689ZM172.091 16.73s-1.839-1.886-4.681-4.75c-1.818-1.827-4.031-4.053-6.45-6.442-6.187-6.126-14.563-4.376-14.563-4.376l8.587 8.585a9.892 9.892 0 0 1 2.894 6.986 9.87 9.87 0 0 1-2.894 6.985l-1.808 1.808s7.873 1.644 13.99-3.838l-.018-.018 2.934-2.936 2.009-2.005Z" fill="#01B055"/></svg><svg fill="none" viewBox="0 0 180 25" id="logo-white" xmlns="http://www.w3.org/2000/svg"><path d="M68.94 11.205a4.79 4.79 0 0 0-1.072-1.745 5.015 5.015 0 0 0-1.722-1.151 5.988 5.988 0 0 0-2.302-.417c-1.14 0-2.075.213-2.802.64a5.187 5.187 0 0 0-1.691 1.52l1.69 1.459c.258-.43.61-.795 1.028-1.07.438-.3 1.016-.449 1.733-.449.855 0 1.533.232 2.033.695.498.461.83 1.075.942 1.744h-4.811v1.674h4.814a2.94 2.94 0 0 1-.93 1.947c-.536.486-1.232.728-2.088.728a3.079 3.079 0 0 1-1.701-.46 3.356 3.356 0 0 1-1.081-1.06l-1.733 1.414a5.355 5.355 0 0 0 2.033 1.69c.78.348 1.627.523 2.482.514a5.787 5.787 0 0 0 2.216-.418 5.369 5.369 0 0 0 1.755-1.15 5.198 5.198 0 0 0 1.15-1.733 5.65 5.65 0 0 0 .418-2.184 6.48 6.48 0 0 0-.361-2.188ZM80.325 15.195a5.836 5.836 0 0 0-2.416-2.119l3.593-4.853h-2.825l-2.975 4.109a5.713 5.713 0 0 0-1.241-.128V8.223h-2.57v10.355h2.566v-4.346a5.84 5.84 0 0 1 1.595.28c.459.153.881.4 1.24.726.396.37.716.814.942 1.306.302.65.524 1.332.661 2.034h2.824a11.536 11.536 0 0 0-1.394-3.383ZM91.519 15.71c-.253.322-.58.579-.954.748-.412.19-.861.285-1.315.28a3.105 3.105 0 0 1-1.283-.259 2.872 2.872 0 0 1-.987-.708 3.088 3.088 0 0 1-.62-1.064 3.893 3.893 0 0 1-.215-1.298 3.768 3.768 0 0 1 .226-1.315c.138-.39.348-.75.62-1.063.266-.303.594-.545.962-.709a3.035 3.035 0 0 1 1.274-.258c.438 0 .87.098 1.263.29.373.169.692.44.92.78l1.627-1.644a4.171 4.171 0 0 0-1.7-1.15 5.959 5.959 0 0 0-2.153-.406 6.35 6.35 0 0 0-2.268.396 5.141 5.141 0 0 0-1.798 1.123 5.26 5.26 0 0 0-1.177 1.734 5.62 5.62 0 0 0-.429 2.225c-.01.77.131 1.534.418 2.249a4.932 4.932 0 0 0 1.177 1.722 5.36 5.36 0 0 0 1.798 1.113 6.33 6.33 0 0 0 2.28.396 5.808 5.808 0 0 0 2.237-.412c.624-.251 1.19-.63 1.658-1.113l-1.561-1.657ZM94.839 8.223v10.355h2.567V10.25h4.389v8.327h2.567V8.223h-9.523ZM117.127 11.119a4.784 4.784 0 0 0-1.016-1.703 4.624 4.624 0 0 0-1.606-1.101 5.4 5.4 0 0 0-2.118-.396 5.664 5.664 0 0 0-2.137.396 5.118 5.118 0 0 0-2.882 2.866 5.819 5.819 0 0 0-.417 2.236c-.013.777.132 1.55.427 2.27.269.646.67 1.229 1.177 1.71.511.479 1.111.85 1.767 1.094a6.457 6.457 0 0 0 4.793-.165 5.115 5.115 0 0 0 1.972-1.658l-1.811-1.213c-.281.41-.655.747-1.091.986a3.288 3.288 0 0 1-1.67.408 3.076 3.076 0 0 1-1.151-.214 3.283 3.283 0 0 1-.951-.579 2.762 2.762 0 0 1-.674-.877 2.61 2.61 0 0 1-.28-1.092h8.005a3.53 3.53 0 0 0 .021-.384v-.37a6.539 6.539 0 0 0-.358-2.214Zm-7.651 1.293c.03-.347.12-.686.268-1.002.145-.318.352-.604.609-.842a3.03 3.03 0 0 1 .899-.572c.36-.147.746-.22 1.135-.215.856 0 1.51.251 1.959.754.454.52.702 1.188.695 1.877h-5.565ZM130.964 11.27a5.256 5.256 0 0 0-1.029-1.732 4.825 4.825 0 0 0-1.609-1.167 5.11 5.11 0 0 0-2.126-.427 4.523 4.523 0 0 0-2.081.482 3.955 3.955 0 0 0-1.502 1.291h-.066V8.223h-2.465v13.079h2.569v-4.137h.043c.379.549.902.982 1.512 1.252.621.29 1.298.44 1.984.44a5.055 5.055 0 0 0 2.137-.44 4.834 4.834 0 0 0 1.62-1.188c.45-.51.796-1.102 1.019-1.744.24-.677.361-1.39.359-2.109a6.08 6.08 0 0 0-.365-2.107Zm-2.407 3.38c-.126.39-.326.754-.588 1.07-.263.31-.592.556-.963.722a3.168 3.168 0 0 1-1.348.268 3.081 3.081 0 0 1-2.929-2.045 3.715 3.715 0 0 1-.225-1.295 3.657 3.657 0 0 1 .225-1.272c.143-.396.361-.76.643-1.072.276-.306.612-.553.986-.727a3.014 3.014 0 0 1 1.3-.268c.463-.01.924.081 1.348.268.371.168.7.416.963.727.262.317.461.68.588 1.072.272.826.272 1.719 0 2.545v.007ZM132.633 8.223v2.028h3.233v8.327h2.567V10.25h3.362V8.223h-9.162ZM50.646 6.094h-1.703v15.118h1.703V6.094ZM2.612 19.045h7.533v2.313H0V6.203h9.824v2.313H2.612v3.944h6.757v2.198H2.612v4.387ZM12.842 6.203h5.329a8.921 8.921 0 0 1 1.776.183c.571.11 1.118.32 1.616.62a3.52 3.52 0 0 1 1.177 1.188c.308.5.461 1.134.46 1.905a3.157 3.157 0 0 1-.705 2.069 3.582 3.582 0 0 1-1.862 1.177v.044c.445.067.878.2 1.283.395.389.185.74.44 1.04.75.296.315.528.686.683 1.09a3.895 3.895 0 0 1-1.433 4.678 5.541 5.541 0 0 1-1.825.798 9.13 9.13 0 0 1-2.215.258h-5.324V6.203Zm2.608 6.315h2.482c.343.002.684-.038 1.018-.118.302-.071.589-.198.845-.375.241-.17.44-.396.578-.658.15-.302.224-.637.214-.974 0-.711-.274-1.225-.822-1.54-.548-.316-1.25-.47-2.107-.465H15.45v4.13Zm0 6.634h2.418c.41 0 .818-.038 1.22-.117.372-.069.73-.2 1.06-.386.303-.176.56-.422.75-.717a2.02 2.02 0 0 0 .287-1.112c0-.814-.285-1.395-.856-1.744-.571-.35-1.348-.525-2.33-.525H15.45v4.6ZM29.515 17.592l7.448-11.387h3.123v15.154h-2.673V9.97h-.042L29.9 21.358h-3.109V6.203h2.676v11.389h.047Z" fill="#fff"/><path d="m180 7.759-6.997 6.875s-1.839-1.885-4.681-4.748C173.94 6.492 180 7.759 180 7.759ZM172.091 15.799s-1.839-1.886-4.681-4.75c-1.818-1.827-4.03-4.052-6.45-6.442C154.774-1.52 146.397.232 146.397.232l8.587 8.584a9.876 9.876 0 0 1 0 13.971l-1.808 1.808s7.873 1.644 13.991-3.837l-.018-.019 2.934-2.935 2.008-2.005Z" fill="#01B055"/></svg><svg viewBox="0 0 20 16" xml:space="preserve" id="okey" xmlns="http://www.w3.org/2000/svg"><path d="M17.5.3c-.5.1-.2-.2-5.6 5.2l-5 5-1.8-2C3 6.5 3 6.5 2.5 6.4H2c-.4.1-.6.2-1.2.8-.4.4-.5.6-.7.8-.1.2-.1.3-.1.6s0 .4.1.6c.1.2.3.4 3.1 3.3 2.2 2.2 3.1 3 3.2 3.1.3.2.7.2.9 0 .1-.1 1.7-1.6 6.3-6.2 5.8-5.8 6.1-6.1 6.2-6.3.2-.2.2-.3.2-.6 0-.5-.1-.7-.7-1.3-.5-.5-.7-.7-1-.8-.2-.1-.6-.2-.8-.1z"/></svg><svg viewBox="0 0 19 19" xml:space="preserve" id="open-icon" xmlns="http://www.w3.org/2000/svg"><defs><path id="ia" d="M.7.7h18v18H.7z"/></defs><clipPath id="ib"><use xlink:href="#ia" overflow="visible"/></clipPath><g clip-path="url(#ib)"><path opacity=".985" fill-rule="evenodd" clip-rule="evenodd" d="M9.4.7h.6c.6.2 1 .6 1.1 1.2v6.3h6.3c.6.1 1.1.5 1.2 1.1v.6c-.2.6-.6 1-1.2 1.1h-6.3v6.3c-.1.6-.5 1.1-1.1 1.2h-.6c-.6-.2-1-.6-1.1-1.2V11H2c-.7 0-1.1-.4-1.3-1v-.6c.2-.6.6-1 1.2-1.1h6.3V2c.2-.7.6-1.1 1.2-1.3z"/></g></svg><svg viewBox="0 0 18 15" xml:space="preserve" id="telegram" xmlns="http://www.w3.org/2000/svg"><path d="M16.5.1c-.1 0-1.8.7-3.8 1.5-2 .8-5.4 2.1-7.6 3C2.9 5.4 1 6.1.9 6.2c-.2.1-.4.3-.4.4-.1.2.1.5.4.7.2.1 3.9 1.4 4 1.4 0 0 2.2-1.4 4.9-3.1 2.6-1.7 4.9-3.1 4.9-3.1h.3c.1.2.3 0-5.8 5.4-1.9 1.7-2 1.8-2 1.9 0 0 1.4 1.1 3.1 2.4 2.3 1.7 3.1 2.3 3.2 2.4.2.1.5.1.7 0 .2-.1.4-.3.5-.4 0-.1 2.7-13.6 2.7-13.7 0-.1-.1-.3-.2-.4-.1-.1-.4-.1-.7 0z"/></svg><svg viewBox="0 0 18 18" xml:space="preserve" id="whatsapp" xmlns="http://www.w3.org/2000/svg"><path d="M8.4.9c-1.2.1-2.2.4-3.2.9-1.5.8-2.7 2-3.5 3.6-.3.6-.4.9-.6 1.5-.2.7-.2 1.2-.3 2v1c.2 1.3.6 2.4 1.3 3.5l.2.4-.5 1.5c-.3.8-.5 1.5-.5 1.5s.7-.2 1.5-.5 1.5-.5 1.6-.5c0 0 .1.1.3.2.1.1.5.3.7.4 2.1 1 4.4 1.1 6.5.2 2.4-.9 4.2-3 4.9-5.5.2-.8.2-1.2.2-2.1s0-1.3-.2-2.1C16 4 13.7 1.7 10.7 1c-.5-.1-1-.2-1.6-.2-.3.1-.6.1-.7.1zm-2 3.7c.1 0 .1.1.2.2.1.2.9 2.1.9 2.2 0 .1-.1.4-.4.7-.4.4-.4.5-.4.6.1.3.8 1.3 1.2 1.7.7.7 1.8 1.3 2.2 1.3.2 0 .3-.1.7-.5.2-.2.3-.5.4-.5.1-.1.3-.1.5-.1.3.1 1.9.9 2 1l.1.1v.3c0 .9-.4 1.3-1.2 1.7-.8.4-1.4.4-2.5 0-1.6-.5-2.4-1.1-3.5-2.2-.6-.6-1-1-1.4-1.7-.8-1.1-1-1.9-1-2.8.1-.7.3-1.2.8-1.7.2-.2.5-.3 1-.3h.4z"/></svg></svg>