<?xml version="1.0" encoding="utf-8"?><svg viewBox="0 0 19 19" xmlns="http://www.w3.org/2000/svg" xmlns:xlink="http://www.w3.org/1999/xlink"><style>:root>svg{display:none}:root>svg:target{display:block}</style><svg data-name="Слой 1" viewBox="0 0 13.6 13.6" id="close-icon" xmlns="http://www.w3.org/2000/svg"><defs><clipPath id="aa" transform="translate(-5.9 -6.2)"><path transform="rotate(-45 12.733 12.996)" fill="none" d="M3.73 4h18v18h-18z"/></clipPath></defs><g clip-path="url(#aa)"><path d="m6.12 6.86.44-.45a1.48 1.48 0 0 1 1.66.09c1.5 1.48 3 3 4.48 4.46l4.49-4.46a1.47 1.47 0 0 1 1.65-.09l.45.45a1.48 1.48 0 0 1-.08 1.65c-1.48 1.51-3 3-4.47 4.49 1.5 1.49 3 3 4.47 4.49a1.48 1.48 0 0 1 .08 1.65l-.45.45a1.47 1.47 0 0 1-1.65-.09L12.7 15c-1.48 1.49-3 3-4.48 4.46a1.48 1.48 0 0 1-1.66.09l-.44-.45a1.48 1.48 0 0 1 .08-1.65c1.48-1.51 3-3 4.47-4.49-1.5-1.49-3-3-4.47-4.49a1.48 1.48 0 0 1-.08-1.61Z" transform="translate(-5.9 -6.2)" fill="#fff" fill-rule="evenodd" opacity=".99" style="isolation:isolate"/></g></svg><svg fill="none" viewBox="0 0 19 19" id="open-icon" xmlns="http://www.w3.org/2000/svg"><g clip-path="url(#ba)"><path opacity=".985" fill-rule="evenodd" clip-rule="evenodd" d="M9.395.71h.632c.62.181.989.591 1.108 1.231.017 2.11.023 4.22.017 6.329 2.11-.006 4.22 0 6.329.017.64.119 1.05.488 1.23 1.108v.632c-.18.62-.59.989-1.23 1.108-2.11.017-4.22.023-6.329.017.006 2.11 0 4.22-.017 6.329-.12.64-.488 1.05-1.108 1.23h-.632c-.62-.18-.99-.59-1.108-1.23-.017-2.11-.023-4.22-.017-6.329-2.11.006-4.22 0-6.329-.017-.64-.12-1.05-.488-1.23-1.108v-.632c.18-.62.59-.99 1.23-1.108 2.11-.017 4.22-.023 6.329-.017-.006-2.11 0-4.22.017-6.329.119-.64.488-1.05 1.108-1.23Z" fill="#01B055"/></g><defs><clipPath id="ba"><path fill="#fff" transform="translate(.729 .729)" d="M0 0h18v18H0z"/></clipPath></defs></svg></svg>